G04 #@! TF.GenerationSoftware,KiCad,Pcbnew,(5.1.6)-1*
G04 #@! TF.CreationDate,2021-02-18T21:14:00+09:00*
G04 #@! TF.ProjectId,guardianCam_Wifi,67756172-6469-4616-9e43-616d5f576966,rev?*
G04 #@! TF.SameCoordinates,Original*
G04 #@! TF.FileFunction,Copper,L3,Inr*
G04 #@! TF.FilePolarity,Positive*
%FSLAX46Y46*%
G04 Gerber Fmt 4.6, Leading zero omitted, Abs format (unit mm)*
G04 Created by KiCad (PCBNEW (5.1.6)-1) date 2021-02-18 21:14:00*
%MOMM*%
%LPD*%
G01*
G04 APERTURE LIST*
G04 #@! TA.AperFunction,ViaPad*
%ADD10C,1.000000*%
G04 #@! TD*
G04 #@! TA.AperFunction,ViaPad*
%ADD11R,1.000000X1.000000*%
G04 #@! TD*
G04 #@! TA.AperFunction,ViaPad*
%ADD12O,3.200000X1.600000*%
G04 #@! TD*
G04 #@! TA.AperFunction,ViaPad*
%ADD13C,0.450000*%
G04 #@! TD*
G04 #@! TA.AperFunction,ViaPad*
%ADD14C,1.500000*%
G04 #@! TD*
G04 #@! TA.AperFunction,ViaPad*
%ADD15C,0.600000*%
G04 #@! TD*
G04 #@! TA.AperFunction,Conductor*
%ADD16C,0.200000*%
G04 #@! TD*
G04 #@! TA.AperFunction,Conductor*
%ADD17C,0.250000*%
G04 #@! TD*
G04 #@! TA.AperFunction,Conductor*
%ADD18C,0.100000*%
G04 #@! TD*
G04 #@! TA.AperFunction,Conductor*
%ADD19C,0.254000*%
G04 #@! TD*
G04 APERTURE END LIST*
D10*
X127950000Y-88770000D03*
D11*
X125930000Y-88740000D03*
D12*
X135460000Y-97950000D03*
X135460000Y-86550000D03*
D13*
X88450000Y-92340000D03*
X88100000Y-97110000D03*
D14*
X82400000Y-85250000D03*
X82400000Y-99250000D03*
D13*
X98030000Y-99080000D03*
X94400000Y-99080000D03*
X99400000Y-94250000D03*
X129300000Y-97330000D03*
X83940000Y-91970000D03*
X88100000Y-84410000D03*
X88100000Y-86950000D03*
X101810000Y-84580000D03*
X101810000Y-89660000D03*
X101930000Y-95020000D03*
X96880000Y-87140000D03*
X96880000Y-89680000D03*
X96770000Y-94700000D03*
X96880000Y-84600000D03*
X90700000Y-91870000D03*
X90700000Y-86790000D03*
X90700000Y-89330000D03*
X83950000Y-100280000D03*
X127300000Y-97830000D03*
X127800000Y-98330000D03*
X128800000Y-97830000D03*
X88845000Y-84005000D03*
X90700000Y-84250000D03*
X92840000Y-99420000D03*
D15*
X103280000Y-98310000D03*
D13*
X129320000Y-94030000D03*
X129300000Y-95020000D03*
X124080000Y-98900000D03*
X122310000Y-97830000D03*
X84580000Y-97280000D03*
X109740000Y-98070000D03*
X114015000Y-86680000D03*
X118990000Y-86070000D03*
X123140000Y-85080000D03*
X117290000Y-97380000D03*
X101770000Y-85920000D03*
X117510000Y-86700000D03*
X116070000Y-93300000D03*
X115480000Y-93300000D03*
X98550000Y-89990000D03*
D15*
X111590000Y-87050000D03*
D13*
X129220000Y-84370000D03*
X129220000Y-84980000D03*
X128680000Y-84370000D03*
X128910000Y-87720000D03*
X128910000Y-86750000D03*
X127550000Y-87710000D03*
X128680000Y-84970000D03*
X122364728Y-97282717D03*
X111630000Y-97950000D03*
X128778000Y-100330000D03*
X93160000Y-84210000D03*
X96900000Y-91760000D03*
X90700000Y-94410000D03*
X127300000Y-98330000D03*
X127300000Y-97330000D03*
X127300000Y-96830000D03*
X125690000Y-99770000D03*
X125860000Y-95560000D03*
X124990000Y-98790000D03*
X119020000Y-87140000D03*
X109300000Y-100010000D03*
X113960000Y-93730000D03*
X113970000Y-94260000D03*
X113410000Y-93710000D03*
X113420000Y-94260000D03*
X112900000Y-93710000D03*
X112890000Y-94260000D03*
X119740000Y-87150000D03*
X107420000Y-99980000D03*
X105127940Y-92889970D03*
X101320000Y-100240000D03*
D15*
X116150000Y-97510000D03*
X101780000Y-91940000D03*
D13*
X107320000Y-85540000D03*
X87340000Y-96470000D03*
D15*
X90740000Y-93000000D03*
D13*
X113045000Y-86680000D03*
X92990000Y-100710000D03*
X86100000Y-100420000D03*
X122396896Y-98373104D03*
X116374992Y-86700000D03*
X124110000Y-85080000D03*
X99080000Y-91800000D03*
X86110000Y-86550000D03*
X132970000Y-84870000D03*
X132970000Y-85530000D03*
X133600000Y-84870000D03*
X133610000Y-85530000D03*
X132970000Y-86170000D03*
X132055000Y-97460000D03*
X131620000Y-87120000D03*
X132040000Y-98580000D03*
X133020000Y-97460000D03*
X133020000Y-98590000D03*
X102070000Y-93590000D03*
X103550000Y-93000000D03*
D15*
X100680000Y-96910000D03*
X102820000Y-90690000D03*
X105240000Y-86380000D03*
D13*
X112070000Y-88690000D03*
X122240000Y-88700000D03*
X104490000Y-97360000D03*
X107220000Y-99010000D03*
X116490000Y-94980000D03*
X110760000Y-94870000D03*
X121150000Y-86630000D03*
X110680000Y-92720000D03*
X120000000Y-90600000D03*
X104090000Y-92290000D03*
X111700000Y-92720000D03*
X104200000Y-91470000D03*
X104510000Y-90660000D03*
X110900000Y-87720000D03*
X110070000Y-87680000D03*
X104330000Y-87970000D03*
X109680000Y-86040000D03*
X105290000Y-87830000D03*
X93340000Y-91590000D03*
X91840000Y-92960000D03*
X114680000Y-98010000D03*
X95258653Y-90708406D03*
X96580000Y-90710000D03*
X114565000Y-98670000D03*
X84480000Y-96240000D03*
X91650000Y-96270000D03*
X121670000Y-89710000D03*
X112950000Y-97550000D03*
X115310000Y-96690000D03*
X127800000Y-97330000D03*
X125070000Y-92140000D03*
X127800000Y-96830000D03*
X130290000Y-94020000D03*
X109280000Y-98980000D03*
X112920000Y-98330000D03*
X110410000Y-95870000D03*
X118910000Y-95980000D03*
X126680000Y-100260000D03*
X127800000Y-98830000D03*
X122820000Y-99490000D03*
X117760000Y-95340000D03*
X123520000Y-99280000D03*
X118790000Y-94770000D03*
X125220000Y-96370000D03*
X120530000Y-93280000D03*
X126800000Y-98330000D03*
X122430000Y-92925000D03*
X125030000Y-94440000D03*
X126800000Y-96830000D03*
X121830000Y-92220000D03*
X125490000Y-93990000D03*
X121850000Y-90330000D03*
X125350000Y-93260000D03*
X121160000Y-92870000D03*
X126800000Y-97830000D03*
X125640000Y-97350000D03*
X125110000Y-90370000D03*
X122380000Y-86110000D03*
X128300000Y-98330000D03*
X119410000Y-93850000D03*
X118700000Y-94060000D03*
X128800000Y-98330000D03*
X117270000Y-96460000D03*
X122830000Y-100350000D03*
X98370000Y-86880000D03*
X113520000Y-88980000D03*
X130260000Y-95870000D03*
X128860000Y-85620000D03*
X128300000Y-96330000D03*
X127800000Y-96330000D03*
X96660000Y-89020000D03*
X108990000Y-84280000D03*
X97970000Y-100540000D03*
X130000000Y-85750000D03*
X108315000Y-97830000D03*
X90420000Y-99870000D03*
X87100000Y-95950000D03*
X103740000Y-94540000D03*
X95330000Y-95574990D03*
X109720000Y-92310000D03*
X86290000Y-88880000D03*
D16*
X103480000Y-85060000D02*
X98550000Y-89990000D01*
X111545000Y-87005000D02*
X109600000Y-85060000D01*
X109600000Y-85060000D02*
X103480000Y-85060000D01*
X102070000Y-93590000D02*
X102470000Y-93190000D01*
X102660000Y-93000000D02*
X102470000Y-93190000D01*
X103550000Y-93000000D02*
X102660000Y-93000000D01*
D17*
X102570000Y-94820000D02*
X102070000Y-94320000D01*
X102070000Y-94320000D02*
X102070000Y-93590000D01*
X100680000Y-96910000D02*
X102400000Y-96910000D01*
X102570000Y-96740000D02*
X102570000Y-94820000D01*
X102400000Y-96910000D02*
X102570000Y-96740000D01*
D18*
X103740000Y-97150000D02*
X103390000Y-97500000D01*
X103390000Y-97500000D02*
X97255010Y-97500000D01*
X97255010Y-97500000D02*
X95330000Y-95574990D01*
X103740000Y-94540000D02*
X103740000Y-97150000D01*
D19*
G36*
X124500010Y-94059616D02*
G01*
X124452205Y-94131162D01*
X124403056Y-94249819D01*
X124378000Y-94375784D01*
X124378000Y-94504216D01*
X124403056Y-94630181D01*
X124452205Y-94748838D01*
X124523558Y-94855626D01*
X124614374Y-94946442D01*
X124721162Y-95017795D01*
X124839819Y-95066944D01*
X124965784Y-95092000D01*
X125094216Y-95092000D01*
X125220181Y-95066944D01*
X125338838Y-95017795D01*
X125410384Y-94969990D01*
X125863095Y-95422701D01*
X125864630Y-96268735D01*
X125846944Y-96179819D01*
X125797795Y-96061162D01*
X125726442Y-95954374D01*
X125635626Y-95863558D01*
X125528838Y-95792205D01*
X125410181Y-95743056D01*
X125284216Y-95718000D01*
X125155784Y-95718000D01*
X125029819Y-95743056D01*
X124911162Y-95792205D01*
X124804374Y-95863558D01*
X124713558Y-95954374D01*
X124642205Y-96061162D01*
X124593056Y-96179819D01*
X124568000Y-96305784D01*
X124568000Y-96434216D01*
X124593056Y-96560181D01*
X124642205Y-96678838D01*
X124713558Y-96785626D01*
X124804374Y-96876442D01*
X124911162Y-96947795D01*
X125029819Y-96996944D01*
X125084485Y-97007818D01*
X125062205Y-97041162D01*
X125013056Y-97159819D01*
X124988000Y-97285784D01*
X124988000Y-97414216D01*
X125013056Y-97540181D01*
X125062205Y-97658838D01*
X125133558Y-97765626D01*
X125224374Y-97856442D01*
X125331162Y-97927795D01*
X125449819Y-97976944D01*
X125575784Y-98002000D01*
X125704216Y-98002000D01*
X125830181Y-97976944D01*
X125867703Y-97961402D01*
X125872769Y-100753000D01*
X123344878Y-100753000D01*
X123407795Y-100658838D01*
X123456944Y-100540181D01*
X123482000Y-100414216D01*
X123482000Y-100285784D01*
X123456944Y-100159819D01*
X123407795Y-100041162D01*
X123336442Y-99934374D01*
X123317068Y-99915000D01*
X123326442Y-99905626D01*
X123326484Y-99905563D01*
X123329819Y-99906944D01*
X123455784Y-99932000D01*
X123584216Y-99932000D01*
X123710181Y-99906944D01*
X123828838Y-99857795D01*
X123935626Y-99786442D01*
X124026442Y-99695626D01*
X124097795Y-99588838D01*
X124113054Y-99552000D01*
X124144216Y-99552000D01*
X124270181Y-99526944D01*
X124388838Y-99477795D01*
X124495626Y-99406442D01*
X124586442Y-99315626D01*
X124657795Y-99208838D01*
X124706944Y-99090181D01*
X124732000Y-98964216D01*
X124732000Y-98835784D01*
X124706944Y-98709819D01*
X124657795Y-98591162D01*
X124586442Y-98484374D01*
X124495626Y-98393558D01*
X124388838Y-98322205D01*
X124270181Y-98273056D01*
X124144216Y-98248000D01*
X124015784Y-98248000D01*
X123889819Y-98273056D01*
X123771162Y-98322205D01*
X123664374Y-98393558D01*
X123573558Y-98484374D01*
X123502205Y-98591162D01*
X123486946Y-98628000D01*
X123455784Y-98628000D01*
X123329819Y-98653056D01*
X123211162Y-98702205D01*
X123104374Y-98773558D01*
X123013558Y-98864374D01*
X123013516Y-98864437D01*
X123010181Y-98863056D01*
X122884216Y-98838000D01*
X122784693Y-98838000D01*
X122784060Y-98278008D01*
X122816442Y-98245626D01*
X122887795Y-98138838D01*
X122936944Y-98020181D01*
X122962000Y-97894216D01*
X122962000Y-97765784D01*
X122936944Y-97639819D01*
X122926738Y-97615179D01*
X122942523Y-97591555D01*
X122991672Y-97472898D01*
X123016728Y-97346933D01*
X123016728Y-97218501D01*
X122991672Y-97092536D01*
X122942523Y-96973879D01*
X122871170Y-96867091D01*
X122782366Y-96778287D01*
X122778634Y-93476204D01*
X122845626Y-93431442D01*
X122936442Y-93340626D01*
X123007795Y-93233838D01*
X123056944Y-93115181D01*
X123082000Y-92989216D01*
X123082000Y-92860784D01*
X123056944Y-92734819D01*
X123007795Y-92616162D01*
X122936442Y-92509374D01*
X122845626Y-92418558D01*
X122777388Y-92372963D01*
X122777347Y-92336953D01*
X124500010Y-94059616D01*
G37*
X124500010Y-94059616D02*
X124452205Y-94131162D01*
X124403056Y-94249819D01*
X124378000Y-94375784D01*
X124378000Y-94504216D01*
X124403056Y-94630181D01*
X124452205Y-94748838D01*
X124523558Y-94855626D01*
X124614374Y-94946442D01*
X124721162Y-95017795D01*
X124839819Y-95066944D01*
X124965784Y-95092000D01*
X125094216Y-95092000D01*
X125220181Y-95066944D01*
X125338838Y-95017795D01*
X125410384Y-94969990D01*
X125863095Y-95422701D01*
X125864630Y-96268735D01*
X125846944Y-96179819D01*
X125797795Y-96061162D01*
X125726442Y-95954374D01*
X125635626Y-95863558D01*
X125528838Y-95792205D01*
X125410181Y-95743056D01*
X125284216Y-95718000D01*
X125155784Y-95718000D01*
X125029819Y-95743056D01*
X124911162Y-95792205D01*
X124804374Y-95863558D01*
X124713558Y-95954374D01*
X124642205Y-96061162D01*
X124593056Y-96179819D01*
X124568000Y-96305784D01*
X124568000Y-96434216D01*
X124593056Y-96560181D01*
X124642205Y-96678838D01*
X124713558Y-96785626D01*
X124804374Y-96876442D01*
X124911162Y-96947795D01*
X125029819Y-96996944D01*
X125084485Y-97007818D01*
X125062205Y-97041162D01*
X125013056Y-97159819D01*
X124988000Y-97285784D01*
X124988000Y-97414216D01*
X125013056Y-97540181D01*
X125062205Y-97658838D01*
X125133558Y-97765626D01*
X125224374Y-97856442D01*
X125331162Y-97927795D01*
X125449819Y-97976944D01*
X125575784Y-98002000D01*
X125704216Y-98002000D01*
X125830181Y-97976944D01*
X125867703Y-97961402D01*
X125872769Y-100753000D01*
X123344878Y-100753000D01*
X123407795Y-100658838D01*
X123456944Y-100540181D01*
X123482000Y-100414216D01*
X123482000Y-100285784D01*
X123456944Y-100159819D01*
X123407795Y-100041162D01*
X123336442Y-99934374D01*
X123317068Y-99915000D01*
X123326442Y-99905626D01*
X123326484Y-99905563D01*
X123329819Y-99906944D01*
X123455784Y-99932000D01*
X123584216Y-99932000D01*
X123710181Y-99906944D01*
X123828838Y-99857795D01*
X123935626Y-99786442D01*
X124026442Y-99695626D01*
X124097795Y-99588838D01*
X124113054Y-99552000D01*
X124144216Y-99552000D01*
X124270181Y-99526944D01*
X124388838Y-99477795D01*
X124495626Y-99406442D01*
X124586442Y-99315626D01*
X124657795Y-99208838D01*
X124706944Y-99090181D01*
X124732000Y-98964216D01*
X124732000Y-98835784D01*
X124706944Y-98709819D01*
X124657795Y-98591162D01*
X124586442Y-98484374D01*
X124495626Y-98393558D01*
X124388838Y-98322205D01*
X124270181Y-98273056D01*
X124144216Y-98248000D01*
X124015784Y-98248000D01*
X123889819Y-98273056D01*
X123771162Y-98322205D01*
X123664374Y-98393558D01*
X123573558Y-98484374D01*
X123502205Y-98591162D01*
X123486946Y-98628000D01*
X123455784Y-98628000D01*
X123329819Y-98653056D01*
X123211162Y-98702205D01*
X123104374Y-98773558D01*
X123013558Y-98864374D01*
X123013516Y-98864437D01*
X123010181Y-98863056D01*
X122884216Y-98838000D01*
X122784693Y-98838000D01*
X122784060Y-98278008D01*
X122816442Y-98245626D01*
X122887795Y-98138838D01*
X122936944Y-98020181D01*
X122962000Y-97894216D01*
X122962000Y-97765784D01*
X122936944Y-97639819D01*
X122926738Y-97615179D01*
X122942523Y-97591555D01*
X122991672Y-97472898D01*
X123016728Y-97346933D01*
X123016728Y-97218501D01*
X122991672Y-97092536D01*
X122942523Y-96973879D01*
X122871170Y-96867091D01*
X122782366Y-96778287D01*
X122778634Y-93476204D01*
X122845626Y-93431442D01*
X122936442Y-93340626D01*
X123007795Y-93233838D01*
X123056944Y-93115181D01*
X123082000Y-92989216D01*
X123082000Y-92860784D01*
X123056944Y-92734819D01*
X123007795Y-92616162D01*
X122936442Y-92509374D01*
X122845626Y-92418558D01*
X122777388Y-92372963D01*
X122777347Y-92336953D01*
X124500010Y-94059616D01*
G36*
X108638120Y-83851234D02*
G01*
X108561234Y-83928120D01*
X108500824Y-84018530D01*
X108459213Y-84118988D01*
X108438000Y-84225633D01*
X108438000Y-84334367D01*
X108459213Y-84441012D01*
X108500824Y-84541470D01*
X108561234Y-84631880D01*
X108562354Y-84633000D01*
X103500967Y-84633000D01*
X103480000Y-84630935D01*
X103459033Y-84633000D01*
X103459022Y-84633000D01*
X103396293Y-84639178D01*
X103315804Y-84663595D01*
X103301071Y-84671470D01*
X103241623Y-84703245D01*
X103192899Y-84743232D01*
X103192895Y-84743236D01*
X103176605Y-84756605D01*
X103163236Y-84772895D01*
X102264573Y-85671559D01*
X102259176Y-85658530D01*
X102198766Y-85568120D01*
X102121880Y-85491234D01*
X102031470Y-85430824D01*
X101931012Y-85389213D01*
X101824367Y-85368000D01*
X101715633Y-85368000D01*
X101608988Y-85389213D01*
X101508530Y-85430824D01*
X101418120Y-85491234D01*
X101341234Y-85568120D01*
X101280824Y-85658530D01*
X101239213Y-85758988D01*
X101218000Y-85865633D01*
X101218000Y-85974367D01*
X101239213Y-86081012D01*
X101280824Y-86181470D01*
X101341234Y-86271880D01*
X101418120Y-86348766D01*
X101508530Y-86409176D01*
X101521559Y-86414573D01*
X98498132Y-89438000D01*
X98495633Y-89438000D01*
X98388988Y-89459213D01*
X98288530Y-89500824D01*
X98198120Y-89561234D01*
X98121234Y-89638120D01*
X98060824Y-89728530D01*
X98019213Y-89828988D01*
X97998000Y-89935633D01*
X97998000Y-90044367D01*
X98019213Y-90151012D01*
X98060824Y-90251470D01*
X98121234Y-90341880D01*
X98198120Y-90418766D01*
X98288530Y-90479176D01*
X98388988Y-90520787D01*
X98495633Y-90542000D01*
X98604367Y-90542000D01*
X98711012Y-90520787D01*
X98811470Y-90479176D01*
X98901880Y-90418766D01*
X98978766Y-90341880D01*
X99039176Y-90251470D01*
X99080787Y-90151012D01*
X99102000Y-90044367D01*
X99102000Y-90041868D01*
X99538235Y-89605633D01*
X101258000Y-89605633D01*
X101258000Y-89714367D01*
X101279213Y-89821012D01*
X101320824Y-89921470D01*
X101381234Y-90011880D01*
X101458120Y-90088766D01*
X101548530Y-90149176D01*
X101648988Y-90190787D01*
X101755633Y-90212000D01*
X101864367Y-90212000D01*
X101971012Y-90190787D01*
X102071470Y-90149176D01*
X102161880Y-90088766D01*
X102238766Y-90011880D01*
X102299176Y-89921470D01*
X102340787Y-89821012D01*
X102362000Y-89714367D01*
X102362000Y-89605633D01*
X102340787Y-89498988D01*
X102299176Y-89398530D01*
X102238766Y-89308120D01*
X102161880Y-89231234D01*
X102071470Y-89170824D01*
X101971012Y-89129213D01*
X101864367Y-89108000D01*
X101755633Y-89108000D01*
X101648988Y-89129213D01*
X101548530Y-89170824D01*
X101458120Y-89231234D01*
X101381234Y-89308120D01*
X101320824Y-89398530D01*
X101279213Y-89498988D01*
X101258000Y-89605633D01*
X99538235Y-89605633D01*
X101228235Y-87915633D01*
X103778000Y-87915633D01*
X103778000Y-88024367D01*
X103799213Y-88131012D01*
X103840824Y-88231470D01*
X103901234Y-88321880D01*
X103978120Y-88398766D01*
X104068530Y-88459176D01*
X104168988Y-88500787D01*
X104275633Y-88522000D01*
X104384367Y-88522000D01*
X104491012Y-88500787D01*
X104591470Y-88459176D01*
X104681880Y-88398766D01*
X104758766Y-88321880D01*
X104819176Y-88231470D01*
X104847951Y-88162001D01*
X104861234Y-88181880D01*
X104938120Y-88258766D01*
X105028530Y-88319176D01*
X105128988Y-88360787D01*
X105235633Y-88382000D01*
X105344367Y-88382000D01*
X105451012Y-88360787D01*
X105551470Y-88319176D01*
X105641880Y-88258766D01*
X105718766Y-88181880D01*
X105779176Y-88091470D01*
X105820787Y-87991012D01*
X105842000Y-87884367D01*
X105842000Y-87775633D01*
X105820787Y-87668988D01*
X105779176Y-87568530D01*
X105718766Y-87478120D01*
X105641880Y-87401234D01*
X105551470Y-87340824D01*
X105451012Y-87299213D01*
X105344367Y-87278000D01*
X105235633Y-87278000D01*
X105128988Y-87299213D01*
X105028530Y-87340824D01*
X104938120Y-87401234D01*
X104861234Y-87478120D01*
X104800824Y-87568530D01*
X104772049Y-87637999D01*
X104758766Y-87618120D01*
X104681880Y-87541234D01*
X104591470Y-87480824D01*
X104491012Y-87439213D01*
X104384367Y-87418000D01*
X104275633Y-87418000D01*
X104168988Y-87439213D01*
X104068530Y-87480824D01*
X103978120Y-87541234D01*
X103901234Y-87618120D01*
X103840824Y-87708530D01*
X103799213Y-87808988D01*
X103778000Y-87915633D01*
X101228235Y-87915633D01*
X102825622Y-86318246D01*
X104613000Y-86318246D01*
X104613000Y-86441754D01*
X104637095Y-86562889D01*
X104684360Y-86676996D01*
X104752977Y-86779689D01*
X104840311Y-86867023D01*
X104943004Y-86935640D01*
X105057111Y-86982905D01*
X105178246Y-87007000D01*
X105301754Y-87007000D01*
X105422889Y-86982905D01*
X105536996Y-86935640D01*
X105639689Y-86867023D01*
X105727023Y-86779689D01*
X105795640Y-86676996D01*
X105842905Y-86562889D01*
X105867000Y-86441754D01*
X105867000Y-86318246D01*
X105842905Y-86197111D01*
X105795640Y-86083004D01*
X105727023Y-85980311D01*
X105639689Y-85892977D01*
X105536996Y-85824360D01*
X105422889Y-85777095D01*
X105301754Y-85753000D01*
X105178246Y-85753000D01*
X105057111Y-85777095D01*
X104943004Y-85824360D01*
X104840311Y-85892977D01*
X104752977Y-85980311D01*
X104684360Y-86083004D01*
X104637095Y-86197111D01*
X104613000Y-86318246D01*
X102825622Y-86318246D01*
X103656869Y-85487000D01*
X109423132Y-85487000D01*
X109466914Y-85530783D01*
X109418530Y-85550824D01*
X109328120Y-85611234D01*
X109251234Y-85688120D01*
X109190824Y-85778530D01*
X109149213Y-85878988D01*
X109128000Y-85985633D01*
X109128000Y-86094367D01*
X109149213Y-86201012D01*
X109190824Y-86301470D01*
X109251234Y-86391880D01*
X109328120Y-86468766D01*
X109418530Y-86529176D01*
X109518988Y-86570787D01*
X109625633Y-86592000D01*
X109734367Y-86592000D01*
X109841012Y-86570787D01*
X109941470Y-86529176D01*
X110031880Y-86468766D01*
X110108766Y-86391880D01*
X110146615Y-86335236D01*
X110147708Y-87132643D01*
X110124367Y-87128000D01*
X110015633Y-87128000D01*
X109908988Y-87149213D01*
X109808530Y-87190824D01*
X109718120Y-87251234D01*
X109641234Y-87328120D01*
X109580824Y-87418530D01*
X109539213Y-87518988D01*
X109518000Y-87625633D01*
X109518000Y-87734367D01*
X109539213Y-87841012D01*
X109580824Y-87941470D01*
X109641234Y-88031880D01*
X109718120Y-88108766D01*
X109808530Y-88169176D01*
X109908988Y-88210787D01*
X110015633Y-88232000D01*
X110124367Y-88232000D01*
X110149210Y-88227058D01*
X110153000Y-90990174D01*
X110155474Y-91014947D01*
X110162734Y-91038762D01*
X110174500Y-91060702D01*
X110189560Y-91079160D01*
X111199560Y-92103662D01*
X111200197Y-92104305D01*
X111371502Y-92275610D01*
X111348120Y-92291234D01*
X111271234Y-92368120D01*
X111210824Y-92458530D01*
X111190000Y-92508804D01*
X111169176Y-92458530D01*
X111108766Y-92368120D01*
X111031880Y-92291234D01*
X110941470Y-92230824D01*
X110841012Y-92189213D01*
X110734367Y-92168000D01*
X110625633Y-92168000D01*
X110518988Y-92189213D01*
X110418530Y-92230824D01*
X110328120Y-92291234D01*
X110272000Y-92347354D01*
X110272000Y-92255633D01*
X110250787Y-92148988D01*
X110209176Y-92048530D01*
X110148766Y-91958120D01*
X110071880Y-91881234D01*
X109981470Y-91820824D01*
X109881012Y-91779213D01*
X109774367Y-91758000D01*
X109665633Y-91758000D01*
X109558988Y-91779213D01*
X109458530Y-91820824D01*
X109368120Y-91881234D01*
X109291234Y-91958120D01*
X109230824Y-92048530D01*
X109189213Y-92148988D01*
X109168000Y-92255633D01*
X109168000Y-92364367D01*
X109189213Y-92471012D01*
X109230824Y-92571470D01*
X109291234Y-92661880D01*
X109368120Y-92738766D01*
X109458530Y-92799176D01*
X109558988Y-92840787D01*
X109665633Y-92862000D01*
X109774367Y-92862000D01*
X109881012Y-92840787D01*
X109981470Y-92799176D01*
X110071880Y-92738766D01*
X110128000Y-92682646D01*
X110128000Y-92774367D01*
X110149213Y-92881012D01*
X110190824Y-92981470D01*
X110251234Y-93071880D01*
X110328120Y-93148766D01*
X110418530Y-93209176D01*
X110518988Y-93250787D01*
X110625633Y-93272000D01*
X110734367Y-93272000D01*
X110841012Y-93250787D01*
X110941470Y-93209176D01*
X111031880Y-93148766D01*
X111108766Y-93071880D01*
X111169176Y-92981470D01*
X111190000Y-92931196D01*
X111210824Y-92981470D01*
X111271234Y-93071880D01*
X111348120Y-93148766D01*
X111438530Y-93209176D01*
X111538988Y-93250787D01*
X111645633Y-93272000D01*
X111754367Y-93272000D01*
X111861012Y-93250787D01*
X111873454Y-93245633D01*
X114928000Y-93245633D01*
X114928000Y-93354367D01*
X114949213Y-93461012D01*
X114990824Y-93561470D01*
X115051234Y-93651880D01*
X115128120Y-93728766D01*
X115218530Y-93789176D01*
X115318988Y-93830787D01*
X115425633Y-93852000D01*
X115534367Y-93852000D01*
X115641012Y-93830787D01*
X115741470Y-93789176D01*
X115775000Y-93766772D01*
X115808530Y-93789176D01*
X115908988Y-93830787D01*
X116015633Y-93852000D01*
X116124367Y-93852000D01*
X116231012Y-93830787D01*
X116331470Y-93789176D01*
X116421880Y-93728766D01*
X116498766Y-93651880D01*
X116559176Y-93561470D01*
X116600787Y-93461012D01*
X116622000Y-93354367D01*
X116622000Y-93245633D01*
X116618022Y-93225633D01*
X119978000Y-93225633D01*
X119978000Y-93334367D01*
X119999213Y-93441012D01*
X120040824Y-93541470D01*
X120101234Y-93631880D01*
X120178120Y-93708766D01*
X120268530Y-93769176D01*
X120368988Y-93810787D01*
X120475633Y-93832000D01*
X120584367Y-93832000D01*
X120691012Y-93810787D01*
X120791470Y-93769176D01*
X120881880Y-93708766D01*
X120958766Y-93631880D01*
X121019176Y-93541470D01*
X121060787Y-93441012D01*
X121066132Y-93414143D01*
X121105633Y-93422000D01*
X121214367Y-93422000D01*
X121321012Y-93400787D01*
X121421470Y-93359176D01*
X121511880Y-93298766D01*
X121588766Y-93221880D01*
X121649176Y-93131470D01*
X121690787Y-93031012D01*
X121712000Y-92924367D01*
X121712000Y-92815633D01*
X121700342Y-92757024D01*
X121775633Y-92772000D01*
X121884367Y-92772000D01*
X121898165Y-92769255D01*
X121878000Y-92870633D01*
X121878000Y-92979367D01*
X121899213Y-93086012D01*
X121940824Y-93186470D01*
X122001234Y-93276880D01*
X122078120Y-93353766D01*
X122168530Y-93414176D01*
X122268988Y-93455787D01*
X122375633Y-93477000D01*
X122484367Y-93477000D01*
X122591012Y-93455787D01*
X122691470Y-93414176D01*
X122781880Y-93353766D01*
X122858766Y-93276880D01*
X122919176Y-93186470D01*
X122960787Y-93086012D01*
X122982000Y-92979367D01*
X122982000Y-92870633D01*
X122960787Y-92763988D01*
X122919176Y-92663530D01*
X122858766Y-92573120D01*
X122781880Y-92496234D01*
X122691470Y-92435824D01*
X122591012Y-92394213D01*
X122484367Y-92373000D01*
X122375633Y-92373000D01*
X122361835Y-92375745D01*
X122382000Y-92274367D01*
X122382000Y-92165633D01*
X122360787Y-92058988D01*
X122319176Y-91958530D01*
X122258766Y-91868120D01*
X122181880Y-91791234D01*
X122091470Y-91730824D01*
X121991012Y-91689213D01*
X121884367Y-91668000D01*
X121775633Y-91668000D01*
X121668988Y-91689213D01*
X121568530Y-91730824D01*
X121478120Y-91791234D01*
X121401234Y-91868120D01*
X121340824Y-91958530D01*
X121299213Y-92058988D01*
X121278000Y-92165633D01*
X121278000Y-92274367D01*
X121289658Y-92332976D01*
X121214367Y-92318000D01*
X121105633Y-92318000D01*
X120998988Y-92339213D01*
X120898530Y-92380824D01*
X120808120Y-92441234D01*
X120731234Y-92518120D01*
X120670824Y-92608530D01*
X120629213Y-92708988D01*
X120623868Y-92735857D01*
X120584367Y-92728000D01*
X120475633Y-92728000D01*
X120368988Y-92749213D01*
X120268530Y-92790824D01*
X120178120Y-92851234D01*
X120101234Y-92928120D01*
X120040824Y-93018530D01*
X119999213Y-93118988D01*
X119978000Y-93225633D01*
X116618022Y-93225633D01*
X116600787Y-93138988D01*
X116559176Y-93038530D01*
X116498766Y-92948120D01*
X116421880Y-92871234D01*
X116331470Y-92810824D01*
X116231012Y-92769213D01*
X116124367Y-92748000D01*
X116015633Y-92748000D01*
X115908988Y-92769213D01*
X115808530Y-92810824D01*
X115775000Y-92833228D01*
X115741470Y-92810824D01*
X115641012Y-92769213D01*
X115534367Y-92748000D01*
X115425633Y-92748000D01*
X115318988Y-92769213D01*
X115218530Y-92810824D01*
X115128120Y-92871234D01*
X115051234Y-92948120D01*
X114990824Y-93038530D01*
X114949213Y-93138988D01*
X114928000Y-93245633D01*
X111873454Y-93245633D01*
X111961470Y-93209176D01*
X112051880Y-93148766D01*
X112128766Y-93071880D01*
X112144390Y-93048498D01*
X112200197Y-93104305D01*
X112219443Y-93120099D01*
X112241399Y-93131835D01*
X112265224Y-93139062D01*
X112290000Y-93141502D01*
X113190000Y-93141502D01*
X113214776Y-93139062D01*
X113238601Y-93131835D01*
X113260557Y-93120099D01*
X113279803Y-93104305D01*
X114279803Y-92104305D01*
X114295597Y-92085059D01*
X114307333Y-92063103D01*
X114314560Y-92039278D01*
X114317000Y-92014502D01*
X114317000Y-90545633D01*
X119448000Y-90545633D01*
X119448000Y-90654367D01*
X119469213Y-90761012D01*
X119510824Y-90861470D01*
X119571234Y-90951880D01*
X119648120Y-91028766D01*
X119738530Y-91089176D01*
X119838988Y-91130787D01*
X119945633Y-91152000D01*
X120054367Y-91152000D01*
X120161012Y-91130787D01*
X120261470Y-91089176D01*
X120351880Y-91028766D01*
X120428766Y-90951880D01*
X120489176Y-90861470D01*
X120530787Y-90761012D01*
X120552000Y-90654367D01*
X120552000Y-90545633D01*
X120530787Y-90438988D01*
X120489176Y-90338530D01*
X120428766Y-90248120D01*
X120351880Y-90171234D01*
X120261470Y-90110824D01*
X120161012Y-90069213D01*
X120054367Y-90048000D01*
X119945633Y-90048000D01*
X119838988Y-90069213D01*
X119738530Y-90110824D01*
X119648120Y-90171234D01*
X119571234Y-90248120D01*
X119510824Y-90338530D01*
X119469213Y-90438988D01*
X119448000Y-90545633D01*
X114317000Y-90545633D01*
X114317000Y-89655633D01*
X121118000Y-89655633D01*
X121118000Y-89764367D01*
X121139213Y-89871012D01*
X121180824Y-89971470D01*
X121241234Y-90061880D01*
X121318120Y-90138766D01*
X121328781Y-90145889D01*
X121319213Y-90168988D01*
X121298000Y-90275633D01*
X121298000Y-90384367D01*
X121319213Y-90491012D01*
X121360824Y-90591470D01*
X121421234Y-90681880D01*
X121498120Y-90758766D01*
X121588530Y-90819176D01*
X121688988Y-90860787D01*
X121795633Y-90882000D01*
X121904367Y-90882000D01*
X122011012Y-90860787D01*
X122111470Y-90819176D01*
X122201880Y-90758766D01*
X122278766Y-90681880D01*
X122339176Y-90591470D01*
X122380787Y-90491012D01*
X122402000Y-90384367D01*
X122402000Y-90275633D01*
X122380787Y-90168988D01*
X122339176Y-90068530D01*
X122278766Y-89978120D01*
X122201880Y-89901234D01*
X122191219Y-89894111D01*
X122200787Y-89871012D01*
X122222000Y-89764367D01*
X122222000Y-89655633D01*
X122200787Y-89548988D01*
X122159176Y-89448530D01*
X122098766Y-89358120D01*
X122021880Y-89281234D01*
X121931470Y-89220824D01*
X121831012Y-89179213D01*
X121724367Y-89158000D01*
X121615633Y-89158000D01*
X121508988Y-89179213D01*
X121408530Y-89220824D01*
X121318120Y-89281234D01*
X121241234Y-89358120D01*
X121180824Y-89448530D01*
X121139213Y-89548988D01*
X121118000Y-89655633D01*
X114317000Y-89655633D01*
X114317000Y-88645633D01*
X121688000Y-88645633D01*
X121688000Y-88754367D01*
X121709213Y-88861012D01*
X121750824Y-88961470D01*
X121811234Y-89051880D01*
X121888120Y-89128766D01*
X121978530Y-89189176D01*
X122078988Y-89230787D01*
X122185633Y-89252000D01*
X122294367Y-89252000D01*
X122401012Y-89230787D01*
X122501470Y-89189176D01*
X122591880Y-89128766D01*
X122668766Y-89051880D01*
X122729176Y-88961470D01*
X122770787Y-88861012D01*
X122792000Y-88754367D01*
X122792000Y-88645633D01*
X122770787Y-88538988D01*
X122729176Y-88438530D01*
X122668766Y-88348120D01*
X122591880Y-88271234D01*
X122501470Y-88210824D01*
X122401012Y-88169213D01*
X122294367Y-88148000D01*
X122185633Y-88148000D01*
X122078988Y-88169213D01*
X121978530Y-88210824D01*
X121888120Y-88271234D01*
X121811234Y-88348120D01*
X121750824Y-88438530D01*
X121709213Y-88538988D01*
X121688000Y-88645633D01*
X114317000Y-88645633D01*
X114317000Y-88114502D01*
X114314560Y-88089726D01*
X114307333Y-88065901D01*
X114295597Y-88043945D01*
X114279803Y-88024699D01*
X112880737Y-86625633D01*
X113463000Y-86625633D01*
X113463000Y-86734367D01*
X113484213Y-86841012D01*
X113525824Y-86941470D01*
X113586234Y-87031880D01*
X113663120Y-87108766D01*
X113753530Y-87169176D01*
X113853988Y-87210787D01*
X113960633Y-87232000D01*
X114069367Y-87232000D01*
X114176012Y-87210787D01*
X114276470Y-87169176D01*
X114366880Y-87108766D01*
X114443766Y-87031880D01*
X114504176Y-86941470D01*
X114545787Y-86841012D01*
X114567000Y-86734367D01*
X114567000Y-86645633D01*
X116958000Y-86645633D01*
X116958000Y-86754367D01*
X116979213Y-86861012D01*
X117020824Y-86961470D01*
X117081234Y-87051880D01*
X117158120Y-87128766D01*
X117248530Y-87189176D01*
X117348988Y-87230787D01*
X117455633Y-87252000D01*
X117564367Y-87252000D01*
X117671012Y-87230787D01*
X117771470Y-87189176D01*
X117861880Y-87128766D01*
X117938766Y-87051880D01*
X117999176Y-86961470D01*
X118040787Y-86861012D01*
X118062000Y-86754367D01*
X118062000Y-86645633D01*
X118040787Y-86538988D01*
X117999176Y-86438530D01*
X117938766Y-86348120D01*
X117861880Y-86271234D01*
X117771470Y-86210824D01*
X117671012Y-86169213D01*
X117564367Y-86148000D01*
X117455633Y-86148000D01*
X117348988Y-86169213D01*
X117248530Y-86210824D01*
X117158120Y-86271234D01*
X117081234Y-86348120D01*
X117020824Y-86438530D01*
X116979213Y-86538988D01*
X116958000Y-86645633D01*
X114567000Y-86645633D01*
X114567000Y-86625633D01*
X114545787Y-86518988D01*
X114504176Y-86418530D01*
X114443766Y-86328120D01*
X114366880Y-86251234D01*
X114276470Y-86190824D01*
X114176012Y-86149213D01*
X114069367Y-86128000D01*
X113960633Y-86128000D01*
X113853988Y-86149213D01*
X113753530Y-86190824D01*
X113663120Y-86251234D01*
X113586234Y-86328120D01*
X113525824Y-86418530D01*
X113484213Y-86518988D01*
X113463000Y-86625633D01*
X112880737Y-86625633D01*
X112677000Y-86421896D01*
X112677000Y-86015633D01*
X118438000Y-86015633D01*
X118438000Y-86124367D01*
X118459213Y-86231012D01*
X118500824Y-86331470D01*
X118561234Y-86421880D01*
X118638120Y-86498766D01*
X118728530Y-86559176D01*
X118828988Y-86600787D01*
X118935633Y-86622000D01*
X119044367Y-86622000D01*
X119151012Y-86600787D01*
X119211739Y-86575633D01*
X120598000Y-86575633D01*
X120598000Y-86684367D01*
X120619213Y-86791012D01*
X120660824Y-86891470D01*
X120721234Y-86981880D01*
X120798120Y-87058766D01*
X120888530Y-87119176D01*
X120988988Y-87160787D01*
X121095633Y-87182000D01*
X121204367Y-87182000D01*
X121311012Y-87160787D01*
X121411470Y-87119176D01*
X121501880Y-87058766D01*
X121578766Y-86981880D01*
X121639176Y-86891470D01*
X121680787Y-86791012D01*
X121702000Y-86684367D01*
X121702000Y-86575633D01*
X121680787Y-86468988D01*
X121639176Y-86368530D01*
X121578766Y-86278120D01*
X121501880Y-86201234D01*
X121411470Y-86140824D01*
X121311012Y-86099213D01*
X121204367Y-86078000D01*
X121095633Y-86078000D01*
X120988988Y-86099213D01*
X120888530Y-86140824D01*
X120798120Y-86201234D01*
X120721234Y-86278120D01*
X120660824Y-86368530D01*
X120619213Y-86468988D01*
X120598000Y-86575633D01*
X119211739Y-86575633D01*
X119251470Y-86559176D01*
X119341880Y-86498766D01*
X119418766Y-86421880D01*
X119479176Y-86331470D01*
X119520787Y-86231012D01*
X119542000Y-86124367D01*
X119542000Y-86055633D01*
X121828000Y-86055633D01*
X121828000Y-86164367D01*
X121849213Y-86271012D01*
X121890824Y-86371470D01*
X121951234Y-86461880D01*
X122028120Y-86538766D01*
X122118530Y-86599176D01*
X122218988Y-86640787D01*
X122325633Y-86662000D01*
X122434367Y-86662000D01*
X122541012Y-86640787D01*
X122641470Y-86599176D01*
X122731880Y-86538766D01*
X122808766Y-86461880D01*
X122869176Y-86371470D01*
X122910787Y-86271012D01*
X122932000Y-86164367D01*
X122932000Y-86055633D01*
X122910787Y-85948988D01*
X122869176Y-85848530D01*
X122808766Y-85758120D01*
X122731880Y-85681234D01*
X122641470Y-85620824D01*
X122541012Y-85579213D01*
X122434367Y-85558000D01*
X122325633Y-85558000D01*
X122218988Y-85579213D01*
X122118530Y-85620824D01*
X122028120Y-85681234D01*
X121951234Y-85758120D01*
X121890824Y-85848530D01*
X121849213Y-85948988D01*
X121828000Y-86055633D01*
X119542000Y-86055633D01*
X119542000Y-86015633D01*
X119520787Y-85908988D01*
X119479176Y-85808530D01*
X119418766Y-85718120D01*
X119341880Y-85641234D01*
X119251470Y-85580824D01*
X119151012Y-85539213D01*
X119044367Y-85518000D01*
X118935633Y-85518000D01*
X118828988Y-85539213D01*
X118728530Y-85580824D01*
X118638120Y-85641234D01*
X118561234Y-85718120D01*
X118500824Y-85808530D01*
X118459213Y-85908988D01*
X118438000Y-86015633D01*
X112677000Y-86015633D01*
X112677000Y-85940910D01*
X113260487Y-85006874D01*
X122595074Y-84990070D01*
X122588000Y-85025633D01*
X122588000Y-85134367D01*
X122609213Y-85241012D01*
X122650824Y-85341470D01*
X122711234Y-85431880D01*
X122788120Y-85508766D01*
X122878530Y-85569176D01*
X122978988Y-85610787D01*
X123085633Y-85632000D01*
X123194367Y-85632000D01*
X123301012Y-85610787D01*
X123401470Y-85569176D01*
X123491880Y-85508766D01*
X123568766Y-85431880D01*
X123629176Y-85341470D01*
X123670787Y-85241012D01*
X123692000Y-85134367D01*
X123692000Y-85025633D01*
X123684536Y-84988108D01*
X124172522Y-84987230D01*
X124122419Y-98348000D01*
X124025633Y-98348000D01*
X123918988Y-98369213D01*
X123818530Y-98410824D01*
X123728120Y-98471234D01*
X123651234Y-98548120D01*
X123590824Y-98638530D01*
X123553764Y-98728000D01*
X123465633Y-98728000D01*
X123358988Y-98749213D01*
X123258530Y-98790824D01*
X123168120Y-98851234D01*
X123091234Y-98928120D01*
X123051069Y-98988231D01*
X122981012Y-98959213D01*
X122874367Y-98938000D01*
X122765633Y-98938000D01*
X122658988Y-98959213D01*
X122558530Y-99000824D01*
X122468120Y-99061234D01*
X122391234Y-99138120D01*
X122330824Y-99228530D01*
X122289213Y-99328988D01*
X122268000Y-99435633D01*
X122268000Y-99544367D01*
X122289213Y-99651012D01*
X122330824Y-99751470D01*
X122391234Y-99841880D01*
X122468120Y-99918766D01*
X122475594Y-99923760D01*
X122401234Y-99998120D01*
X122340824Y-100088530D01*
X122299213Y-100188988D01*
X122278000Y-100295633D01*
X122278000Y-100404367D01*
X122299213Y-100511012D01*
X122340824Y-100611470D01*
X122401234Y-100701880D01*
X122433244Y-100733890D01*
X98482279Y-100745694D01*
X98500787Y-100701012D01*
X98522000Y-100594367D01*
X98522000Y-100485633D01*
X98500787Y-100378988D01*
X98459176Y-100278530D01*
X98398766Y-100188120D01*
X98321880Y-100111234D01*
X98231470Y-100050824D01*
X98131012Y-100009213D01*
X98024367Y-99988000D01*
X97915633Y-99988000D01*
X97808988Y-100009213D01*
X97708530Y-100050824D01*
X97618120Y-100111234D01*
X97541234Y-100188120D01*
X97480824Y-100278530D01*
X97439213Y-100378988D01*
X97418000Y-100485633D01*
X97418000Y-100594367D01*
X97439213Y-100701012D01*
X97457930Y-100746199D01*
X84236105Y-100752716D01*
X84301880Y-100708766D01*
X84378766Y-100631880D01*
X84439176Y-100541470D01*
X84480787Y-100441012D01*
X84502000Y-100334367D01*
X84502000Y-100225633D01*
X84480787Y-100118988D01*
X84439176Y-100018530D01*
X84378766Y-99928120D01*
X84301880Y-99851234D01*
X84248600Y-99815633D01*
X89868000Y-99815633D01*
X89868000Y-99924367D01*
X89889213Y-100031012D01*
X89930824Y-100131470D01*
X89991234Y-100221880D01*
X90068120Y-100298766D01*
X90158530Y-100359176D01*
X90258988Y-100400787D01*
X90365633Y-100422000D01*
X90474367Y-100422000D01*
X90581012Y-100400787D01*
X90681470Y-100359176D01*
X90771880Y-100298766D01*
X90848766Y-100221880D01*
X90909176Y-100131470D01*
X90950787Y-100031012D01*
X90972000Y-99924367D01*
X90972000Y-99815633D01*
X90950787Y-99708988D01*
X90909176Y-99608530D01*
X90848766Y-99518120D01*
X90771880Y-99441234D01*
X90681470Y-99380824D01*
X90644796Y-99365633D01*
X92288000Y-99365633D01*
X92288000Y-99474367D01*
X92309213Y-99581012D01*
X92350824Y-99681470D01*
X92411234Y-99771880D01*
X92488120Y-99848766D01*
X92578530Y-99909176D01*
X92678988Y-99950787D01*
X92785633Y-99972000D01*
X92894367Y-99972000D01*
X93001012Y-99950787D01*
X93101470Y-99909176D01*
X93191880Y-99848766D01*
X93268766Y-99771880D01*
X93329176Y-99681470D01*
X93370787Y-99581012D01*
X93392000Y-99474367D01*
X93392000Y-99365633D01*
X93370787Y-99258988D01*
X93329176Y-99158530D01*
X93268766Y-99068120D01*
X93226279Y-99025633D01*
X93848000Y-99025633D01*
X93848000Y-99134367D01*
X93869213Y-99241012D01*
X93910824Y-99341470D01*
X93971234Y-99431880D01*
X94048120Y-99508766D01*
X94138530Y-99569176D01*
X94238988Y-99610787D01*
X94345633Y-99632000D01*
X94454367Y-99632000D01*
X94561012Y-99610787D01*
X94661470Y-99569176D01*
X94751880Y-99508766D01*
X94828766Y-99431880D01*
X94889176Y-99341470D01*
X94930787Y-99241012D01*
X94952000Y-99134367D01*
X94952000Y-99025633D01*
X97478000Y-99025633D01*
X97478000Y-99134367D01*
X97499213Y-99241012D01*
X97540824Y-99341470D01*
X97601234Y-99431880D01*
X97678120Y-99508766D01*
X97768530Y-99569176D01*
X97868988Y-99610787D01*
X97975633Y-99632000D01*
X98084367Y-99632000D01*
X98191012Y-99610787D01*
X98291470Y-99569176D01*
X98381880Y-99508766D01*
X98458766Y-99431880D01*
X98519176Y-99341470D01*
X98560787Y-99241012D01*
X98582000Y-99134367D01*
X98582000Y-99025633D01*
X98568077Y-98955633D01*
X106668000Y-98955633D01*
X106668000Y-99064367D01*
X106689213Y-99171012D01*
X106730824Y-99271470D01*
X106791234Y-99361880D01*
X106868120Y-99438766D01*
X106958530Y-99499176D01*
X107058988Y-99540787D01*
X107165633Y-99562000D01*
X107274367Y-99562000D01*
X107381012Y-99540787D01*
X107481470Y-99499176D01*
X107571880Y-99438766D01*
X107648766Y-99361880D01*
X107709176Y-99271470D01*
X107750787Y-99171012D01*
X107772000Y-99064367D01*
X107772000Y-98955633D01*
X107766033Y-98925633D01*
X108728000Y-98925633D01*
X108728000Y-99034367D01*
X108749213Y-99141012D01*
X108790824Y-99241470D01*
X108851234Y-99331880D01*
X108928120Y-99408766D01*
X109018530Y-99469176D01*
X109118988Y-99510787D01*
X109225633Y-99532000D01*
X109334367Y-99532000D01*
X109441012Y-99510787D01*
X109541470Y-99469176D01*
X109631880Y-99408766D01*
X109708766Y-99331880D01*
X109769176Y-99241470D01*
X109810787Y-99141012D01*
X109832000Y-99034367D01*
X109832000Y-98925633D01*
X109810787Y-98818988D01*
X109769176Y-98718530D01*
X109708766Y-98628120D01*
X109702646Y-98622000D01*
X109794367Y-98622000D01*
X109901012Y-98600787D01*
X110001470Y-98559176D01*
X110091880Y-98498766D01*
X110168766Y-98421880D01*
X110229176Y-98331470D01*
X110270787Y-98231012D01*
X110292000Y-98124367D01*
X110292000Y-98015633D01*
X110270787Y-97908988D01*
X110265256Y-97895633D01*
X111078000Y-97895633D01*
X111078000Y-98004367D01*
X111099213Y-98111012D01*
X111140824Y-98211470D01*
X111201234Y-98301880D01*
X111278120Y-98378766D01*
X111368530Y-98439176D01*
X111468988Y-98480787D01*
X111575633Y-98502000D01*
X111684367Y-98502000D01*
X111791012Y-98480787D01*
X111891470Y-98439176D01*
X111981880Y-98378766D01*
X112058766Y-98301880D01*
X112076303Y-98275633D01*
X112368000Y-98275633D01*
X112368000Y-98384367D01*
X112389213Y-98491012D01*
X112430824Y-98591470D01*
X112491234Y-98681880D01*
X112568120Y-98758766D01*
X112658530Y-98819176D01*
X112758988Y-98860787D01*
X112865633Y-98882000D01*
X112974367Y-98882000D01*
X113081012Y-98860787D01*
X113181470Y-98819176D01*
X113271880Y-98758766D01*
X113348766Y-98681880D01*
X113393030Y-98615633D01*
X114013000Y-98615633D01*
X114013000Y-98724367D01*
X114034213Y-98831012D01*
X114075824Y-98931470D01*
X114136234Y-99021880D01*
X114213120Y-99098766D01*
X114303530Y-99159176D01*
X114403988Y-99200787D01*
X114510633Y-99222000D01*
X114619367Y-99222000D01*
X114726012Y-99200787D01*
X114826470Y-99159176D01*
X114916880Y-99098766D01*
X114993766Y-99021880D01*
X115054176Y-98931470D01*
X115095787Y-98831012D01*
X115117000Y-98724367D01*
X115117000Y-98615633D01*
X115095787Y-98508988D01*
X115056502Y-98414144D01*
X115108766Y-98361880D01*
X115169176Y-98271470D01*
X115210787Y-98171012D01*
X115232000Y-98064367D01*
X115232000Y-97955633D01*
X115210787Y-97848988D01*
X115169176Y-97748530D01*
X115108766Y-97658120D01*
X115031880Y-97581234D01*
X114941470Y-97520824D01*
X114841012Y-97479213D01*
X114734367Y-97458000D01*
X114625633Y-97458000D01*
X114518988Y-97479213D01*
X114418530Y-97520824D01*
X114328120Y-97581234D01*
X114251234Y-97658120D01*
X114190824Y-97748530D01*
X114149213Y-97848988D01*
X114128000Y-97955633D01*
X114128000Y-98064367D01*
X114149213Y-98171012D01*
X114188498Y-98265856D01*
X114136234Y-98318120D01*
X114075824Y-98408530D01*
X114034213Y-98508988D01*
X114013000Y-98615633D01*
X113393030Y-98615633D01*
X113409176Y-98591470D01*
X113450787Y-98491012D01*
X113472000Y-98384367D01*
X113472000Y-98275633D01*
X113450787Y-98168988D01*
X113409176Y-98068530D01*
X113348766Y-97978120D01*
X113325646Y-97955000D01*
X113378766Y-97901880D01*
X113439176Y-97811470D01*
X113480787Y-97711012D01*
X113502000Y-97604367D01*
X113502000Y-97495633D01*
X113480787Y-97388988D01*
X113439176Y-97288530D01*
X113378766Y-97198120D01*
X113301880Y-97121234D01*
X113211470Y-97060824D01*
X113111012Y-97019213D01*
X113004367Y-96998000D01*
X112895633Y-96998000D01*
X112788988Y-97019213D01*
X112688530Y-97060824D01*
X112598120Y-97121234D01*
X112521234Y-97198120D01*
X112460824Y-97288530D01*
X112419213Y-97388988D01*
X112398000Y-97495633D01*
X112398000Y-97604367D01*
X112419213Y-97711012D01*
X112460824Y-97811470D01*
X112521234Y-97901880D01*
X112544354Y-97925000D01*
X112491234Y-97978120D01*
X112430824Y-98068530D01*
X112389213Y-98168988D01*
X112368000Y-98275633D01*
X112076303Y-98275633D01*
X112119176Y-98211470D01*
X112160787Y-98111012D01*
X112182000Y-98004367D01*
X112182000Y-97895633D01*
X112160787Y-97788988D01*
X112119176Y-97688530D01*
X112058766Y-97598120D01*
X111981880Y-97521234D01*
X111891470Y-97460824D01*
X111791012Y-97419213D01*
X111684367Y-97398000D01*
X111575633Y-97398000D01*
X111468988Y-97419213D01*
X111368530Y-97460824D01*
X111278120Y-97521234D01*
X111201234Y-97598120D01*
X111140824Y-97688530D01*
X111099213Y-97788988D01*
X111078000Y-97895633D01*
X110265256Y-97895633D01*
X110229176Y-97808530D01*
X110168766Y-97718120D01*
X110091880Y-97641234D01*
X110001470Y-97580824D01*
X109901012Y-97539213D01*
X109794367Y-97518000D01*
X109685633Y-97518000D01*
X109578988Y-97539213D01*
X109478530Y-97580824D01*
X109388120Y-97641234D01*
X109311234Y-97718120D01*
X109250824Y-97808530D01*
X109209213Y-97908988D01*
X109188000Y-98015633D01*
X109188000Y-98124367D01*
X109209213Y-98231012D01*
X109250824Y-98331470D01*
X109311234Y-98421880D01*
X109317354Y-98428000D01*
X109225633Y-98428000D01*
X109118988Y-98449213D01*
X109018530Y-98490824D01*
X108928120Y-98551234D01*
X108851234Y-98628120D01*
X108790824Y-98718530D01*
X108749213Y-98818988D01*
X108728000Y-98925633D01*
X107766033Y-98925633D01*
X107750787Y-98848988D01*
X107709176Y-98748530D01*
X107648766Y-98658120D01*
X107571880Y-98581234D01*
X107481470Y-98520824D01*
X107381012Y-98479213D01*
X107274367Y-98458000D01*
X107165633Y-98458000D01*
X107058988Y-98479213D01*
X106958530Y-98520824D01*
X106868120Y-98581234D01*
X106791234Y-98658120D01*
X106730824Y-98748530D01*
X106689213Y-98848988D01*
X106668000Y-98955633D01*
X98568077Y-98955633D01*
X98560787Y-98918988D01*
X98519176Y-98818530D01*
X98458766Y-98728120D01*
X98381880Y-98651234D01*
X98291470Y-98590824D01*
X98191012Y-98549213D01*
X98084367Y-98528000D01*
X97975633Y-98528000D01*
X97868988Y-98549213D01*
X97768530Y-98590824D01*
X97678120Y-98651234D01*
X97601234Y-98728120D01*
X97540824Y-98818530D01*
X97499213Y-98918988D01*
X97478000Y-99025633D01*
X94952000Y-99025633D01*
X94930787Y-98918988D01*
X94889176Y-98818530D01*
X94828766Y-98728120D01*
X94751880Y-98651234D01*
X94661470Y-98590824D01*
X94561012Y-98549213D01*
X94454367Y-98528000D01*
X94345633Y-98528000D01*
X94238988Y-98549213D01*
X94138530Y-98590824D01*
X94048120Y-98651234D01*
X93971234Y-98728120D01*
X93910824Y-98818530D01*
X93869213Y-98918988D01*
X93848000Y-99025633D01*
X93226279Y-99025633D01*
X93191880Y-98991234D01*
X93101470Y-98930824D01*
X93001012Y-98889213D01*
X92894367Y-98868000D01*
X92785633Y-98868000D01*
X92678988Y-98889213D01*
X92578530Y-98930824D01*
X92488120Y-98991234D01*
X92411234Y-99068120D01*
X92350824Y-99158530D01*
X92309213Y-99258988D01*
X92288000Y-99365633D01*
X90644796Y-99365633D01*
X90581012Y-99339213D01*
X90474367Y-99318000D01*
X90365633Y-99318000D01*
X90258988Y-99339213D01*
X90158530Y-99380824D01*
X90068120Y-99441234D01*
X89991234Y-99518120D01*
X89930824Y-99608530D01*
X89889213Y-99708988D01*
X89868000Y-99815633D01*
X84248600Y-99815633D01*
X84211470Y-99790824D01*
X84111012Y-99749213D01*
X84004367Y-99728000D01*
X83895633Y-99728000D01*
X83788988Y-99749213D01*
X83788316Y-99749491D01*
X83789802Y-98473170D01*
X84263000Y-98473170D01*
X84263000Y-98586830D01*
X84285174Y-98698305D01*
X84328669Y-98803312D01*
X84391815Y-98897816D01*
X84472184Y-98978185D01*
X84566688Y-99041331D01*
X84671695Y-99084826D01*
X84783170Y-99107000D01*
X84896830Y-99107000D01*
X85008305Y-99084826D01*
X85113312Y-99041331D01*
X85207816Y-98978185D01*
X85288185Y-98897816D01*
X85351331Y-98803312D01*
X85394826Y-98698305D01*
X85417000Y-98586830D01*
X85417000Y-98473170D01*
X85394826Y-98361695D01*
X85351331Y-98256688D01*
X85288185Y-98162184D01*
X85207816Y-98081815D01*
X85113312Y-98018669D01*
X85008305Y-97975174D01*
X84896830Y-97953000D01*
X84783170Y-97953000D01*
X84671695Y-97975174D01*
X84566688Y-98018669D01*
X84472184Y-98081815D01*
X84391815Y-98162184D01*
X84328669Y-98256688D01*
X84285174Y-98361695D01*
X84263000Y-98473170D01*
X83789802Y-98473170D01*
X83792466Y-96185633D01*
X83928000Y-96185633D01*
X83928000Y-96294367D01*
X83949213Y-96401012D01*
X83990824Y-96501470D01*
X84051234Y-96591880D01*
X84128120Y-96668766D01*
X84218530Y-96729176D01*
X84318988Y-96770787D01*
X84351359Y-96777226D01*
X84318530Y-96790824D01*
X84228120Y-96851234D01*
X84151234Y-96928120D01*
X84090824Y-97018530D01*
X84049213Y-97118988D01*
X84028000Y-97225633D01*
X84028000Y-97334367D01*
X84049213Y-97441012D01*
X84090824Y-97541470D01*
X84151234Y-97631880D01*
X84228120Y-97708766D01*
X84318530Y-97769176D01*
X84418988Y-97810787D01*
X84525633Y-97832000D01*
X84634367Y-97832000D01*
X84741012Y-97810787D01*
X84841470Y-97769176D01*
X84931880Y-97708766D01*
X85008766Y-97631880D01*
X85069176Y-97541470D01*
X85110787Y-97441012D01*
X85132000Y-97334367D01*
X85132000Y-97225633D01*
X85110787Y-97118988D01*
X85084545Y-97055633D01*
X87548000Y-97055633D01*
X87548000Y-97164367D01*
X87569213Y-97271012D01*
X87610824Y-97371470D01*
X87671234Y-97461880D01*
X87748120Y-97538766D01*
X87838530Y-97599176D01*
X87938988Y-97640787D01*
X88045633Y-97662000D01*
X88154367Y-97662000D01*
X88261012Y-97640787D01*
X88361470Y-97599176D01*
X88451880Y-97538766D01*
X88528766Y-97461880D01*
X88589176Y-97371470D01*
X88630787Y-97271012D01*
X88652000Y-97164367D01*
X88652000Y-97055633D01*
X88630787Y-96948988D01*
X88589176Y-96848530D01*
X88528766Y-96758120D01*
X88451880Y-96681234D01*
X88361470Y-96620824D01*
X88261012Y-96579213D01*
X88154367Y-96558000D01*
X88045633Y-96558000D01*
X87938988Y-96579213D01*
X87838530Y-96620824D01*
X87748120Y-96681234D01*
X87671234Y-96758120D01*
X87610824Y-96848530D01*
X87569213Y-96948988D01*
X87548000Y-97055633D01*
X85084545Y-97055633D01*
X85069176Y-97018530D01*
X85008766Y-96928120D01*
X84931880Y-96851234D01*
X84841470Y-96790824D01*
X84741012Y-96749213D01*
X84708641Y-96742774D01*
X84741470Y-96729176D01*
X84831880Y-96668766D01*
X84908766Y-96591880D01*
X84969176Y-96501470D01*
X85010787Y-96401012D01*
X85032000Y-96294367D01*
X85032000Y-96185633D01*
X85010787Y-96078988D01*
X84969176Y-95978530D01*
X84913787Y-95895633D01*
X86548000Y-95895633D01*
X86548000Y-96004367D01*
X86569213Y-96111012D01*
X86610824Y-96211470D01*
X86671234Y-96301880D01*
X86748120Y-96378766D01*
X86838530Y-96439176D01*
X86938988Y-96480787D01*
X87045633Y-96502000D01*
X87154367Y-96502000D01*
X87261012Y-96480787D01*
X87361470Y-96439176D01*
X87451880Y-96378766D01*
X87528766Y-96301880D01*
X87586394Y-96215633D01*
X91098000Y-96215633D01*
X91098000Y-96324367D01*
X91119213Y-96431012D01*
X91160824Y-96531470D01*
X91221234Y-96621880D01*
X91298120Y-96698766D01*
X91388530Y-96759176D01*
X91488988Y-96800787D01*
X91595633Y-96822000D01*
X91704367Y-96822000D01*
X91811012Y-96800787D01*
X91911470Y-96759176D01*
X92001880Y-96698766D01*
X92078766Y-96621880D01*
X92139176Y-96531470D01*
X92180787Y-96431012D01*
X92202000Y-96324367D01*
X92202000Y-96215633D01*
X92180787Y-96108988D01*
X92139176Y-96008530D01*
X92078766Y-95918120D01*
X92001880Y-95841234D01*
X91911470Y-95780824D01*
X91811012Y-95739213D01*
X91704367Y-95718000D01*
X91595633Y-95718000D01*
X91488988Y-95739213D01*
X91388530Y-95780824D01*
X91298120Y-95841234D01*
X91221234Y-95918120D01*
X91160824Y-96008530D01*
X91119213Y-96108988D01*
X91098000Y-96215633D01*
X87586394Y-96215633D01*
X87589176Y-96211470D01*
X87630787Y-96111012D01*
X87652000Y-96004367D01*
X87652000Y-95895633D01*
X87630787Y-95788988D01*
X87589176Y-95688530D01*
X87528766Y-95598120D01*
X87451880Y-95521234D01*
X87450966Y-95520623D01*
X94778000Y-95520623D01*
X94778000Y-95629357D01*
X94799213Y-95736002D01*
X94840824Y-95836460D01*
X94901234Y-95926870D01*
X94978120Y-96003756D01*
X95068530Y-96064166D01*
X95168988Y-96105777D01*
X95275633Y-96126990D01*
X95348842Y-96126990D01*
X96975333Y-97753481D01*
X96987141Y-97767869D01*
X97044547Y-97814981D01*
X97110040Y-97849988D01*
X97181105Y-97871545D01*
X97236491Y-97877000D01*
X97236500Y-97877000D01*
X97255009Y-97878823D01*
X97273518Y-97877000D01*
X102826288Y-97877000D01*
X102792977Y-97910311D01*
X102724360Y-98013004D01*
X102677095Y-98127111D01*
X102653000Y-98248246D01*
X102653000Y-98371754D01*
X102677095Y-98492889D01*
X102724360Y-98606996D01*
X102792977Y-98709689D01*
X102880311Y-98797023D01*
X102983004Y-98865640D01*
X103097111Y-98912905D01*
X103218246Y-98937000D01*
X103341754Y-98937000D01*
X103462889Y-98912905D01*
X103576996Y-98865640D01*
X103679689Y-98797023D01*
X103767023Y-98709689D01*
X103835640Y-98606996D01*
X103882905Y-98492889D01*
X103907000Y-98371754D01*
X103907000Y-98248246D01*
X103882905Y-98127111D01*
X103835640Y-98013004D01*
X103767023Y-97910311D01*
X103679689Y-97822977D01*
X103630648Y-97790209D01*
X103657869Y-97767869D01*
X103669676Y-97753482D01*
X103949745Y-97473414D01*
X103959213Y-97521012D01*
X104000824Y-97621470D01*
X104061234Y-97711880D01*
X104138120Y-97788766D01*
X104228530Y-97849176D01*
X104328988Y-97890787D01*
X104435633Y-97912000D01*
X104544367Y-97912000D01*
X104651012Y-97890787D01*
X104751470Y-97849176D01*
X104841880Y-97788766D01*
X104855013Y-97775633D01*
X107763000Y-97775633D01*
X107763000Y-97884367D01*
X107784213Y-97991012D01*
X107825824Y-98091470D01*
X107886234Y-98181880D01*
X107963120Y-98258766D01*
X108053530Y-98319176D01*
X108153988Y-98360787D01*
X108260633Y-98382000D01*
X108369367Y-98382000D01*
X108476012Y-98360787D01*
X108576470Y-98319176D01*
X108666880Y-98258766D01*
X108743766Y-98181880D01*
X108804176Y-98091470D01*
X108845787Y-97991012D01*
X108867000Y-97884367D01*
X108867000Y-97775633D01*
X108845787Y-97668988D01*
X108804176Y-97568530D01*
X108743766Y-97478120D01*
X108666880Y-97401234D01*
X108576470Y-97340824D01*
X108476012Y-97299213D01*
X108369367Y-97278000D01*
X108260633Y-97278000D01*
X108153988Y-97299213D01*
X108053530Y-97340824D01*
X107963120Y-97401234D01*
X107886234Y-97478120D01*
X107825824Y-97568530D01*
X107784213Y-97668988D01*
X107763000Y-97775633D01*
X104855013Y-97775633D01*
X104918766Y-97711880D01*
X104979176Y-97621470D01*
X105020787Y-97521012D01*
X105042000Y-97414367D01*
X105042000Y-97305633D01*
X105020787Y-97198988D01*
X104979176Y-97098530D01*
X104918766Y-97008120D01*
X104841880Y-96931234D01*
X104751470Y-96870824D01*
X104651012Y-96829213D01*
X104544367Y-96808000D01*
X104435633Y-96808000D01*
X104328988Y-96829213D01*
X104228530Y-96870824D01*
X104138120Y-96931234D01*
X104117000Y-96952354D01*
X104117000Y-96635633D01*
X114758000Y-96635633D01*
X114758000Y-96744367D01*
X114779213Y-96851012D01*
X114820824Y-96951470D01*
X114881234Y-97041880D01*
X114958120Y-97118766D01*
X115048530Y-97179176D01*
X115148988Y-97220787D01*
X115255633Y-97242000D01*
X115364367Y-97242000D01*
X115471012Y-97220787D01*
X115571470Y-97179176D01*
X115661880Y-97118766D01*
X115738766Y-97041880D01*
X115799176Y-96951470D01*
X115840787Y-96851012D01*
X115862000Y-96744367D01*
X115862000Y-96635633D01*
X115840787Y-96528988D01*
X115799176Y-96428530D01*
X115783877Y-96405633D01*
X116718000Y-96405633D01*
X116718000Y-96514367D01*
X116739213Y-96621012D01*
X116780824Y-96721470D01*
X116841234Y-96811880D01*
X116918120Y-96888766D01*
X116974865Y-96926682D01*
X116938120Y-96951234D01*
X116861234Y-97028120D01*
X116800824Y-97118530D01*
X116759213Y-97218988D01*
X116738000Y-97325633D01*
X116738000Y-97434367D01*
X116759213Y-97541012D01*
X116800824Y-97641470D01*
X116861234Y-97731880D01*
X116938120Y-97808766D01*
X117028530Y-97869176D01*
X117128988Y-97910787D01*
X117235633Y-97932000D01*
X117344367Y-97932000D01*
X117451012Y-97910787D01*
X117551470Y-97869176D01*
X117641880Y-97808766D01*
X117675013Y-97775633D01*
X121758000Y-97775633D01*
X121758000Y-97884367D01*
X121779213Y-97991012D01*
X121820824Y-98091470D01*
X121881234Y-98181880D01*
X121958120Y-98258766D01*
X122048530Y-98319176D01*
X122148988Y-98360787D01*
X122255633Y-98382000D01*
X122364367Y-98382000D01*
X122471012Y-98360787D01*
X122571470Y-98319176D01*
X122661880Y-98258766D01*
X122738766Y-98181880D01*
X122799176Y-98091470D01*
X122840787Y-97991012D01*
X122862000Y-97884367D01*
X122862000Y-97775633D01*
X122840787Y-97668988D01*
X122813895Y-97604065D01*
X122853904Y-97544187D01*
X122895515Y-97443729D01*
X122916728Y-97337084D01*
X122916728Y-97228350D01*
X122895515Y-97121705D01*
X122853904Y-97021247D01*
X122793494Y-96930837D01*
X122716608Y-96853951D01*
X122626198Y-96793541D01*
X122525740Y-96751930D01*
X122419095Y-96730717D01*
X122310361Y-96730717D01*
X122203716Y-96751930D01*
X122103258Y-96793541D01*
X122012848Y-96853951D01*
X121935962Y-96930837D01*
X121875552Y-97021247D01*
X121833941Y-97121705D01*
X121812728Y-97228350D01*
X121812728Y-97337084D01*
X121833941Y-97443729D01*
X121860833Y-97508652D01*
X121820824Y-97568530D01*
X121779213Y-97668988D01*
X121758000Y-97775633D01*
X117675013Y-97775633D01*
X117718766Y-97731880D01*
X117779176Y-97641470D01*
X117820787Y-97541012D01*
X117842000Y-97434367D01*
X117842000Y-97325633D01*
X117820787Y-97218988D01*
X117779176Y-97118530D01*
X117718766Y-97028120D01*
X117641880Y-96951234D01*
X117585135Y-96913318D01*
X117621880Y-96888766D01*
X117698766Y-96811880D01*
X117759176Y-96721470D01*
X117800787Y-96621012D01*
X117822000Y-96514367D01*
X117822000Y-96405633D01*
X117800787Y-96298988D01*
X117759176Y-96198530D01*
X117698766Y-96108120D01*
X117621880Y-96031234D01*
X117531470Y-95970824D01*
X117431012Y-95929213D01*
X117413015Y-95925633D01*
X118358000Y-95925633D01*
X118358000Y-96034367D01*
X118379213Y-96141012D01*
X118420824Y-96241470D01*
X118481234Y-96331880D01*
X118558120Y-96408766D01*
X118648530Y-96469176D01*
X118748988Y-96510787D01*
X118855633Y-96532000D01*
X118964367Y-96532000D01*
X119071012Y-96510787D01*
X119171470Y-96469176D01*
X119261880Y-96408766D01*
X119338766Y-96331880D01*
X119399176Y-96241470D01*
X119440787Y-96141012D01*
X119462000Y-96034367D01*
X119462000Y-95925633D01*
X119440787Y-95818988D01*
X119399176Y-95718530D01*
X119338766Y-95628120D01*
X119261880Y-95551234D01*
X119171470Y-95490824D01*
X119071012Y-95449213D01*
X118964367Y-95428000D01*
X118855633Y-95428000D01*
X118748988Y-95449213D01*
X118648530Y-95490824D01*
X118558120Y-95551234D01*
X118481234Y-95628120D01*
X118420824Y-95718530D01*
X118379213Y-95818988D01*
X118358000Y-95925633D01*
X117413015Y-95925633D01*
X117324367Y-95908000D01*
X117215633Y-95908000D01*
X117108988Y-95929213D01*
X117008530Y-95970824D01*
X116918120Y-96031234D01*
X116841234Y-96108120D01*
X116780824Y-96198530D01*
X116739213Y-96298988D01*
X116718000Y-96405633D01*
X115783877Y-96405633D01*
X115738766Y-96338120D01*
X115661880Y-96261234D01*
X115571470Y-96200824D01*
X115471012Y-96159213D01*
X115364367Y-96138000D01*
X115255633Y-96138000D01*
X115148988Y-96159213D01*
X115048530Y-96200824D01*
X114958120Y-96261234D01*
X114881234Y-96338120D01*
X114820824Y-96428530D01*
X114779213Y-96528988D01*
X114758000Y-96635633D01*
X104117000Y-96635633D01*
X104117000Y-95815633D01*
X109858000Y-95815633D01*
X109858000Y-95924367D01*
X109879213Y-96031012D01*
X109920824Y-96131470D01*
X109981234Y-96221880D01*
X110058120Y-96298766D01*
X110148530Y-96359176D01*
X110248988Y-96400787D01*
X110355633Y-96422000D01*
X110464367Y-96422000D01*
X110571012Y-96400787D01*
X110671470Y-96359176D01*
X110761880Y-96298766D01*
X110838766Y-96221880D01*
X110899176Y-96131470D01*
X110940787Y-96031012D01*
X110962000Y-95924367D01*
X110962000Y-95815633D01*
X110940787Y-95708988D01*
X110899176Y-95608530D01*
X110838766Y-95518120D01*
X110761880Y-95441234D01*
X110733094Y-95422000D01*
X110814367Y-95422000D01*
X110921012Y-95400787D01*
X111021470Y-95359176D01*
X111111880Y-95298766D01*
X111188766Y-95221880D01*
X111249176Y-95131470D01*
X111290787Y-95031012D01*
X111311748Y-94925633D01*
X115938000Y-94925633D01*
X115938000Y-95034367D01*
X115959213Y-95141012D01*
X116000824Y-95241470D01*
X116061234Y-95331880D01*
X116138120Y-95408766D01*
X116228530Y-95469176D01*
X116328988Y-95510787D01*
X116435633Y-95532000D01*
X116544367Y-95532000D01*
X116651012Y-95510787D01*
X116751470Y-95469176D01*
X116841880Y-95408766D01*
X116918766Y-95331880D01*
X116949667Y-95285633D01*
X117208000Y-95285633D01*
X117208000Y-95394367D01*
X117229213Y-95501012D01*
X117270824Y-95601470D01*
X117331234Y-95691880D01*
X117408120Y-95768766D01*
X117498530Y-95829176D01*
X117598988Y-95870787D01*
X117705633Y-95892000D01*
X117814367Y-95892000D01*
X117921012Y-95870787D01*
X118021470Y-95829176D01*
X118111880Y-95768766D01*
X118188766Y-95691880D01*
X118249176Y-95601470D01*
X118290787Y-95501012D01*
X118312000Y-95394367D01*
X118312000Y-95285633D01*
X118290787Y-95178988D01*
X118249176Y-95078530D01*
X118188766Y-94988120D01*
X118111880Y-94911234D01*
X118021470Y-94850824D01*
X117921012Y-94809213D01*
X117814367Y-94788000D01*
X117705633Y-94788000D01*
X117598988Y-94809213D01*
X117498530Y-94850824D01*
X117408120Y-94911234D01*
X117331234Y-94988120D01*
X117270824Y-95078530D01*
X117229213Y-95178988D01*
X117208000Y-95285633D01*
X116949667Y-95285633D01*
X116979176Y-95241470D01*
X117020787Y-95141012D01*
X117042000Y-95034367D01*
X117042000Y-94925633D01*
X117020787Y-94818988D01*
X116979176Y-94718530D01*
X116918766Y-94628120D01*
X116841880Y-94551234D01*
X116751470Y-94490824D01*
X116651012Y-94449213D01*
X116544367Y-94428000D01*
X116435633Y-94428000D01*
X116328988Y-94449213D01*
X116228530Y-94490824D01*
X116138120Y-94551234D01*
X116061234Y-94628120D01*
X116000824Y-94718530D01*
X115959213Y-94818988D01*
X115938000Y-94925633D01*
X111311748Y-94925633D01*
X111312000Y-94924367D01*
X111312000Y-94815633D01*
X111290787Y-94708988D01*
X111249176Y-94608530D01*
X111188766Y-94518120D01*
X111111880Y-94441234D01*
X111021470Y-94380824D01*
X110921012Y-94339213D01*
X110814367Y-94318000D01*
X110705633Y-94318000D01*
X110598988Y-94339213D01*
X110498530Y-94380824D01*
X110408120Y-94441234D01*
X110331234Y-94518120D01*
X110270824Y-94608530D01*
X110229213Y-94708988D01*
X110208000Y-94815633D01*
X110208000Y-94924367D01*
X110229213Y-95031012D01*
X110270824Y-95131470D01*
X110331234Y-95221880D01*
X110408120Y-95298766D01*
X110436906Y-95318000D01*
X110355633Y-95318000D01*
X110248988Y-95339213D01*
X110148530Y-95380824D01*
X110058120Y-95441234D01*
X109981234Y-95518120D01*
X109920824Y-95608530D01*
X109879213Y-95708988D01*
X109858000Y-95815633D01*
X104117000Y-95815633D01*
X104117000Y-94943646D01*
X104168766Y-94891880D01*
X104229176Y-94801470D01*
X104270787Y-94701012D01*
X104292000Y-94594367D01*
X104292000Y-94485633D01*
X104270787Y-94378988D01*
X104229176Y-94278530D01*
X104168766Y-94188120D01*
X104091880Y-94111234D01*
X104001470Y-94050824D01*
X103901012Y-94009213D01*
X103883015Y-94005633D01*
X118148000Y-94005633D01*
X118148000Y-94114367D01*
X118169213Y-94221012D01*
X118210824Y-94321470D01*
X118271234Y-94411880D01*
X118327684Y-94468330D01*
X118300824Y-94508530D01*
X118259213Y-94608988D01*
X118238000Y-94715633D01*
X118238000Y-94824367D01*
X118259213Y-94931012D01*
X118300824Y-95031470D01*
X118361234Y-95121880D01*
X118438120Y-95198766D01*
X118528530Y-95259176D01*
X118628988Y-95300787D01*
X118735633Y-95322000D01*
X118844367Y-95322000D01*
X118951012Y-95300787D01*
X119051470Y-95259176D01*
X119141880Y-95198766D01*
X119218766Y-95121880D01*
X119279176Y-95031470D01*
X119320787Y-94931012D01*
X119342000Y-94824367D01*
X119342000Y-94715633D01*
X119320787Y-94608988D01*
X119279176Y-94508530D01*
X119218766Y-94418120D01*
X119162316Y-94361670D01*
X119171099Y-94348524D01*
X119248988Y-94380787D01*
X119355633Y-94402000D01*
X119464367Y-94402000D01*
X119571012Y-94380787D01*
X119671470Y-94339176D01*
X119761880Y-94278766D01*
X119838766Y-94201880D01*
X119899176Y-94111470D01*
X119940787Y-94011012D01*
X119962000Y-93904367D01*
X119962000Y-93795633D01*
X119940787Y-93688988D01*
X119899176Y-93588530D01*
X119838766Y-93498120D01*
X119761880Y-93421234D01*
X119671470Y-93360824D01*
X119571012Y-93319213D01*
X119464367Y-93298000D01*
X119355633Y-93298000D01*
X119248988Y-93319213D01*
X119148530Y-93360824D01*
X119058120Y-93421234D01*
X118981234Y-93498120D01*
X118938901Y-93561476D01*
X118861012Y-93529213D01*
X118754367Y-93508000D01*
X118645633Y-93508000D01*
X118538988Y-93529213D01*
X118438530Y-93570824D01*
X118348120Y-93631234D01*
X118271234Y-93708120D01*
X118210824Y-93798530D01*
X118169213Y-93898988D01*
X118148000Y-94005633D01*
X103883015Y-94005633D01*
X103794367Y-93988000D01*
X103685633Y-93988000D01*
X103578988Y-94009213D01*
X103478530Y-94050824D01*
X103388120Y-94111234D01*
X103311234Y-94188120D01*
X103250824Y-94278530D01*
X103209213Y-94378988D01*
X103188000Y-94485633D01*
X103188000Y-94594367D01*
X103209213Y-94701012D01*
X103250824Y-94801470D01*
X103311234Y-94891880D01*
X103363000Y-94943646D01*
X103363001Y-96993840D01*
X103233842Y-97123000D01*
X102826224Y-97123000D01*
X102873905Y-97075318D01*
X102891159Y-97061159D01*
X102947643Y-96992333D01*
X102989614Y-96913810D01*
X103015460Y-96828607D01*
X103016171Y-96821393D01*
X103024187Y-96740001D01*
X103022000Y-96717796D01*
X103022000Y-94842205D01*
X103024187Y-94820000D01*
X103015460Y-94731392D01*
X102989614Y-94646190D01*
X102969729Y-94608988D01*
X102947643Y-94567667D01*
X102891159Y-94498841D01*
X102873905Y-94484681D01*
X102522000Y-94132777D01*
X102522000Y-93907108D01*
X102559176Y-93851470D01*
X102600787Y-93751012D01*
X102622000Y-93644367D01*
X102622000Y-93641869D01*
X102786767Y-93477102D01*
X102786772Y-93477096D01*
X102836868Y-93427000D01*
X103196354Y-93427000D01*
X103198120Y-93428766D01*
X103288530Y-93489176D01*
X103388988Y-93530787D01*
X103495633Y-93552000D01*
X103604367Y-93552000D01*
X103711012Y-93530787D01*
X103811470Y-93489176D01*
X103901880Y-93428766D01*
X103978766Y-93351880D01*
X104039176Y-93261470D01*
X104080787Y-93161012D01*
X104102000Y-93054367D01*
X104102000Y-92945633D01*
X104081386Y-92842000D01*
X104144367Y-92842000D01*
X104251012Y-92820787D01*
X104351470Y-92779176D01*
X104441880Y-92718766D01*
X104518766Y-92641880D01*
X104579176Y-92551470D01*
X104620787Y-92451012D01*
X104642000Y-92344367D01*
X104642000Y-92235633D01*
X104620787Y-92128988D01*
X104579176Y-92028530D01*
X104518766Y-91938120D01*
X104508439Y-91927793D01*
X104551880Y-91898766D01*
X104628766Y-91821880D01*
X104689176Y-91731470D01*
X104730787Y-91631012D01*
X104752000Y-91524367D01*
X104752000Y-91415633D01*
X104730787Y-91308988D01*
X104689176Y-91208530D01*
X104675953Y-91188740D01*
X104771470Y-91149176D01*
X104861880Y-91088766D01*
X104938766Y-91011880D01*
X104999176Y-90921470D01*
X105040787Y-90821012D01*
X105062000Y-90714367D01*
X105062000Y-90605633D01*
X105040787Y-90498988D01*
X104999176Y-90398530D01*
X104938766Y-90308120D01*
X104861880Y-90231234D01*
X104771470Y-90170824D01*
X104671012Y-90129213D01*
X104564367Y-90108000D01*
X104455633Y-90108000D01*
X104348988Y-90129213D01*
X104248530Y-90170824D01*
X104158120Y-90231234D01*
X104081234Y-90308120D01*
X104020824Y-90398530D01*
X103979213Y-90498988D01*
X103958000Y-90605633D01*
X103958000Y-90714367D01*
X103979213Y-90821012D01*
X104020824Y-90921470D01*
X104034047Y-90941260D01*
X103938530Y-90980824D01*
X103848120Y-91041234D01*
X103771234Y-91118120D01*
X103710824Y-91208530D01*
X103669213Y-91308988D01*
X103648000Y-91415633D01*
X103648000Y-91524367D01*
X103669213Y-91631012D01*
X103710824Y-91731470D01*
X103771234Y-91821880D01*
X103781561Y-91832207D01*
X103738120Y-91861234D01*
X103661234Y-91938120D01*
X103600824Y-92028530D01*
X103559213Y-92128988D01*
X103538000Y-92235633D01*
X103538000Y-92344367D01*
X103558614Y-92448000D01*
X103495633Y-92448000D01*
X103388988Y-92469213D01*
X103288530Y-92510824D01*
X103198120Y-92571234D01*
X103196354Y-92573000D01*
X102680967Y-92573000D01*
X102660000Y-92570935D01*
X102639033Y-92573000D01*
X102639022Y-92573000D01*
X102576293Y-92579178D01*
X102514537Y-92597912D01*
X102495803Y-92603595D01*
X102421624Y-92643244D01*
X102394344Y-92665633D01*
X102356605Y-92696605D01*
X102343232Y-92712900D01*
X102182904Y-92873228D01*
X102182898Y-92873233D01*
X102018131Y-93038000D01*
X102015633Y-93038000D01*
X101908988Y-93059213D01*
X101808530Y-93100824D01*
X101718120Y-93161234D01*
X101641234Y-93238120D01*
X101580824Y-93328530D01*
X101539213Y-93428988D01*
X101518000Y-93535633D01*
X101518000Y-93644367D01*
X101539213Y-93751012D01*
X101580824Y-93851470D01*
X101618001Y-93907109D01*
X101618000Y-94297794D01*
X101615813Y-94320000D01*
X101624540Y-94408607D01*
X101634778Y-94442357D01*
X101650386Y-94493809D01*
X101669873Y-94530268D01*
X101668530Y-94530824D01*
X101578120Y-94591234D01*
X101501234Y-94668120D01*
X101440824Y-94758530D01*
X101399213Y-94858988D01*
X101378000Y-94965633D01*
X101378000Y-95074367D01*
X101399213Y-95181012D01*
X101440824Y-95281470D01*
X101501234Y-95371880D01*
X101578120Y-95448766D01*
X101668530Y-95509176D01*
X101768988Y-95550787D01*
X101875633Y-95572000D01*
X101984367Y-95572000D01*
X102091012Y-95550787D01*
X102118001Y-95539608D01*
X102118000Y-96458000D01*
X101114712Y-96458000D01*
X101079689Y-96422977D01*
X100976996Y-96354360D01*
X100862889Y-96307095D01*
X100741754Y-96283000D01*
X100618246Y-96283000D01*
X100497111Y-96307095D01*
X100383004Y-96354360D01*
X100280311Y-96422977D01*
X100192977Y-96510311D01*
X100124360Y-96613004D01*
X100077095Y-96727111D01*
X100053000Y-96848246D01*
X100053000Y-96971754D01*
X100077095Y-97092889D01*
X100089567Y-97123000D01*
X97411168Y-97123000D01*
X95882000Y-95593832D01*
X95882000Y-95520623D01*
X95860787Y-95413978D01*
X95819176Y-95313520D01*
X95758766Y-95223110D01*
X95681880Y-95146224D01*
X95591470Y-95085814D01*
X95491012Y-95044203D01*
X95384367Y-95022990D01*
X95275633Y-95022990D01*
X95168988Y-95044203D01*
X95068530Y-95085814D01*
X94978120Y-95146224D01*
X94901234Y-95223110D01*
X94840824Y-95313520D01*
X94799213Y-95413978D01*
X94778000Y-95520623D01*
X87450966Y-95520623D01*
X87361470Y-95460824D01*
X87261012Y-95419213D01*
X87154367Y-95398000D01*
X87045633Y-95398000D01*
X86938988Y-95419213D01*
X86838530Y-95460824D01*
X86748120Y-95521234D01*
X86671234Y-95598120D01*
X86610824Y-95688530D01*
X86569213Y-95788988D01*
X86548000Y-95895633D01*
X84913787Y-95895633D01*
X84908766Y-95888120D01*
X84831880Y-95811234D01*
X84741470Y-95750824D01*
X84641012Y-95709213D01*
X84534367Y-95688000D01*
X84425633Y-95688000D01*
X84318988Y-95709213D01*
X84218530Y-95750824D01*
X84128120Y-95811234D01*
X84051234Y-95888120D01*
X83990824Y-95978530D01*
X83949213Y-96078988D01*
X83928000Y-96185633D01*
X83792466Y-96185633D01*
X83794259Y-94645633D01*
X96218000Y-94645633D01*
X96218000Y-94754367D01*
X96239213Y-94861012D01*
X96280824Y-94961470D01*
X96341234Y-95051880D01*
X96418120Y-95128766D01*
X96508530Y-95189176D01*
X96608988Y-95230787D01*
X96715633Y-95252000D01*
X96824367Y-95252000D01*
X96931012Y-95230787D01*
X97031470Y-95189176D01*
X97121880Y-95128766D01*
X97198766Y-95051880D01*
X97259176Y-94961470D01*
X97300787Y-94861012D01*
X97322000Y-94754367D01*
X97322000Y-94645633D01*
X97300787Y-94538988D01*
X97259176Y-94438530D01*
X97198766Y-94348120D01*
X97121880Y-94271234D01*
X97031470Y-94210824D01*
X96994796Y-94195633D01*
X98848000Y-94195633D01*
X98848000Y-94304367D01*
X98869213Y-94411012D01*
X98910824Y-94511470D01*
X98971234Y-94601880D01*
X99048120Y-94678766D01*
X99138530Y-94739176D01*
X99238988Y-94780787D01*
X99345633Y-94802000D01*
X99454367Y-94802000D01*
X99561012Y-94780787D01*
X99661470Y-94739176D01*
X99751880Y-94678766D01*
X99828766Y-94601880D01*
X99889176Y-94511470D01*
X99930787Y-94411012D01*
X99952000Y-94304367D01*
X99952000Y-94195633D01*
X99930787Y-94088988D01*
X99889176Y-93988530D01*
X99828766Y-93898120D01*
X99751880Y-93821234D01*
X99661470Y-93760824D01*
X99561012Y-93719213D01*
X99454367Y-93698000D01*
X99345633Y-93698000D01*
X99238988Y-93719213D01*
X99138530Y-93760824D01*
X99048120Y-93821234D01*
X98971234Y-93898120D01*
X98910824Y-93988530D01*
X98869213Y-94088988D01*
X98848000Y-94195633D01*
X96994796Y-94195633D01*
X96931012Y-94169213D01*
X96824367Y-94148000D01*
X96715633Y-94148000D01*
X96608988Y-94169213D01*
X96508530Y-94210824D01*
X96418120Y-94271234D01*
X96341234Y-94348120D01*
X96280824Y-94438530D01*
X96239213Y-94538988D01*
X96218000Y-94645633D01*
X83794259Y-94645633D01*
X83796285Y-92905633D01*
X91288000Y-92905633D01*
X91288000Y-93014367D01*
X91309213Y-93121012D01*
X91350824Y-93221470D01*
X91411234Y-93311880D01*
X91488120Y-93388766D01*
X91578530Y-93449176D01*
X91678988Y-93490787D01*
X91785633Y-93512000D01*
X91894367Y-93512000D01*
X92001012Y-93490787D01*
X92101470Y-93449176D01*
X92191880Y-93388766D01*
X92268766Y-93311880D01*
X92329176Y-93221470D01*
X92370787Y-93121012D01*
X92392000Y-93014367D01*
X92392000Y-92905633D01*
X92370787Y-92798988D01*
X92329176Y-92698530D01*
X92268766Y-92608120D01*
X92191880Y-92531234D01*
X92101470Y-92470824D01*
X92001012Y-92429213D01*
X91894367Y-92408000D01*
X91785633Y-92408000D01*
X91678988Y-92429213D01*
X91578530Y-92470824D01*
X91488120Y-92531234D01*
X91411234Y-92608120D01*
X91350824Y-92698530D01*
X91309213Y-92798988D01*
X91288000Y-92905633D01*
X83796285Y-92905633D01*
X83796753Y-92504321D01*
X83885633Y-92522000D01*
X83994367Y-92522000D01*
X84101012Y-92500787D01*
X84201470Y-92459176D01*
X84291880Y-92398766D01*
X84368766Y-92321880D01*
X84392985Y-92285633D01*
X87898000Y-92285633D01*
X87898000Y-92394367D01*
X87919213Y-92501012D01*
X87960824Y-92601470D01*
X88021234Y-92691880D01*
X88098120Y-92768766D01*
X88188530Y-92829176D01*
X88288988Y-92870787D01*
X88395633Y-92892000D01*
X88504367Y-92892000D01*
X88611012Y-92870787D01*
X88711470Y-92829176D01*
X88801880Y-92768766D01*
X88878766Y-92691880D01*
X88939176Y-92601470D01*
X88980787Y-92501012D01*
X89002000Y-92394367D01*
X89002000Y-92285633D01*
X88980787Y-92178988D01*
X88939176Y-92078530D01*
X88878766Y-91988120D01*
X88801880Y-91911234D01*
X88711470Y-91850824D01*
X88626512Y-91815633D01*
X90148000Y-91815633D01*
X90148000Y-91924367D01*
X90169213Y-92031012D01*
X90210824Y-92131470D01*
X90271234Y-92221880D01*
X90348120Y-92298766D01*
X90438530Y-92359176D01*
X90538988Y-92400787D01*
X90645633Y-92422000D01*
X90754367Y-92422000D01*
X90861012Y-92400787D01*
X90961470Y-92359176D01*
X91051880Y-92298766D01*
X91128766Y-92221880D01*
X91189176Y-92131470D01*
X91230787Y-92031012D01*
X91252000Y-91924367D01*
X91252000Y-91815633D01*
X91230787Y-91708988D01*
X91189176Y-91608530D01*
X91140468Y-91535633D01*
X92788000Y-91535633D01*
X92788000Y-91644367D01*
X92809213Y-91751012D01*
X92850824Y-91851470D01*
X92911234Y-91941880D01*
X92988120Y-92018766D01*
X93078530Y-92079176D01*
X93178988Y-92120787D01*
X93285633Y-92142000D01*
X93394367Y-92142000D01*
X93501012Y-92120787D01*
X93601470Y-92079176D01*
X93691880Y-92018766D01*
X93768766Y-91941880D01*
X93829176Y-91851470D01*
X93870787Y-91751012D01*
X93892000Y-91644367D01*
X93892000Y-91535633D01*
X93870787Y-91428988D01*
X93829176Y-91328530D01*
X93768766Y-91238120D01*
X93691880Y-91161234D01*
X93601470Y-91100824D01*
X93501012Y-91059213D01*
X93394367Y-91038000D01*
X93285633Y-91038000D01*
X93178988Y-91059213D01*
X93078530Y-91100824D01*
X92988120Y-91161234D01*
X92911234Y-91238120D01*
X92850824Y-91328530D01*
X92809213Y-91428988D01*
X92788000Y-91535633D01*
X91140468Y-91535633D01*
X91128766Y-91518120D01*
X91051880Y-91441234D01*
X90961470Y-91380824D01*
X90861012Y-91339213D01*
X90754367Y-91318000D01*
X90645633Y-91318000D01*
X90538988Y-91339213D01*
X90438530Y-91380824D01*
X90348120Y-91441234D01*
X90271234Y-91518120D01*
X90210824Y-91608530D01*
X90169213Y-91708988D01*
X90148000Y-91815633D01*
X88626512Y-91815633D01*
X88611012Y-91809213D01*
X88504367Y-91788000D01*
X88395633Y-91788000D01*
X88288988Y-91809213D01*
X88188530Y-91850824D01*
X88098120Y-91911234D01*
X88021234Y-91988120D01*
X87960824Y-92078530D01*
X87919213Y-92178988D01*
X87898000Y-92285633D01*
X84392985Y-92285633D01*
X84429176Y-92231470D01*
X84470787Y-92131012D01*
X84492000Y-92024367D01*
X84492000Y-91915633D01*
X84470787Y-91808988D01*
X84429176Y-91708530D01*
X84368766Y-91618120D01*
X84291880Y-91541234D01*
X84201470Y-91480824D01*
X84101012Y-91439213D01*
X83994367Y-91418000D01*
X83885633Y-91418000D01*
X83797998Y-91435432D01*
X83798907Y-90654039D01*
X94706653Y-90654039D01*
X94706653Y-90762773D01*
X94727866Y-90869418D01*
X94769477Y-90969876D01*
X94829887Y-91060286D01*
X94906773Y-91137172D01*
X94997183Y-91197582D01*
X95097641Y-91239193D01*
X95204286Y-91260406D01*
X95313020Y-91260406D01*
X95419665Y-91239193D01*
X95520123Y-91197582D01*
X95610533Y-91137172D01*
X95687419Y-91060286D01*
X95747829Y-90969876D01*
X95789440Y-90869418D01*
X95810653Y-90762773D01*
X95810653Y-90655633D01*
X96028000Y-90655633D01*
X96028000Y-90764367D01*
X96049213Y-90871012D01*
X96090824Y-90971470D01*
X96151234Y-91061880D01*
X96228120Y-91138766D01*
X96318530Y-91199176D01*
X96418988Y-91240787D01*
X96525633Y-91262000D01*
X96634367Y-91262000D01*
X96741012Y-91240787D01*
X96841470Y-91199176D01*
X96931880Y-91138766D01*
X97008766Y-91061880D01*
X97069176Y-90971470D01*
X97110787Y-90871012D01*
X97132000Y-90764367D01*
X97132000Y-90655633D01*
X97126553Y-90628246D01*
X102193000Y-90628246D01*
X102193000Y-90751754D01*
X102217095Y-90872889D01*
X102264360Y-90986996D01*
X102332977Y-91089689D01*
X102420311Y-91177023D01*
X102523004Y-91245640D01*
X102637111Y-91292905D01*
X102758246Y-91317000D01*
X102881754Y-91317000D01*
X103002889Y-91292905D01*
X103116996Y-91245640D01*
X103219689Y-91177023D01*
X103307023Y-91089689D01*
X103375640Y-90986996D01*
X103422905Y-90872889D01*
X103447000Y-90751754D01*
X103447000Y-90628246D01*
X103422905Y-90507111D01*
X103375640Y-90393004D01*
X103307023Y-90290311D01*
X103219689Y-90202977D01*
X103116996Y-90134360D01*
X103002889Y-90087095D01*
X102881754Y-90063000D01*
X102758246Y-90063000D01*
X102637111Y-90087095D01*
X102523004Y-90134360D01*
X102420311Y-90202977D01*
X102332977Y-90290311D01*
X102264360Y-90393004D01*
X102217095Y-90507111D01*
X102193000Y-90628246D01*
X97126553Y-90628246D01*
X97110787Y-90548988D01*
X97069176Y-90448530D01*
X97008766Y-90358120D01*
X96931880Y-90281234D01*
X96858196Y-90232000D01*
X96934367Y-90232000D01*
X97041012Y-90210787D01*
X97141470Y-90169176D01*
X97231880Y-90108766D01*
X97308766Y-90031880D01*
X97369176Y-89941470D01*
X97410787Y-89841012D01*
X97432000Y-89734367D01*
X97432000Y-89625633D01*
X97410787Y-89518988D01*
X97369176Y-89418530D01*
X97308766Y-89328120D01*
X97231880Y-89251234D01*
X97176913Y-89214506D01*
X97190787Y-89181012D01*
X97212000Y-89074367D01*
X97212000Y-88965633D01*
X97190787Y-88858988D01*
X97149176Y-88758530D01*
X97088766Y-88668120D01*
X97011880Y-88591234D01*
X96921470Y-88530824D01*
X96821012Y-88489213D01*
X96714367Y-88468000D01*
X96605633Y-88468000D01*
X96498988Y-88489213D01*
X96398530Y-88530824D01*
X96308120Y-88591234D01*
X96231234Y-88668120D01*
X96170824Y-88758530D01*
X96129213Y-88858988D01*
X96108000Y-88965633D01*
X96108000Y-89074367D01*
X96129213Y-89181012D01*
X96170824Y-89281470D01*
X96231234Y-89371880D01*
X96308120Y-89448766D01*
X96363087Y-89485494D01*
X96349213Y-89518988D01*
X96328000Y-89625633D01*
X96328000Y-89734367D01*
X96349213Y-89841012D01*
X96390824Y-89941470D01*
X96451234Y-90031880D01*
X96528120Y-90108766D01*
X96601804Y-90158000D01*
X96525633Y-90158000D01*
X96418988Y-90179213D01*
X96318530Y-90220824D01*
X96228120Y-90281234D01*
X96151234Y-90358120D01*
X96090824Y-90448530D01*
X96049213Y-90548988D01*
X96028000Y-90655633D01*
X95810653Y-90655633D01*
X95810653Y-90654039D01*
X95789440Y-90547394D01*
X95747829Y-90446936D01*
X95687419Y-90356526D01*
X95610533Y-90279640D01*
X95520123Y-90219230D01*
X95419665Y-90177619D01*
X95313020Y-90156406D01*
X95204286Y-90156406D01*
X95097641Y-90177619D01*
X94997183Y-90219230D01*
X94906773Y-90279640D01*
X94829887Y-90356526D01*
X94769477Y-90446936D01*
X94727866Y-90547394D01*
X94706653Y-90654039D01*
X83798907Y-90654039D01*
X83801036Y-88825633D01*
X85738000Y-88825633D01*
X85738000Y-88934367D01*
X85759213Y-89041012D01*
X85800824Y-89141470D01*
X85861234Y-89231880D01*
X85938120Y-89308766D01*
X86028530Y-89369176D01*
X86128988Y-89410787D01*
X86235633Y-89432000D01*
X86344367Y-89432000D01*
X86451012Y-89410787D01*
X86551470Y-89369176D01*
X86641880Y-89308766D01*
X86675013Y-89275633D01*
X90148000Y-89275633D01*
X90148000Y-89384367D01*
X90169213Y-89491012D01*
X90210824Y-89591470D01*
X90271234Y-89681880D01*
X90348120Y-89758766D01*
X90438530Y-89819176D01*
X90538988Y-89860787D01*
X90645633Y-89882000D01*
X90754367Y-89882000D01*
X90861012Y-89860787D01*
X90961470Y-89819176D01*
X91051880Y-89758766D01*
X91128766Y-89681880D01*
X91189176Y-89591470D01*
X91230787Y-89491012D01*
X91252000Y-89384367D01*
X91252000Y-89275633D01*
X91230787Y-89168988D01*
X91189176Y-89068530D01*
X91128766Y-88978120D01*
X91051880Y-88901234D01*
X90961470Y-88840824D01*
X90861012Y-88799213D01*
X90754367Y-88778000D01*
X90645633Y-88778000D01*
X90538988Y-88799213D01*
X90438530Y-88840824D01*
X90348120Y-88901234D01*
X90271234Y-88978120D01*
X90210824Y-89068530D01*
X90169213Y-89168988D01*
X90148000Y-89275633D01*
X86675013Y-89275633D01*
X86718766Y-89231880D01*
X86779176Y-89141470D01*
X86820787Y-89041012D01*
X86842000Y-88934367D01*
X86842000Y-88825633D01*
X86820787Y-88718988D01*
X86779176Y-88618530D01*
X86718766Y-88528120D01*
X86641880Y-88451234D01*
X86551470Y-88390824D01*
X86451012Y-88349213D01*
X86344367Y-88328000D01*
X86235633Y-88328000D01*
X86128988Y-88349213D01*
X86028530Y-88390824D01*
X85938120Y-88451234D01*
X85861234Y-88528120D01*
X85800824Y-88618530D01*
X85759213Y-88718988D01*
X85738000Y-88825633D01*
X83801036Y-88825633D01*
X83803283Y-86895633D01*
X87548000Y-86895633D01*
X87548000Y-87004367D01*
X87569213Y-87111012D01*
X87610824Y-87211470D01*
X87671234Y-87301880D01*
X87748120Y-87378766D01*
X87838530Y-87439176D01*
X87938988Y-87480787D01*
X88045633Y-87502000D01*
X88154367Y-87502000D01*
X88261012Y-87480787D01*
X88361470Y-87439176D01*
X88451880Y-87378766D01*
X88528766Y-87301880D01*
X88589176Y-87211470D01*
X88630787Y-87111012D01*
X88652000Y-87004367D01*
X88652000Y-86895633D01*
X88630787Y-86788988D01*
X88608687Y-86735633D01*
X90148000Y-86735633D01*
X90148000Y-86844367D01*
X90169213Y-86951012D01*
X90210824Y-87051470D01*
X90271234Y-87141880D01*
X90348120Y-87218766D01*
X90438530Y-87279176D01*
X90538988Y-87320787D01*
X90645633Y-87342000D01*
X90754367Y-87342000D01*
X90861012Y-87320787D01*
X90961470Y-87279176D01*
X91051880Y-87218766D01*
X91128766Y-87141880D01*
X91166349Y-87085633D01*
X96328000Y-87085633D01*
X96328000Y-87194367D01*
X96349213Y-87301012D01*
X96390824Y-87401470D01*
X96451234Y-87491880D01*
X96528120Y-87568766D01*
X96618530Y-87629176D01*
X96718988Y-87670787D01*
X96825633Y-87692000D01*
X96934367Y-87692000D01*
X97041012Y-87670787D01*
X97141470Y-87629176D01*
X97231880Y-87568766D01*
X97308766Y-87491880D01*
X97369176Y-87401470D01*
X97410787Y-87301012D01*
X97432000Y-87194367D01*
X97432000Y-87085633D01*
X97410787Y-86978988D01*
X97369176Y-86878530D01*
X97333832Y-86825633D01*
X97818000Y-86825633D01*
X97818000Y-86934367D01*
X97839213Y-87041012D01*
X97880824Y-87141470D01*
X97941234Y-87231880D01*
X98018120Y-87308766D01*
X98108530Y-87369176D01*
X98208988Y-87410787D01*
X98315633Y-87432000D01*
X98424367Y-87432000D01*
X98531012Y-87410787D01*
X98631470Y-87369176D01*
X98721880Y-87308766D01*
X98798766Y-87231880D01*
X98859176Y-87141470D01*
X98900787Y-87041012D01*
X98922000Y-86934367D01*
X98922000Y-86825633D01*
X98900787Y-86718988D01*
X98859176Y-86618530D01*
X98798766Y-86528120D01*
X98721880Y-86451234D01*
X98631470Y-86390824D01*
X98531012Y-86349213D01*
X98424367Y-86328000D01*
X98315633Y-86328000D01*
X98208988Y-86349213D01*
X98108530Y-86390824D01*
X98018120Y-86451234D01*
X97941234Y-86528120D01*
X97880824Y-86618530D01*
X97839213Y-86718988D01*
X97818000Y-86825633D01*
X97333832Y-86825633D01*
X97308766Y-86788120D01*
X97231880Y-86711234D01*
X97141470Y-86650824D01*
X97041012Y-86609213D01*
X96934367Y-86588000D01*
X96825633Y-86588000D01*
X96718988Y-86609213D01*
X96618530Y-86650824D01*
X96528120Y-86711234D01*
X96451234Y-86788120D01*
X96390824Y-86878530D01*
X96349213Y-86978988D01*
X96328000Y-87085633D01*
X91166349Y-87085633D01*
X91189176Y-87051470D01*
X91230787Y-86951012D01*
X91252000Y-86844367D01*
X91252000Y-86735633D01*
X91230787Y-86628988D01*
X91189176Y-86528530D01*
X91128766Y-86438120D01*
X91051880Y-86361234D01*
X90961470Y-86300824D01*
X90861012Y-86259213D01*
X90754367Y-86238000D01*
X90645633Y-86238000D01*
X90538988Y-86259213D01*
X90438530Y-86300824D01*
X90348120Y-86361234D01*
X90271234Y-86438120D01*
X90210824Y-86528530D01*
X90169213Y-86628988D01*
X90148000Y-86735633D01*
X88608687Y-86735633D01*
X88589176Y-86688530D01*
X88528766Y-86598120D01*
X88451880Y-86521234D01*
X88361470Y-86460824D01*
X88261012Y-86419213D01*
X88154367Y-86398000D01*
X88045633Y-86398000D01*
X87938988Y-86419213D01*
X87838530Y-86460824D01*
X87748120Y-86521234D01*
X87671234Y-86598120D01*
X87610824Y-86688530D01*
X87569213Y-86788988D01*
X87548000Y-86895633D01*
X83803283Y-86895633D01*
X83806852Y-83831481D01*
X88319710Y-83830717D01*
X88314213Y-83843988D01*
X88303690Y-83896891D01*
X88261012Y-83879213D01*
X88154367Y-83858000D01*
X88045633Y-83858000D01*
X87938988Y-83879213D01*
X87838530Y-83920824D01*
X87748120Y-83981234D01*
X87671234Y-84058120D01*
X87610824Y-84148530D01*
X87569213Y-84248988D01*
X87548000Y-84355633D01*
X87548000Y-84464367D01*
X87569213Y-84571012D01*
X87610824Y-84671470D01*
X87671234Y-84761880D01*
X87748120Y-84838766D01*
X87838530Y-84899176D01*
X87938988Y-84940787D01*
X88045633Y-84962000D01*
X88154367Y-84962000D01*
X88261012Y-84940787D01*
X88361470Y-84899176D01*
X88451880Y-84838766D01*
X88528766Y-84761880D01*
X88589176Y-84671470D01*
X88630787Y-84571012D01*
X88641310Y-84518109D01*
X88683988Y-84535787D01*
X88790633Y-84557000D01*
X88899367Y-84557000D01*
X89006012Y-84535787D01*
X89106470Y-84494176D01*
X89196880Y-84433766D01*
X89273766Y-84356880D01*
X89334176Y-84266470D01*
X89375787Y-84166012D01*
X89397000Y-84059367D01*
X89397000Y-83950633D01*
X89375787Y-83843988D01*
X89370216Y-83830539D01*
X90338979Y-83830375D01*
X90271234Y-83898120D01*
X90210824Y-83988530D01*
X90169213Y-84088988D01*
X90148000Y-84195633D01*
X90148000Y-84304367D01*
X90169213Y-84411012D01*
X90210824Y-84511470D01*
X90271234Y-84601880D01*
X90348120Y-84678766D01*
X90438530Y-84739176D01*
X90538988Y-84780787D01*
X90645633Y-84802000D01*
X90754367Y-84802000D01*
X90861012Y-84780787D01*
X90961470Y-84739176D01*
X91051880Y-84678766D01*
X91128766Y-84601880D01*
X91166349Y-84545633D01*
X96328000Y-84545633D01*
X96328000Y-84654367D01*
X96349213Y-84761012D01*
X96390824Y-84861470D01*
X96451234Y-84951880D01*
X96528120Y-85028766D01*
X96618530Y-85089176D01*
X96718988Y-85130787D01*
X96825633Y-85152000D01*
X96934367Y-85152000D01*
X97041012Y-85130787D01*
X97141470Y-85089176D01*
X97231880Y-85028766D01*
X97308766Y-84951880D01*
X97369176Y-84861470D01*
X97410787Y-84761012D01*
X97432000Y-84654367D01*
X97432000Y-84545633D01*
X97428022Y-84525633D01*
X101258000Y-84525633D01*
X101258000Y-84634367D01*
X101279213Y-84741012D01*
X101320824Y-84841470D01*
X101381234Y-84931880D01*
X101458120Y-85008766D01*
X101548530Y-85069176D01*
X101648988Y-85110787D01*
X101755633Y-85132000D01*
X101864367Y-85132000D01*
X101971012Y-85110787D01*
X102071470Y-85069176D01*
X102161880Y-85008766D01*
X102238766Y-84931880D01*
X102299176Y-84841470D01*
X102340787Y-84741012D01*
X102362000Y-84634367D01*
X102362000Y-84525633D01*
X102340787Y-84418988D01*
X102299176Y-84318530D01*
X102238766Y-84228120D01*
X102161880Y-84151234D01*
X102071470Y-84090824D01*
X101971012Y-84049213D01*
X101864367Y-84028000D01*
X101755633Y-84028000D01*
X101648988Y-84049213D01*
X101548530Y-84090824D01*
X101458120Y-84151234D01*
X101381234Y-84228120D01*
X101320824Y-84318530D01*
X101279213Y-84418988D01*
X101258000Y-84525633D01*
X97428022Y-84525633D01*
X97410787Y-84438988D01*
X97369176Y-84338530D01*
X97308766Y-84248120D01*
X97231880Y-84171234D01*
X97141470Y-84110824D01*
X97041012Y-84069213D01*
X96934367Y-84048000D01*
X96825633Y-84048000D01*
X96718988Y-84069213D01*
X96618530Y-84110824D01*
X96528120Y-84171234D01*
X96451234Y-84248120D01*
X96390824Y-84338530D01*
X96349213Y-84438988D01*
X96328000Y-84545633D01*
X91166349Y-84545633D01*
X91189176Y-84511470D01*
X91230787Y-84411012D01*
X91252000Y-84304367D01*
X91252000Y-84195633D01*
X91230787Y-84088988D01*
X91189176Y-83988530D01*
X91128766Y-83898120D01*
X91060899Y-83830253D01*
X108673985Y-83827270D01*
X108638120Y-83851234D01*
G37*
X108638120Y-83851234D02*
X108561234Y-83928120D01*
X108500824Y-84018530D01*
X108459213Y-84118988D01*
X108438000Y-84225633D01*
X108438000Y-84334367D01*
X108459213Y-84441012D01*
X108500824Y-84541470D01*
X108561234Y-84631880D01*
X108562354Y-84633000D01*
X103500967Y-84633000D01*
X103480000Y-84630935D01*
X103459033Y-84633000D01*
X103459022Y-84633000D01*
X103396293Y-84639178D01*
X103315804Y-84663595D01*
X103301071Y-84671470D01*
X103241623Y-84703245D01*
X103192899Y-84743232D01*
X103192895Y-84743236D01*
X103176605Y-84756605D01*
X103163236Y-84772895D01*
X102264573Y-85671559D01*
X102259176Y-85658530D01*
X102198766Y-85568120D01*
X102121880Y-85491234D01*
X102031470Y-85430824D01*
X101931012Y-85389213D01*
X101824367Y-85368000D01*
X101715633Y-85368000D01*
X101608988Y-85389213D01*
X101508530Y-85430824D01*
X101418120Y-85491234D01*
X101341234Y-85568120D01*
X101280824Y-85658530D01*
X101239213Y-85758988D01*
X101218000Y-85865633D01*
X101218000Y-85974367D01*
X101239213Y-86081012D01*
X101280824Y-86181470D01*
X101341234Y-86271880D01*
X101418120Y-86348766D01*
X101508530Y-86409176D01*
X101521559Y-86414573D01*
X98498132Y-89438000D01*
X98495633Y-89438000D01*
X98388988Y-89459213D01*
X98288530Y-89500824D01*
X98198120Y-89561234D01*
X98121234Y-89638120D01*
X98060824Y-89728530D01*
X98019213Y-89828988D01*
X97998000Y-89935633D01*
X97998000Y-90044367D01*
X98019213Y-90151012D01*
X98060824Y-90251470D01*
X98121234Y-90341880D01*
X98198120Y-90418766D01*
X98288530Y-90479176D01*
X98388988Y-90520787D01*
X98495633Y-90542000D01*
X98604367Y-90542000D01*
X98711012Y-90520787D01*
X98811470Y-90479176D01*
X98901880Y-90418766D01*
X98978766Y-90341880D01*
X99039176Y-90251470D01*
X99080787Y-90151012D01*
X99102000Y-90044367D01*
X99102000Y-90041868D01*
X99538235Y-89605633D01*
X101258000Y-89605633D01*
X101258000Y-89714367D01*
X101279213Y-89821012D01*
X101320824Y-89921470D01*
X101381234Y-90011880D01*
X101458120Y-90088766D01*
X101548530Y-90149176D01*
X101648988Y-90190787D01*
X101755633Y-90212000D01*
X101864367Y-90212000D01*
X101971012Y-90190787D01*
X102071470Y-90149176D01*
X102161880Y-90088766D01*
X102238766Y-90011880D01*
X102299176Y-89921470D01*
X102340787Y-89821012D01*
X102362000Y-89714367D01*
X102362000Y-89605633D01*
X102340787Y-89498988D01*
X102299176Y-89398530D01*
X102238766Y-89308120D01*
X102161880Y-89231234D01*
X102071470Y-89170824D01*
X101971012Y-89129213D01*
X101864367Y-89108000D01*
X101755633Y-89108000D01*
X101648988Y-89129213D01*
X101548530Y-89170824D01*
X101458120Y-89231234D01*
X101381234Y-89308120D01*
X101320824Y-89398530D01*
X101279213Y-89498988D01*
X101258000Y-89605633D01*
X99538235Y-89605633D01*
X101228235Y-87915633D01*
X103778000Y-87915633D01*
X103778000Y-88024367D01*
X103799213Y-88131012D01*
X103840824Y-88231470D01*
X103901234Y-88321880D01*
X103978120Y-88398766D01*
X104068530Y-88459176D01*
X104168988Y-88500787D01*
X104275633Y-88522000D01*
X104384367Y-88522000D01*
X104491012Y-88500787D01*
X104591470Y-88459176D01*
X104681880Y-88398766D01*
X104758766Y-88321880D01*
X104819176Y-88231470D01*
X104847951Y-88162001D01*
X104861234Y-88181880D01*
X104938120Y-88258766D01*
X105028530Y-88319176D01*
X105128988Y-88360787D01*
X105235633Y-88382000D01*
X105344367Y-88382000D01*
X105451012Y-88360787D01*
X105551470Y-88319176D01*
X105641880Y-88258766D01*
X105718766Y-88181880D01*
X105779176Y-88091470D01*
X105820787Y-87991012D01*
X105842000Y-87884367D01*
X105842000Y-87775633D01*
X105820787Y-87668988D01*
X105779176Y-87568530D01*
X105718766Y-87478120D01*
X105641880Y-87401234D01*
X105551470Y-87340824D01*
X105451012Y-87299213D01*
X105344367Y-87278000D01*
X105235633Y-87278000D01*
X105128988Y-87299213D01*
X105028530Y-87340824D01*
X104938120Y-87401234D01*
X104861234Y-87478120D01*
X104800824Y-87568530D01*
X104772049Y-87637999D01*
X104758766Y-87618120D01*
X104681880Y-87541234D01*
X104591470Y-87480824D01*
X104491012Y-87439213D01*
X104384367Y-87418000D01*
X104275633Y-87418000D01*
X104168988Y-87439213D01*
X104068530Y-87480824D01*
X103978120Y-87541234D01*
X103901234Y-87618120D01*
X103840824Y-87708530D01*
X103799213Y-87808988D01*
X103778000Y-87915633D01*
X101228235Y-87915633D01*
X102825622Y-86318246D01*
X104613000Y-86318246D01*
X104613000Y-86441754D01*
X104637095Y-86562889D01*
X104684360Y-86676996D01*
X104752977Y-86779689D01*
X104840311Y-86867023D01*
X104943004Y-86935640D01*
X105057111Y-86982905D01*
X105178246Y-87007000D01*
X105301754Y-87007000D01*
X105422889Y-86982905D01*
X105536996Y-86935640D01*
X105639689Y-86867023D01*
X105727023Y-86779689D01*
X105795640Y-86676996D01*
X105842905Y-86562889D01*
X105867000Y-86441754D01*
X105867000Y-86318246D01*
X105842905Y-86197111D01*
X105795640Y-86083004D01*
X105727023Y-85980311D01*
X105639689Y-85892977D01*
X105536996Y-85824360D01*
X105422889Y-85777095D01*
X105301754Y-85753000D01*
X105178246Y-85753000D01*
X105057111Y-85777095D01*
X104943004Y-85824360D01*
X104840311Y-85892977D01*
X104752977Y-85980311D01*
X104684360Y-86083004D01*
X104637095Y-86197111D01*
X104613000Y-86318246D01*
X102825622Y-86318246D01*
X103656869Y-85487000D01*
X109423132Y-85487000D01*
X109466914Y-85530783D01*
X109418530Y-85550824D01*
X109328120Y-85611234D01*
X109251234Y-85688120D01*
X109190824Y-85778530D01*
X109149213Y-85878988D01*
X109128000Y-85985633D01*
X109128000Y-86094367D01*
X109149213Y-86201012D01*
X109190824Y-86301470D01*
X109251234Y-86391880D01*
X109328120Y-86468766D01*
X109418530Y-86529176D01*
X109518988Y-86570787D01*
X109625633Y-86592000D01*
X109734367Y-86592000D01*
X109841012Y-86570787D01*
X109941470Y-86529176D01*
X110031880Y-86468766D01*
X110108766Y-86391880D01*
X110146615Y-86335236D01*
X110147708Y-87132643D01*
X110124367Y-87128000D01*
X110015633Y-87128000D01*
X109908988Y-87149213D01*
X109808530Y-87190824D01*
X109718120Y-87251234D01*
X109641234Y-87328120D01*
X109580824Y-87418530D01*
X109539213Y-87518988D01*
X109518000Y-87625633D01*
X109518000Y-87734367D01*
X109539213Y-87841012D01*
X109580824Y-87941470D01*
X109641234Y-88031880D01*
X109718120Y-88108766D01*
X109808530Y-88169176D01*
X109908988Y-88210787D01*
X110015633Y-88232000D01*
X110124367Y-88232000D01*
X110149210Y-88227058D01*
X110153000Y-90990174D01*
X110155474Y-91014947D01*
X110162734Y-91038762D01*
X110174500Y-91060702D01*
X110189560Y-91079160D01*
X111199560Y-92103662D01*
X111200197Y-92104305D01*
X111371502Y-92275610D01*
X111348120Y-92291234D01*
X111271234Y-92368120D01*
X111210824Y-92458530D01*
X111190000Y-92508804D01*
X111169176Y-92458530D01*
X111108766Y-92368120D01*
X111031880Y-92291234D01*
X110941470Y-92230824D01*
X110841012Y-92189213D01*
X110734367Y-92168000D01*
X110625633Y-92168000D01*
X110518988Y-92189213D01*
X110418530Y-92230824D01*
X110328120Y-92291234D01*
X110272000Y-92347354D01*
X110272000Y-92255633D01*
X110250787Y-92148988D01*
X110209176Y-92048530D01*
X110148766Y-91958120D01*
X110071880Y-91881234D01*
X109981470Y-91820824D01*
X109881012Y-91779213D01*
X109774367Y-91758000D01*
X109665633Y-91758000D01*
X109558988Y-91779213D01*
X109458530Y-91820824D01*
X109368120Y-91881234D01*
X109291234Y-91958120D01*
X109230824Y-92048530D01*
X109189213Y-92148988D01*
X109168000Y-92255633D01*
X109168000Y-92364367D01*
X109189213Y-92471012D01*
X109230824Y-92571470D01*
X109291234Y-92661880D01*
X109368120Y-92738766D01*
X109458530Y-92799176D01*
X109558988Y-92840787D01*
X109665633Y-92862000D01*
X109774367Y-92862000D01*
X109881012Y-92840787D01*
X109981470Y-92799176D01*
X110071880Y-92738766D01*
X110128000Y-92682646D01*
X110128000Y-92774367D01*
X110149213Y-92881012D01*
X110190824Y-92981470D01*
X110251234Y-93071880D01*
X110328120Y-93148766D01*
X110418530Y-93209176D01*
X110518988Y-93250787D01*
X110625633Y-93272000D01*
X110734367Y-93272000D01*
X110841012Y-93250787D01*
X110941470Y-93209176D01*
X111031880Y-93148766D01*
X111108766Y-93071880D01*
X111169176Y-92981470D01*
X111190000Y-92931196D01*
X111210824Y-92981470D01*
X111271234Y-93071880D01*
X111348120Y-93148766D01*
X111438530Y-93209176D01*
X111538988Y-93250787D01*
X111645633Y-93272000D01*
X111754367Y-93272000D01*
X111861012Y-93250787D01*
X111873454Y-93245633D01*
X114928000Y-93245633D01*
X114928000Y-93354367D01*
X114949213Y-93461012D01*
X114990824Y-93561470D01*
X115051234Y-93651880D01*
X115128120Y-93728766D01*
X115218530Y-93789176D01*
X115318988Y-93830787D01*
X115425633Y-93852000D01*
X115534367Y-93852000D01*
X115641012Y-93830787D01*
X115741470Y-93789176D01*
X115775000Y-93766772D01*
X115808530Y-93789176D01*
X115908988Y-93830787D01*
X116015633Y-93852000D01*
X116124367Y-93852000D01*
X116231012Y-93830787D01*
X116331470Y-93789176D01*
X116421880Y-93728766D01*
X116498766Y-93651880D01*
X116559176Y-93561470D01*
X116600787Y-93461012D01*
X116622000Y-93354367D01*
X116622000Y-93245633D01*
X116618022Y-93225633D01*
X119978000Y-93225633D01*
X119978000Y-93334367D01*
X119999213Y-93441012D01*
X120040824Y-93541470D01*
X120101234Y-93631880D01*
X120178120Y-93708766D01*
X120268530Y-93769176D01*
X120368988Y-93810787D01*
X120475633Y-93832000D01*
X120584367Y-93832000D01*
X120691012Y-93810787D01*
X120791470Y-93769176D01*
X120881880Y-93708766D01*
X120958766Y-93631880D01*
X121019176Y-93541470D01*
X121060787Y-93441012D01*
X121066132Y-93414143D01*
X121105633Y-93422000D01*
X121214367Y-93422000D01*
X121321012Y-93400787D01*
X121421470Y-93359176D01*
X121511880Y-93298766D01*
X121588766Y-93221880D01*
X121649176Y-93131470D01*
X121690787Y-93031012D01*
X121712000Y-92924367D01*
X121712000Y-92815633D01*
X121700342Y-92757024D01*
X121775633Y-92772000D01*
X121884367Y-92772000D01*
X121898165Y-92769255D01*
X121878000Y-92870633D01*
X121878000Y-92979367D01*
X121899213Y-93086012D01*
X121940824Y-93186470D01*
X122001234Y-93276880D01*
X122078120Y-93353766D01*
X122168530Y-93414176D01*
X122268988Y-93455787D01*
X122375633Y-93477000D01*
X122484367Y-93477000D01*
X122591012Y-93455787D01*
X122691470Y-93414176D01*
X122781880Y-93353766D01*
X122858766Y-93276880D01*
X122919176Y-93186470D01*
X122960787Y-93086012D01*
X122982000Y-92979367D01*
X122982000Y-92870633D01*
X122960787Y-92763988D01*
X122919176Y-92663530D01*
X122858766Y-92573120D01*
X122781880Y-92496234D01*
X122691470Y-92435824D01*
X122591012Y-92394213D01*
X122484367Y-92373000D01*
X122375633Y-92373000D01*
X122361835Y-92375745D01*
X122382000Y-92274367D01*
X122382000Y-92165633D01*
X122360787Y-92058988D01*
X122319176Y-91958530D01*
X122258766Y-91868120D01*
X122181880Y-91791234D01*
X122091470Y-91730824D01*
X121991012Y-91689213D01*
X121884367Y-91668000D01*
X121775633Y-91668000D01*
X121668988Y-91689213D01*
X121568530Y-91730824D01*
X121478120Y-91791234D01*
X121401234Y-91868120D01*
X121340824Y-91958530D01*
X121299213Y-92058988D01*
X121278000Y-92165633D01*
X121278000Y-92274367D01*
X121289658Y-92332976D01*
X121214367Y-92318000D01*
X121105633Y-92318000D01*
X120998988Y-92339213D01*
X120898530Y-92380824D01*
X120808120Y-92441234D01*
X120731234Y-92518120D01*
X120670824Y-92608530D01*
X120629213Y-92708988D01*
X120623868Y-92735857D01*
X120584367Y-92728000D01*
X120475633Y-92728000D01*
X120368988Y-92749213D01*
X120268530Y-92790824D01*
X120178120Y-92851234D01*
X120101234Y-92928120D01*
X120040824Y-93018530D01*
X119999213Y-93118988D01*
X119978000Y-93225633D01*
X116618022Y-93225633D01*
X116600787Y-93138988D01*
X116559176Y-93038530D01*
X116498766Y-92948120D01*
X116421880Y-92871234D01*
X116331470Y-92810824D01*
X116231012Y-92769213D01*
X116124367Y-92748000D01*
X116015633Y-92748000D01*
X115908988Y-92769213D01*
X115808530Y-92810824D01*
X115775000Y-92833228D01*
X115741470Y-92810824D01*
X115641012Y-92769213D01*
X115534367Y-92748000D01*
X115425633Y-92748000D01*
X115318988Y-92769213D01*
X115218530Y-92810824D01*
X115128120Y-92871234D01*
X115051234Y-92948120D01*
X114990824Y-93038530D01*
X114949213Y-93138988D01*
X114928000Y-93245633D01*
X111873454Y-93245633D01*
X111961470Y-93209176D01*
X112051880Y-93148766D01*
X112128766Y-93071880D01*
X112144390Y-93048498D01*
X112200197Y-93104305D01*
X112219443Y-93120099D01*
X112241399Y-93131835D01*
X112265224Y-93139062D01*
X112290000Y-93141502D01*
X113190000Y-93141502D01*
X113214776Y-93139062D01*
X113238601Y-93131835D01*
X113260557Y-93120099D01*
X113279803Y-93104305D01*
X114279803Y-92104305D01*
X114295597Y-92085059D01*
X114307333Y-92063103D01*
X114314560Y-92039278D01*
X114317000Y-92014502D01*
X114317000Y-90545633D01*
X119448000Y-90545633D01*
X119448000Y-90654367D01*
X119469213Y-90761012D01*
X119510824Y-90861470D01*
X119571234Y-90951880D01*
X119648120Y-91028766D01*
X119738530Y-91089176D01*
X119838988Y-91130787D01*
X119945633Y-91152000D01*
X120054367Y-91152000D01*
X120161012Y-91130787D01*
X120261470Y-91089176D01*
X120351880Y-91028766D01*
X120428766Y-90951880D01*
X120489176Y-90861470D01*
X120530787Y-90761012D01*
X120552000Y-90654367D01*
X120552000Y-90545633D01*
X120530787Y-90438988D01*
X120489176Y-90338530D01*
X120428766Y-90248120D01*
X120351880Y-90171234D01*
X120261470Y-90110824D01*
X120161012Y-90069213D01*
X120054367Y-90048000D01*
X119945633Y-90048000D01*
X119838988Y-90069213D01*
X119738530Y-90110824D01*
X119648120Y-90171234D01*
X119571234Y-90248120D01*
X119510824Y-90338530D01*
X119469213Y-90438988D01*
X119448000Y-90545633D01*
X114317000Y-90545633D01*
X114317000Y-89655633D01*
X121118000Y-89655633D01*
X121118000Y-89764367D01*
X121139213Y-89871012D01*
X121180824Y-89971470D01*
X121241234Y-90061880D01*
X121318120Y-90138766D01*
X121328781Y-90145889D01*
X121319213Y-90168988D01*
X121298000Y-90275633D01*
X121298000Y-90384367D01*
X121319213Y-90491012D01*
X121360824Y-90591470D01*
X121421234Y-90681880D01*
X121498120Y-90758766D01*
X121588530Y-90819176D01*
X121688988Y-90860787D01*
X121795633Y-90882000D01*
X121904367Y-90882000D01*
X122011012Y-90860787D01*
X122111470Y-90819176D01*
X122201880Y-90758766D01*
X122278766Y-90681880D01*
X122339176Y-90591470D01*
X122380787Y-90491012D01*
X122402000Y-90384367D01*
X122402000Y-90275633D01*
X122380787Y-90168988D01*
X122339176Y-90068530D01*
X122278766Y-89978120D01*
X122201880Y-89901234D01*
X122191219Y-89894111D01*
X122200787Y-89871012D01*
X122222000Y-89764367D01*
X122222000Y-89655633D01*
X122200787Y-89548988D01*
X122159176Y-89448530D01*
X122098766Y-89358120D01*
X122021880Y-89281234D01*
X121931470Y-89220824D01*
X121831012Y-89179213D01*
X121724367Y-89158000D01*
X121615633Y-89158000D01*
X121508988Y-89179213D01*
X121408530Y-89220824D01*
X121318120Y-89281234D01*
X121241234Y-89358120D01*
X121180824Y-89448530D01*
X121139213Y-89548988D01*
X121118000Y-89655633D01*
X114317000Y-89655633D01*
X114317000Y-88645633D01*
X121688000Y-88645633D01*
X121688000Y-88754367D01*
X121709213Y-88861012D01*
X121750824Y-88961470D01*
X121811234Y-89051880D01*
X121888120Y-89128766D01*
X121978530Y-89189176D01*
X122078988Y-89230787D01*
X122185633Y-89252000D01*
X122294367Y-89252000D01*
X122401012Y-89230787D01*
X122501470Y-89189176D01*
X122591880Y-89128766D01*
X122668766Y-89051880D01*
X122729176Y-88961470D01*
X122770787Y-88861012D01*
X122792000Y-88754367D01*
X122792000Y-88645633D01*
X122770787Y-88538988D01*
X122729176Y-88438530D01*
X122668766Y-88348120D01*
X122591880Y-88271234D01*
X122501470Y-88210824D01*
X122401012Y-88169213D01*
X122294367Y-88148000D01*
X122185633Y-88148000D01*
X122078988Y-88169213D01*
X121978530Y-88210824D01*
X121888120Y-88271234D01*
X121811234Y-88348120D01*
X121750824Y-88438530D01*
X121709213Y-88538988D01*
X121688000Y-88645633D01*
X114317000Y-88645633D01*
X114317000Y-88114502D01*
X114314560Y-88089726D01*
X114307333Y-88065901D01*
X114295597Y-88043945D01*
X114279803Y-88024699D01*
X112880737Y-86625633D01*
X113463000Y-86625633D01*
X113463000Y-86734367D01*
X113484213Y-86841012D01*
X113525824Y-86941470D01*
X113586234Y-87031880D01*
X113663120Y-87108766D01*
X113753530Y-87169176D01*
X113853988Y-87210787D01*
X113960633Y-87232000D01*
X114069367Y-87232000D01*
X114176012Y-87210787D01*
X114276470Y-87169176D01*
X114366880Y-87108766D01*
X114443766Y-87031880D01*
X114504176Y-86941470D01*
X114545787Y-86841012D01*
X114567000Y-86734367D01*
X114567000Y-86645633D01*
X116958000Y-86645633D01*
X116958000Y-86754367D01*
X116979213Y-86861012D01*
X117020824Y-86961470D01*
X117081234Y-87051880D01*
X117158120Y-87128766D01*
X117248530Y-87189176D01*
X117348988Y-87230787D01*
X117455633Y-87252000D01*
X117564367Y-87252000D01*
X117671012Y-87230787D01*
X117771470Y-87189176D01*
X117861880Y-87128766D01*
X117938766Y-87051880D01*
X117999176Y-86961470D01*
X118040787Y-86861012D01*
X118062000Y-86754367D01*
X118062000Y-86645633D01*
X118040787Y-86538988D01*
X117999176Y-86438530D01*
X117938766Y-86348120D01*
X117861880Y-86271234D01*
X117771470Y-86210824D01*
X117671012Y-86169213D01*
X117564367Y-86148000D01*
X117455633Y-86148000D01*
X117348988Y-86169213D01*
X117248530Y-86210824D01*
X117158120Y-86271234D01*
X117081234Y-86348120D01*
X117020824Y-86438530D01*
X116979213Y-86538988D01*
X116958000Y-86645633D01*
X114567000Y-86645633D01*
X114567000Y-86625633D01*
X114545787Y-86518988D01*
X114504176Y-86418530D01*
X114443766Y-86328120D01*
X114366880Y-86251234D01*
X114276470Y-86190824D01*
X114176012Y-86149213D01*
X114069367Y-86128000D01*
X113960633Y-86128000D01*
X113853988Y-86149213D01*
X113753530Y-86190824D01*
X113663120Y-86251234D01*
X113586234Y-86328120D01*
X113525824Y-86418530D01*
X113484213Y-86518988D01*
X113463000Y-86625633D01*
X112880737Y-86625633D01*
X112677000Y-86421896D01*
X112677000Y-86015633D01*
X118438000Y-86015633D01*
X118438000Y-86124367D01*
X118459213Y-86231012D01*
X118500824Y-86331470D01*
X118561234Y-86421880D01*
X118638120Y-86498766D01*
X118728530Y-86559176D01*
X118828988Y-86600787D01*
X118935633Y-86622000D01*
X119044367Y-86622000D01*
X119151012Y-86600787D01*
X119211739Y-86575633D01*
X120598000Y-86575633D01*
X120598000Y-86684367D01*
X120619213Y-86791012D01*
X120660824Y-86891470D01*
X120721234Y-86981880D01*
X120798120Y-87058766D01*
X120888530Y-87119176D01*
X120988988Y-87160787D01*
X121095633Y-87182000D01*
X121204367Y-87182000D01*
X121311012Y-87160787D01*
X121411470Y-87119176D01*
X121501880Y-87058766D01*
X121578766Y-86981880D01*
X121639176Y-86891470D01*
X121680787Y-86791012D01*
X121702000Y-86684367D01*
X121702000Y-86575633D01*
X121680787Y-86468988D01*
X121639176Y-86368530D01*
X121578766Y-86278120D01*
X121501880Y-86201234D01*
X121411470Y-86140824D01*
X121311012Y-86099213D01*
X121204367Y-86078000D01*
X121095633Y-86078000D01*
X120988988Y-86099213D01*
X120888530Y-86140824D01*
X120798120Y-86201234D01*
X120721234Y-86278120D01*
X120660824Y-86368530D01*
X120619213Y-86468988D01*
X120598000Y-86575633D01*
X119211739Y-86575633D01*
X119251470Y-86559176D01*
X119341880Y-86498766D01*
X119418766Y-86421880D01*
X119479176Y-86331470D01*
X119520787Y-86231012D01*
X119542000Y-86124367D01*
X119542000Y-86055633D01*
X121828000Y-86055633D01*
X121828000Y-86164367D01*
X121849213Y-86271012D01*
X121890824Y-86371470D01*
X121951234Y-86461880D01*
X122028120Y-86538766D01*
X122118530Y-86599176D01*
X122218988Y-86640787D01*
X122325633Y-86662000D01*
X122434367Y-86662000D01*
X122541012Y-86640787D01*
X122641470Y-86599176D01*
X122731880Y-86538766D01*
X122808766Y-86461880D01*
X122869176Y-86371470D01*
X122910787Y-86271012D01*
X122932000Y-86164367D01*
X122932000Y-86055633D01*
X122910787Y-85948988D01*
X122869176Y-85848530D01*
X122808766Y-85758120D01*
X122731880Y-85681234D01*
X122641470Y-85620824D01*
X122541012Y-85579213D01*
X122434367Y-85558000D01*
X122325633Y-85558000D01*
X122218988Y-85579213D01*
X122118530Y-85620824D01*
X122028120Y-85681234D01*
X121951234Y-85758120D01*
X121890824Y-85848530D01*
X121849213Y-85948988D01*
X121828000Y-86055633D01*
X119542000Y-86055633D01*
X119542000Y-86015633D01*
X119520787Y-85908988D01*
X119479176Y-85808530D01*
X119418766Y-85718120D01*
X119341880Y-85641234D01*
X119251470Y-85580824D01*
X119151012Y-85539213D01*
X119044367Y-85518000D01*
X118935633Y-85518000D01*
X118828988Y-85539213D01*
X118728530Y-85580824D01*
X118638120Y-85641234D01*
X118561234Y-85718120D01*
X118500824Y-85808530D01*
X118459213Y-85908988D01*
X118438000Y-86015633D01*
X112677000Y-86015633D01*
X112677000Y-85940910D01*
X113260487Y-85006874D01*
X122595074Y-84990070D01*
X122588000Y-85025633D01*
X122588000Y-85134367D01*
X122609213Y-85241012D01*
X122650824Y-85341470D01*
X122711234Y-85431880D01*
X122788120Y-85508766D01*
X122878530Y-85569176D01*
X122978988Y-85610787D01*
X123085633Y-85632000D01*
X123194367Y-85632000D01*
X123301012Y-85610787D01*
X123401470Y-85569176D01*
X123491880Y-85508766D01*
X123568766Y-85431880D01*
X123629176Y-85341470D01*
X123670787Y-85241012D01*
X123692000Y-85134367D01*
X123692000Y-85025633D01*
X123684536Y-84988108D01*
X124172522Y-84987230D01*
X124122419Y-98348000D01*
X124025633Y-98348000D01*
X123918988Y-98369213D01*
X123818530Y-98410824D01*
X123728120Y-98471234D01*
X123651234Y-98548120D01*
X123590824Y-98638530D01*
X123553764Y-98728000D01*
X123465633Y-98728000D01*
X123358988Y-98749213D01*
X123258530Y-98790824D01*
X123168120Y-98851234D01*
X123091234Y-98928120D01*
X123051069Y-98988231D01*
X122981012Y-98959213D01*
X122874367Y-98938000D01*
X122765633Y-98938000D01*
X122658988Y-98959213D01*
X122558530Y-99000824D01*
X122468120Y-99061234D01*
X122391234Y-99138120D01*
X122330824Y-99228530D01*
X122289213Y-99328988D01*
X122268000Y-99435633D01*
X122268000Y-99544367D01*
X122289213Y-99651012D01*
X122330824Y-99751470D01*
X122391234Y-99841880D01*
X122468120Y-99918766D01*
X122475594Y-99923760D01*
X122401234Y-99998120D01*
X122340824Y-100088530D01*
X122299213Y-100188988D01*
X122278000Y-100295633D01*
X122278000Y-100404367D01*
X122299213Y-100511012D01*
X122340824Y-100611470D01*
X122401234Y-100701880D01*
X122433244Y-100733890D01*
X98482279Y-100745694D01*
X98500787Y-100701012D01*
X98522000Y-100594367D01*
X98522000Y-100485633D01*
X98500787Y-100378988D01*
X98459176Y-100278530D01*
X98398766Y-100188120D01*
X98321880Y-100111234D01*
X98231470Y-100050824D01*
X98131012Y-100009213D01*
X98024367Y-99988000D01*
X97915633Y-99988000D01*
X97808988Y-100009213D01*
X97708530Y-100050824D01*
X97618120Y-100111234D01*
X97541234Y-100188120D01*
X97480824Y-100278530D01*
X97439213Y-100378988D01*
X97418000Y-100485633D01*
X97418000Y-100594367D01*
X97439213Y-100701012D01*
X97457930Y-100746199D01*
X84236105Y-100752716D01*
X84301880Y-100708766D01*
X84378766Y-100631880D01*
X84439176Y-100541470D01*
X84480787Y-100441012D01*
X84502000Y-100334367D01*
X84502000Y-100225633D01*
X84480787Y-100118988D01*
X84439176Y-100018530D01*
X84378766Y-99928120D01*
X84301880Y-99851234D01*
X84248600Y-99815633D01*
X89868000Y-99815633D01*
X89868000Y-99924367D01*
X89889213Y-100031012D01*
X89930824Y-100131470D01*
X89991234Y-100221880D01*
X90068120Y-100298766D01*
X90158530Y-100359176D01*
X90258988Y-100400787D01*
X90365633Y-100422000D01*
X90474367Y-100422000D01*
X90581012Y-100400787D01*
X90681470Y-100359176D01*
X90771880Y-100298766D01*
X90848766Y-100221880D01*
X90909176Y-100131470D01*
X90950787Y-100031012D01*
X90972000Y-99924367D01*
X90972000Y-99815633D01*
X90950787Y-99708988D01*
X90909176Y-99608530D01*
X90848766Y-99518120D01*
X90771880Y-99441234D01*
X90681470Y-99380824D01*
X90644796Y-99365633D01*
X92288000Y-99365633D01*
X92288000Y-99474367D01*
X92309213Y-99581012D01*
X92350824Y-99681470D01*
X92411234Y-99771880D01*
X92488120Y-99848766D01*
X92578530Y-99909176D01*
X92678988Y-99950787D01*
X92785633Y-99972000D01*
X92894367Y-99972000D01*
X93001012Y-99950787D01*
X93101470Y-99909176D01*
X93191880Y-99848766D01*
X93268766Y-99771880D01*
X93329176Y-99681470D01*
X93370787Y-99581012D01*
X93392000Y-99474367D01*
X93392000Y-99365633D01*
X93370787Y-99258988D01*
X93329176Y-99158530D01*
X93268766Y-99068120D01*
X93226279Y-99025633D01*
X93848000Y-99025633D01*
X93848000Y-99134367D01*
X93869213Y-99241012D01*
X93910824Y-99341470D01*
X93971234Y-99431880D01*
X94048120Y-99508766D01*
X94138530Y-99569176D01*
X94238988Y-99610787D01*
X94345633Y-99632000D01*
X94454367Y-99632000D01*
X94561012Y-99610787D01*
X94661470Y-99569176D01*
X94751880Y-99508766D01*
X94828766Y-99431880D01*
X94889176Y-99341470D01*
X94930787Y-99241012D01*
X94952000Y-99134367D01*
X94952000Y-99025633D01*
X97478000Y-99025633D01*
X97478000Y-99134367D01*
X97499213Y-99241012D01*
X97540824Y-99341470D01*
X97601234Y-99431880D01*
X97678120Y-99508766D01*
X97768530Y-99569176D01*
X97868988Y-99610787D01*
X97975633Y-99632000D01*
X98084367Y-99632000D01*
X98191012Y-99610787D01*
X98291470Y-99569176D01*
X98381880Y-99508766D01*
X98458766Y-99431880D01*
X98519176Y-99341470D01*
X98560787Y-99241012D01*
X98582000Y-99134367D01*
X98582000Y-99025633D01*
X98568077Y-98955633D01*
X106668000Y-98955633D01*
X106668000Y-99064367D01*
X106689213Y-99171012D01*
X106730824Y-99271470D01*
X106791234Y-99361880D01*
X106868120Y-99438766D01*
X106958530Y-99499176D01*
X107058988Y-99540787D01*
X107165633Y-99562000D01*
X107274367Y-99562000D01*
X107381012Y-99540787D01*
X107481470Y-99499176D01*
X107571880Y-99438766D01*
X107648766Y-99361880D01*
X107709176Y-99271470D01*
X107750787Y-99171012D01*
X107772000Y-99064367D01*
X107772000Y-98955633D01*
X107766033Y-98925633D01*
X108728000Y-98925633D01*
X108728000Y-99034367D01*
X108749213Y-99141012D01*
X108790824Y-99241470D01*
X108851234Y-99331880D01*
X108928120Y-99408766D01*
X109018530Y-99469176D01*
X109118988Y-99510787D01*
X109225633Y-99532000D01*
X109334367Y-99532000D01*
X109441012Y-99510787D01*
X109541470Y-99469176D01*
X109631880Y-99408766D01*
X109708766Y-99331880D01*
X109769176Y-99241470D01*
X109810787Y-99141012D01*
X109832000Y-99034367D01*
X109832000Y-98925633D01*
X109810787Y-98818988D01*
X109769176Y-98718530D01*
X109708766Y-98628120D01*
X109702646Y-98622000D01*
X109794367Y-98622000D01*
X109901012Y-98600787D01*
X110001470Y-98559176D01*
X110091880Y-98498766D01*
X110168766Y-98421880D01*
X110229176Y-98331470D01*
X110270787Y-98231012D01*
X110292000Y-98124367D01*
X110292000Y-98015633D01*
X110270787Y-97908988D01*
X110265256Y-97895633D01*
X111078000Y-97895633D01*
X111078000Y-98004367D01*
X111099213Y-98111012D01*
X111140824Y-98211470D01*
X111201234Y-98301880D01*
X111278120Y-98378766D01*
X111368530Y-98439176D01*
X111468988Y-98480787D01*
X111575633Y-98502000D01*
X111684367Y-98502000D01*
X111791012Y-98480787D01*
X111891470Y-98439176D01*
X111981880Y-98378766D01*
X112058766Y-98301880D01*
X112076303Y-98275633D01*
X112368000Y-98275633D01*
X112368000Y-98384367D01*
X112389213Y-98491012D01*
X112430824Y-98591470D01*
X112491234Y-98681880D01*
X112568120Y-98758766D01*
X112658530Y-98819176D01*
X112758988Y-98860787D01*
X112865633Y-98882000D01*
X112974367Y-98882000D01*
X113081012Y-98860787D01*
X113181470Y-98819176D01*
X113271880Y-98758766D01*
X113348766Y-98681880D01*
X113393030Y-98615633D01*
X114013000Y-98615633D01*
X114013000Y-98724367D01*
X114034213Y-98831012D01*
X114075824Y-98931470D01*
X114136234Y-99021880D01*
X114213120Y-99098766D01*
X114303530Y-99159176D01*
X114403988Y-99200787D01*
X114510633Y-99222000D01*
X114619367Y-99222000D01*
X114726012Y-99200787D01*
X114826470Y-99159176D01*
X114916880Y-99098766D01*
X114993766Y-99021880D01*
X115054176Y-98931470D01*
X115095787Y-98831012D01*
X115117000Y-98724367D01*
X115117000Y-98615633D01*
X115095787Y-98508988D01*
X115056502Y-98414144D01*
X115108766Y-98361880D01*
X115169176Y-98271470D01*
X115210787Y-98171012D01*
X115232000Y-98064367D01*
X115232000Y-97955633D01*
X115210787Y-97848988D01*
X115169176Y-97748530D01*
X115108766Y-97658120D01*
X115031880Y-97581234D01*
X114941470Y-97520824D01*
X114841012Y-97479213D01*
X114734367Y-97458000D01*
X114625633Y-97458000D01*
X114518988Y-97479213D01*
X114418530Y-97520824D01*
X114328120Y-97581234D01*
X114251234Y-97658120D01*
X114190824Y-97748530D01*
X114149213Y-97848988D01*
X114128000Y-97955633D01*
X114128000Y-98064367D01*
X114149213Y-98171012D01*
X114188498Y-98265856D01*
X114136234Y-98318120D01*
X114075824Y-98408530D01*
X114034213Y-98508988D01*
X114013000Y-98615633D01*
X113393030Y-98615633D01*
X113409176Y-98591470D01*
X113450787Y-98491012D01*
X113472000Y-98384367D01*
X113472000Y-98275633D01*
X113450787Y-98168988D01*
X113409176Y-98068530D01*
X113348766Y-97978120D01*
X113325646Y-97955000D01*
X113378766Y-97901880D01*
X113439176Y-97811470D01*
X113480787Y-97711012D01*
X113502000Y-97604367D01*
X113502000Y-97495633D01*
X113480787Y-97388988D01*
X113439176Y-97288530D01*
X113378766Y-97198120D01*
X113301880Y-97121234D01*
X113211470Y-97060824D01*
X113111012Y-97019213D01*
X113004367Y-96998000D01*
X112895633Y-96998000D01*
X112788988Y-97019213D01*
X112688530Y-97060824D01*
X112598120Y-97121234D01*
X112521234Y-97198120D01*
X112460824Y-97288530D01*
X112419213Y-97388988D01*
X112398000Y-97495633D01*
X112398000Y-97604367D01*
X112419213Y-97711012D01*
X112460824Y-97811470D01*
X112521234Y-97901880D01*
X112544354Y-97925000D01*
X112491234Y-97978120D01*
X112430824Y-98068530D01*
X112389213Y-98168988D01*
X112368000Y-98275633D01*
X112076303Y-98275633D01*
X112119176Y-98211470D01*
X112160787Y-98111012D01*
X112182000Y-98004367D01*
X112182000Y-97895633D01*
X112160787Y-97788988D01*
X112119176Y-97688530D01*
X112058766Y-97598120D01*
X111981880Y-97521234D01*
X111891470Y-97460824D01*
X111791012Y-97419213D01*
X111684367Y-97398000D01*
X111575633Y-97398000D01*
X111468988Y-97419213D01*
X111368530Y-97460824D01*
X111278120Y-97521234D01*
X111201234Y-97598120D01*
X111140824Y-97688530D01*
X111099213Y-97788988D01*
X111078000Y-97895633D01*
X110265256Y-97895633D01*
X110229176Y-97808530D01*
X110168766Y-97718120D01*
X110091880Y-97641234D01*
X110001470Y-97580824D01*
X109901012Y-97539213D01*
X109794367Y-97518000D01*
X109685633Y-97518000D01*
X109578988Y-97539213D01*
X109478530Y-97580824D01*
X109388120Y-97641234D01*
X109311234Y-97718120D01*
X109250824Y-97808530D01*
X109209213Y-97908988D01*
X109188000Y-98015633D01*
X109188000Y-98124367D01*
X109209213Y-98231012D01*
X109250824Y-98331470D01*
X109311234Y-98421880D01*
X109317354Y-98428000D01*
X109225633Y-98428000D01*
X109118988Y-98449213D01*
X109018530Y-98490824D01*
X108928120Y-98551234D01*
X108851234Y-98628120D01*
X108790824Y-98718530D01*
X108749213Y-98818988D01*
X108728000Y-98925633D01*
X107766033Y-98925633D01*
X107750787Y-98848988D01*
X107709176Y-98748530D01*
X107648766Y-98658120D01*
X107571880Y-98581234D01*
X107481470Y-98520824D01*
X107381012Y-98479213D01*
X107274367Y-98458000D01*
X107165633Y-98458000D01*
X107058988Y-98479213D01*
X106958530Y-98520824D01*
X106868120Y-98581234D01*
X106791234Y-98658120D01*
X106730824Y-98748530D01*
X106689213Y-98848988D01*
X106668000Y-98955633D01*
X98568077Y-98955633D01*
X98560787Y-98918988D01*
X98519176Y-98818530D01*
X98458766Y-98728120D01*
X98381880Y-98651234D01*
X98291470Y-98590824D01*
X98191012Y-98549213D01*
X98084367Y-98528000D01*
X97975633Y-98528000D01*
X97868988Y-98549213D01*
X97768530Y-98590824D01*
X97678120Y-98651234D01*
X97601234Y-98728120D01*
X97540824Y-98818530D01*
X97499213Y-98918988D01*
X97478000Y-99025633D01*
X94952000Y-99025633D01*
X94930787Y-98918988D01*
X94889176Y-98818530D01*
X94828766Y-98728120D01*
X94751880Y-98651234D01*
X94661470Y-98590824D01*
X94561012Y-98549213D01*
X94454367Y-98528000D01*
X94345633Y-98528000D01*
X94238988Y-98549213D01*
X94138530Y-98590824D01*
X94048120Y-98651234D01*
X93971234Y-98728120D01*
X93910824Y-98818530D01*
X93869213Y-98918988D01*
X93848000Y-99025633D01*
X93226279Y-99025633D01*
X93191880Y-98991234D01*
X93101470Y-98930824D01*
X93001012Y-98889213D01*
X92894367Y-98868000D01*
X92785633Y-98868000D01*
X92678988Y-98889213D01*
X92578530Y-98930824D01*
X92488120Y-98991234D01*
X92411234Y-99068120D01*
X92350824Y-99158530D01*
X92309213Y-99258988D01*
X92288000Y-99365633D01*
X90644796Y-99365633D01*
X90581012Y-99339213D01*
X90474367Y-99318000D01*
X90365633Y-99318000D01*
X90258988Y-99339213D01*
X90158530Y-99380824D01*
X90068120Y-99441234D01*
X89991234Y-99518120D01*
X89930824Y-99608530D01*
X89889213Y-99708988D01*
X89868000Y-99815633D01*
X84248600Y-99815633D01*
X84211470Y-99790824D01*
X84111012Y-99749213D01*
X84004367Y-99728000D01*
X83895633Y-99728000D01*
X83788988Y-99749213D01*
X83788316Y-99749491D01*
X83789802Y-98473170D01*
X84263000Y-98473170D01*
X84263000Y-98586830D01*
X84285174Y-98698305D01*
X84328669Y-98803312D01*
X84391815Y-98897816D01*
X84472184Y-98978185D01*
X84566688Y-99041331D01*
X84671695Y-99084826D01*
X84783170Y-99107000D01*
X84896830Y-99107000D01*
X85008305Y-99084826D01*
X85113312Y-99041331D01*
X85207816Y-98978185D01*
X85288185Y-98897816D01*
X85351331Y-98803312D01*
X85394826Y-98698305D01*
X85417000Y-98586830D01*
X85417000Y-98473170D01*
X85394826Y-98361695D01*
X85351331Y-98256688D01*
X85288185Y-98162184D01*
X85207816Y-98081815D01*
X85113312Y-98018669D01*
X85008305Y-97975174D01*
X84896830Y-97953000D01*
X84783170Y-97953000D01*
X84671695Y-97975174D01*
X84566688Y-98018669D01*
X84472184Y-98081815D01*
X84391815Y-98162184D01*
X84328669Y-98256688D01*
X84285174Y-98361695D01*
X84263000Y-98473170D01*
X83789802Y-98473170D01*
X83792466Y-96185633D01*
X83928000Y-96185633D01*
X83928000Y-96294367D01*
X83949213Y-96401012D01*
X83990824Y-96501470D01*
X84051234Y-96591880D01*
X84128120Y-96668766D01*
X84218530Y-96729176D01*
X84318988Y-96770787D01*
X84351359Y-96777226D01*
X84318530Y-96790824D01*
X84228120Y-96851234D01*
X84151234Y-96928120D01*
X84090824Y-97018530D01*
X84049213Y-97118988D01*
X84028000Y-97225633D01*
X84028000Y-97334367D01*
X84049213Y-97441012D01*
X84090824Y-97541470D01*
X84151234Y-97631880D01*
X84228120Y-97708766D01*
X84318530Y-97769176D01*
X84418988Y-97810787D01*
X84525633Y-97832000D01*
X84634367Y-97832000D01*
X84741012Y-97810787D01*
X84841470Y-97769176D01*
X84931880Y-97708766D01*
X85008766Y-97631880D01*
X85069176Y-97541470D01*
X85110787Y-97441012D01*
X85132000Y-97334367D01*
X85132000Y-97225633D01*
X85110787Y-97118988D01*
X85084545Y-97055633D01*
X87548000Y-97055633D01*
X87548000Y-97164367D01*
X87569213Y-97271012D01*
X87610824Y-97371470D01*
X87671234Y-97461880D01*
X87748120Y-97538766D01*
X87838530Y-97599176D01*
X87938988Y-97640787D01*
X88045633Y-97662000D01*
X88154367Y-97662000D01*
X88261012Y-97640787D01*
X88361470Y-97599176D01*
X88451880Y-97538766D01*
X88528766Y-97461880D01*
X88589176Y-97371470D01*
X88630787Y-97271012D01*
X88652000Y-97164367D01*
X88652000Y-97055633D01*
X88630787Y-96948988D01*
X88589176Y-96848530D01*
X88528766Y-96758120D01*
X88451880Y-96681234D01*
X88361470Y-96620824D01*
X88261012Y-96579213D01*
X88154367Y-96558000D01*
X88045633Y-96558000D01*
X87938988Y-96579213D01*
X87838530Y-96620824D01*
X87748120Y-96681234D01*
X87671234Y-96758120D01*
X87610824Y-96848530D01*
X87569213Y-96948988D01*
X87548000Y-97055633D01*
X85084545Y-97055633D01*
X85069176Y-97018530D01*
X85008766Y-96928120D01*
X84931880Y-96851234D01*
X84841470Y-96790824D01*
X84741012Y-96749213D01*
X84708641Y-96742774D01*
X84741470Y-96729176D01*
X84831880Y-96668766D01*
X84908766Y-96591880D01*
X84969176Y-96501470D01*
X85010787Y-96401012D01*
X85032000Y-96294367D01*
X85032000Y-96185633D01*
X85010787Y-96078988D01*
X84969176Y-95978530D01*
X84913787Y-95895633D01*
X86548000Y-95895633D01*
X86548000Y-96004367D01*
X86569213Y-96111012D01*
X86610824Y-96211470D01*
X86671234Y-96301880D01*
X86748120Y-96378766D01*
X86838530Y-96439176D01*
X86938988Y-96480787D01*
X87045633Y-96502000D01*
X87154367Y-96502000D01*
X87261012Y-96480787D01*
X87361470Y-96439176D01*
X87451880Y-96378766D01*
X87528766Y-96301880D01*
X87586394Y-96215633D01*
X91098000Y-96215633D01*
X91098000Y-96324367D01*
X91119213Y-96431012D01*
X91160824Y-96531470D01*
X91221234Y-96621880D01*
X91298120Y-96698766D01*
X91388530Y-96759176D01*
X91488988Y-96800787D01*
X91595633Y-96822000D01*
X91704367Y-96822000D01*
X91811012Y-96800787D01*
X91911470Y-96759176D01*
X92001880Y-96698766D01*
X92078766Y-96621880D01*
X92139176Y-96531470D01*
X92180787Y-96431012D01*
X92202000Y-96324367D01*
X92202000Y-96215633D01*
X92180787Y-96108988D01*
X92139176Y-96008530D01*
X92078766Y-95918120D01*
X92001880Y-95841234D01*
X91911470Y-95780824D01*
X91811012Y-95739213D01*
X91704367Y-95718000D01*
X91595633Y-95718000D01*
X91488988Y-95739213D01*
X91388530Y-95780824D01*
X91298120Y-95841234D01*
X91221234Y-95918120D01*
X91160824Y-96008530D01*
X91119213Y-96108988D01*
X91098000Y-96215633D01*
X87586394Y-96215633D01*
X87589176Y-96211470D01*
X87630787Y-96111012D01*
X87652000Y-96004367D01*
X87652000Y-95895633D01*
X87630787Y-95788988D01*
X87589176Y-95688530D01*
X87528766Y-95598120D01*
X87451880Y-95521234D01*
X87450966Y-95520623D01*
X94778000Y-95520623D01*
X94778000Y-95629357D01*
X94799213Y-95736002D01*
X94840824Y-95836460D01*
X94901234Y-95926870D01*
X94978120Y-96003756D01*
X95068530Y-96064166D01*
X95168988Y-96105777D01*
X95275633Y-96126990D01*
X95348842Y-96126990D01*
X96975333Y-97753481D01*
X96987141Y-97767869D01*
X97044547Y-97814981D01*
X97110040Y-97849988D01*
X97181105Y-97871545D01*
X97236491Y-97877000D01*
X97236500Y-97877000D01*
X97255009Y-97878823D01*
X97273518Y-97877000D01*
X102826288Y-97877000D01*
X102792977Y-97910311D01*
X102724360Y-98013004D01*
X102677095Y-98127111D01*
X102653000Y-98248246D01*
X102653000Y-98371754D01*
X102677095Y-98492889D01*
X102724360Y-98606996D01*
X102792977Y-98709689D01*
X102880311Y-98797023D01*
X102983004Y-98865640D01*
X103097111Y-98912905D01*
X103218246Y-98937000D01*
X103341754Y-98937000D01*
X103462889Y-98912905D01*
X103576996Y-98865640D01*
X103679689Y-98797023D01*
X103767023Y-98709689D01*
X103835640Y-98606996D01*
X103882905Y-98492889D01*
X103907000Y-98371754D01*
X103907000Y-98248246D01*
X103882905Y-98127111D01*
X103835640Y-98013004D01*
X103767023Y-97910311D01*
X103679689Y-97822977D01*
X103630648Y-97790209D01*
X103657869Y-97767869D01*
X103669676Y-97753482D01*
X103949745Y-97473414D01*
X103959213Y-97521012D01*
X104000824Y-97621470D01*
X104061234Y-97711880D01*
X104138120Y-97788766D01*
X104228530Y-97849176D01*
X104328988Y-97890787D01*
X104435633Y-97912000D01*
X104544367Y-97912000D01*
X104651012Y-97890787D01*
X104751470Y-97849176D01*
X104841880Y-97788766D01*
X104855013Y-97775633D01*
X107763000Y-97775633D01*
X107763000Y-97884367D01*
X107784213Y-97991012D01*
X107825824Y-98091470D01*
X107886234Y-98181880D01*
X107963120Y-98258766D01*
X108053530Y-98319176D01*
X108153988Y-98360787D01*
X108260633Y-98382000D01*
X108369367Y-98382000D01*
X108476012Y-98360787D01*
X108576470Y-98319176D01*
X108666880Y-98258766D01*
X108743766Y-98181880D01*
X108804176Y-98091470D01*
X108845787Y-97991012D01*
X108867000Y-97884367D01*
X108867000Y-97775633D01*
X108845787Y-97668988D01*
X108804176Y-97568530D01*
X108743766Y-97478120D01*
X108666880Y-97401234D01*
X108576470Y-97340824D01*
X108476012Y-97299213D01*
X108369367Y-97278000D01*
X108260633Y-97278000D01*
X108153988Y-97299213D01*
X108053530Y-97340824D01*
X107963120Y-97401234D01*
X107886234Y-97478120D01*
X107825824Y-97568530D01*
X107784213Y-97668988D01*
X107763000Y-97775633D01*
X104855013Y-97775633D01*
X104918766Y-97711880D01*
X104979176Y-97621470D01*
X105020787Y-97521012D01*
X105042000Y-97414367D01*
X105042000Y-97305633D01*
X105020787Y-97198988D01*
X104979176Y-97098530D01*
X104918766Y-97008120D01*
X104841880Y-96931234D01*
X104751470Y-96870824D01*
X104651012Y-96829213D01*
X104544367Y-96808000D01*
X104435633Y-96808000D01*
X104328988Y-96829213D01*
X104228530Y-96870824D01*
X104138120Y-96931234D01*
X104117000Y-96952354D01*
X104117000Y-96635633D01*
X114758000Y-96635633D01*
X114758000Y-96744367D01*
X114779213Y-96851012D01*
X114820824Y-96951470D01*
X114881234Y-97041880D01*
X114958120Y-97118766D01*
X115048530Y-97179176D01*
X115148988Y-97220787D01*
X115255633Y-97242000D01*
X115364367Y-97242000D01*
X115471012Y-97220787D01*
X115571470Y-97179176D01*
X115661880Y-97118766D01*
X115738766Y-97041880D01*
X115799176Y-96951470D01*
X115840787Y-96851012D01*
X115862000Y-96744367D01*
X115862000Y-96635633D01*
X115840787Y-96528988D01*
X115799176Y-96428530D01*
X115783877Y-96405633D01*
X116718000Y-96405633D01*
X116718000Y-96514367D01*
X116739213Y-96621012D01*
X116780824Y-96721470D01*
X116841234Y-96811880D01*
X116918120Y-96888766D01*
X116974865Y-96926682D01*
X116938120Y-96951234D01*
X116861234Y-97028120D01*
X116800824Y-97118530D01*
X116759213Y-97218988D01*
X116738000Y-97325633D01*
X116738000Y-97434367D01*
X116759213Y-97541012D01*
X116800824Y-97641470D01*
X116861234Y-97731880D01*
X116938120Y-97808766D01*
X117028530Y-97869176D01*
X117128988Y-97910787D01*
X117235633Y-97932000D01*
X117344367Y-97932000D01*
X117451012Y-97910787D01*
X117551470Y-97869176D01*
X117641880Y-97808766D01*
X117675013Y-97775633D01*
X121758000Y-97775633D01*
X121758000Y-97884367D01*
X121779213Y-97991012D01*
X121820824Y-98091470D01*
X121881234Y-98181880D01*
X121958120Y-98258766D01*
X122048530Y-98319176D01*
X122148988Y-98360787D01*
X122255633Y-98382000D01*
X122364367Y-98382000D01*
X122471012Y-98360787D01*
X122571470Y-98319176D01*
X122661880Y-98258766D01*
X122738766Y-98181880D01*
X122799176Y-98091470D01*
X122840787Y-97991012D01*
X122862000Y-97884367D01*
X122862000Y-97775633D01*
X122840787Y-97668988D01*
X122813895Y-97604065D01*
X122853904Y-97544187D01*
X122895515Y-97443729D01*
X122916728Y-97337084D01*
X122916728Y-97228350D01*
X122895515Y-97121705D01*
X122853904Y-97021247D01*
X122793494Y-96930837D01*
X122716608Y-96853951D01*
X122626198Y-96793541D01*
X122525740Y-96751930D01*
X122419095Y-96730717D01*
X122310361Y-96730717D01*
X122203716Y-96751930D01*
X122103258Y-96793541D01*
X122012848Y-96853951D01*
X121935962Y-96930837D01*
X121875552Y-97021247D01*
X121833941Y-97121705D01*
X121812728Y-97228350D01*
X121812728Y-97337084D01*
X121833941Y-97443729D01*
X121860833Y-97508652D01*
X121820824Y-97568530D01*
X121779213Y-97668988D01*
X121758000Y-97775633D01*
X117675013Y-97775633D01*
X117718766Y-97731880D01*
X117779176Y-97641470D01*
X117820787Y-97541012D01*
X117842000Y-97434367D01*
X117842000Y-97325633D01*
X117820787Y-97218988D01*
X117779176Y-97118530D01*
X117718766Y-97028120D01*
X117641880Y-96951234D01*
X117585135Y-96913318D01*
X117621880Y-96888766D01*
X117698766Y-96811880D01*
X117759176Y-96721470D01*
X117800787Y-96621012D01*
X117822000Y-96514367D01*
X117822000Y-96405633D01*
X117800787Y-96298988D01*
X117759176Y-96198530D01*
X117698766Y-96108120D01*
X117621880Y-96031234D01*
X117531470Y-95970824D01*
X117431012Y-95929213D01*
X117413015Y-95925633D01*
X118358000Y-95925633D01*
X118358000Y-96034367D01*
X118379213Y-96141012D01*
X118420824Y-96241470D01*
X118481234Y-96331880D01*
X118558120Y-96408766D01*
X118648530Y-96469176D01*
X118748988Y-96510787D01*
X118855633Y-96532000D01*
X118964367Y-96532000D01*
X119071012Y-96510787D01*
X119171470Y-96469176D01*
X119261880Y-96408766D01*
X119338766Y-96331880D01*
X119399176Y-96241470D01*
X119440787Y-96141012D01*
X119462000Y-96034367D01*
X119462000Y-95925633D01*
X119440787Y-95818988D01*
X119399176Y-95718530D01*
X119338766Y-95628120D01*
X119261880Y-95551234D01*
X119171470Y-95490824D01*
X119071012Y-95449213D01*
X118964367Y-95428000D01*
X118855633Y-95428000D01*
X118748988Y-95449213D01*
X118648530Y-95490824D01*
X118558120Y-95551234D01*
X118481234Y-95628120D01*
X118420824Y-95718530D01*
X118379213Y-95818988D01*
X118358000Y-95925633D01*
X117413015Y-95925633D01*
X117324367Y-95908000D01*
X117215633Y-95908000D01*
X117108988Y-95929213D01*
X117008530Y-95970824D01*
X116918120Y-96031234D01*
X116841234Y-96108120D01*
X116780824Y-96198530D01*
X116739213Y-96298988D01*
X116718000Y-96405633D01*
X115783877Y-96405633D01*
X115738766Y-96338120D01*
X115661880Y-96261234D01*
X115571470Y-96200824D01*
X115471012Y-96159213D01*
X115364367Y-96138000D01*
X115255633Y-96138000D01*
X115148988Y-96159213D01*
X115048530Y-96200824D01*
X114958120Y-96261234D01*
X114881234Y-96338120D01*
X114820824Y-96428530D01*
X114779213Y-96528988D01*
X114758000Y-96635633D01*
X104117000Y-96635633D01*
X104117000Y-95815633D01*
X109858000Y-95815633D01*
X109858000Y-95924367D01*
X109879213Y-96031012D01*
X109920824Y-96131470D01*
X109981234Y-96221880D01*
X110058120Y-96298766D01*
X110148530Y-96359176D01*
X110248988Y-96400787D01*
X110355633Y-96422000D01*
X110464367Y-96422000D01*
X110571012Y-96400787D01*
X110671470Y-96359176D01*
X110761880Y-96298766D01*
X110838766Y-96221880D01*
X110899176Y-96131470D01*
X110940787Y-96031012D01*
X110962000Y-95924367D01*
X110962000Y-95815633D01*
X110940787Y-95708988D01*
X110899176Y-95608530D01*
X110838766Y-95518120D01*
X110761880Y-95441234D01*
X110733094Y-95422000D01*
X110814367Y-95422000D01*
X110921012Y-95400787D01*
X111021470Y-95359176D01*
X111111880Y-95298766D01*
X111188766Y-95221880D01*
X111249176Y-95131470D01*
X111290787Y-95031012D01*
X111311748Y-94925633D01*
X115938000Y-94925633D01*
X115938000Y-95034367D01*
X115959213Y-95141012D01*
X116000824Y-95241470D01*
X116061234Y-95331880D01*
X116138120Y-95408766D01*
X116228530Y-95469176D01*
X116328988Y-95510787D01*
X116435633Y-95532000D01*
X116544367Y-95532000D01*
X116651012Y-95510787D01*
X116751470Y-95469176D01*
X116841880Y-95408766D01*
X116918766Y-95331880D01*
X116949667Y-95285633D01*
X117208000Y-95285633D01*
X117208000Y-95394367D01*
X117229213Y-95501012D01*
X117270824Y-95601470D01*
X117331234Y-95691880D01*
X117408120Y-95768766D01*
X117498530Y-95829176D01*
X117598988Y-95870787D01*
X117705633Y-95892000D01*
X117814367Y-95892000D01*
X117921012Y-95870787D01*
X118021470Y-95829176D01*
X118111880Y-95768766D01*
X118188766Y-95691880D01*
X118249176Y-95601470D01*
X118290787Y-95501012D01*
X118312000Y-95394367D01*
X118312000Y-95285633D01*
X118290787Y-95178988D01*
X118249176Y-95078530D01*
X118188766Y-94988120D01*
X118111880Y-94911234D01*
X118021470Y-94850824D01*
X117921012Y-94809213D01*
X117814367Y-94788000D01*
X117705633Y-94788000D01*
X117598988Y-94809213D01*
X117498530Y-94850824D01*
X117408120Y-94911234D01*
X117331234Y-94988120D01*
X117270824Y-95078530D01*
X117229213Y-95178988D01*
X117208000Y-95285633D01*
X116949667Y-95285633D01*
X116979176Y-95241470D01*
X117020787Y-95141012D01*
X117042000Y-95034367D01*
X117042000Y-94925633D01*
X117020787Y-94818988D01*
X116979176Y-94718530D01*
X116918766Y-94628120D01*
X116841880Y-94551234D01*
X116751470Y-94490824D01*
X116651012Y-94449213D01*
X116544367Y-94428000D01*
X116435633Y-94428000D01*
X116328988Y-94449213D01*
X116228530Y-94490824D01*
X116138120Y-94551234D01*
X116061234Y-94628120D01*
X116000824Y-94718530D01*
X115959213Y-94818988D01*
X115938000Y-94925633D01*
X111311748Y-94925633D01*
X111312000Y-94924367D01*
X111312000Y-94815633D01*
X111290787Y-94708988D01*
X111249176Y-94608530D01*
X111188766Y-94518120D01*
X111111880Y-94441234D01*
X111021470Y-94380824D01*
X110921012Y-94339213D01*
X110814367Y-94318000D01*
X110705633Y-94318000D01*
X110598988Y-94339213D01*
X110498530Y-94380824D01*
X110408120Y-94441234D01*
X110331234Y-94518120D01*
X110270824Y-94608530D01*
X110229213Y-94708988D01*
X110208000Y-94815633D01*
X110208000Y-94924367D01*
X110229213Y-95031012D01*
X110270824Y-95131470D01*
X110331234Y-95221880D01*
X110408120Y-95298766D01*
X110436906Y-95318000D01*
X110355633Y-95318000D01*
X110248988Y-95339213D01*
X110148530Y-95380824D01*
X110058120Y-95441234D01*
X109981234Y-95518120D01*
X109920824Y-95608530D01*
X109879213Y-95708988D01*
X109858000Y-95815633D01*
X104117000Y-95815633D01*
X104117000Y-94943646D01*
X104168766Y-94891880D01*
X104229176Y-94801470D01*
X104270787Y-94701012D01*
X104292000Y-94594367D01*
X104292000Y-94485633D01*
X104270787Y-94378988D01*
X104229176Y-94278530D01*
X104168766Y-94188120D01*
X104091880Y-94111234D01*
X104001470Y-94050824D01*
X103901012Y-94009213D01*
X103883015Y-94005633D01*
X118148000Y-94005633D01*
X118148000Y-94114367D01*
X118169213Y-94221012D01*
X118210824Y-94321470D01*
X118271234Y-94411880D01*
X118327684Y-94468330D01*
X118300824Y-94508530D01*
X118259213Y-94608988D01*
X118238000Y-94715633D01*
X118238000Y-94824367D01*
X118259213Y-94931012D01*
X118300824Y-95031470D01*
X118361234Y-95121880D01*
X118438120Y-95198766D01*
X118528530Y-95259176D01*
X118628988Y-95300787D01*
X118735633Y-95322000D01*
X118844367Y-95322000D01*
X118951012Y-95300787D01*
X119051470Y-95259176D01*
X119141880Y-95198766D01*
X119218766Y-95121880D01*
X119279176Y-95031470D01*
X119320787Y-94931012D01*
X119342000Y-94824367D01*
X119342000Y-94715633D01*
X119320787Y-94608988D01*
X119279176Y-94508530D01*
X119218766Y-94418120D01*
X119162316Y-94361670D01*
X119171099Y-94348524D01*
X119248988Y-94380787D01*
X119355633Y-94402000D01*
X119464367Y-94402000D01*
X119571012Y-94380787D01*
X119671470Y-94339176D01*
X119761880Y-94278766D01*
X119838766Y-94201880D01*
X119899176Y-94111470D01*
X119940787Y-94011012D01*
X119962000Y-93904367D01*
X119962000Y-93795633D01*
X119940787Y-93688988D01*
X119899176Y-93588530D01*
X119838766Y-93498120D01*
X119761880Y-93421234D01*
X119671470Y-93360824D01*
X119571012Y-93319213D01*
X119464367Y-93298000D01*
X119355633Y-93298000D01*
X119248988Y-93319213D01*
X119148530Y-93360824D01*
X119058120Y-93421234D01*
X118981234Y-93498120D01*
X118938901Y-93561476D01*
X118861012Y-93529213D01*
X118754367Y-93508000D01*
X118645633Y-93508000D01*
X118538988Y-93529213D01*
X118438530Y-93570824D01*
X118348120Y-93631234D01*
X118271234Y-93708120D01*
X118210824Y-93798530D01*
X118169213Y-93898988D01*
X118148000Y-94005633D01*
X103883015Y-94005633D01*
X103794367Y-93988000D01*
X103685633Y-93988000D01*
X103578988Y-94009213D01*
X103478530Y-94050824D01*
X103388120Y-94111234D01*
X103311234Y-94188120D01*
X103250824Y-94278530D01*
X103209213Y-94378988D01*
X103188000Y-94485633D01*
X103188000Y-94594367D01*
X103209213Y-94701012D01*
X103250824Y-94801470D01*
X103311234Y-94891880D01*
X103363000Y-94943646D01*
X103363001Y-96993840D01*
X103233842Y-97123000D01*
X102826224Y-97123000D01*
X102873905Y-97075318D01*
X102891159Y-97061159D01*
X102947643Y-96992333D01*
X102989614Y-96913810D01*
X103015460Y-96828607D01*
X103016171Y-96821393D01*
X103024187Y-96740001D01*
X103022000Y-96717796D01*
X103022000Y-94842205D01*
X103024187Y-94820000D01*
X103015460Y-94731392D01*
X102989614Y-94646190D01*
X102969729Y-94608988D01*
X102947643Y-94567667D01*
X102891159Y-94498841D01*
X102873905Y-94484681D01*
X102522000Y-94132777D01*
X102522000Y-93907108D01*
X102559176Y-93851470D01*
X102600787Y-93751012D01*
X102622000Y-93644367D01*
X102622000Y-93641869D01*
X102786767Y-93477102D01*
X102786772Y-93477096D01*
X102836868Y-93427000D01*
X103196354Y-93427000D01*
X103198120Y-93428766D01*
X103288530Y-93489176D01*
X103388988Y-93530787D01*
X103495633Y-93552000D01*
X103604367Y-93552000D01*
X103711012Y-93530787D01*
X103811470Y-93489176D01*
X103901880Y-93428766D01*
X103978766Y-93351880D01*
X104039176Y-93261470D01*
X104080787Y-93161012D01*
X104102000Y-93054367D01*
X104102000Y-92945633D01*
X104081386Y-92842000D01*
X104144367Y-92842000D01*
X104251012Y-92820787D01*
X104351470Y-92779176D01*
X104441880Y-92718766D01*
X104518766Y-92641880D01*
X104579176Y-92551470D01*
X104620787Y-92451012D01*
X104642000Y-92344367D01*
X104642000Y-92235633D01*
X104620787Y-92128988D01*
X104579176Y-92028530D01*
X104518766Y-91938120D01*
X104508439Y-91927793D01*
X104551880Y-91898766D01*
X104628766Y-91821880D01*
X104689176Y-91731470D01*
X104730787Y-91631012D01*
X104752000Y-91524367D01*
X104752000Y-91415633D01*
X104730787Y-91308988D01*
X104689176Y-91208530D01*
X104675953Y-91188740D01*
X104771470Y-91149176D01*
X104861880Y-91088766D01*
X104938766Y-91011880D01*
X104999176Y-90921470D01*
X105040787Y-90821012D01*
X105062000Y-90714367D01*
X105062000Y-90605633D01*
X105040787Y-90498988D01*
X104999176Y-90398530D01*
X104938766Y-90308120D01*
X104861880Y-90231234D01*
X104771470Y-90170824D01*
X104671012Y-90129213D01*
X104564367Y-90108000D01*
X104455633Y-90108000D01*
X104348988Y-90129213D01*
X104248530Y-90170824D01*
X104158120Y-90231234D01*
X104081234Y-90308120D01*
X104020824Y-90398530D01*
X103979213Y-90498988D01*
X103958000Y-90605633D01*
X103958000Y-90714367D01*
X103979213Y-90821012D01*
X104020824Y-90921470D01*
X104034047Y-90941260D01*
X103938530Y-90980824D01*
X103848120Y-91041234D01*
X103771234Y-91118120D01*
X103710824Y-91208530D01*
X103669213Y-91308988D01*
X103648000Y-91415633D01*
X103648000Y-91524367D01*
X103669213Y-91631012D01*
X103710824Y-91731470D01*
X103771234Y-91821880D01*
X103781561Y-91832207D01*
X103738120Y-91861234D01*
X103661234Y-91938120D01*
X103600824Y-92028530D01*
X103559213Y-92128988D01*
X103538000Y-92235633D01*
X103538000Y-92344367D01*
X103558614Y-92448000D01*
X103495633Y-92448000D01*
X103388988Y-92469213D01*
X103288530Y-92510824D01*
X103198120Y-92571234D01*
X103196354Y-92573000D01*
X102680967Y-92573000D01*
X102660000Y-92570935D01*
X102639033Y-92573000D01*
X102639022Y-92573000D01*
X102576293Y-92579178D01*
X102514537Y-92597912D01*
X102495803Y-92603595D01*
X102421624Y-92643244D01*
X102394344Y-92665633D01*
X102356605Y-92696605D01*
X102343232Y-92712900D01*
X102182904Y-92873228D01*
X102182898Y-92873233D01*
X102018131Y-93038000D01*
X102015633Y-93038000D01*
X101908988Y-93059213D01*
X101808530Y-93100824D01*
X101718120Y-93161234D01*
X101641234Y-93238120D01*
X101580824Y-93328530D01*
X101539213Y-93428988D01*
X101518000Y-93535633D01*
X101518000Y-93644367D01*
X101539213Y-93751012D01*
X101580824Y-93851470D01*
X101618001Y-93907109D01*
X101618000Y-94297794D01*
X101615813Y-94320000D01*
X101624540Y-94408607D01*
X101634778Y-94442357D01*
X101650386Y-94493809D01*
X101669873Y-94530268D01*
X101668530Y-94530824D01*
X101578120Y-94591234D01*
X101501234Y-94668120D01*
X101440824Y-94758530D01*
X101399213Y-94858988D01*
X101378000Y-94965633D01*
X101378000Y-95074367D01*
X101399213Y-95181012D01*
X101440824Y-95281470D01*
X101501234Y-95371880D01*
X101578120Y-95448766D01*
X101668530Y-95509176D01*
X101768988Y-95550787D01*
X101875633Y-95572000D01*
X101984367Y-95572000D01*
X102091012Y-95550787D01*
X102118001Y-95539608D01*
X102118000Y-96458000D01*
X101114712Y-96458000D01*
X101079689Y-96422977D01*
X100976996Y-96354360D01*
X100862889Y-96307095D01*
X100741754Y-96283000D01*
X100618246Y-96283000D01*
X100497111Y-96307095D01*
X100383004Y-96354360D01*
X100280311Y-96422977D01*
X100192977Y-96510311D01*
X100124360Y-96613004D01*
X100077095Y-96727111D01*
X100053000Y-96848246D01*
X100053000Y-96971754D01*
X100077095Y-97092889D01*
X100089567Y-97123000D01*
X97411168Y-97123000D01*
X95882000Y-95593832D01*
X95882000Y-95520623D01*
X95860787Y-95413978D01*
X95819176Y-95313520D01*
X95758766Y-95223110D01*
X95681880Y-95146224D01*
X95591470Y-95085814D01*
X95491012Y-95044203D01*
X95384367Y-95022990D01*
X95275633Y-95022990D01*
X95168988Y-95044203D01*
X95068530Y-95085814D01*
X94978120Y-95146224D01*
X94901234Y-95223110D01*
X94840824Y-95313520D01*
X94799213Y-95413978D01*
X94778000Y-95520623D01*
X87450966Y-95520623D01*
X87361470Y-95460824D01*
X87261012Y-95419213D01*
X87154367Y-95398000D01*
X87045633Y-95398000D01*
X86938988Y-95419213D01*
X86838530Y-95460824D01*
X86748120Y-95521234D01*
X86671234Y-95598120D01*
X86610824Y-95688530D01*
X86569213Y-95788988D01*
X86548000Y-95895633D01*
X84913787Y-95895633D01*
X84908766Y-95888120D01*
X84831880Y-95811234D01*
X84741470Y-95750824D01*
X84641012Y-95709213D01*
X84534367Y-95688000D01*
X84425633Y-95688000D01*
X84318988Y-95709213D01*
X84218530Y-95750824D01*
X84128120Y-95811234D01*
X84051234Y-95888120D01*
X83990824Y-95978530D01*
X83949213Y-96078988D01*
X83928000Y-96185633D01*
X83792466Y-96185633D01*
X83794259Y-94645633D01*
X96218000Y-94645633D01*
X96218000Y-94754367D01*
X96239213Y-94861012D01*
X96280824Y-94961470D01*
X96341234Y-95051880D01*
X96418120Y-95128766D01*
X96508530Y-95189176D01*
X96608988Y-95230787D01*
X96715633Y-95252000D01*
X96824367Y-95252000D01*
X96931012Y-95230787D01*
X97031470Y-95189176D01*
X97121880Y-95128766D01*
X97198766Y-95051880D01*
X97259176Y-94961470D01*
X97300787Y-94861012D01*
X97322000Y-94754367D01*
X97322000Y-94645633D01*
X97300787Y-94538988D01*
X97259176Y-94438530D01*
X97198766Y-94348120D01*
X97121880Y-94271234D01*
X97031470Y-94210824D01*
X96994796Y-94195633D01*
X98848000Y-94195633D01*
X98848000Y-94304367D01*
X98869213Y-94411012D01*
X98910824Y-94511470D01*
X98971234Y-94601880D01*
X99048120Y-94678766D01*
X99138530Y-94739176D01*
X99238988Y-94780787D01*
X99345633Y-94802000D01*
X99454367Y-94802000D01*
X99561012Y-94780787D01*
X99661470Y-94739176D01*
X99751880Y-94678766D01*
X99828766Y-94601880D01*
X99889176Y-94511470D01*
X99930787Y-94411012D01*
X99952000Y-94304367D01*
X99952000Y-94195633D01*
X99930787Y-94088988D01*
X99889176Y-93988530D01*
X99828766Y-93898120D01*
X99751880Y-93821234D01*
X99661470Y-93760824D01*
X99561012Y-93719213D01*
X99454367Y-93698000D01*
X99345633Y-93698000D01*
X99238988Y-93719213D01*
X99138530Y-93760824D01*
X99048120Y-93821234D01*
X98971234Y-93898120D01*
X98910824Y-93988530D01*
X98869213Y-94088988D01*
X98848000Y-94195633D01*
X96994796Y-94195633D01*
X96931012Y-94169213D01*
X96824367Y-94148000D01*
X96715633Y-94148000D01*
X96608988Y-94169213D01*
X96508530Y-94210824D01*
X96418120Y-94271234D01*
X96341234Y-94348120D01*
X96280824Y-94438530D01*
X96239213Y-94538988D01*
X96218000Y-94645633D01*
X83794259Y-94645633D01*
X83796285Y-92905633D01*
X91288000Y-92905633D01*
X91288000Y-93014367D01*
X91309213Y-93121012D01*
X91350824Y-93221470D01*
X91411234Y-93311880D01*
X91488120Y-93388766D01*
X91578530Y-93449176D01*
X91678988Y-93490787D01*
X91785633Y-93512000D01*
X91894367Y-93512000D01*
X92001012Y-93490787D01*
X92101470Y-93449176D01*
X92191880Y-93388766D01*
X92268766Y-93311880D01*
X92329176Y-93221470D01*
X92370787Y-93121012D01*
X92392000Y-93014367D01*
X92392000Y-92905633D01*
X92370787Y-92798988D01*
X92329176Y-92698530D01*
X92268766Y-92608120D01*
X92191880Y-92531234D01*
X92101470Y-92470824D01*
X92001012Y-92429213D01*
X91894367Y-92408000D01*
X91785633Y-92408000D01*
X91678988Y-92429213D01*
X91578530Y-92470824D01*
X91488120Y-92531234D01*
X91411234Y-92608120D01*
X91350824Y-92698530D01*
X91309213Y-92798988D01*
X91288000Y-92905633D01*
X83796285Y-92905633D01*
X83796753Y-92504321D01*
X83885633Y-92522000D01*
X83994367Y-92522000D01*
X84101012Y-92500787D01*
X84201470Y-92459176D01*
X84291880Y-92398766D01*
X84368766Y-92321880D01*
X84392985Y-92285633D01*
X87898000Y-92285633D01*
X87898000Y-92394367D01*
X87919213Y-92501012D01*
X87960824Y-92601470D01*
X88021234Y-92691880D01*
X88098120Y-92768766D01*
X88188530Y-92829176D01*
X88288988Y-92870787D01*
X88395633Y-92892000D01*
X88504367Y-92892000D01*
X88611012Y-92870787D01*
X88711470Y-92829176D01*
X88801880Y-92768766D01*
X88878766Y-92691880D01*
X88939176Y-92601470D01*
X88980787Y-92501012D01*
X89002000Y-92394367D01*
X89002000Y-92285633D01*
X88980787Y-92178988D01*
X88939176Y-92078530D01*
X88878766Y-91988120D01*
X88801880Y-91911234D01*
X88711470Y-91850824D01*
X88626512Y-91815633D01*
X90148000Y-91815633D01*
X90148000Y-91924367D01*
X90169213Y-92031012D01*
X90210824Y-92131470D01*
X90271234Y-92221880D01*
X90348120Y-92298766D01*
X90438530Y-92359176D01*
X90538988Y-92400787D01*
X90645633Y-92422000D01*
X90754367Y-92422000D01*
X90861012Y-92400787D01*
X90961470Y-92359176D01*
X91051880Y-92298766D01*
X91128766Y-92221880D01*
X91189176Y-92131470D01*
X91230787Y-92031012D01*
X91252000Y-91924367D01*
X91252000Y-91815633D01*
X91230787Y-91708988D01*
X91189176Y-91608530D01*
X91140468Y-91535633D01*
X92788000Y-91535633D01*
X92788000Y-91644367D01*
X92809213Y-91751012D01*
X92850824Y-91851470D01*
X92911234Y-91941880D01*
X92988120Y-92018766D01*
X93078530Y-92079176D01*
X93178988Y-92120787D01*
X93285633Y-92142000D01*
X93394367Y-92142000D01*
X93501012Y-92120787D01*
X93601470Y-92079176D01*
X93691880Y-92018766D01*
X93768766Y-91941880D01*
X93829176Y-91851470D01*
X93870787Y-91751012D01*
X93892000Y-91644367D01*
X93892000Y-91535633D01*
X93870787Y-91428988D01*
X93829176Y-91328530D01*
X93768766Y-91238120D01*
X93691880Y-91161234D01*
X93601470Y-91100824D01*
X93501012Y-91059213D01*
X93394367Y-91038000D01*
X93285633Y-91038000D01*
X93178988Y-91059213D01*
X93078530Y-91100824D01*
X92988120Y-91161234D01*
X92911234Y-91238120D01*
X92850824Y-91328530D01*
X92809213Y-91428988D01*
X92788000Y-91535633D01*
X91140468Y-91535633D01*
X91128766Y-91518120D01*
X91051880Y-91441234D01*
X90961470Y-91380824D01*
X90861012Y-91339213D01*
X90754367Y-91318000D01*
X90645633Y-91318000D01*
X90538988Y-91339213D01*
X90438530Y-91380824D01*
X90348120Y-91441234D01*
X90271234Y-91518120D01*
X90210824Y-91608530D01*
X90169213Y-91708988D01*
X90148000Y-91815633D01*
X88626512Y-91815633D01*
X88611012Y-91809213D01*
X88504367Y-91788000D01*
X88395633Y-91788000D01*
X88288988Y-91809213D01*
X88188530Y-91850824D01*
X88098120Y-91911234D01*
X88021234Y-91988120D01*
X87960824Y-92078530D01*
X87919213Y-92178988D01*
X87898000Y-92285633D01*
X84392985Y-92285633D01*
X84429176Y-92231470D01*
X84470787Y-92131012D01*
X84492000Y-92024367D01*
X84492000Y-91915633D01*
X84470787Y-91808988D01*
X84429176Y-91708530D01*
X84368766Y-91618120D01*
X84291880Y-91541234D01*
X84201470Y-91480824D01*
X84101012Y-91439213D01*
X83994367Y-91418000D01*
X83885633Y-91418000D01*
X83797998Y-91435432D01*
X83798907Y-90654039D01*
X94706653Y-90654039D01*
X94706653Y-90762773D01*
X94727866Y-90869418D01*
X94769477Y-90969876D01*
X94829887Y-91060286D01*
X94906773Y-91137172D01*
X94997183Y-91197582D01*
X95097641Y-91239193D01*
X95204286Y-91260406D01*
X95313020Y-91260406D01*
X95419665Y-91239193D01*
X95520123Y-91197582D01*
X95610533Y-91137172D01*
X95687419Y-91060286D01*
X95747829Y-90969876D01*
X95789440Y-90869418D01*
X95810653Y-90762773D01*
X95810653Y-90655633D01*
X96028000Y-90655633D01*
X96028000Y-90764367D01*
X96049213Y-90871012D01*
X96090824Y-90971470D01*
X96151234Y-91061880D01*
X96228120Y-91138766D01*
X96318530Y-91199176D01*
X96418988Y-91240787D01*
X96525633Y-91262000D01*
X96634367Y-91262000D01*
X96741012Y-91240787D01*
X96841470Y-91199176D01*
X96931880Y-91138766D01*
X97008766Y-91061880D01*
X97069176Y-90971470D01*
X97110787Y-90871012D01*
X97132000Y-90764367D01*
X97132000Y-90655633D01*
X97126553Y-90628246D01*
X102193000Y-90628246D01*
X102193000Y-90751754D01*
X102217095Y-90872889D01*
X102264360Y-90986996D01*
X102332977Y-91089689D01*
X102420311Y-91177023D01*
X102523004Y-91245640D01*
X102637111Y-91292905D01*
X102758246Y-91317000D01*
X102881754Y-91317000D01*
X103002889Y-91292905D01*
X103116996Y-91245640D01*
X103219689Y-91177023D01*
X103307023Y-91089689D01*
X103375640Y-90986996D01*
X103422905Y-90872889D01*
X103447000Y-90751754D01*
X103447000Y-90628246D01*
X103422905Y-90507111D01*
X103375640Y-90393004D01*
X103307023Y-90290311D01*
X103219689Y-90202977D01*
X103116996Y-90134360D01*
X103002889Y-90087095D01*
X102881754Y-90063000D01*
X102758246Y-90063000D01*
X102637111Y-90087095D01*
X102523004Y-90134360D01*
X102420311Y-90202977D01*
X102332977Y-90290311D01*
X102264360Y-90393004D01*
X102217095Y-90507111D01*
X102193000Y-90628246D01*
X97126553Y-90628246D01*
X97110787Y-90548988D01*
X97069176Y-90448530D01*
X97008766Y-90358120D01*
X96931880Y-90281234D01*
X96858196Y-90232000D01*
X96934367Y-90232000D01*
X97041012Y-90210787D01*
X97141470Y-90169176D01*
X97231880Y-90108766D01*
X97308766Y-90031880D01*
X97369176Y-89941470D01*
X97410787Y-89841012D01*
X97432000Y-89734367D01*
X97432000Y-89625633D01*
X97410787Y-89518988D01*
X97369176Y-89418530D01*
X97308766Y-89328120D01*
X97231880Y-89251234D01*
X97176913Y-89214506D01*
X97190787Y-89181012D01*
X97212000Y-89074367D01*
X97212000Y-88965633D01*
X97190787Y-88858988D01*
X97149176Y-88758530D01*
X97088766Y-88668120D01*
X97011880Y-88591234D01*
X96921470Y-88530824D01*
X96821012Y-88489213D01*
X96714367Y-88468000D01*
X96605633Y-88468000D01*
X96498988Y-88489213D01*
X96398530Y-88530824D01*
X96308120Y-88591234D01*
X96231234Y-88668120D01*
X96170824Y-88758530D01*
X96129213Y-88858988D01*
X96108000Y-88965633D01*
X96108000Y-89074367D01*
X96129213Y-89181012D01*
X96170824Y-89281470D01*
X96231234Y-89371880D01*
X96308120Y-89448766D01*
X96363087Y-89485494D01*
X96349213Y-89518988D01*
X96328000Y-89625633D01*
X96328000Y-89734367D01*
X96349213Y-89841012D01*
X96390824Y-89941470D01*
X96451234Y-90031880D01*
X96528120Y-90108766D01*
X96601804Y-90158000D01*
X96525633Y-90158000D01*
X96418988Y-90179213D01*
X96318530Y-90220824D01*
X96228120Y-90281234D01*
X96151234Y-90358120D01*
X96090824Y-90448530D01*
X96049213Y-90548988D01*
X96028000Y-90655633D01*
X95810653Y-90655633D01*
X95810653Y-90654039D01*
X95789440Y-90547394D01*
X95747829Y-90446936D01*
X95687419Y-90356526D01*
X95610533Y-90279640D01*
X95520123Y-90219230D01*
X95419665Y-90177619D01*
X95313020Y-90156406D01*
X95204286Y-90156406D01*
X95097641Y-90177619D01*
X94997183Y-90219230D01*
X94906773Y-90279640D01*
X94829887Y-90356526D01*
X94769477Y-90446936D01*
X94727866Y-90547394D01*
X94706653Y-90654039D01*
X83798907Y-90654039D01*
X83801036Y-88825633D01*
X85738000Y-88825633D01*
X85738000Y-88934367D01*
X85759213Y-89041012D01*
X85800824Y-89141470D01*
X85861234Y-89231880D01*
X85938120Y-89308766D01*
X86028530Y-89369176D01*
X86128988Y-89410787D01*
X86235633Y-89432000D01*
X86344367Y-89432000D01*
X86451012Y-89410787D01*
X86551470Y-89369176D01*
X86641880Y-89308766D01*
X86675013Y-89275633D01*
X90148000Y-89275633D01*
X90148000Y-89384367D01*
X90169213Y-89491012D01*
X90210824Y-89591470D01*
X90271234Y-89681880D01*
X90348120Y-89758766D01*
X90438530Y-89819176D01*
X90538988Y-89860787D01*
X90645633Y-89882000D01*
X90754367Y-89882000D01*
X90861012Y-89860787D01*
X90961470Y-89819176D01*
X91051880Y-89758766D01*
X91128766Y-89681880D01*
X91189176Y-89591470D01*
X91230787Y-89491012D01*
X91252000Y-89384367D01*
X91252000Y-89275633D01*
X91230787Y-89168988D01*
X91189176Y-89068530D01*
X91128766Y-88978120D01*
X91051880Y-88901234D01*
X90961470Y-88840824D01*
X90861012Y-88799213D01*
X90754367Y-88778000D01*
X90645633Y-88778000D01*
X90538988Y-88799213D01*
X90438530Y-88840824D01*
X90348120Y-88901234D01*
X90271234Y-88978120D01*
X90210824Y-89068530D01*
X90169213Y-89168988D01*
X90148000Y-89275633D01*
X86675013Y-89275633D01*
X86718766Y-89231880D01*
X86779176Y-89141470D01*
X86820787Y-89041012D01*
X86842000Y-88934367D01*
X86842000Y-88825633D01*
X86820787Y-88718988D01*
X86779176Y-88618530D01*
X86718766Y-88528120D01*
X86641880Y-88451234D01*
X86551470Y-88390824D01*
X86451012Y-88349213D01*
X86344367Y-88328000D01*
X86235633Y-88328000D01*
X86128988Y-88349213D01*
X86028530Y-88390824D01*
X85938120Y-88451234D01*
X85861234Y-88528120D01*
X85800824Y-88618530D01*
X85759213Y-88718988D01*
X85738000Y-88825633D01*
X83801036Y-88825633D01*
X83803283Y-86895633D01*
X87548000Y-86895633D01*
X87548000Y-87004367D01*
X87569213Y-87111012D01*
X87610824Y-87211470D01*
X87671234Y-87301880D01*
X87748120Y-87378766D01*
X87838530Y-87439176D01*
X87938988Y-87480787D01*
X88045633Y-87502000D01*
X88154367Y-87502000D01*
X88261012Y-87480787D01*
X88361470Y-87439176D01*
X88451880Y-87378766D01*
X88528766Y-87301880D01*
X88589176Y-87211470D01*
X88630787Y-87111012D01*
X88652000Y-87004367D01*
X88652000Y-86895633D01*
X88630787Y-86788988D01*
X88608687Y-86735633D01*
X90148000Y-86735633D01*
X90148000Y-86844367D01*
X90169213Y-86951012D01*
X90210824Y-87051470D01*
X90271234Y-87141880D01*
X90348120Y-87218766D01*
X90438530Y-87279176D01*
X90538988Y-87320787D01*
X90645633Y-87342000D01*
X90754367Y-87342000D01*
X90861012Y-87320787D01*
X90961470Y-87279176D01*
X91051880Y-87218766D01*
X91128766Y-87141880D01*
X91166349Y-87085633D01*
X96328000Y-87085633D01*
X96328000Y-87194367D01*
X96349213Y-87301012D01*
X96390824Y-87401470D01*
X96451234Y-87491880D01*
X96528120Y-87568766D01*
X96618530Y-87629176D01*
X96718988Y-87670787D01*
X96825633Y-87692000D01*
X96934367Y-87692000D01*
X97041012Y-87670787D01*
X97141470Y-87629176D01*
X97231880Y-87568766D01*
X97308766Y-87491880D01*
X97369176Y-87401470D01*
X97410787Y-87301012D01*
X97432000Y-87194367D01*
X97432000Y-87085633D01*
X97410787Y-86978988D01*
X97369176Y-86878530D01*
X97333832Y-86825633D01*
X97818000Y-86825633D01*
X97818000Y-86934367D01*
X97839213Y-87041012D01*
X97880824Y-87141470D01*
X97941234Y-87231880D01*
X98018120Y-87308766D01*
X98108530Y-87369176D01*
X98208988Y-87410787D01*
X98315633Y-87432000D01*
X98424367Y-87432000D01*
X98531012Y-87410787D01*
X98631470Y-87369176D01*
X98721880Y-87308766D01*
X98798766Y-87231880D01*
X98859176Y-87141470D01*
X98900787Y-87041012D01*
X98922000Y-86934367D01*
X98922000Y-86825633D01*
X98900787Y-86718988D01*
X98859176Y-86618530D01*
X98798766Y-86528120D01*
X98721880Y-86451234D01*
X98631470Y-86390824D01*
X98531012Y-86349213D01*
X98424367Y-86328000D01*
X98315633Y-86328000D01*
X98208988Y-86349213D01*
X98108530Y-86390824D01*
X98018120Y-86451234D01*
X97941234Y-86528120D01*
X97880824Y-86618530D01*
X97839213Y-86718988D01*
X97818000Y-86825633D01*
X97333832Y-86825633D01*
X97308766Y-86788120D01*
X97231880Y-86711234D01*
X97141470Y-86650824D01*
X97041012Y-86609213D01*
X96934367Y-86588000D01*
X96825633Y-86588000D01*
X96718988Y-86609213D01*
X96618530Y-86650824D01*
X96528120Y-86711234D01*
X96451234Y-86788120D01*
X96390824Y-86878530D01*
X96349213Y-86978988D01*
X96328000Y-87085633D01*
X91166349Y-87085633D01*
X91189176Y-87051470D01*
X91230787Y-86951012D01*
X91252000Y-86844367D01*
X91252000Y-86735633D01*
X91230787Y-86628988D01*
X91189176Y-86528530D01*
X91128766Y-86438120D01*
X91051880Y-86361234D01*
X90961470Y-86300824D01*
X90861012Y-86259213D01*
X90754367Y-86238000D01*
X90645633Y-86238000D01*
X90538988Y-86259213D01*
X90438530Y-86300824D01*
X90348120Y-86361234D01*
X90271234Y-86438120D01*
X90210824Y-86528530D01*
X90169213Y-86628988D01*
X90148000Y-86735633D01*
X88608687Y-86735633D01*
X88589176Y-86688530D01*
X88528766Y-86598120D01*
X88451880Y-86521234D01*
X88361470Y-86460824D01*
X88261012Y-86419213D01*
X88154367Y-86398000D01*
X88045633Y-86398000D01*
X87938988Y-86419213D01*
X87838530Y-86460824D01*
X87748120Y-86521234D01*
X87671234Y-86598120D01*
X87610824Y-86688530D01*
X87569213Y-86788988D01*
X87548000Y-86895633D01*
X83803283Y-86895633D01*
X83806852Y-83831481D01*
X88319710Y-83830717D01*
X88314213Y-83843988D01*
X88303690Y-83896891D01*
X88261012Y-83879213D01*
X88154367Y-83858000D01*
X88045633Y-83858000D01*
X87938988Y-83879213D01*
X87838530Y-83920824D01*
X87748120Y-83981234D01*
X87671234Y-84058120D01*
X87610824Y-84148530D01*
X87569213Y-84248988D01*
X87548000Y-84355633D01*
X87548000Y-84464367D01*
X87569213Y-84571012D01*
X87610824Y-84671470D01*
X87671234Y-84761880D01*
X87748120Y-84838766D01*
X87838530Y-84899176D01*
X87938988Y-84940787D01*
X88045633Y-84962000D01*
X88154367Y-84962000D01*
X88261012Y-84940787D01*
X88361470Y-84899176D01*
X88451880Y-84838766D01*
X88528766Y-84761880D01*
X88589176Y-84671470D01*
X88630787Y-84571012D01*
X88641310Y-84518109D01*
X88683988Y-84535787D01*
X88790633Y-84557000D01*
X88899367Y-84557000D01*
X89006012Y-84535787D01*
X89106470Y-84494176D01*
X89196880Y-84433766D01*
X89273766Y-84356880D01*
X89334176Y-84266470D01*
X89375787Y-84166012D01*
X89397000Y-84059367D01*
X89397000Y-83950633D01*
X89375787Y-83843988D01*
X89370216Y-83830539D01*
X90338979Y-83830375D01*
X90271234Y-83898120D01*
X90210824Y-83988530D01*
X90169213Y-84088988D01*
X90148000Y-84195633D01*
X90148000Y-84304367D01*
X90169213Y-84411012D01*
X90210824Y-84511470D01*
X90271234Y-84601880D01*
X90348120Y-84678766D01*
X90438530Y-84739176D01*
X90538988Y-84780787D01*
X90645633Y-84802000D01*
X90754367Y-84802000D01*
X90861012Y-84780787D01*
X90961470Y-84739176D01*
X91051880Y-84678766D01*
X91128766Y-84601880D01*
X91166349Y-84545633D01*
X96328000Y-84545633D01*
X96328000Y-84654367D01*
X96349213Y-84761012D01*
X96390824Y-84861470D01*
X96451234Y-84951880D01*
X96528120Y-85028766D01*
X96618530Y-85089176D01*
X96718988Y-85130787D01*
X96825633Y-85152000D01*
X96934367Y-85152000D01*
X97041012Y-85130787D01*
X97141470Y-85089176D01*
X97231880Y-85028766D01*
X97308766Y-84951880D01*
X97369176Y-84861470D01*
X97410787Y-84761012D01*
X97432000Y-84654367D01*
X97432000Y-84545633D01*
X97428022Y-84525633D01*
X101258000Y-84525633D01*
X101258000Y-84634367D01*
X101279213Y-84741012D01*
X101320824Y-84841470D01*
X101381234Y-84931880D01*
X101458120Y-85008766D01*
X101548530Y-85069176D01*
X101648988Y-85110787D01*
X101755633Y-85132000D01*
X101864367Y-85132000D01*
X101971012Y-85110787D01*
X102071470Y-85069176D01*
X102161880Y-85008766D01*
X102238766Y-84931880D01*
X102299176Y-84841470D01*
X102340787Y-84741012D01*
X102362000Y-84634367D01*
X102362000Y-84525633D01*
X102340787Y-84418988D01*
X102299176Y-84318530D01*
X102238766Y-84228120D01*
X102161880Y-84151234D01*
X102071470Y-84090824D01*
X101971012Y-84049213D01*
X101864367Y-84028000D01*
X101755633Y-84028000D01*
X101648988Y-84049213D01*
X101548530Y-84090824D01*
X101458120Y-84151234D01*
X101381234Y-84228120D01*
X101320824Y-84318530D01*
X101279213Y-84418988D01*
X101258000Y-84525633D01*
X97428022Y-84525633D01*
X97410787Y-84438988D01*
X97369176Y-84338530D01*
X97308766Y-84248120D01*
X97231880Y-84171234D01*
X97141470Y-84110824D01*
X97041012Y-84069213D01*
X96934367Y-84048000D01*
X96825633Y-84048000D01*
X96718988Y-84069213D01*
X96618530Y-84110824D01*
X96528120Y-84171234D01*
X96451234Y-84248120D01*
X96390824Y-84338530D01*
X96349213Y-84438988D01*
X96328000Y-84545633D01*
X91166349Y-84545633D01*
X91189176Y-84511470D01*
X91230787Y-84411012D01*
X91252000Y-84304367D01*
X91252000Y-84195633D01*
X91230787Y-84088988D01*
X91189176Y-83988530D01*
X91128766Y-83898120D01*
X91060899Y-83830253D01*
X108673985Y-83827270D01*
X108638120Y-83851234D01*
G36*
X124113475Y-100733062D02*
G01*
X123227147Y-100733499D01*
X123258766Y-100701880D01*
X123319176Y-100611470D01*
X123360787Y-100511012D01*
X123382000Y-100404367D01*
X123382000Y-100295633D01*
X123360787Y-100188988D01*
X123319176Y-100088530D01*
X123258766Y-99998120D01*
X123181880Y-99921234D01*
X123174406Y-99916240D01*
X123248766Y-99841880D01*
X123288931Y-99781769D01*
X123358988Y-99810787D01*
X123465633Y-99832000D01*
X123574367Y-99832000D01*
X123681012Y-99810787D01*
X123781470Y-99769176D01*
X123871880Y-99708766D01*
X123948766Y-99631880D01*
X124009176Y-99541470D01*
X124046236Y-99452000D01*
X124118279Y-99452000D01*
X124113475Y-100733062D01*
G37*
X124113475Y-100733062D02*
X123227147Y-100733499D01*
X123258766Y-100701880D01*
X123319176Y-100611470D01*
X123360787Y-100511012D01*
X123382000Y-100404367D01*
X123382000Y-100295633D01*
X123360787Y-100188988D01*
X123319176Y-100088530D01*
X123258766Y-99998120D01*
X123181880Y-99921234D01*
X123174406Y-99916240D01*
X123248766Y-99841880D01*
X123288931Y-99781769D01*
X123358988Y-99810787D01*
X123465633Y-99832000D01*
X123574367Y-99832000D01*
X123681012Y-99810787D01*
X123781470Y-99769176D01*
X123871880Y-99708766D01*
X123948766Y-99631880D01*
X124009176Y-99541470D01*
X124046236Y-99452000D01*
X124118279Y-99452000D01*
X124113475Y-100733062D01*
M02*
