G04 #@! TF.GenerationSoftware,KiCad,Pcbnew,(5.1.6)-1*
G04 #@! TF.CreationDate,2021-02-18T21:14:00+09:00*
G04 #@! TF.ProjectId,guardianCam_Wifi,67756172-6469-4616-9e43-616d5f576966,rev?*
G04 #@! TF.SameCoordinates,Original*
G04 #@! TF.FileFunction,Legend,Bot*
G04 #@! TF.FilePolarity,Positive*
%FSLAX46Y46*%
G04 Gerber Fmt 4.6, Leading zero omitted, Abs format (unit mm)*
G04 Created by KiCad (PCBNEW (5.1.6)-1) date 2021-02-18 21:14:00*
%MOMM*%
%LPD*%
G01*
G04 APERTURE LIST*
%ADD10C,0.120000*%
%ADD11C,0.152400*%
%ADD12C,0.100000*%
%ADD13C,0.127000*%
%ADD14C,0.150000*%
%ADD15C,0.125000*%
%ADD16C,0.175000*%
%ADD17C,0.015000*%
%ADD18C,0.120607*%
G04 APERTURE END LIST*
D10*
X129960000Y-95670000D02*
X127040000Y-95670000D01*
X129960000Y-99490000D02*
X129960000Y-95670000D01*
X126140000Y-99490000D02*
X129960000Y-99490000D01*
X126140000Y-96570000D02*
X126140000Y-99490000D01*
D11*
X98246600Y-94540701D02*
G75*
G03*
X98246600Y-94540701I-381000J0D01*
G01*
X83692400Y-85806261D02*
X83692400Y-85572730D01*
X96087600Y-88671142D02*
X96087600Y-93306261D01*
X96087600Y-83313700D02*
X96087600Y-84956260D01*
X83692400Y-83313700D02*
X96087600Y-83313700D01*
X83692400Y-93306261D02*
X83692400Y-88021141D01*
X85625548Y-95226300D02*
X85335000Y-95226300D01*
D10*
X96888733Y-100030000D02*
X97231267Y-100030000D01*
X96888733Y-101050000D02*
X97231267Y-101050000D01*
D11*
X126562000Y-84807200D02*
X126562000Y-84426200D01*
X126308000Y-84807200D02*
X126562000Y-84807200D01*
X126308000Y-84426200D02*
X126308000Y-84807200D01*
X129914800Y-84121400D02*
X131108600Y-84121400D01*
X129305200Y-84121400D02*
X129914800Y-84121400D01*
X128111400Y-84121400D02*
X129305200Y-84121400D01*
X131108600Y-87118600D02*
X128111400Y-87118600D01*
D12*
X129305200Y-84121400D02*
G75*
G03*
X129914800Y-84121400I304800J0D01*
G01*
D10*
X131530000Y-96741267D02*
X131530000Y-96398733D01*
X132550000Y-96741267D02*
X132550000Y-96398733D01*
X132758733Y-99370000D02*
X133101267Y-99370000D01*
X132758733Y-100390000D02*
X133101267Y-100390000D01*
X102620000Y-90060000D02*
X100170000Y-90060000D01*
X100820000Y-86840000D02*
X102620000Y-86840000D01*
X102270000Y-97360000D02*
X102270000Y-99810000D01*
X99050000Y-99160000D02*
X99050000Y-97360000D01*
X109580000Y-85220000D02*
X109580000Y-83855000D01*
X108880000Y-85220000D02*
X109580000Y-85220000D01*
X108880000Y-85920000D02*
X108880000Y-85220000D01*
X108880000Y-99440000D02*
X109580000Y-99440000D01*
X108880000Y-98740000D02*
X108880000Y-99440000D01*
X123100000Y-85220000D02*
X122400000Y-85220000D01*
X123100000Y-85920000D02*
X123100000Y-85220000D01*
X123100000Y-99440000D02*
X122400000Y-99440000D01*
X123100000Y-98740000D02*
X123100000Y-99440000D01*
X106930000Y-98933733D02*
X106930000Y-99276267D01*
X105910000Y-98933733D02*
X105910000Y-99276267D01*
X105400000Y-99093733D02*
X105400000Y-99436267D01*
X104380000Y-99093733D02*
X104380000Y-99436267D01*
X93350000Y-98373733D02*
X93350000Y-98716267D01*
X92330000Y-98373733D02*
X92330000Y-98716267D01*
X90770000Y-98716267D02*
X90770000Y-98373733D01*
X91790000Y-98716267D02*
X91790000Y-98373733D01*
D12*
X87122000Y-100108000D02*
G75*
G03*
X87122000Y-100108000I-50000J0D01*
G01*
D13*
X83800000Y-99855000D02*
X85540000Y-99855000D01*
X83800000Y-97205000D02*
X83800000Y-99855000D01*
X85540000Y-97205000D02*
X83800000Y-97205000D01*
X99955000Y-92200000D02*
X99955000Y-91540000D01*
X101205000Y-92200000D02*
X101205000Y-91540000D01*
D10*
X102330000Y-85146267D02*
X102330000Y-84803733D01*
X103350000Y-85146267D02*
X103350000Y-84803733D01*
X100226267Y-94940000D02*
X99883733Y-94940000D01*
X100226267Y-93920000D02*
X99883733Y-93920000D01*
X102770000Y-99316267D02*
X102770000Y-98973733D01*
X103790000Y-99316267D02*
X103790000Y-98973733D01*
X100110000Y-85126267D02*
X100110000Y-84783733D01*
X101130000Y-85126267D02*
X101130000Y-84783733D01*
D14*
X130512380Y-96508095D02*
X131321904Y-96508095D01*
X131417142Y-96555714D01*
X131464761Y-96603333D01*
X131512380Y-96698571D01*
X131512380Y-96889047D01*
X131464761Y-96984285D01*
X131417142Y-97031904D01*
X131321904Y-97079523D01*
X130512380Y-97079523D01*
X130512380Y-97984285D02*
X130512380Y-97793809D01*
X130560000Y-97698571D01*
X130607619Y-97650952D01*
X130750476Y-97555714D01*
X130940952Y-97508095D01*
X131321904Y-97508095D01*
X131417142Y-97555714D01*
X131464761Y-97603333D01*
X131512380Y-97698571D01*
X131512380Y-97889047D01*
X131464761Y-97984285D01*
X131417142Y-98031904D01*
X131321904Y-98079523D01*
X131083809Y-98079523D01*
X130988571Y-98031904D01*
X130940952Y-97984285D01*
X130893333Y-97889047D01*
X130893333Y-97698571D01*
X130940952Y-97603333D01*
X130988571Y-97555714D01*
X131083809Y-97508095D01*
X130280000Y-93356666D02*
X130513333Y-93023333D01*
X130680000Y-93356666D02*
X130680000Y-92656666D01*
X130413333Y-92656666D01*
X130346666Y-92690000D01*
X130313333Y-92723333D01*
X130280000Y-92790000D01*
X130280000Y-92890000D01*
X130313333Y-92956666D01*
X130346666Y-92990000D01*
X130413333Y-93023333D01*
X130680000Y-93023333D01*
X129613333Y-93356666D02*
X130013333Y-93356666D01*
X129813333Y-93356666D02*
X129813333Y-92656666D01*
X129880000Y-92756666D01*
X129946666Y-92823333D01*
X130013333Y-92856666D01*
X128946666Y-93356666D02*
X129346666Y-93356666D01*
X129146666Y-93356666D02*
X129146666Y-92656666D01*
X129213333Y-92756666D01*
X129280000Y-92823333D01*
X129346666Y-92856666D01*
D15*
X88093333Y-100836190D02*
X88260000Y-100598095D01*
X88379047Y-100836190D02*
X88379047Y-100336190D01*
X88188571Y-100336190D01*
X88140952Y-100360000D01*
X88117142Y-100383809D01*
X88093333Y-100431428D01*
X88093333Y-100502857D01*
X88117142Y-100550476D01*
X88140952Y-100574285D01*
X88188571Y-100598095D01*
X88379047Y-100598095D01*
X87617142Y-100836190D02*
X87902857Y-100836190D01*
X87760000Y-100836190D02*
X87760000Y-100336190D01*
X87807619Y-100407619D01*
X87855238Y-100455238D01*
X87902857Y-100479047D01*
D14*
X90223333Y-93993081D02*
X90223333Y-94707367D01*
X90270952Y-94850224D01*
X90366190Y-94945462D01*
X90509047Y-94993081D01*
X90604285Y-94993081D01*
X89318571Y-94326415D02*
X89318571Y-94993081D01*
X89556666Y-93945462D02*
X89794761Y-94659748D01*
X89175714Y-94659748D01*
X95613333Y-96782380D02*
X95613333Y-95782380D01*
X95375238Y-95782380D01*
X95232380Y-95830000D01*
X95137142Y-95925238D01*
X95089523Y-96020476D01*
X95041904Y-96210952D01*
X95041904Y-96353809D01*
X95089523Y-96544285D01*
X95137142Y-96639523D01*
X95232380Y-96734761D01*
X95375238Y-96782380D01*
X95613333Y-96782380D01*
X94613333Y-96782380D02*
X94613333Y-95782380D01*
X94280000Y-96496666D01*
X93946666Y-95782380D01*
X93946666Y-96782380D01*
X93565714Y-95782380D02*
X92946666Y-95782380D01*
X93280000Y-96163333D01*
X93137142Y-96163333D01*
X93041904Y-96210952D01*
X92994285Y-96258571D01*
X92946666Y-96353809D01*
X92946666Y-96591904D01*
X92994285Y-96687142D01*
X93041904Y-96734761D01*
X93137142Y-96782380D01*
X93422857Y-96782380D01*
X93518095Y-96734761D01*
X93565714Y-96687142D01*
X92518095Y-96782380D02*
X92518095Y-95782380D01*
X92280000Y-95782380D01*
X92137142Y-95830000D01*
X92041904Y-95925238D01*
X91994285Y-96020476D01*
X91946666Y-96210952D01*
X91946666Y-96353809D01*
X91994285Y-96544285D01*
X92041904Y-96639523D01*
X92137142Y-96734761D01*
X92280000Y-96782380D01*
X92518095Y-96782380D01*
X91518095Y-96401428D02*
X90756190Y-96401428D01*
X90327619Y-96734761D02*
X90184761Y-96782380D01*
X89946666Y-96782380D01*
X89851428Y-96734761D01*
X89803809Y-96687142D01*
X89756190Y-96591904D01*
X89756190Y-96496666D01*
X89803809Y-96401428D01*
X89851428Y-96353809D01*
X89946666Y-96306190D01*
X90137142Y-96258571D01*
X90232380Y-96210952D01*
X90280000Y-96163333D01*
X90327619Y-96068095D01*
X90327619Y-95972857D01*
X90280000Y-95877619D01*
X90232380Y-95830000D01*
X90137142Y-95782380D01*
X89899047Y-95782380D01*
X89756190Y-95830000D01*
X88994285Y-96258571D02*
X89327619Y-96258571D01*
X89327619Y-96782380D02*
X89327619Y-95782380D01*
X88851428Y-95782380D01*
X89890000Y-88722380D02*
X89890000Y-88960476D01*
X90128095Y-88865238D02*
X89890000Y-88960476D01*
X89651904Y-88865238D01*
X90032857Y-89150952D02*
X89890000Y-88960476D01*
X89747142Y-89150952D01*
D15*
X125416190Y-85868571D02*
X125178095Y-85701904D01*
X125416190Y-85582857D02*
X124916190Y-85582857D01*
X124916190Y-85773333D01*
X124940000Y-85820952D01*
X124963809Y-85844761D01*
X125011428Y-85868571D01*
X125082857Y-85868571D01*
X125130476Y-85844761D01*
X125154285Y-85820952D01*
X125178095Y-85773333D01*
X125178095Y-85582857D01*
X125416190Y-86344761D02*
X125416190Y-86059047D01*
X125416190Y-86201904D02*
X124916190Y-86201904D01*
X124987619Y-86154285D01*
X125035238Y-86106666D01*
X125059047Y-86059047D01*
X124916190Y-86797142D02*
X124916190Y-86559047D01*
X125154285Y-86535238D01*
X125130476Y-86559047D01*
X125106666Y-86606666D01*
X125106666Y-86725714D01*
X125130476Y-86773333D01*
X125154285Y-86797142D01*
X125201904Y-86820952D01*
X125320952Y-86820952D01*
X125368571Y-86797142D01*
X125392380Y-86773333D01*
X125416190Y-86725714D01*
X125416190Y-86606666D01*
X125392380Y-86559047D01*
X125368571Y-86535238D01*
D14*
X106500000Y-86375000D02*
X106533333Y-86341666D01*
X106566666Y-86241666D01*
X106566666Y-86175000D01*
X106533333Y-86075000D01*
X106466666Y-86008333D01*
X106400000Y-85975000D01*
X106266666Y-85941666D01*
X106166666Y-85941666D01*
X106033333Y-85975000D01*
X105966666Y-86008333D01*
X105900000Y-86075000D01*
X105866666Y-86175000D01*
X105866666Y-86241666D01*
X105900000Y-86341666D01*
X105933333Y-86375000D01*
X105933333Y-86641666D02*
X105900000Y-86675000D01*
X105866666Y-86741666D01*
X105866666Y-86908333D01*
X105900000Y-86975000D01*
X105933333Y-87008333D01*
X106000000Y-87041666D01*
X106066666Y-87041666D01*
X106166666Y-87008333D01*
X106566666Y-86608333D01*
X106566666Y-87041666D01*
X105866666Y-87675000D02*
X105866666Y-87341666D01*
X106200000Y-87308333D01*
X106166666Y-87341666D01*
X106133333Y-87408333D01*
X106133333Y-87575000D01*
X106166666Y-87641666D01*
X106200000Y-87675000D01*
X106266666Y-87708333D01*
X106433333Y-87708333D01*
X106500000Y-87675000D01*
X106533333Y-87641666D01*
X106566666Y-87575000D01*
X106566666Y-87408333D01*
X106533333Y-87341666D01*
X106500000Y-87308333D01*
X99396666Y-92813333D02*
X99063333Y-92580000D01*
X99396666Y-92413333D02*
X98696666Y-92413333D01*
X98696666Y-92680000D01*
X98730000Y-92746666D01*
X98763333Y-92780000D01*
X98830000Y-92813333D01*
X98930000Y-92813333D01*
X98996666Y-92780000D01*
X99030000Y-92746666D01*
X99063333Y-92680000D01*
X99063333Y-92413333D01*
X98696666Y-93413333D02*
X98696666Y-93280000D01*
X98730000Y-93213333D01*
X98763333Y-93180000D01*
X98863333Y-93113333D01*
X98996666Y-93080000D01*
X99263333Y-93080000D01*
X99330000Y-93113333D01*
X99363333Y-93146666D01*
X99396666Y-93213333D01*
X99396666Y-93346666D01*
X99363333Y-93413333D01*
X99330000Y-93446666D01*
X99263333Y-93480000D01*
X99096666Y-93480000D01*
X99030000Y-93446666D01*
X98996666Y-93413333D01*
X98963333Y-93346666D01*
X98963333Y-93213333D01*
X98996666Y-93146666D01*
X99030000Y-93113333D01*
X99096666Y-93080000D01*
X98100000Y-92323333D02*
X98133333Y-92290000D01*
X98166666Y-92190000D01*
X98166666Y-92123333D01*
X98133333Y-92023333D01*
X98066666Y-91956666D01*
X98000000Y-91923333D01*
X97866666Y-91890000D01*
X97766666Y-91890000D01*
X97633333Y-91923333D01*
X97566666Y-91956666D01*
X97500000Y-92023333D01*
X97466666Y-92123333D01*
X97466666Y-92190000D01*
X97500000Y-92290000D01*
X97533333Y-92323333D01*
X97700000Y-92923333D02*
X98166666Y-92923333D01*
X97433333Y-92756666D02*
X97933333Y-92590000D01*
X97933333Y-93023333D01*
X96056666Y-99776666D02*
X96290000Y-99443333D01*
X96456666Y-99776666D02*
X96456666Y-99076666D01*
X96190000Y-99076666D01*
X96123333Y-99110000D01*
X96090000Y-99143333D01*
X96056666Y-99210000D01*
X96056666Y-99310000D01*
X96090000Y-99376666D01*
X96123333Y-99410000D01*
X96190000Y-99443333D01*
X96456666Y-99443333D01*
X95823333Y-99076666D02*
X95390000Y-99076666D01*
X95623333Y-99343333D01*
X95523333Y-99343333D01*
X95456666Y-99376666D01*
X95423333Y-99410000D01*
X95390000Y-99476666D01*
X95390000Y-99643333D01*
X95423333Y-99710000D01*
X95456666Y-99743333D01*
X95523333Y-99776666D01*
X95723333Y-99776666D01*
X95790000Y-99743333D01*
X95823333Y-99710000D01*
D16*
X130433333Y-87566666D02*
X130433333Y-88133333D01*
X130400000Y-88200000D01*
X130366666Y-88233333D01*
X130300000Y-88266666D01*
X130166666Y-88266666D01*
X130100000Y-88233333D01*
X130066666Y-88200000D01*
X130033333Y-88133333D01*
X130033333Y-87566666D01*
X129766666Y-87566666D02*
X129300000Y-87566666D01*
X129600000Y-88266666D01*
D17*
X132483830Y-83901810D02*
X132483830Y-84140206D01*
X132722225Y-84044848D02*
X132483830Y-84140206D01*
X132245434Y-84044848D01*
X132626867Y-84330922D02*
X132483830Y-84140206D01*
X132340792Y-84330922D01*
D14*
X133596666Y-96110000D02*
X133263333Y-95876666D01*
X133596666Y-95710000D02*
X132896666Y-95710000D01*
X132896666Y-95976666D01*
X132930000Y-96043333D01*
X132963333Y-96076666D01*
X133030000Y-96110000D01*
X133130000Y-96110000D01*
X133196666Y-96076666D01*
X133230000Y-96043333D01*
X133263333Y-95976666D01*
X133263333Y-95710000D01*
X133596666Y-96776666D02*
X133596666Y-96376666D01*
X133596666Y-96576666D02*
X132896666Y-96576666D01*
X132996666Y-96510000D01*
X133063333Y-96443333D01*
X133096666Y-96376666D01*
X132896666Y-97376666D02*
X132896666Y-97243333D01*
X132930000Y-97176666D01*
X132963333Y-97143333D01*
X133063333Y-97076666D01*
X133196666Y-97043333D01*
X133463333Y-97043333D01*
X133530000Y-97076666D01*
X133563333Y-97110000D01*
X133596666Y-97176666D01*
X133596666Y-97310000D01*
X133563333Y-97376666D01*
X133530000Y-97410000D01*
X133463333Y-97443333D01*
X133296666Y-97443333D01*
X133230000Y-97410000D01*
X133196666Y-97376666D01*
X133163333Y-97310000D01*
X133163333Y-97176666D01*
X133196666Y-97110000D01*
X133230000Y-97076666D01*
X133296666Y-97043333D01*
X136050000Y-100210000D02*
X136083333Y-100243333D01*
X136183333Y-100276666D01*
X136250000Y-100276666D01*
X136350000Y-100243333D01*
X136416666Y-100176666D01*
X136450000Y-100110000D01*
X136483333Y-99976666D01*
X136483333Y-99876666D01*
X136450000Y-99743333D01*
X136416666Y-99676666D01*
X136350000Y-99610000D01*
X136250000Y-99576666D01*
X136183333Y-99576666D01*
X136083333Y-99610000D01*
X136050000Y-99643333D01*
X135816666Y-99576666D02*
X135383333Y-99576666D01*
X135616666Y-99843333D01*
X135516666Y-99843333D01*
X135450000Y-99876666D01*
X135416666Y-99910000D01*
X135383333Y-99976666D01*
X135383333Y-100143333D01*
X135416666Y-100210000D01*
X135450000Y-100243333D01*
X135516666Y-100276666D01*
X135716666Y-100276666D01*
X135783333Y-100243333D01*
X135816666Y-100210000D01*
X134716666Y-100276666D02*
X135116666Y-100276666D01*
X134916666Y-100276666D02*
X134916666Y-99576666D01*
X134983333Y-99676666D01*
X135050000Y-99743333D01*
X135116666Y-99776666D01*
X102481904Y-90802380D02*
X102481904Y-91611904D01*
X102434285Y-91707142D01*
X102386666Y-91754761D01*
X102291428Y-91802380D01*
X102100952Y-91802380D01*
X102005714Y-91754761D01*
X101958095Y-91707142D01*
X101910476Y-91611904D01*
X101910476Y-90802380D01*
X101005714Y-91135714D02*
X101005714Y-91802380D01*
X101243809Y-90754761D02*
X101481904Y-91469047D01*
X100862857Y-91469047D01*
X97916666Y-97766666D02*
X98483333Y-97766666D01*
X98550000Y-97800000D01*
X98583333Y-97833333D01*
X98616666Y-97900000D01*
X98616666Y-98033333D01*
X98583333Y-98100000D01*
X98550000Y-98133333D01*
X98483333Y-98166666D01*
X97916666Y-98166666D01*
X97916666Y-98433333D02*
X97916666Y-98866666D01*
X98183333Y-98633333D01*
X98183333Y-98733333D01*
X98216666Y-98800000D01*
X98250000Y-98833333D01*
X98316666Y-98866666D01*
X98483333Y-98866666D01*
X98550000Y-98833333D01*
X98583333Y-98800000D01*
X98616666Y-98733333D01*
X98616666Y-98533333D01*
X98583333Y-98466666D01*
X98550000Y-98433333D01*
X99823333Y-86436666D02*
X99823333Y-87003333D01*
X99790000Y-87070000D01*
X99756666Y-87103333D01*
X99690000Y-87136666D01*
X99556666Y-87136666D01*
X99490000Y-87103333D01*
X99456666Y-87070000D01*
X99423333Y-87003333D01*
X99423333Y-86436666D01*
X99123333Y-86503333D02*
X99090000Y-86470000D01*
X99023333Y-86436666D01*
X98856666Y-86436666D01*
X98790000Y-86470000D01*
X98756666Y-86503333D01*
X98723333Y-86570000D01*
X98723333Y-86636666D01*
X98756666Y-86736666D01*
X99156666Y-87136666D01*
X98723333Y-87136666D01*
X106022380Y-91568095D02*
X106831904Y-91568095D01*
X106927142Y-91615714D01*
X106974761Y-91663333D01*
X107022380Y-91758571D01*
X107022380Y-91949047D01*
X106974761Y-92044285D01*
X106927142Y-92091904D01*
X106831904Y-92139523D01*
X106022380Y-92139523D01*
X107022380Y-93139523D02*
X107022380Y-92568095D01*
X107022380Y-92853809D02*
X106022380Y-92853809D01*
X106165238Y-92758571D01*
X106260476Y-92663333D01*
X106308095Y-92568095D01*
X106806666Y-96563333D02*
X106473333Y-96330000D01*
X106806666Y-96163333D02*
X106106666Y-96163333D01*
X106106666Y-96430000D01*
X106140000Y-96496666D01*
X106173333Y-96530000D01*
X106240000Y-96563333D01*
X106340000Y-96563333D01*
X106406666Y-96530000D01*
X106440000Y-96496666D01*
X106473333Y-96430000D01*
X106473333Y-96163333D01*
X106406666Y-96963333D02*
X106373333Y-96896666D01*
X106340000Y-96863333D01*
X106273333Y-96830000D01*
X106240000Y-96830000D01*
X106173333Y-96863333D01*
X106140000Y-96896666D01*
X106106666Y-96963333D01*
X106106666Y-97096666D01*
X106140000Y-97163333D01*
X106173333Y-97196666D01*
X106240000Y-97230000D01*
X106273333Y-97230000D01*
X106340000Y-97196666D01*
X106373333Y-97163333D01*
X106406666Y-97096666D01*
X106406666Y-96963333D01*
X106440000Y-96896666D01*
X106473333Y-96863333D01*
X106540000Y-96830000D01*
X106673333Y-96830000D01*
X106740000Y-96863333D01*
X106773333Y-96896666D01*
X106806666Y-96963333D01*
X106806666Y-97096666D01*
X106773333Y-97163333D01*
X106740000Y-97196666D01*
X106673333Y-97230000D01*
X106540000Y-97230000D01*
X106473333Y-97196666D01*
X106440000Y-97163333D01*
X106406666Y-97096666D01*
X105486666Y-96483333D02*
X105153333Y-96250000D01*
X105486666Y-96083333D02*
X104786666Y-96083333D01*
X104786666Y-96350000D01*
X104820000Y-96416666D01*
X104853333Y-96450000D01*
X104920000Y-96483333D01*
X105020000Y-96483333D01*
X105086666Y-96450000D01*
X105120000Y-96416666D01*
X105153333Y-96350000D01*
X105153333Y-96083333D01*
X104786666Y-96716666D02*
X104786666Y-97183333D01*
X105486666Y-96883333D01*
X94466666Y-98323333D02*
X94133333Y-98090000D01*
X94466666Y-97923333D02*
X93766666Y-97923333D01*
X93766666Y-98190000D01*
X93800000Y-98256666D01*
X93833333Y-98290000D01*
X93900000Y-98323333D01*
X94000000Y-98323333D01*
X94066666Y-98290000D01*
X94100000Y-98256666D01*
X94133333Y-98190000D01*
X94133333Y-97923333D01*
X93766666Y-98956666D02*
X93766666Y-98623333D01*
X94100000Y-98590000D01*
X94066666Y-98623333D01*
X94033333Y-98690000D01*
X94033333Y-98856666D01*
X94066666Y-98923333D01*
X94100000Y-98956666D01*
X94166666Y-98990000D01*
X94333333Y-98990000D01*
X94400000Y-98956666D01*
X94433333Y-98923333D01*
X94466666Y-98856666D01*
X94466666Y-98690000D01*
X94433333Y-98623333D01*
X94400000Y-98590000D01*
X90376666Y-98363333D02*
X90043333Y-98130000D01*
X90376666Y-97963333D02*
X89676666Y-97963333D01*
X89676666Y-98230000D01*
X89710000Y-98296666D01*
X89743333Y-98330000D01*
X89810000Y-98363333D01*
X89910000Y-98363333D01*
X89976666Y-98330000D01*
X90010000Y-98296666D01*
X90043333Y-98230000D01*
X90043333Y-97963333D01*
X89910000Y-98963333D02*
X90376666Y-98963333D01*
X89643333Y-98796666D02*
X90143333Y-98630000D01*
X90143333Y-99063333D01*
D18*
X88088241Y-97798247D02*
X87605812Y-97798247D01*
X87950404Y-97959057D01*
X87605812Y-98119867D01*
X88088241Y-98119867D01*
X88088241Y-98349595D02*
X87605812Y-98349595D01*
X88088241Y-98625268D02*
X87812567Y-98418513D01*
X87605812Y-98625268D02*
X87881486Y-98349595D01*
X88088241Y-99084725D02*
X88088241Y-98809051D01*
X88088241Y-98946888D02*
X87605812Y-98946888D01*
X87674731Y-98900942D01*
X87720676Y-98854996D01*
X87743649Y-98809051D01*
D17*
X101764589Y-92188471D02*
X101764589Y-92081422D01*
X101932810Y-92081422D02*
X101611662Y-92081422D01*
X101611662Y-92234349D01*
X101764589Y-92463741D02*
X101779882Y-92509619D01*
X101795175Y-92524912D01*
X101825760Y-92540205D01*
X101871639Y-92540205D01*
X101902224Y-92524912D01*
X101917517Y-92509619D01*
X101932810Y-92479034D01*
X101932810Y-92356692D01*
X101611662Y-92356692D01*
X101611662Y-92463741D01*
X101626955Y-92494326D01*
X101642247Y-92509619D01*
X101672833Y-92524912D01*
X101703418Y-92524912D01*
X101734004Y-92509619D01*
X101749297Y-92494326D01*
X101764589Y-92463741D01*
X101764589Y-92356692D01*
X101932810Y-92846060D02*
X101932810Y-92662547D01*
X101932810Y-92754303D02*
X101611662Y-92754303D01*
X101657540Y-92723718D01*
X101688126Y-92693132D01*
X101703418Y-92662547D01*
D14*
X104637142Y-84372142D02*
X104684761Y-84324523D01*
X104732380Y-84181666D01*
X104732380Y-84086428D01*
X104684761Y-83943571D01*
X104589523Y-83848333D01*
X104494285Y-83800714D01*
X104303809Y-83753095D01*
X104160952Y-83753095D01*
X103970476Y-83800714D01*
X103875238Y-83848333D01*
X103780000Y-83943571D01*
X103732380Y-84086428D01*
X103732380Y-84181666D01*
X103780000Y-84324523D01*
X103827619Y-84372142D01*
X104732380Y-85324523D02*
X104732380Y-84753095D01*
X104732380Y-85038809D02*
X103732380Y-85038809D01*
X103875238Y-84943571D01*
X103970476Y-84848333D01*
X104018095Y-84753095D01*
X104732380Y-86276904D02*
X104732380Y-85705476D01*
X104732380Y-85991190D02*
X103732380Y-85991190D01*
X103875238Y-85895952D01*
X103970476Y-85800714D01*
X104018095Y-85705476D01*
X100660000Y-95900000D02*
X100693333Y-95933333D01*
X100793333Y-95966666D01*
X100860000Y-95966666D01*
X100960000Y-95933333D01*
X101026666Y-95866666D01*
X101060000Y-95800000D01*
X101093333Y-95666666D01*
X101093333Y-95566666D01*
X101060000Y-95433333D01*
X101026666Y-95366666D01*
X100960000Y-95300000D01*
X100860000Y-95266666D01*
X100793333Y-95266666D01*
X100693333Y-95300000D01*
X100660000Y-95333333D01*
X99993333Y-95966666D02*
X100393333Y-95966666D01*
X100193333Y-95966666D02*
X100193333Y-95266666D01*
X100260000Y-95366666D01*
X100326666Y-95433333D01*
X100393333Y-95466666D01*
X99560000Y-95266666D02*
X99493333Y-95266666D01*
X99426666Y-95300000D01*
X99393333Y-95333333D01*
X99360000Y-95400000D01*
X99326666Y-95533333D01*
X99326666Y-95700000D01*
X99360000Y-95833333D01*
X99393333Y-95900000D01*
X99426666Y-95933333D01*
X99493333Y-95966666D01*
X99560000Y-95966666D01*
X99626666Y-95933333D01*
X99660000Y-95900000D01*
X99693333Y-95833333D01*
X99726666Y-95700000D01*
X99726666Y-95533333D01*
X99693333Y-95400000D01*
X99660000Y-95333333D01*
X99626666Y-95300000D01*
X99560000Y-95266666D01*
X103750000Y-96683333D02*
X103783333Y-96650000D01*
X103816666Y-96550000D01*
X103816666Y-96483333D01*
X103783333Y-96383333D01*
X103716666Y-96316666D01*
X103650000Y-96283333D01*
X103516666Y-96250000D01*
X103416666Y-96250000D01*
X103283333Y-96283333D01*
X103216666Y-96316666D01*
X103150000Y-96383333D01*
X103116666Y-96483333D01*
X103116666Y-96550000D01*
X103150000Y-96650000D01*
X103183333Y-96683333D01*
X103116666Y-96916666D02*
X103116666Y-97383333D01*
X103816666Y-97083333D01*
X102407142Y-84788333D02*
X102454761Y-84740714D01*
X102502380Y-84597857D01*
X102502380Y-84502619D01*
X102454761Y-84359761D01*
X102359523Y-84264523D01*
X102264285Y-84216904D01*
X102073809Y-84169285D01*
X101930952Y-84169285D01*
X101740476Y-84216904D01*
X101645238Y-84264523D01*
X101550000Y-84359761D01*
X101502380Y-84502619D01*
X101502380Y-84597857D01*
X101550000Y-84740714D01*
X101597619Y-84788333D01*
X101502380Y-85645476D02*
X101502380Y-85455000D01*
X101550000Y-85359761D01*
X101597619Y-85312142D01*
X101740476Y-85216904D01*
X101930952Y-85169285D01*
X102311904Y-85169285D01*
X102407142Y-85216904D01*
X102454761Y-85264523D01*
X102502380Y-85359761D01*
X102502380Y-85550238D01*
X102454761Y-85645476D01*
X102407142Y-85693095D01*
X102311904Y-85740714D01*
X102073809Y-85740714D01*
X101978571Y-85693095D01*
X101930952Y-85645476D01*
X101883333Y-85550238D01*
X101883333Y-85359761D01*
X101930952Y-85264523D01*
X101978571Y-85216904D01*
X102073809Y-85169285D01*
M02*
