G04 #@! TF.GenerationSoftware,KiCad,Pcbnew,(5.1.6)-1*
G04 #@! TF.CreationDate,2021-02-18T21:14:00+09:00*
G04 #@! TF.ProjectId,guardianCam_Wifi,67756172-6469-4616-9e43-616d5f576966,rev?*
G04 #@! TF.SameCoordinates,Original*
G04 #@! TF.FileFunction,Legend,Top*
G04 #@! TF.FilePolarity,Positive*
%FSLAX46Y46*%
G04 Gerber Fmt 4.6, Leading zero omitted, Abs format (unit mm)*
G04 Created by KiCad (PCBNEW (5.1.6)-1) date 2021-02-18 21:14:00*
%MOMM*%
%LPD*%
G01*
G04 APERTURE LIST*
%ADD10C,0.100000*%
%ADD11C,0.120000*%
%ADD12C,0.152400*%
%ADD13C,0.300000*%
%ADD14C,0.127000*%
%ADD15C,0.200000*%
%ADD16C,0.125000*%
%ADD17C,0.150000*%
%ADD18C,0.015000*%
G04 APERTURE END LIST*
D10*
X83795000Y-87810000D02*
G75*
G03*
X83795000Y-87810000I-50000J0D01*
G01*
D11*
X119890000Y-98890000D02*
X119890000Y-100790000D01*
X119890000Y-100790000D02*
X117990000Y-100790000D01*
X117990000Y-100790000D02*
X117990000Y-98890000D01*
X117990000Y-98890000D02*
X119890000Y-98890000D01*
D12*
X98246600Y-94540701D02*
G75*
G03*
X98246600Y-94540701I-381000J0D01*
G01*
D10*
X130670000Y-84830000D02*
G75*
G03*
X130670000Y-84830000I-50000J0D01*
G01*
X83885000Y-84720000D02*
G75*
G03*
X83885000Y-84720000I-50000J0D01*
G01*
D11*
X128650000Y-88770000D02*
G75*
G03*
X128650000Y-88770000I-700000J0D01*
G01*
X126630000Y-88040000D02*
X126630000Y-89440000D01*
X126630000Y-89440000D02*
X125230000Y-89440000D01*
X125230000Y-89440000D02*
X125230000Y-88040000D01*
X125230000Y-88040000D02*
X126630000Y-88040000D01*
X117100000Y-98850000D02*
X117100000Y-100750000D01*
X117100000Y-100750000D02*
X115200000Y-100750000D01*
X115200000Y-100750000D02*
X115200000Y-98850000D01*
X115200000Y-98850000D02*
X117100000Y-98850000D01*
X114470000Y-98830000D02*
X114470000Y-100730000D01*
X114470000Y-100730000D02*
X112570000Y-100730000D01*
X112570000Y-100730000D02*
X112570000Y-98830000D01*
X112570000Y-98830000D02*
X114470000Y-98830000D01*
X111870000Y-98840000D02*
X111870000Y-100740000D01*
X111870000Y-100740000D02*
X109970000Y-100740000D01*
X109970000Y-100740000D02*
X109970000Y-98840000D01*
X109970000Y-98840000D02*
X111870000Y-98840000D01*
D13*
X100251419Y-85585000D02*
G75*
G03*
X100251419Y-85585000I-141419J0D01*
G01*
D14*
X96176000Y-83335000D02*
X97644000Y-83335000D01*
X97644000Y-86235000D02*
X96176000Y-86235000D01*
D11*
X92591267Y-87040000D02*
X92248733Y-87040000D01*
X92591267Y-88060000D02*
X92248733Y-88060000D01*
X92670000Y-84888733D02*
X92670000Y-85231267D01*
X93690000Y-84888733D02*
X93690000Y-85231267D01*
X95583733Y-87760000D02*
X95926267Y-87760000D01*
X95583733Y-86740000D02*
X95926267Y-86740000D01*
X96993733Y-97620000D02*
X97336267Y-97620000D01*
X96993733Y-96600000D02*
X97336267Y-96600000D01*
X94016267Y-96610000D02*
X93673733Y-96610000D01*
X94016267Y-97630000D02*
X93673733Y-97630000D01*
D13*
X92171419Y-85530000D02*
G75*
G03*
X92171419Y-85530000I-141419J0D01*
G01*
D14*
X88096000Y-83280000D02*
X89564000Y-83280000D01*
X89564000Y-86180000D02*
X88096000Y-86180000D01*
D13*
X93111419Y-99015000D02*
G75*
G03*
X93111419Y-99015000I-141419J0D01*
G01*
D14*
X96904000Y-101265000D02*
X95436000Y-101265000D01*
X95436000Y-98365000D02*
X96904000Y-98365000D01*
D12*
X130031900Y-92530000D02*
G75*
G03*
X130031900Y-92530000I-101600J0D01*
G01*
X127398300Y-93033300D02*
X129201700Y-93033300D01*
X129201700Y-91026700D02*
X127398300Y-91026700D01*
D11*
X126831252Y-85620000D02*
X126308748Y-85620000D01*
X126831252Y-87040000D02*
X126308748Y-87040000D01*
D14*
X115390000Y-92840000D02*
X115390000Y-89840000D01*
X112390000Y-92840000D02*
X112390000Y-89840000D01*
D15*
X113040000Y-93835000D02*
G75*
G03*
X113040000Y-93835000I-100000J0D01*
G01*
D11*
X85526267Y-95730000D02*
X85183733Y-95730000D01*
X85526267Y-96750000D02*
X85183733Y-96750000D01*
D14*
X100130000Y-84580000D02*
X101710000Y-84580000D01*
X100130000Y-99680000D02*
X101710000Y-99680000D01*
X105730000Y-98350000D02*
X105730000Y-99680000D01*
X104550000Y-99680000D02*
X105730000Y-99680000D01*
D15*
X107580000Y-86380000D02*
G75*
G03*
X107580000Y-86380000I-100000J0D01*
G01*
D14*
X105730000Y-84580000D02*
X105730000Y-85910000D01*
X104550000Y-84580000D02*
X105730000Y-84580000D01*
X100130000Y-99680000D02*
X100130000Y-84580000D01*
X138160000Y-86250000D02*
X137360000Y-86250000D01*
X137360000Y-98250000D02*
X138160000Y-98250000D01*
X134460000Y-87650000D02*
X134460000Y-87850000D01*
X134460000Y-96850000D02*
X134460000Y-96650000D01*
D15*
X131266000Y-88751000D02*
G75*
G03*
X131266000Y-88751000I-100000J0D01*
G01*
D11*
X110570000Y-89688733D02*
X110570000Y-90031267D01*
X111590000Y-89688733D02*
X111590000Y-90031267D01*
X114053733Y-94780000D02*
X114396267Y-94780000D01*
X114053733Y-93760000D02*
X114396267Y-93760000D01*
X90306267Y-98520000D02*
X89963733Y-98520000D01*
X90306267Y-99540000D02*
X89963733Y-99540000D01*
X90296267Y-97040000D02*
X89953733Y-97040000D01*
X90296267Y-98060000D02*
X89953733Y-98060000D01*
X129481733Y-100840000D02*
X129824267Y-100840000D01*
X129481733Y-99820000D02*
X129824267Y-99820000D01*
X113598733Y-88620000D02*
X113941267Y-88620000D01*
X113598733Y-87600000D02*
X113941267Y-87600000D01*
X110753733Y-97650000D02*
X111096267Y-97650000D01*
X110753733Y-96630000D02*
X111096267Y-96630000D01*
X120720000Y-96283733D02*
X120720000Y-96626267D01*
X121740000Y-96283733D02*
X121740000Y-96626267D01*
D16*
X83616190Y-89501428D02*
X83378095Y-89668095D01*
X83616190Y-89787142D02*
X83116190Y-89787142D01*
X83116190Y-89596666D01*
X83140000Y-89549047D01*
X83163809Y-89525238D01*
X83211428Y-89501428D01*
X83282857Y-89501428D01*
X83330476Y-89525238D01*
X83354285Y-89549047D01*
X83378095Y-89596666D01*
X83378095Y-89787142D01*
X83616190Y-89025238D02*
X83616190Y-89310952D01*
X83616190Y-89168095D02*
X83116190Y-89168095D01*
X83187619Y-89215714D01*
X83235238Y-89263333D01*
X83259047Y-89310952D01*
X83616190Y-88787142D02*
X83616190Y-88691904D01*
X83592380Y-88644285D01*
X83568571Y-88620476D01*
X83497142Y-88572857D01*
X83401904Y-88549047D01*
X83211428Y-88549047D01*
X83163809Y-88572857D01*
X83140000Y-88596666D01*
X83116190Y-88644285D01*
X83116190Y-88739523D01*
X83140000Y-88787142D01*
X83163809Y-88810952D01*
X83211428Y-88834761D01*
X83330476Y-88834761D01*
X83378095Y-88810952D01*
X83401904Y-88787142D01*
X83425714Y-88739523D01*
X83425714Y-88644285D01*
X83401904Y-88596666D01*
X83378095Y-88572857D01*
X83330476Y-88549047D01*
X83616190Y-88059047D02*
X83116190Y-88059047D01*
X83116190Y-87940000D01*
X83140000Y-87868571D01*
X83187619Y-87820952D01*
X83235238Y-87797142D01*
X83330476Y-87773333D01*
X83401904Y-87773333D01*
X83497142Y-87797142D01*
X83544761Y-87820952D01*
X83592380Y-87868571D01*
X83616190Y-87940000D01*
X83616190Y-88059047D01*
X83116190Y-87606666D02*
X83116190Y-87297142D01*
X83306666Y-87463809D01*
X83306666Y-87392380D01*
X83330476Y-87344761D01*
X83354285Y-87320952D01*
X83401904Y-87297142D01*
X83520952Y-87297142D01*
X83568571Y-87320952D01*
X83592380Y-87344761D01*
X83616190Y-87392380D01*
X83616190Y-87535238D01*
X83592380Y-87582857D01*
X83568571Y-87606666D01*
D17*
X118006666Y-97846666D02*
X118406666Y-97846666D01*
X118206666Y-98546666D02*
X118206666Y-97846666D01*
X118640000Y-98546666D02*
X118640000Y-97846666D01*
X118906666Y-97846666D01*
X118973333Y-97880000D01*
X119006666Y-97913333D01*
X119040000Y-97980000D01*
X119040000Y-98080000D01*
X119006666Y-98146666D01*
X118973333Y-98180000D01*
X118906666Y-98213333D01*
X118640000Y-98213333D01*
X119706666Y-98546666D02*
X119306666Y-98546666D01*
X119506666Y-98546666D02*
X119506666Y-97846666D01*
X119440000Y-97946666D01*
X119373333Y-98013333D01*
X119306666Y-98046666D01*
D10*
X83886190Y-86371428D02*
X83648095Y-86538095D01*
X83886190Y-86657142D02*
X83386190Y-86657142D01*
X83386190Y-86466666D01*
X83410000Y-86419047D01*
X83433809Y-86395238D01*
X83481428Y-86371428D01*
X83552857Y-86371428D01*
X83600476Y-86395238D01*
X83624285Y-86419047D01*
X83648095Y-86466666D01*
X83648095Y-86657142D01*
X83886190Y-85895238D02*
X83886190Y-86180952D01*
X83886190Y-86038095D02*
X83386190Y-86038095D01*
X83457619Y-86085714D01*
X83505238Y-86133333D01*
X83529047Y-86180952D01*
X83552857Y-85466666D02*
X83886190Y-85466666D01*
X83362380Y-85585714D02*
X83719523Y-85704761D01*
X83719523Y-85395238D01*
D17*
X131193333Y-86096666D02*
X131193333Y-85396666D01*
X131360000Y-85396666D01*
X131460000Y-85430000D01*
X131526666Y-85496666D01*
X131560000Y-85563333D01*
X131593333Y-85696666D01*
X131593333Y-85796666D01*
X131560000Y-85930000D01*
X131526666Y-85996666D01*
X131460000Y-86063333D01*
X131360000Y-86096666D01*
X131193333Y-86096666D01*
X131860000Y-85463333D02*
X131893333Y-85430000D01*
X131960000Y-85396666D01*
X132126666Y-85396666D01*
X132193333Y-85430000D01*
X132226666Y-85463333D01*
X132260000Y-85530000D01*
X132260000Y-85596666D01*
X132226666Y-85696666D01*
X131826666Y-86096666D01*
X132260000Y-86096666D01*
D16*
X83866190Y-84949047D02*
X83366190Y-84949047D01*
X83366190Y-84830000D01*
X83390000Y-84758571D01*
X83437619Y-84710952D01*
X83485238Y-84687142D01*
X83580476Y-84663333D01*
X83651904Y-84663333D01*
X83747142Y-84687142D01*
X83794761Y-84710952D01*
X83842380Y-84758571D01*
X83866190Y-84830000D01*
X83866190Y-84949047D01*
X83866190Y-84187142D02*
X83866190Y-84472857D01*
X83866190Y-84330000D02*
X83366190Y-84330000D01*
X83437619Y-84377619D01*
X83485238Y-84425238D01*
X83509047Y-84472857D01*
D17*
X133270000Y-84186666D02*
X133036666Y-83853333D01*
X132870000Y-84186666D02*
X132870000Y-83486666D01*
X133136666Y-83486666D01*
X133203333Y-83520000D01*
X133236666Y-83553333D01*
X133270000Y-83620000D01*
X133270000Y-83720000D01*
X133236666Y-83786666D01*
X133203333Y-83820000D01*
X133136666Y-83853333D01*
X132870000Y-83853333D01*
X133936666Y-84186666D02*
X133536666Y-84186666D01*
X133736666Y-84186666D02*
X133736666Y-83486666D01*
X133670000Y-83586666D01*
X133603333Y-83653333D01*
X133536666Y-83686666D01*
X134170000Y-83486666D02*
X134603333Y-83486666D01*
X134370000Y-83753333D01*
X134470000Y-83753333D01*
X134536666Y-83786666D01*
X134570000Y-83820000D01*
X134603333Y-83886666D01*
X134603333Y-84053333D01*
X134570000Y-84120000D01*
X134536666Y-84153333D01*
X134470000Y-84186666D01*
X134270000Y-84186666D01*
X134203333Y-84153333D01*
X134170000Y-84120000D01*
X123450000Y-92536666D02*
X123216666Y-92203333D01*
X123050000Y-92536666D02*
X123050000Y-91836666D01*
X123316666Y-91836666D01*
X123383333Y-91870000D01*
X123416666Y-91903333D01*
X123450000Y-91970000D01*
X123450000Y-92070000D01*
X123416666Y-92136666D01*
X123383333Y-92170000D01*
X123316666Y-92203333D01*
X123050000Y-92203333D01*
X124116666Y-92536666D02*
X123716666Y-92536666D01*
X123916666Y-92536666D02*
X123916666Y-91836666D01*
X123850000Y-91936666D01*
X123783333Y-92003333D01*
X123716666Y-92036666D01*
X124550000Y-91836666D02*
X124616666Y-91836666D01*
X124683333Y-91870000D01*
X124716666Y-91903333D01*
X124750000Y-91970000D01*
X124783333Y-92103333D01*
X124783333Y-92270000D01*
X124750000Y-92403333D01*
X124716666Y-92470000D01*
X124683333Y-92503333D01*
X124616666Y-92536666D01*
X124550000Y-92536666D01*
X124483333Y-92503333D01*
X124450000Y-92470000D01*
X124416666Y-92403333D01*
X124383333Y-92270000D01*
X124383333Y-92103333D01*
X124416666Y-91970000D01*
X124450000Y-91903333D01*
X124483333Y-91870000D01*
X124550000Y-91836666D01*
X123806666Y-89566666D02*
X123473333Y-89800000D01*
X123806666Y-89966666D02*
X123106666Y-89966666D01*
X123106666Y-89700000D01*
X123140000Y-89633333D01*
X123173333Y-89600000D01*
X123240000Y-89566666D01*
X123340000Y-89566666D01*
X123406666Y-89600000D01*
X123440000Y-89633333D01*
X123473333Y-89700000D01*
X123473333Y-89966666D01*
X123806666Y-89233333D02*
X123806666Y-89100000D01*
X123773333Y-89033333D01*
X123740000Y-89000000D01*
X123640000Y-88933333D01*
X123506666Y-88900000D01*
X123240000Y-88900000D01*
X123173333Y-88933333D01*
X123140000Y-88966666D01*
X123106666Y-89033333D01*
X123106666Y-89166666D01*
X123140000Y-89233333D01*
X123173333Y-89266666D01*
X123240000Y-89300000D01*
X123406666Y-89300000D01*
X123473333Y-89266666D01*
X123506666Y-89233333D01*
X123540000Y-89166666D01*
X123540000Y-89033333D01*
X123506666Y-88966666D01*
X123473333Y-88933333D01*
X123406666Y-88900000D01*
X117200000Y-89920000D02*
X117166666Y-89953333D01*
X117066666Y-89986666D01*
X117000000Y-89986666D01*
X116900000Y-89953333D01*
X116833333Y-89886666D01*
X116800000Y-89820000D01*
X116766666Y-89686666D01*
X116766666Y-89586666D01*
X116800000Y-89453333D01*
X116833333Y-89386666D01*
X116900000Y-89320000D01*
X117000000Y-89286666D01*
X117066666Y-89286666D01*
X117166666Y-89320000D01*
X117200000Y-89353333D01*
X117466666Y-89353333D02*
X117500000Y-89320000D01*
X117566666Y-89286666D01*
X117733333Y-89286666D01*
X117800000Y-89320000D01*
X117833333Y-89353333D01*
X117866666Y-89420000D01*
X117866666Y-89486666D01*
X117833333Y-89586666D01*
X117433333Y-89986666D01*
X117866666Y-89986666D01*
X118100000Y-89286666D02*
X118533333Y-89286666D01*
X118300000Y-89553333D01*
X118400000Y-89553333D01*
X118466666Y-89586666D01*
X118500000Y-89620000D01*
X118533333Y-89686666D01*
X118533333Y-89853333D01*
X118500000Y-89920000D01*
X118466666Y-89953333D01*
X118400000Y-89986666D01*
X118200000Y-89986666D01*
X118133333Y-89953333D01*
X118100000Y-89920000D01*
D16*
X116260000Y-88570000D02*
X116293333Y-88603333D01*
X116326666Y-88703333D01*
X116326666Y-88770000D01*
X116293333Y-88870000D01*
X116226666Y-88936666D01*
X116160000Y-88970000D01*
X116026666Y-89003333D01*
X115926666Y-89003333D01*
X115793333Y-88970000D01*
X115726666Y-88936666D01*
X115660000Y-88870000D01*
X115626666Y-88770000D01*
X115626666Y-88703333D01*
X115660000Y-88603333D01*
X115693333Y-88570000D01*
X115693333Y-88303333D02*
X115660000Y-88270000D01*
X115626666Y-88203333D01*
X115626666Y-88036666D01*
X115660000Y-87970000D01*
X115693333Y-87936666D01*
X115760000Y-87903333D01*
X115826666Y-87903333D01*
X115926666Y-87936666D01*
X116326666Y-88336666D01*
X116326666Y-87903333D01*
X116326666Y-87236666D02*
X116326666Y-87636666D01*
X116326666Y-87436666D02*
X115626666Y-87436666D01*
X115726666Y-87503333D01*
X115793333Y-87570000D01*
X115826666Y-87636666D01*
D17*
X120980000Y-87980000D02*
X120946666Y-88013333D01*
X120846666Y-88046666D01*
X120780000Y-88046666D01*
X120680000Y-88013333D01*
X120613333Y-87946666D01*
X120580000Y-87880000D01*
X120546666Y-87746666D01*
X120546666Y-87646666D01*
X120580000Y-87513333D01*
X120613333Y-87446666D01*
X120680000Y-87380000D01*
X120780000Y-87346666D01*
X120846666Y-87346666D01*
X120946666Y-87380000D01*
X120980000Y-87413333D01*
X121646666Y-88046666D02*
X121246666Y-88046666D01*
X121446666Y-88046666D02*
X121446666Y-87346666D01*
X121380000Y-87446666D01*
X121313333Y-87513333D01*
X121246666Y-87546666D01*
X122246666Y-87346666D02*
X122113333Y-87346666D01*
X122046666Y-87380000D01*
X122013333Y-87413333D01*
X121946666Y-87513333D01*
X121913333Y-87646666D01*
X121913333Y-87913333D01*
X121946666Y-87980000D01*
X121980000Y-88013333D01*
X122046666Y-88046666D01*
X122180000Y-88046666D01*
X122246666Y-88013333D01*
X122280000Y-87980000D01*
X122313333Y-87913333D01*
X122313333Y-87746666D01*
X122280000Y-87680000D01*
X122246666Y-87646666D01*
X122180000Y-87613333D01*
X122046666Y-87613333D01*
X121980000Y-87646666D01*
X121946666Y-87680000D01*
X121913333Y-87746666D01*
X119290000Y-90560000D02*
X119256666Y-90593333D01*
X119156666Y-90626666D01*
X119090000Y-90626666D01*
X118990000Y-90593333D01*
X118923333Y-90526666D01*
X118890000Y-90460000D01*
X118856666Y-90326666D01*
X118856666Y-90226666D01*
X118890000Y-90093333D01*
X118923333Y-90026666D01*
X118990000Y-89960000D01*
X119090000Y-89926666D01*
X119156666Y-89926666D01*
X119256666Y-89960000D01*
X119290000Y-89993333D01*
X119956666Y-90626666D02*
X119556666Y-90626666D01*
X119756666Y-90626666D02*
X119756666Y-89926666D01*
X119690000Y-90026666D01*
X119623333Y-90093333D01*
X119556666Y-90126666D01*
X120556666Y-90160000D02*
X120556666Y-90626666D01*
X120390000Y-89893333D02*
X120223333Y-90393333D01*
X120656666Y-90393333D01*
X116460000Y-86020000D02*
X116426666Y-86053333D01*
X116326666Y-86086666D01*
X116260000Y-86086666D01*
X116160000Y-86053333D01*
X116093333Y-85986666D01*
X116060000Y-85920000D01*
X116026666Y-85786666D01*
X116026666Y-85686666D01*
X116060000Y-85553333D01*
X116093333Y-85486666D01*
X116160000Y-85420000D01*
X116260000Y-85386666D01*
X116326666Y-85386666D01*
X116426666Y-85420000D01*
X116460000Y-85453333D01*
X117126666Y-86086666D02*
X116726666Y-86086666D01*
X116926666Y-86086666D02*
X116926666Y-85386666D01*
X116860000Y-85486666D01*
X116793333Y-85553333D01*
X116726666Y-85586666D01*
X117460000Y-86086666D02*
X117593333Y-86086666D01*
X117660000Y-86053333D01*
X117693333Y-86020000D01*
X117760000Y-85920000D01*
X117793333Y-85786666D01*
X117793333Y-85520000D01*
X117760000Y-85453333D01*
X117726666Y-85420000D01*
X117660000Y-85386666D01*
X117526666Y-85386666D01*
X117460000Y-85420000D01*
X117426666Y-85453333D01*
X117393333Y-85520000D01*
X117393333Y-85686666D01*
X117426666Y-85753333D01*
X117460000Y-85786666D01*
X117526666Y-85820000D01*
X117660000Y-85820000D01*
X117726666Y-85786666D01*
X117760000Y-85753333D01*
X117793333Y-85686666D01*
X108540000Y-98360000D02*
X108573333Y-98393333D01*
X108606666Y-98493333D01*
X108606666Y-98560000D01*
X108573333Y-98660000D01*
X108506666Y-98726666D01*
X108440000Y-98760000D01*
X108306666Y-98793333D01*
X108206666Y-98793333D01*
X108073333Y-98760000D01*
X108006666Y-98726666D01*
X107940000Y-98660000D01*
X107906666Y-98560000D01*
X107906666Y-98493333D01*
X107940000Y-98393333D01*
X107973333Y-98360000D01*
X107973333Y-98093333D02*
X107940000Y-98060000D01*
X107906666Y-97993333D01*
X107906666Y-97826666D01*
X107940000Y-97760000D01*
X107973333Y-97726666D01*
X108040000Y-97693333D01*
X108106666Y-97693333D01*
X108206666Y-97726666D01*
X108606666Y-98126666D01*
X108606666Y-97693333D01*
X108140000Y-97093333D02*
X108606666Y-97093333D01*
X107873333Y-97260000D02*
X108373333Y-97426666D01*
X108373333Y-96993333D01*
X121200000Y-100000000D02*
X121233333Y-100033333D01*
X121266666Y-100133333D01*
X121266666Y-100200000D01*
X121233333Y-100300000D01*
X121166666Y-100366666D01*
X121100000Y-100400000D01*
X120966666Y-100433333D01*
X120866666Y-100433333D01*
X120733333Y-100400000D01*
X120666666Y-100366666D01*
X120600000Y-100300000D01*
X120566666Y-100200000D01*
X120566666Y-100133333D01*
X120600000Y-100033333D01*
X120633333Y-100000000D01*
X120633333Y-99733333D02*
X120600000Y-99700000D01*
X120566666Y-99633333D01*
X120566666Y-99466666D01*
X120600000Y-99400000D01*
X120633333Y-99366666D01*
X120700000Y-99333333D01*
X120766666Y-99333333D01*
X120866666Y-99366666D01*
X121266666Y-99766666D01*
X121266666Y-99333333D01*
X120633333Y-99066666D02*
X120600000Y-99033333D01*
X120566666Y-98966666D01*
X120566666Y-98800000D01*
X120600000Y-98733333D01*
X120633333Y-98700000D01*
X120700000Y-98666666D01*
X120766666Y-98666666D01*
X120866666Y-98700000D01*
X121266666Y-99100000D01*
X121266666Y-98666666D01*
X121230000Y-85350000D02*
X121196666Y-85383333D01*
X121096666Y-85416666D01*
X121030000Y-85416666D01*
X120930000Y-85383333D01*
X120863333Y-85316666D01*
X120830000Y-85250000D01*
X120796666Y-85116666D01*
X120796666Y-85016666D01*
X120830000Y-84883333D01*
X120863333Y-84816666D01*
X120930000Y-84750000D01*
X121030000Y-84716666D01*
X121096666Y-84716666D01*
X121196666Y-84750000D01*
X121230000Y-84783333D01*
X121496666Y-84783333D02*
X121530000Y-84750000D01*
X121596666Y-84716666D01*
X121763333Y-84716666D01*
X121830000Y-84750000D01*
X121863333Y-84783333D01*
X121896666Y-84850000D01*
X121896666Y-84916666D01*
X121863333Y-85016666D01*
X121463333Y-85416666D01*
X121896666Y-85416666D01*
X122330000Y-84716666D02*
X122396666Y-84716666D01*
X122463333Y-84750000D01*
X122496666Y-84783333D01*
X122530000Y-84850000D01*
X122563333Y-84983333D01*
X122563333Y-85150000D01*
X122530000Y-85283333D01*
X122496666Y-85350000D01*
X122463333Y-85383333D01*
X122396666Y-85416666D01*
X122330000Y-85416666D01*
X122263333Y-85383333D01*
X122230000Y-85350000D01*
X122196666Y-85283333D01*
X122163333Y-85150000D01*
X122163333Y-84983333D01*
X122196666Y-84850000D01*
X122230000Y-84783333D01*
X122263333Y-84750000D01*
X122330000Y-84716666D01*
X112750000Y-86040000D02*
X112716666Y-86073333D01*
X112616666Y-86106666D01*
X112550000Y-86106666D01*
X112450000Y-86073333D01*
X112383333Y-86006666D01*
X112350000Y-85940000D01*
X112316666Y-85806666D01*
X112316666Y-85706666D01*
X112350000Y-85573333D01*
X112383333Y-85506666D01*
X112450000Y-85440000D01*
X112550000Y-85406666D01*
X112616666Y-85406666D01*
X112716666Y-85440000D01*
X112750000Y-85473333D01*
X113416666Y-86106666D02*
X113016666Y-86106666D01*
X113216666Y-86106666D02*
X113216666Y-85406666D01*
X113150000Y-85506666D01*
X113083333Y-85573333D01*
X113016666Y-85606666D01*
X113816666Y-85706666D02*
X113750000Y-85673333D01*
X113716666Y-85640000D01*
X113683333Y-85573333D01*
X113683333Y-85540000D01*
X113716666Y-85473333D01*
X113750000Y-85440000D01*
X113816666Y-85406666D01*
X113950000Y-85406666D01*
X114016666Y-85440000D01*
X114050000Y-85473333D01*
X114083333Y-85540000D01*
X114083333Y-85573333D01*
X114050000Y-85640000D01*
X114016666Y-85673333D01*
X113950000Y-85706666D01*
X113816666Y-85706666D01*
X113750000Y-85740000D01*
X113716666Y-85773333D01*
X113683333Y-85840000D01*
X113683333Y-85973333D01*
X113716666Y-86040000D01*
X113750000Y-86073333D01*
X113816666Y-86106666D01*
X113950000Y-86106666D01*
X114016666Y-86073333D01*
X114050000Y-86040000D01*
X114083333Y-85973333D01*
X114083333Y-85840000D01*
X114050000Y-85773333D01*
X114016666Y-85740000D01*
X113950000Y-85706666D01*
X131500000Y-98250000D02*
X131533333Y-98283333D01*
X131566666Y-98383333D01*
X131566666Y-98450000D01*
X131533333Y-98550000D01*
X131466666Y-98616666D01*
X131400000Y-98650000D01*
X131266666Y-98683333D01*
X131166666Y-98683333D01*
X131033333Y-98650000D01*
X130966666Y-98616666D01*
X130900000Y-98550000D01*
X130866666Y-98450000D01*
X130866666Y-98383333D01*
X130900000Y-98283333D01*
X130933333Y-98250000D01*
X130866666Y-98016666D02*
X130866666Y-97583333D01*
X131133333Y-97816666D01*
X131133333Y-97716666D01*
X131166666Y-97650000D01*
X131200000Y-97616666D01*
X131266666Y-97583333D01*
X131433333Y-97583333D01*
X131500000Y-97616666D01*
X131533333Y-97650000D01*
X131566666Y-97716666D01*
X131566666Y-97916666D01*
X131533333Y-97983333D01*
X131500000Y-98016666D01*
X130933333Y-97316666D02*
X130900000Y-97283333D01*
X130866666Y-97216666D01*
X130866666Y-97050000D01*
X130900000Y-96983333D01*
X130933333Y-96950000D01*
X131000000Y-96916666D01*
X131066666Y-96916666D01*
X131166666Y-96950000D01*
X131566666Y-97350000D01*
X131566666Y-96916666D01*
X115316666Y-97826666D02*
X115716666Y-97826666D01*
X115516666Y-98526666D02*
X115516666Y-97826666D01*
X115950000Y-98526666D02*
X115950000Y-97826666D01*
X116216666Y-97826666D01*
X116283333Y-97860000D01*
X116316666Y-97893333D01*
X116350000Y-97960000D01*
X116350000Y-98060000D01*
X116316666Y-98126666D01*
X116283333Y-98160000D01*
X116216666Y-98193333D01*
X115950000Y-98193333D01*
X116583333Y-97826666D02*
X117016666Y-97826666D01*
X116783333Y-98093333D01*
X116883333Y-98093333D01*
X116950000Y-98126666D01*
X116983333Y-98160000D01*
X117016666Y-98226666D01*
X117016666Y-98393333D01*
X116983333Y-98460000D01*
X116950000Y-98493333D01*
X116883333Y-98526666D01*
X116683333Y-98526666D01*
X116616666Y-98493333D01*
X116583333Y-98460000D01*
X112343333Y-98473333D02*
X112410000Y-98506666D01*
X112543333Y-98506666D01*
X112610000Y-98473333D01*
X112643333Y-98406666D01*
X112643333Y-98373333D01*
X112610000Y-98306666D01*
X112543333Y-98273333D01*
X112443333Y-98273333D01*
X112376666Y-98240000D01*
X112343333Y-98173333D01*
X112343333Y-98140000D01*
X112376666Y-98073333D01*
X112443333Y-98040000D01*
X112543333Y-98040000D01*
X112610000Y-98073333D01*
X112876666Y-98040000D02*
X113010000Y-98506666D01*
X113143333Y-98173333D01*
X113276666Y-98506666D01*
X113410000Y-98040000D01*
X113976666Y-98506666D02*
X113976666Y-97806666D01*
X113976666Y-98473333D02*
X113910000Y-98506666D01*
X113776666Y-98506666D01*
X113710000Y-98473333D01*
X113676666Y-98440000D01*
X113643333Y-98373333D01*
X113643333Y-98173333D01*
X113676666Y-98106666D01*
X113710000Y-98073333D01*
X113776666Y-98040000D01*
X113910000Y-98040000D01*
X113976666Y-98073333D01*
X114676666Y-98506666D02*
X114276666Y-98506666D01*
X114476666Y-98506666D02*
X114476666Y-97806666D01*
X114410000Y-97906666D01*
X114343333Y-97973333D01*
X114276666Y-98006666D01*
X109690000Y-98543333D02*
X109756666Y-98576666D01*
X109890000Y-98576666D01*
X109956666Y-98543333D01*
X109990000Y-98476666D01*
X109990000Y-98443333D01*
X109956666Y-98376666D01*
X109890000Y-98343333D01*
X109790000Y-98343333D01*
X109723333Y-98310000D01*
X109690000Y-98243333D01*
X109690000Y-98210000D01*
X109723333Y-98143333D01*
X109790000Y-98110000D01*
X109890000Y-98110000D01*
X109956666Y-98143333D01*
X110223333Y-98110000D02*
X110356666Y-98576666D01*
X110490000Y-98243333D01*
X110623333Y-98576666D01*
X110756666Y-98110000D01*
X111323333Y-98543333D02*
X111256666Y-98576666D01*
X111123333Y-98576666D01*
X111056666Y-98543333D01*
X111023333Y-98510000D01*
X110990000Y-98443333D01*
X110990000Y-98243333D01*
X111023333Y-98176666D01*
X111056666Y-98143333D01*
X111123333Y-98110000D01*
X111256666Y-98110000D01*
X111323333Y-98143333D01*
X111990000Y-98576666D02*
X111590000Y-98576666D01*
X111790000Y-98576666D02*
X111790000Y-97876666D01*
X111723333Y-97976666D01*
X111656666Y-98043333D01*
X111590000Y-98076666D01*
X124900000Y-94940000D02*
X124866666Y-94973333D01*
X124766666Y-95006666D01*
X124700000Y-95006666D01*
X124600000Y-94973333D01*
X124533333Y-94906666D01*
X124500000Y-94840000D01*
X124466666Y-94706666D01*
X124466666Y-94606666D01*
X124500000Y-94473333D01*
X124533333Y-94406666D01*
X124600000Y-94340000D01*
X124700000Y-94306666D01*
X124766666Y-94306666D01*
X124866666Y-94340000D01*
X124900000Y-94373333D01*
X125166666Y-94373333D02*
X125200000Y-94340000D01*
X125266666Y-94306666D01*
X125433333Y-94306666D01*
X125500000Y-94340000D01*
X125533333Y-94373333D01*
X125566666Y-94440000D01*
X125566666Y-94506666D01*
X125533333Y-94606666D01*
X125133333Y-95006666D01*
X125566666Y-95006666D01*
X126166666Y-94306666D02*
X126033333Y-94306666D01*
X125966666Y-94340000D01*
X125933333Y-94373333D01*
X125866666Y-94473333D01*
X125833333Y-94606666D01*
X125833333Y-94873333D01*
X125866666Y-94940000D01*
X125900000Y-94973333D01*
X125966666Y-95006666D01*
X126100000Y-95006666D01*
X126166666Y-94973333D01*
X126200000Y-94940000D01*
X126233333Y-94873333D01*
X126233333Y-94706666D01*
X126200000Y-94640000D01*
X126166666Y-94606666D01*
X126100000Y-94573333D01*
X125966666Y-94573333D01*
X125900000Y-94606666D01*
X125866666Y-94640000D01*
X125833333Y-94706666D01*
X124290000Y-98740000D02*
X124323333Y-98773333D01*
X124356666Y-98873333D01*
X124356666Y-98940000D01*
X124323333Y-99040000D01*
X124256666Y-99106666D01*
X124190000Y-99140000D01*
X124056666Y-99173333D01*
X123956666Y-99173333D01*
X123823333Y-99140000D01*
X123756666Y-99106666D01*
X123690000Y-99040000D01*
X123656666Y-98940000D01*
X123656666Y-98873333D01*
X123690000Y-98773333D01*
X123723333Y-98740000D01*
X123723333Y-98473333D02*
X123690000Y-98440000D01*
X123656666Y-98373333D01*
X123656666Y-98206666D01*
X123690000Y-98140000D01*
X123723333Y-98106666D01*
X123790000Y-98073333D01*
X123856666Y-98073333D01*
X123956666Y-98106666D01*
X124356666Y-98506666D01*
X124356666Y-98073333D01*
X124356666Y-97740000D02*
X124356666Y-97606666D01*
X124323333Y-97540000D01*
X124290000Y-97506666D01*
X124190000Y-97440000D01*
X124056666Y-97406666D01*
X123790000Y-97406666D01*
X123723333Y-97440000D01*
X123690000Y-97473333D01*
X123656666Y-97540000D01*
X123656666Y-97673333D01*
X123690000Y-97740000D01*
X123723333Y-97773333D01*
X123790000Y-97806666D01*
X123956666Y-97806666D01*
X124023333Y-97773333D01*
X124056666Y-97740000D01*
X124090000Y-97673333D01*
X124090000Y-97540000D01*
X124056666Y-97473333D01*
X124023333Y-97440000D01*
X123956666Y-97406666D01*
D10*
X124750000Y-100950000D02*
X124716666Y-100983333D01*
X124616666Y-101016666D01*
X124550000Y-101016666D01*
X124450000Y-100983333D01*
X124383333Y-100916666D01*
X124350000Y-100850000D01*
X124316666Y-100716666D01*
X124316666Y-100616666D01*
X124350000Y-100483333D01*
X124383333Y-100416666D01*
X124450000Y-100350000D01*
X124550000Y-100316666D01*
X124616666Y-100316666D01*
X124716666Y-100350000D01*
X124750000Y-100383333D01*
X125016666Y-100383333D02*
X125050000Y-100350000D01*
X125116666Y-100316666D01*
X125283333Y-100316666D01*
X125350000Y-100350000D01*
X125383333Y-100383333D01*
X125416666Y-100450000D01*
X125416666Y-100516666D01*
X125383333Y-100616666D01*
X124983333Y-101016666D01*
X125416666Y-101016666D01*
X125816666Y-100616666D02*
X125750000Y-100583333D01*
X125716666Y-100550000D01*
X125683333Y-100483333D01*
X125683333Y-100450000D01*
X125716666Y-100383333D01*
X125750000Y-100350000D01*
X125816666Y-100316666D01*
X125950000Y-100316666D01*
X126016666Y-100350000D01*
X126050000Y-100383333D01*
X126083333Y-100450000D01*
X126083333Y-100483333D01*
X126050000Y-100550000D01*
X126016666Y-100583333D01*
X125950000Y-100616666D01*
X125816666Y-100616666D01*
X125750000Y-100650000D01*
X125716666Y-100683333D01*
X125683333Y-100750000D01*
X125683333Y-100883333D01*
X125716666Y-100950000D01*
X125750000Y-100983333D01*
X125816666Y-101016666D01*
X125950000Y-101016666D01*
X126016666Y-100983333D01*
X126050000Y-100950000D01*
X126083333Y-100883333D01*
X126083333Y-100750000D01*
X126050000Y-100683333D01*
X126016666Y-100650000D01*
X125950000Y-100616666D01*
D16*
X128590000Y-95190000D02*
X128623333Y-95223333D01*
X128656666Y-95323333D01*
X128656666Y-95390000D01*
X128623333Y-95490000D01*
X128556666Y-95556666D01*
X128490000Y-95590000D01*
X128356666Y-95623333D01*
X128256666Y-95623333D01*
X128123333Y-95590000D01*
X128056666Y-95556666D01*
X127990000Y-95490000D01*
X127956666Y-95390000D01*
X127956666Y-95323333D01*
X127990000Y-95223333D01*
X128023333Y-95190000D01*
X128023333Y-94923333D02*
X127990000Y-94890000D01*
X127956666Y-94823333D01*
X127956666Y-94656666D01*
X127990000Y-94590000D01*
X128023333Y-94556666D01*
X128090000Y-94523333D01*
X128156666Y-94523333D01*
X128256666Y-94556666D01*
X128656666Y-94956666D01*
X128656666Y-94523333D01*
X127956666Y-94290000D02*
X127956666Y-93823333D01*
X128656666Y-94123333D01*
D18*
X95411181Y-86857319D02*
X95611411Y-86924063D01*
X95945129Y-86924063D01*
X96078616Y-86857319D01*
X96145360Y-86790576D01*
X96212103Y-86657089D01*
X96212103Y-86523602D01*
X96145360Y-86390115D01*
X96078616Y-86323371D01*
X95945129Y-86256628D01*
X95678155Y-86189884D01*
X95544668Y-86123141D01*
X95477924Y-86056397D01*
X95411181Y-85922910D01*
X95411181Y-85789423D01*
X95477924Y-85655936D01*
X95544668Y-85589193D01*
X95678155Y-85522449D01*
X96011873Y-85522449D01*
X96212103Y-85589193D01*
X96679308Y-85522449D02*
X97013025Y-86924063D01*
X97280000Y-85922910D01*
X97546974Y-86924063D01*
X97880691Y-85522449D01*
X98281152Y-85522449D02*
X99148818Y-85522449D01*
X98681614Y-86056397D01*
X98881844Y-86056397D01*
X99015331Y-86123141D01*
X99082075Y-86189884D01*
X99148818Y-86323371D01*
X99148818Y-86657089D01*
X99082075Y-86790576D01*
X99015331Y-86857319D01*
X98881844Y-86924063D01*
X98481383Y-86924063D01*
X98347896Y-86857319D01*
X98281152Y-86790576D01*
D10*
X90498571Y-88786190D02*
X90331904Y-88548095D01*
X90212857Y-88786190D02*
X90212857Y-88286190D01*
X90403333Y-88286190D01*
X90450952Y-88310000D01*
X90474761Y-88333809D01*
X90498571Y-88381428D01*
X90498571Y-88452857D01*
X90474761Y-88500476D01*
X90450952Y-88524285D01*
X90403333Y-88548095D01*
X90212857Y-88548095D01*
X90974761Y-88786190D02*
X90689047Y-88786190D01*
X90831904Y-88786190D02*
X90831904Y-88286190D01*
X90784285Y-88357619D01*
X90736666Y-88405238D01*
X90689047Y-88429047D01*
X91260476Y-88500476D02*
X91212857Y-88476666D01*
X91189047Y-88452857D01*
X91165238Y-88405238D01*
X91165238Y-88381428D01*
X91189047Y-88333809D01*
X91212857Y-88310000D01*
X91260476Y-88286190D01*
X91355714Y-88286190D01*
X91403333Y-88310000D01*
X91427142Y-88333809D01*
X91450952Y-88381428D01*
X91450952Y-88405238D01*
X91427142Y-88452857D01*
X91403333Y-88476666D01*
X91355714Y-88500476D01*
X91260476Y-88500476D01*
X91212857Y-88524285D01*
X91189047Y-88548095D01*
X91165238Y-88595714D01*
X91165238Y-88690952D01*
X91189047Y-88738571D01*
X91212857Y-88762380D01*
X91260476Y-88786190D01*
X91355714Y-88786190D01*
X91403333Y-88762380D01*
X91427142Y-88738571D01*
X91450952Y-88690952D01*
X91450952Y-88595714D01*
X91427142Y-88548095D01*
X91403333Y-88524285D01*
X91355714Y-88500476D01*
D17*
X92396666Y-84810000D02*
X92063333Y-85043333D01*
X92396666Y-85210000D02*
X91696666Y-85210000D01*
X91696666Y-84943333D01*
X91730000Y-84876666D01*
X91763333Y-84843333D01*
X91830000Y-84810000D01*
X91930000Y-84810000D01*
X91996666Y-84843333D01*
X92030000Y-84876666D01*
X92063333Y-84943333D01*
X92063333Y-85210000D01*
X92396666Y-84143333D02*
X92396666Y-84543333D01*
X92396666Y-84343333D02*
X91696666Y-84343333D01*
X91796666Y-84410000D01*
X91863333Y-84476666D01*
X91896666Y-84543333D01*
X91696666Y-83910000D02*
X91696666Y-83443333D01*
X92396666Y-83743333D01*
X95300000Y-88670000D02*
X95266666Y-88703333D01*
X95166666Y-88736666D01*
X95100000Y-88736666D01*
X95000000Y-88703333D01*
X94933333Y-88636666D01*
X94900000Y-88570000D01*
X94866666Y-88436666D01*
X94866666Y-88336666D01*
X94900000Y-88203333D01*
X94933333Y-88136666D01*
X95000000Y-88070000D01*
X95100000Y-88036666D01*
X95166666Y-88036666D01*
X95266666Y-88070000D01*
X95300000Y-88103333D01*
X95966666Y-88736666D02*
X95566666Y-88736666D01*
X95766666Y-88736666D02*
X95766666Y-88036666D01*
X95700000Y-88136666D01*
X95633333Y-88203333D01*
X95566666Y-88236666D01*
X96200000Y-88036666D02*
X96633333Y-88036666D01*
X96400000Y-88303333D01*
X96500000Y-88303333D01*
X96566666Y-88336666D01*
X96600000Y-88370000D01*
X96633333Y-88436666D01*
X96633333Y-88603333D01*
X96600000Y-88670000D01*
X96566666Y-88703333D01*
X96500000Y-88736666D01*
X96300000Y-88736666D01*
X96233333Y-88703333D01*
X96200000Y-88670000D01*
X96770000Y-96076666D02*
X96536666Y-95743333D01*
X96370000Y-96076666D02*
X96370000Y-95376666D01*
X96636666Y-95376666D01*
X96703333Y-95410000D01*
X96736666Y-95443333D01*
X96770000Y-95510000D01*
X96770000Y-95610000D01*
X96736666Y-95676666D01*
X96703333Y-95710000D01*
X96636666Y-95743333D01*
X96370000Y-95743333D01*
X97436666Y-96076666D02*
X97036666Y-96076666D01*
X97236666Y-96076666D02*
X97236666Y-95376666D01*
X97170000Y-95476666D01*
X97103333Y-95543333D01*
X97036666Y-95576666D01*
X97703333Y-95443333D02*
X97736666Y-95410000D01*
X97803333Y-95376666D01*
X97970000Y-95376666D01*
X98036666Y-95410000D01*
X98070000Y-95443333D01*
X98103333Y-95510000D01*
X98103333Y-95576666D01*
X98070000Y-95676666D01*
X97670000Y-96076666D01*
X98103333Y-96076666D01*
X93613333Y-96090000D02*
X93580000Y-96123333D01*
X93480000Y-96156666D01*
X93413333Y-96156666D01*
X93313333Y-96123333D01*
X93246666Y-96056666D01*
X93213333Y-95990000D01*
X93180000Y-95856666D01*
X93180000Y-95756666D01*
X93213333Y-95623333D01*
X93246666Y-95556666D01*
X93313333Y-95490000D01*
X93413333Y-95456666D01*
X93480000Y-95456666D01*
X93580000Y-95490000D01*
X93613333Y-95523333D01*
X94013333Y-95756666D02*
X93946666Y-95723333D01*
X93913333Y-95690000D01*
X93880000Y-95623333D01*
X93880000Y-95590000D01*
X93913333Y-95523333D01*
X93946666Y-95490000D01*
X94013333Y-95456666D01*
X94146666Y-95456666D01*
X94213333Y-95490000D01*
X94246666Y-95523333D01*
X94280000Y-95590000D01*
X94280000Y-95623333D01*
X94246666Y-95690000D01*
X94213333Y-95723333D01*
X94146666Y-95756666D01*
X94013333Y-95756666D01*
X93946666Y-95790000D01*
X93913333Y-95823333D01*
X93880000Y-95890000D01*
X93880000Y-96023333D01*
X93913333Y-96090000D01*
X93946666Y-96123333D01*
X94013333Y-96156666D01*
X94146666Y-96156666D01*
X94213333Y-96123333D01*
X94246666Y-96090000D01*
X94280000Y-96023333D01*
X94280000Y-95890000D01*
X94246666Y-95823333D01*
X94213333Y-95790000D01*
X94146666Y-95756666D01*
D10*
X88543333Y-86862380D02*
X88614761Y-86886190D01*
X88733809Y-86886190D01*
X88781428Y-86862380D01*
X88805238Y-86838571D01*
X88829047Y-86790952D01*
X88829047Y-86743333D01*
X88805238Y-86695714D01*
X88781428Y-86671904D01*
X88733809Y-86648095D01*
X88638571Y-86624285D01*
X88590952Y-86600476D01*
X88567142Y-86576666D01*
X88543333Y-86529047D01*
X88543333Y-86481428D01*
X88567142Y-86433809D01*
X88590952Y-86410000D01*
X88638571Y-86386190D01*
X88757619Y-86386190D01*
X88829047Y-86410000D01*
X88995714Y-86386190D02*
X89114761Y-86886190D01*
X89210000Y-86529047D01*
X89305238Y-86886190D01*
X89424285Y-86386190D01*
X89590952Y-86433809D02*
X89614761Y-86410000D01*
X89662380Y-86386190D01*
X89781428Y-86386190D01*
X89829047Y-86410000D01*
X89852857Y-86433809D01*
X89876666Y-86481428D01*
X89876666Y-86529047D01*
X89852857Y-86600476D01*
X89567142Y-86886190D01*
X89876666Y-86886190D01*
D16*
X98973333Y-100932380D02*
X99044761Y-100956190D01*
X99163809Y-100956190D01*
X99211428Y-100932380D01*
X99235238Y-100908571D01*
X99259047Y-100860952D01*
X99259047Y-100813333D01*
X99235238Y-100765714D01*
X99211428Y-100741904D01*
X99163809Y-100718095D01*
X99068571Y-100694285D01*
X99020952Y-100670476D01*
X98997142Y-100646666D01*
X98973333Y-100599047D01*
X98973333Y-100551428D01*
X98997142Y-100503809D01*
X99020952Y-100480000D01*
X99068571Y-100456190D01*
X99187619Y-100456190D01*
X99259047Y-100480000D01*
X99425714Y-100456190D02*
X99544761Y-100956190D01*
X99640000Y-100599047D01*
X99735238Y-100956190D01*
X99854285Y-100456190D01*
X100306666Y-100956190D02*
X100020952Y-100956190D01*
X100163809Y-100956190D02*
X100163809Y-100456190D01*
X100116190Y-100527619D01*
X100068571Y-100575238D01*
X100020952Y-100599047D01*
D10*
X128016666Y-89976666D02*
X128016666Y-90543333D01*
X128050000Y-90610000D01*
X128083333Y-90643333D01*
X128150000Y-90676666D01*
X128283333Y-90676666D01*
X128350000Y-90643333D01*
X128383333Y-90610000D01*
X128416666Y-90543333D01*
X128416666Y-89976666D01*
X128850000Y-90276666D02*
X128783333Y-90243333D01*
X128750000Y-90210000D01*
X128716666Y-90143333D01*
X128716666Y-90110000D01*
X128750000Y-90043333D01*
X128783333Y-90010000D01*
X128850000Y-89976666D01*
X128983333Y-89976666D01*
X129050000Y-90010000D01*
X129083333Y-90043333D01*
X129116666Y-90110000D01*
X129116666Y-90143333D01*
X129083333Y-90210000D01*
X129050000Y-90243333D01*
X128983333Y-90276666D01*
X128850000Y-90276666D01*
X128783333Y-90310000D01*
X128750000Y-90343333D01*
X128716666Y-90410000D01*
X128716666Y-90543333D01*
X128750000Y-90610000D01*
X128783333Y-90643333D01*
X128850000Y-90676666D01*
X128983333Y-90676666D01*
X129050000Y-90643333D01*
X129083333Y-90610000D01*
X129116666Y-90543333D01*
X129116666Y-90410000D01*
X129083333Y-90343333D01*
X129050000Y-90310000D01*
X128983333Y-90276666D01*
D17*
X128310000Y-91432380D02*
X128310000Y-91670476D01*
X128071904Y-91575238D02*
X128310000Y-91670476D01*
X128548095Y-91575238D01*
X128167142Y-91860952D02*
X128310000Y-91670476D01*
X128452857Y-91860952D01*
D18*
X131038102Y-87945598D02*
X130850626Y-88076831D01*
X131038102Y-88170570D02*
X130644401Y-88170570D01*
X130644401Y-88020588D01*
X130663149Y-87983093D01*
X130681897Y-87964345D01*
X130719392Y-87945598D01*
X130775635Y-87945598D01*
X130813130Y-87964345D01*
X130831878Y-87983093D01*
X130850626Y-88020588D01*
X130850626Y-88170570D01*
X130644401Y-87833112D02*
X130644401Y-87608140D01*
X131038102Y-87720626D02*
X130644401Y-87720626D01*
X130681897Y-87495654D02*
X130663149Y-87476906D01*
X130644401Y-87439411D01*
X130644401Y-87345672D01*
X130663149Y-87308177D01*
X130681897Y-87289429D01*
X130719392Y-87270682D01*
X130756887Y-87270682D01*
X130813130Y-87289429D01*
X131038102Y-87514401D01*
X131038102Y-87270682D01*
D17*
X126190000Y-85180000D02*
X126156666Y-85213333D01*
X126056666Y-85246666D01*
X125990000Y-85246666D01*
X125890000Y-85213333D01*
X125823333Y-85146666D01*
X125790000Y-85080000D01*
X125756666Y-84946666D01*
X125756666Y-84846666D01*
X125790000Y-84713333D01*
X125823333Y-84646666D01*
X125890000Y-84580000D01*
X125990000Y-84546666D01*
X126056666Y-84546666D01*
X126156666Y-84580000D01*
X126190000Y-84613333D01*
X126423333Y-84546666D02*
X126856666Y-84546666D01*
X126623333Y-84813333D01*
X126723333Y-84813333D01*
X126790000Y-84846666D01*
X126823333Y-84880000D01*
X126856666Y-84946666D01*
X126856666Y-85113333D01*
X126823333Y-85180000D01*
X126790000Y-85213333D01*
X126723333Y-85246666D01*
X126523333Y-85246666D01*
X126456666Y-85213333D01*
X126423333Y-85180000D01*
X127290000Y-84546666D02*
X127356666Y-84546666D01*
X127423333Y-84580000D01*
X127456666Y-84613333D01*
X127490000Y-84680000D01*
X127523333Y-84813333D01*
X127523333Y-84980000D01*
X127490000Y-85113333D01*
X127456666Y-85180000D01*
X127423333Y-85213333D01*
X127356666Y-85246666D01*
X127290000Y-85246666D01*
X127223333Y-85213333D01*
X127190000Y-85180000D01*
X127156666Y-85113333D01*
X127123333Y-84980000D01*
X127123333Y-84813333D01*
X127156666Y-84680000D01*
X127190000Y-84613333D01*
X127223333Y-84580000D01*
X127290000Y-84546666D01*
X115601904Y-92400476D02*
X116249523Y-92400476D01*
X116325714Y-92362380D01*
X116363809Y-92324285D01*
X116401904Y-92248095D01*
X116401904Y-92095714D01*
X116363809Y-92019523D01*
X116325714Y-91981428D01*
X116249523Y-91943333D01*
X115601904Y-91943333D01*
X116401904Y-91143333D02*
X116401904Y-91600476D01*
X116401904Y-91371904D02*
X115601904Y-91371904D01*
X115716190Y-91448095D01*
X115792380Y-91524285D01*
X115830476Y-91600476D01*
X116401904Y-90381428D02*
X116401904Y-90838571D01*
X116401904Y-90610000D02*
X115601904Y-90610000D01*
X115716190Y-90686190D01*
X115792380Y-90762380D01*
X115830476Y-90838571D01*
X85173333Y-95456666D02*
X84940000Y-95123333D01*
X84773333Y-95456666D02*
X84773333Y-94756666D01*
X85040000Y-94756666D01*
X85106666Y-94790000D01*
X85140000Y-94823333D01*
X85173333Y-94890000D01*
X85173333Y-94990000D01*
X85140000Y-95056666D01*
X85106666Y-95090000D01*
X85040000Y-95123333D01*
X84773333Y-95123333D01*
X85440000Y-94823333D02*
X85473333Y-94790000D01*
X85540000Y-94756666D01*
X85706666Y-94756666D01*
X85773333Y-94790000D01*
X85806666Y-94823333D01*
X85840000Y-94890000D01*
X85840000Y-94956666D01*
X85806666Y-95056666D01*
X85406666Y-95456666D01*
X85840000Y-95456666D01*
D18*
X106661466Y-84733889D02*
X107376944Y-84733889D01*
X107520040Y-84781588D01*
X107615437Y-84876985D01*
X107663135Y-85020080D01*
X107663135Y-85115477D01*
X106756864Y-84304602D02*
X106709165Y-84256904D01*
X106661466Y-84161507D01*
X106661466Y-83923014D01*
X106709165Y-83827617D01*
X106756864Y-83779919D01*
X106852261Y-83732220D01*
X106947658Y-83732220D01*
X107090753Y-83779919D01*
X107663135Y-84352301D01*
X107663135Y-83732220D01*
X128899680Y-96418243D02*
X129613966Y-96418243D01*
X129756823Y-96465862D01*
X129852061Y-96561100D01*
X129899680Y-96703957D01*
X129899680Y-96799195D01*
X129899680Y-95418243D02*
X129899680Y-95989671D01*
X129899680Y-95703957D02*
X128899680Y-95703957D01*
X129042538Y-95799195D01*
X129137776Y-95894433D01*
X129185395Y-95989671D01*
D17*
X110340000Y-92470000D02*
X110373333Y-92503333D01*
X110406666Y-92603333D01*
X110406666Y-92670000D01*
X110373333Y-92770000D01*
X110306666Y-92836666D01*
X110240000Y-92870000D01*
X110106666Y-92903333D01*
X110006666Y-92903333D01*
X109873333Y-92870000D01*
X109806666Y-92836666D01*
X109740000Y-92770000D01*
X109706666Y-92670000D01*
X109706666Y-92603333D01*
X109740000Y-92503333D01*
X109773333Y-92470000D01*
X110406666Y-91803333D02*
X110406666Y-92203333D01*
X110406666Y-92003333D02*
X109706666Y-92003333D01*
X109806666Y-92070000D01*
X109873333Y-92136666D01*
X109906666Y-92203333D01*
X109706666Y-91570000D02*
X109706666Y-91103333D01*
X110406666Y-91403333D01*
X113810000Y-95700000D02*
X113776666Y-95733333D01*
X113676666Y-95766666D01*
X113610000Y-95766666D01*
X113510000Y-95733333D01*
X113443333Y-95666666D01*
X113410000Y-95600000D01*
X113376666Y-95466666D01*
X113376666Y-95366666D01*
X113410000Y-95233333D01*
X113443333Y-95166666D01*
X113510000Y-95100000D01*
X113610000Y-95066666D01*
X113676666Y-95066666D01*
X113776666Y-95100000D01*
X113810000Y-95133333D01*
X114476666Y-95766666D02*
X114076666Y-95766666D01*
X114276666Y-95766666D02*
X114276666Y-95066666D01*
X114210000Y-95166666D01*
X114143333Y-95233333D01*
X114076666Y-95266666D01*
X115110000Y-95066666D02*
X114776666Y-95066666D01*
X114743333Y-95400000D01*
X114776666Y-95366666D01*
X114843333Y-95333333D01*
X115010000Y-95333333D01*
X115076666Y-95366666D01*
X115110000Y-95400000D01*
X115143333Y-95466666D01*
X115143333Y-95633333D01*
X115110000Y-95700000D01*
X115076666Y-95733333D01*
X115010000Y-95766666D01*
X114843333Y-95766666D01*
X114776666Y-95733333D01*
X114743333Y-95700000D01*
X90440000Y-100410000D02*
X90406666Y-100443333D01*
X90306666Y-100476666D01*
X90240000Y-100476666D01*
X90140000Y-100443333D01*
X90073333Y-100376666D01*
X90040000Y-100310000D01*
X90006666Y-100176666D01*
X90006666Y-100076666D01*
X90040000Y-99943333D01*
X90073333Y-99876666D01*
X90140000Y-99810000D01*
X90240000Y-99776666D01*
X90306666Y-99776666D01*
X90406666Y-99810000D01*
X90440000Y-99843333D01*
X91106666Y-100476666D02*
X90706666Y-100476666D01*
X90906666Y-100476666D02*
X90906666Y-99776666D01*
X90840000Y-99876666D01*
X90773333Y-99943333D01*
X90706666Y-99976666D01*
X91373333Y-99843333D02*
X91406666Y-99810000D01*
X91473333Y-99776666D01*
X91640000Y-99776666D01*
X91706666Y-99810000D01*
X91740000Y-99843333D01*
X91773333Y-99910000D01*
X91773333Y-99976666D01*
X91740000Y-100076666D01*
X91340000Y-100476666D01*
X91773333Y-100476666D01*
X89913333Y-96670000D02*
X89880000Y-96703333D01*
X89780000Y-96736666D01*
X89713333Y-96736666D01*
X89613333Y-96703333D01*
X89546666Y-96636666D01*
X89513333Y-96570000D01*
X89480000Y-96436666D01*
X89480000Y-96336666D01*
X89513333Y-96203333D01*
X89546666Y-96136666D01*
X89613333Y-96070000D01*
X89713333Y-96036666D01*
X89780000Y-96036666D01*
X89880000Y-96070000D01*
X89913333Y-96103333D01*
X90246666Y-96736666D02*
X90380000Y-96736666D01*
X90446666Y-96703333D01*
X90480000Y-96670000D01*
X90546666Y-96570000D01*
X90580000Y-96436666D01*
X90580000Y-96170000D01*
X90546666Y-96103333D01*
X90513333Y-96070000D01*
X90446666Y-96036666D01*
X90313333Y-96036666D01*
X90246666Y-96070000D01*
X90213333Y-96103333D01*
X90180000Y-96170000D01*
X90180000Y-96336666D01*
X90213333Y-96403333D01*
X90246666Y-96436666D01*
X90313333Y-96470000D01*
X90446666Y-96470000D01*
X90513333Y-96436666D01*
X90546666Y-96403333D01*
X90580000Y-96336666D01*
X131783333Y-100580000D02*
X131750000Y-100613333D01*
X131650000Y-100646666D01*
X131583333Y-100646666D01*
X131483333Y-100613333D01*
X131416666Y-100546666D01*
X131383333Y-100480000D01*
X131350000Y-100346666D01*
X131350000Y-100246666D01*
X131383333Y-100113333D01*
X131416666Y-100046666D01*
X131483333Y-99980000D01*
X131583333Y-99946666D01*
X131650000Y-99946666D01*
X131750000Y-99980000D01*
X131783333Y-100013333D01*
X132416666Y-99946666D02*
X132083333Y-99946666D01*
X132050000Y-100280000D01*
X132083333Y-100246666D01*
X132150000Y-100213333D01*
X132316666Y-100213333D01*
X132383333Y-100246666D01*
X132416666Y-100280000D01*
X132450000Y-100346666D01*
X132450000Y-100513333D01*
X132416666Y-100580000D01*
X132383333Y-100613333D01*
X132316666Y-100646666D01*
X132150000Y-100646666D01*
X132083333Y-100613333D01*
X132050000Y-100580000D01*
X111383333Y-88190000D02*
X111350000Y-88223333D01*
X111250000Y-88256666D01*
X111183333Y-88256666D01*
X111083333Y-88223333D01*
X111016666Y-88156666D01*
X110983333Y-88090000D01*
X110950000Y-87956666D01*
X110950000Y-87856666D01*
X110983333Y-87723333D01*
X111016666Y-87656666D01*
X111083333Y-87590000D01*
X111183333Y-87556666D01*
X111250000Y-87556666D01*
X111350000Y-87590000D01*
X111383333Y-87623333D01*
X111616666Y-87556666D02*
X112050000Y-87556666D01*
X111816666Y-87823333D01*
X111916666Y-87823333D01*
X111983333Y-87856666D01*
X112016666Y-87890000D01*
X112050000Y-87956666D01*
X112050000Y-88123333D01*
X112016666Y-88190000D01*
X111983333Y-88223333D01*
X111916666Y-88256666D01*
X111716666Y-88256666D01*
X111650000Y-88223333D01*
X111616666Y-88190000D01*
X111153333Y-96330000D02*
X111120000Y-96363333D01*
X111020000Y-96396666D01*
X110953333Y-96396666D01*
X110853333Y-96363333D01*
X110786666Y-96296666D01*
X110753333Y-96230000D01*
X110720000Y-96096666D01*
X110720000Y-95996666D01*
X110753333Y-95863333D01*
X110786666Y-95796666D01*
X110853333Y-95730000D01*
X110953333Y-95696666D01*
X111020000Y-95696666D01*
X111120000Y-95730000D01*
X111153333Y-95763333D01*
X111420000Y-95763333D02*
X111453333Y-95730000D01*
X111520000Y-95696666D01*
X111686666Y-95696666D01*
X111753333Y-95730000D01*
X111786666Y-95763333D01*
X111820000Y-95830000D01*
X111820000Y-95896666D01*
X111786666Y-95996666D01*
X111386666Y-96396666D01*
X111820000Y-96396666D01*
X122620000Y-96476666D02*
X122653333Y-96510000D01*
X122686666Y-96610000D01*
X122686666Y-96676666D01*
X122653333Y-96776666D01*
X122586666Y-96843333D01*
X122520000Y-96876666D01*
X122386666Y-96910000D01*
X122286666Y-96910000D01*
X122153333Y-96876666D01*
X122086666Y-96843333D01*
X122020000Y-96776666D01*
X121986666Y-96676666D01*
X121986666Y-96610000D01*
X122020000Y-96510000D01*
X122053333Y-96476666D01*
X122686666Y-95810000D02*
X122686666Y-96210000D01*
X122686666Y-96010000D02*
X121986666Y-96010000D01*
X122086666Y-96076666D01*
X122153333Y-96143333D01*
X122186666Y-96210000D01*
M02*
