G04 #@! TF.GenerationSoftware,KiCad,Pcbnew,(5.1.6)-1*
G04 #@! TF.CreationDate,2021-02-18T21:14:00+09:00*
G04 #@! TF.ProjectId,guardianCam_Wifi,67756172-6469-4616-9e43-616d5f576966,rev?*
G04 #@! TF.SameCoordinates,Original*
G04 #@! TF.FileFunction,Soldermask,Bot*
G04 #@! TF.FilePolarity,Negative*
%FSLAX46Y46*%
G04 Gerber Fmt 4.6, Leading zero omitted, Abs format (unit mm)*
G04 Created by KiCad (PCBNEW (5.1.6)-1) date 2021-02-18 21:14:00*
%MOMM*%
%LPD*%
G01*
G04 APERTURE LIST*
%ADD10C,0.912000*%
%ADD11C,0.350000*%
%ADD12R,0.862000X1.903400*%
%ADD13R,1.598600X1.598600*%
%ADD14R,0.938200X1.649400*%
%ADD15R,1.649400X1.141400*%
%ADD16R,1.141400X1.649400*%
%ADD17C,1.100000*%
%ADD18R,1.100000X1.100000*%
%ADD19R,1.598600X0.404800*%
%ADD20R,1.160000X0.750000*%
%ADD21R,0.750000X1.160000*%
%ADD22R,1.100000X1.900000*%
%ADD23R,0.350000X0.300000*%
%ADD24C,0.600000*%
%ADD25R,0.622000X0.700000*%
%ADD26C,1.200000*%
%ADD27O,3.300000X1.700000*%
%ADD28R,1.300000X0.900000*%
G04 APERTURE END LIST*
D10*
X85296000Y-98530000D02*
G75*
G03*
X85296000Y-98530000I-456000J0D01*
G01*
D11*
X129300000Y-98830000D03*
X129300000Y-98330000D03*
X129300000Y-97830000D03*
X129300000Y-97330000D03*
X129300000Y-96830000D03*
X129300000Y-96330000D03*
X128800000Y-98830000D03*
X128800000Y-98330000D03*
X128800000Y-97830000D03*
X128800000Y-97330000D03*
X128800000Y-96830000D03*
X128800000Y-96330000D03*
X128300000Y-98830000D03*
X128300000Y-98330000D03*
X128300000Y-97830000D03*
X128300000Y-97330000D03*
X128300000Y-96830000D03*
X128300000Y-96330000D03*
X127800000Y-98830000D03*
X127800000Y-98330000D03*
X127800000Y-97830000D03*
X127800000Y-97330000D03*
X127800000Y-96830000D03*
X127800000Y-96330000D03*
X127300000Y-98830000D03*
X127300000Y-98330000D03*
X127300000Y-97830000D03*
X127300000Y-97330000D03*
X127300000Y-96830000D03*
X127300000Y-96330000D03*
X126800000Y-98830000D03*
X126800000Y-98330000D03*
X126800000Y-97830000D03*
X126800000Y-97330000D03*
X126800000Y-96830000D03*
X126800000Y-96330000D03*
G36*
G01*
X129665000Y-93822500D02*
X129665000Y-94217500D01*
G75*
G02*
X129492500Y-94390000I-172500J0D01*
G01*
X129147500Y-94390000D01*
G75*
G02*
X128975000Y-94217500I0J172500D01*
G01*
X128975000Y-93822500D01*
G75*
G02*
X129147500Y-93650000I172500J0D01*
G01*
X129492500Y-93650000D01*
G75*
G02*
X129665000Y-93822500I0J-172500D01*
G01*
G37*
G36*
G01*
X130635000Y-93822500D02*
X130635000Y-94217500D01*
G75*
G02*
X130462500Y-94390000I-172500J0D01*
G01*
X130117500Y-94390000D01*
G75*
G02*
X129945000Y-94217500I0J172500D01*
G01*
X129945000Y-93822500D01*
G75*
G02*
X130117500Y-93650000I172500J0D01*
G01*
X130462500Y-93650000D01*
G75*
G02*
X130635000Y-93822500I0J-172500D01*
G01*
G37*
G36*
G01*
X89185000Y-100302500D02*
X89185000Y-100697500D01*
G75*
G02*
X89012500Y-100870000I-172500J0D01*
G01*
X88667500Y-100870000D01*
G75*
G02*
X88495000Y-100697500I0J172500D01*
G01*
X88495000Y-100302500D01*
G75*
G02*
X88667500Y-100130000I172500J0D01*
G01*
X89012500Y-100130000D01*
G75*
G02*
X89185000Y-100302500I0J-172500D01*
G01*
G37*
G36*
G01*
X90155000Y-100302500D02*
X90155000Y-100697500D01*
G75*
G02*
X89982500Y-100870000I-172500J0D01*
G01*
X89637500Y-100870000D01*
G75*
G02*
X89465000Y-100697500I0J172500D01*
G01*
X89465000Y-100302500D01*
G75*
G02*
X89637500Y-100130000I172500J0D01*
G01*
X89982500Y-100130000D01*
G75*
G02*
X90155000Y-100302500I0J-172500D01*
G01*
G37*
D12*
X94039288Y-94540701D03*
X92939288Y-94540701D03*
X91839287Y-94540701D03*
X90739287Y-94540701D03*
X89639289Y-94540701D03*
X88539289Y-94540701D03*
X87439289Y-94540701D03*
X86339288Y-94540701D03*
D13*
X95515000Y-94388301D03*
X84265000Y-94388301D03*
D14*
X95845208Y-87563702D03*
X83934792Y-86913701D03*
D15*
X95489684Y-85809700D03*
D16*
X84335706Y-84488702D03*
D17*
X127950000Y-88770000D03*
D18*
X125930000Y-88740000D03*
G36*
G01*
X126157500Y-85990000D02*
X125762500Y-85990000D01*
G75*
G02*
X125590000Y-85817500I0J172500D01*
G01*
X125590000Y-85472500D01*
G75*
G02*
X125762500Y-85300000I172500J0D01*
G01*
X126157500Y-85300000D01*
G75*
G02*
X126330000Y-85472500I0J-172500D01*
G01*
X126330000Y-85817500D01*
G75*
G02*
X126157500Y-85990000I-172500J0D01*
G01*
G37*
G36*
G01*
X126157500Y-86960000D02*
X125762500Y-86960000D01*
G75*
G02*
X125590000Y-86787500I0J172500D01*
G01*
X125590000Y-86442500D01*
G75*
G02*
X125762500Y-86270000I172500J0D01*
G01*
X126157500Y-86270000D01*
G75*
G02*
X126330000Y-86442500I0J-172500D01*
G01*
X126330000Y-86787500D01*
G75*
G02*
X126157500Y-86960000I-172500J0D01*
G01*
G37*
G36*
G01*
X106477500Y-84655000D02*
X106082500Y-84655000D01*
G75*
G02*
X105910000Y-84482500I0J172500D01*
G01*
X105910000Y-84137500D01*
G75*
G02*
X106082500Y-83965000I172500J0D01*
G01*
X106477500Y-83965000D01*
G75*
G02*
X106650000Y-84137500I0J-172500D01*
G01*
X106650000Y-84482500D01*
G75*
G02*
X106477500Y-84655000I-172500J0D01*
G01*
G37*
G36*
G01*
X106477500Y-85625000D02*
X106082500Y-85625000D01*
G75*
G02*
X105910000Y-85452500I0J172500D01*
G01*
X105910000Y-85107500D01*
G75*
G02*
X106082500Y-84935000I172500J0D01*
G01*
X106477500Y-84935000D01*
G75*
G02*
X106650000Y-85107500I0J-172500D01*
G01*
X106650000Y-85452500D01*
G75*
G02*
X106477500Y-85625000I-172500J0D01*
G01*
G37*
G36*
G01*
X98882500Y-91460000D02*
X99277500Y-91460000D01*
G75*
G02*
X99450000Y-91632500I0J-172500D01*
G01*
X99450000Y-91977500D01*
G75*
G02*
X99277500Y-92150000I-172500J0D01*
G01*
X98882500Y-92150000D01*
G75*
G02*
X98710000Y-91977500I0J172500D01*
G01*
X98710000Y-91632500D01*
G75*
G02*
X98882500Y-91460000I172500J0D01*
G01*
G37*
G36*
G01*
X98882500Y-90490000D02*
X99277500Y-90490000D01*
G75*
G02*
X99450000Y-90662500I0J-172500D01*
G01*
X99450000Y-91007500D01*
G75*
G02*
X99277500Y-91180000I-172500J0D01*
G01*
X98882500Y-91180000D01*
G75*
G02*
X98710000Y-91007500I0J172500D01*
G01*
X98710000Y-90662500D01*
G75*
G02*
X98882500Y-90490000I172500J0D01*
G01*
G37*
G36*
G01*
X97602500Y-90895000D02*
X97997500Y-90895000D01*
G75*
G02*
X98170000Y-91067500I0J-172500D01*
G01*
X98170000Y-91412500D01*
G75*
G02*
X97997500Y-91585000I-172500J0D01*
G01*
X97602500Y-91585000D01*
G75*
G02*
X97430000Y-91412500I0J172500D01*
G01*
X97430000Y-91067500D01*
G75*
G02*
X97602500Y-90895000I172500J0D01*
G01*
G37*
G36*
G01*
X97602500Y-89925000D02*
X97997500Y-89925000D01*
G75*
G02*
X98170000Y-90097500I0J-172500D01*
G01*
X98170000Y-90442500D01*
G75*
G02*
X97997500Y-90615000I-172500J0D01*
G01*
X97602500Y-90615000D01*
G75*
G02*
X97430000Y-90442500I0J172500D01*
G01*
X97430000Y-90097500D01*
G75*
G02*
X97602500Y-89925000I172500J0D01*
G01*
G37*
G36*
G01*
X97360000Y-100802500D02*
X97360000Y-100277500D01*
G75*
G02*
X97622500Y-100015000I262500J0D01*
G01*
X98247500Y-100015000D01*
G75*
G02*
X98510000Y-100277500I0J-262500D01*
G01*
X98510000Y-100802500D01*
G75*
G02*
X98247500Y-101065000I-262500J0D01*
G01*
X97622500Y-101065000D01*
G75*
G02*
X97360000Y-100802500I0J262500D01*
G01*
G37*
G36*
G01*
X95610000Y-100802500D02*
X95610000Y-100277500D01*
G75*
G02*
X95872500Y-100015000I262500J0D01*
G01*
X96497500Y-100015000D01*
G75*
G02*
X96760000Y-100277500I0J-262500D01*
G01*
X96760000Y-100802500D01*
G75*
G02*
X96497500Y-101065000I-262500J0D01*
G01*
X95872500Y-101065000D01*
G75*
G02*
X95610000Y-100802500I0J262500D01*
G01*
G37*
D19*
X131667400Y-84629400D03*
X131667400Y-85112000D03*
X131667400Y-85620000D03*
X131667400Y-86128000D03*
X131667400Y-86610600D03*
X127552600Y-86610600D03*
X127552600Y-86128000D03*
X127552600Y-85620000D03*
X127552600Y-85112000D03*
X127552600Y-84629400D03*
G36*
G01*
X132302500Y-96270000D02*
X131777500Y-96270000D01*
G75*
G02*
X131515000Y-96007500I0J262500D01*
G01*
X131515000Y-95382500D01*
G75*
G02*
X131777500Y-95120000I262500J0D01*
G01*
X132302500Y-95120000D01*
G75*
G02*
X132565000Y-95382500I0J-262500D01*
G01*
X132565000Y-96007500D01*
G75*
G02*
X132302500Y-96270000I-262500J0D01*
G01*
G37*
G36*
G01*
X132302500Y-98020000D02*
X131777500Y-98020000D01*
G75*
G02*
X131515000Y-97757500I0J262500D01*
G01*
X131515000Y-97132500D01*
G75*
G02*
X131777500Y-96870000I262500J0D01*
G01*
X132302500Y-96870000D01*
G75*
G02*
X132565000Y-97132500I0J-262500D01*
G01*
X132565000Y-97757500D01*
G75*
G02*
X132302500Y-98020000I-262500J0D01*
G01*
G37*
G36*
G01*
X133230000Y-100142500D02*
X133230000Y-99617500D01*
G75*
G02*
X133492500Y-99355000I262500J0D01*
G01*
X134117500Y-99355000D01*
G75*
G02*
X134380000Y-99617500I0J-262500D01*
G01*
X134380000Y-100142500D01*
G75*
G02*
X134117500Y-100405000I-262500J0D01*
G01*
X133492500Y-100405000D01*
G75*
G02*
X133230000Y-100142500I0J262500D01*
G01*
G37*
G36*
G01*
X131480000Y-100142500D02*
X131480000Y-99617500D01*
G75*
G02*
X131742500Y-99355000I262500J0D01*
G01*
X132367500Y-99355000D01*
G75*
G02*
X132630000Y-99617500I0J-262500D01*
G01*
X132630000Y-100142500D01*
G75*
G02*
X132367500Y-100405000I-262500J0D01*
G01*
X131742500Y-100405000D01*
G75*
G02*
X131480000Y-100142500I0J262500D01*
G01*
G37*
D20*
X102820000Y-89400000D03*
X102820000Y-87500000D03*
X100620000Y-87500000D03*
X100620000Y-88450000D03*
X100620000Y-89400000D03*
D21*
X101610000Y-97160000D03*
X99710000Y-97160000D03*
X99710000Y-99360000D03*
X100660000Y-99360000D03*
X101610000Y-99360000D03*
D22*
X98270000Y-88400000D03*
D23*
X99120000Y-87650000D03*
X99120000Y-88150000D03*
X99120000Y-88650000D03*
X99120000Y-89150000D03*
X97420000Y-87650000D03*
X97420000Y-88150000D03*
X97420000Y-88650000D03*
X97420000Y-89150000D03*
G36*
G01*
X107565000Y-86130000D02*
X109065000Y-86130000D01*
G75*
G02*
X109165000Y-86230000I0J-100000D01*
G01*
X109165000Y-86430000D01*
G75*
G02*
X109065000Y-86530000I-100000J0D01*
G01*
X107565000Y-86530000D01*
G75*
G02*
X107465000Y-86430000I0J100000D01*
G01*
X107465000Y-86230000D01*
G75*
G02*
X107565000Y-86130000I100000J0D01*
G01*
G37*
G36*
G01*
X107565000Y-86630000D02*
X109065000Y-86630000D01*
G75*
G02*
X109165000Y-86730000I0J-100000D01*
G01*
X109165000Y-86930000D01*
G75*
G02*
X109065000Y-87030000I-100000J0D01*
G01*
X107565000Y-87030000D01*
G75*
G02*
X107465000Y-86930000I0J100000D01*
G01*
X107465000Y-86730000D01*
G75*
G02*
X107565000Y-86630000I100000J0D01*
G01*
G37*
G36*
G01*
X107565000Y-87130000D02*
X109065000Y-87130000D01*
G75*
G02*
X109165000Y-87230000I0J-100000D01*
G01*
X109165000Y-87430000D01*
G75*
G02*
X109065000Y-87530000I-100000J0D01*
G01*
X107565000Y-87530000D01*
G75*
G02*
X107465000Y-87430000I0J100000D01*
G01*
X107465000Y-87230000D01*
G75*
G02*
X107565000Y-87130000I100000J0D01*
G01*
G37*
G36*
G01*
X107565000Y-87630000D02*
X109065000Y-87630000D01*
G75*
G02*
X109165000Y-87730000I0J-100000D01*
G01*
X109165000Y-87930000D01*
G75*
G02*
X109065000Y-88030000I-100000J0D01*
G01*
X107565000Y-88030000D01*
G75*
G02*
X107465000Y-87930000I0J100000D01*
G01*
X107465000Y-87730000D01*
G75*
G02*
X107565000Y-87630000I100000J0D01*
G01*
G37*
G36*
G01*
X107565000Y-88130000D02*
X109065000Y-88130000D01*
G75*
G02*
X109165000Y-88230000I0J-100000D01*
G01*
X109165000Y-88430000D01*
G75*
G02*
X109065000Y-88530000I-100000J0D01*
G01*
X107565000Y-88530000D01*
G75*
G02*
X107465000Y-88430000I0J100000D01*
G01*
X107465000Y-88230000D01*
G75*
G02*
X107565000Y-88130000I100000J0D01*
G01*
G37*
G36*
G01*
X107565000Y-88630000D02*
X109065000Y-88630000D01*
G75*
G02*
X109165000Y-88730000I0J-100000D01*
G01*
X109165000Y-88930000D01*
G75*
G02*
X109065000Y-89030000I-100000J0D01*
G01*
X107565000Y-89030000D01*
G75*
G02*
X107465000Y-88930000I0J100000D01*
G01*
X107465000Y-88730000D01*
G75*
G02*
X107565000Y-88630000I100000J0D01*
G01*
G37*
G36*
G01*
X107565000Y-89130000D02*
X109065000Y-89130000D01*
G75*
G02*
X109165000Y-89230000I0J-100000D01*
G01*
X109165000Y-89430000D01*
G75*
G02*
X109065000Y-89530000I-100000J0D01*
G01*
X107565000Y-89530000D01*
G75*
G02*
X107465000Y-89430000I0J100000D01*
G01*
X107465000Y-89230000D01*
G75*
G02*
X107565000Y-89130000I100000J0D01*
G01*
G37*
G36*
G01*
X107565000Y-89630000D02*
X109065000Y-89630000D01*
G75*
G02*
X109165000Y-89730000I0J-100000D01*
G01*
X109165000Y-89930000D01*
G75*
G02*
X109065000Y-90030000I-100000J0D01*
G01*
X107565000Y-90030000D01*
G75*
G02*
X107465000Y-89930000I0J100000D01*
G01*
X107465000Y-89730000D01*
G75*
G02*
X107565000Y-89630000I100000J0D01*
G01*
G37*
G36*
G01*
X107565000Y-90130000D02*
X109065000Y-90130000D01*
G75*
G02*
X109165000Y-90230000I0J-100000D01*
G01*
X109165000Y-90430000D01*
G75*
G02*
X109065000Y-90530000I-100000J0D01*
G01*
X107565000Y-90530000D01*
G75*
G02*
X107465000Y-90430000I0J100000D01*
G01*
X107465000Y-90230000D01*
G75*
G02*
X107565000Y-90130000I100000J0D01*
G01*
G37*
G36*
G01*
X107565000Y-90630000D02*
X109065000Y-90630000D01*
G75*
G02*
X109165000Y-90730000I0J-100000D01*
G01*
X109165000Y-90930000D01*
G75*
G02*
X109065000Y-91030000I-100000J0D01*
G01*
X107565000Y-91030000D01*
G75*
G02*
X107465000Y-90930000I0J100000D01*
G01*
X107465000Y-90730000D01*
G75*
G02*
X107565000Y-90630000I100000J0D01*
G01*
G37*
G36*
G01*
X107565000Y-91130000D02*
X109065000Y-91130000D01*
G75*
G02*
X109165000Y-91230000I0J-100000D01*
G01*
X109165000Y-91430000D01*
G75*
G02*
X109065000Y-91530000I-100000J0D01*
G01*
X107565000Y-91530000D01*
G75*
G02*
X107465000Y-91430000I0J100000D01*
G01*
X107465000Y-91230000D01*
G75*
G02*
X107565000Y-91130000I100000J0D01*
G01*
G37*
G36*
G01*
X107565000Y-91630000D02*
X109065000Y-91630000D01*
G75*
G02*
X109165000Y-91730000I0J-100000D01*
G01*
X109165000Y-91930000D01*
G75*
G02*
X109065000Y-92030000I-100000J0D01*
G01*
X107565000Y-92030000D01*
G75*
G02*
X107465000Y-91930000I0J100000D01*
G01*
X107465000Y-91730000D01*
G75*
G02*
X107565000Y-91630000I100000J0D01*
G01*
G37*
G36*
G01*
X107565000Y-92130000D02*
X109065000Y-92130000D01*
G75*
G02*
X109165000Y-92230000I0J-100000D01*
G01*
X109165000Y-92430000D01*
G75*
G02*
X109065000Y-92530000I-100000J0D01*
G01*
X107565000Y-92530000D01*
G75*
G02*
X107465000Y-92430000I0J100000D01*
G01*
X107465000Y-92230000D01*
G75*
G02*
X107565000Y-92130000I100000J0D01*
G01*
G37*
G36*
G01*
X107565000Y-92630000D02*
X109065000Y-92630000D01*
G75*
G02*
X109165000Y-92730000I0J-100000D01*
G01*
X109165000Y-92930000D01*
G75*
G02*
X109065000Y-93030000I-100000J0D01*
G01*
X107565000Y-93030000D01*
G75*
G02*
X107465000Y-92930000I0J100000D01*
G01*
X107465000Y-92730000D01*
G75*
G02*
X107565000Y-92630000I100000J0D01*
G01*
G37*
G36*
G01*
X107565000Y-93130000D02*
X109065000Y-93130000D01*
G75*
G02*
X109165000Y-93230000I0J-100000D01*
G01*
X109165000Y-93430000D01*
G75*
G02*
X109065000Y-93530000I-100000J0D01*
G01*
X107565000Y-93530000D01*
G75*
G02*
X107465000Y-93430000I0J100000D01*
G01*
X107465000Y-93230000D01*
G75*
G02*
X107565000Y-93130000I100000J0D01*
G01*
G37*
G36*
G01*
X107565000Y-93630000D02*
X109065000Y-93630000D01*
G75*
G02*
X109165000Y-93730000I0J-100000D01*
G01*
X109165000Y-93930000D01*
G75*
G02*
X109065000Y-94030000I-100000J0D01*
G01*
X107565000Y-94030000D01*
G75*
G02*
X107465000Y-93930000I0J100000D01*
G01*
X107465000Y-93730000D01*
G75*
G02*
X107565000Y-93630000I100000J0D01*
G01*
G37*
G36*
G01*
X107565000Y-94130000D02*
X109065000Y-94130000D01*
G75*
G02*
X109165000Y-94230000I0J-100000D01*
G01*
X109165000Y-94430000D01*
G75*
G02*
X109065000Y-94530000I-100000J0D01*
G01*
X107565000Y-94530000D01*
G75*
G02*
X107465000Y-94430000I0J100000D01*
G01*
X107465000Y-94230000D01*
G75*
G02*
X107565000Y-94130000I100000J0D01*
G01*
G37*
G36*
G01*
X107565000Y-94630000D02*
X109065000Y-94630000D01*
G75*
G02*
X109165000Y-94730000I0J-100000D01*
G01*
X109165000Y-94930000D01*
G75*
G02*
X109065000Y-95030000I-100000J0D01*
G01*
X107565000Y-95030000D01*
G75*
G02*
X107465000Y-94930000I0J100000D01*
G01*
X107465000Y-94730000D01*
G75*
G02*
X107565000Y-94630000I100000J0D01*
G01*
G37*
G36*
G01*
X107565000Y-95130000D02*
X109065000Y-95130000D01*
G75*
G02*
X109165000Y-95230000I0J-100000D01*
G01*
X109165000Y-95430000D01*
G75*
G02*
X109065000Y-95530000I-100000J0D01*
G01*
X107565000Y-95530000D01*
G75*
G02*
X107465000Y-95430000I0J100000D01*
G01*
X107465000Y-95230000D01*
G75*
G02*
X107565000Y-95130000I100000J0D01*
G01*
G37*
G36*
G01*
X107565000Y-95630000D02*
X109065000Y-95630000D01*
G75*
G02*
X109165000Y-95730000I0J-100000D01*
G01*
X109165000Y-95930000D01*
G75*
G02*
X109065000Y-96030000I-100000J0D01*
G01*
X107565000Y-96030000D01*
G75*
G02*
X107465000Y-95930000I0J100000D01*
G01*
X107465000Y-95730000D01*
G75*
G02*
X107565000Y-95630000I100000J0D01*
G01*
G37*
G36*
G01*
X107565000Y-96130000D02*
X109065000Y-96130000D01*
G75*
G02*
X109165000Y-96230000I0J-100000D01*
G01*
X109165000Y-96430000D01*
G75*
G02*
X109065000Y-96530000I-100000J0D01*
G01*
X107565000Y-96530000D01*
G75*
G02*
X107465000Y-96430000I0J100000D01*
G01*
X107465000Y-96230000D01*
G75*
G02*
X107565000Y-96130000I100000J0D01*
G01*
G37*
G36*
G01*
X107565000Y-96630000D02*
X109065000Y-96630000D01*
G75*
G02*
X109165000Y-96730000I0J-100000D01*
G01*
X109165000Y-96930000D01*
G75*
G02*
X109065000Y-97030000I-100000J0D01*
G01*
X107565000Y-97030000D01*
G75*
G02*
X107465000Y-96930000I0J100000D01*
G01*
X107465000Y-96730000D01*
G75*
G02*
X107565000Y-96630000I100000J0D01*
G01*
G37*
G36*
G01*
X107565000Y-97130000D02*
X109065000Y-97130000D01*
G75*
G02*
X109165000Y-97230000I0J-100000D01*
G01*
X109165000Y-97430000D01*
G75*
G02*
X109065000Y-97530000I-100000J0D01*
G01*
X107565000Y-97530000D01*
G75*
G02*
X107465000Y-97430000I0J100000D01*
G01*
X107465000Y-97230000D01*
G75*
G02*
X107565000Y-97130000I100000J0D01*
G01*
G37*
G36*
G01*
X107565000Y-97630000D02*
X109065000Y-97630000D01*
G75*
G02*
X109165000Y-97730000I0J-100000D01*
G01*
X109165000Y-97930000D01*
G75*
G02*
X109065000Y-98030000I-100000J0D01*
G01*
X107565000Y-98030000D01*
G75*
G02*
X107465000Y-97930000I0J100000D01*
G01*
X107465000Y-97730000D01*
G75*
G02*
X107565000Y-97630000I100000J0D01*
G01*
G37*
G36*
G01*
X107565000Y-98130000D02*
X109065000Y-98130000D01*
G75*
G02*
X109165000Y-98230000I0J-100000D01*
G01*
X109165000Y-98430000D01*
G75*
G02*
X109065000Y-98530000I-100000J0D01*
G01*
X107565000Y-98530000D01*
G75*
G02*
X107465000Y-98430000I0J100000D01*
G01*
X107465000Y-98230000D01*
G75*
G02*
X107565000Y-98130000I100000J0D01*
G01*
G37*
G36*
G01*
X109890000Y-99155000D02*
X110090000Y-99155000D01*
G75*
G02*
X110190000Y-99255000I0J-100000D01*
G01*
X110190000Y-100755000D01*
G75*
G02*
X110090000Y-100855000I-100000J0D01*
G01*
X109890000Y-100855000D01*
G75*
G02*
X109790000Y-100755000I0J100000D01*
G01*
X109790000Y-99255000D01*
G75*
G02*
X109890000Y-99155000I100000J0D01*
G01*
G37*
G36*
G01*
X110390000Y-99155000D02*
X110590000Y-99155000D01*
G75*
G02*
X110690000Y-99255000I0J-100000D01*
G01*
X110690000Y-100755000D01*
G75*
G02*
X110590000Y-100855000I-100000J0D01*
G01*
X110390000Y-100855000D01*
G75*
G02*
X110290000Y-100755000I0J100000D01*
G01*
X110290000Y-99255000D01*
G75*
G02*
X110390000Y-99155000I100000J0D01*
G01*
G37*
G36*
G01*
X110890000Y-99155000D02*
X111090000Y-99155000D01*
G75*
G02*
X111190000Y-99255000I0J-100000D01*
G01*
X111190000Y-100755000D01*
G75*
G02*
X111090000Y-100855000I-100000J0D01*
G01*
X110890000Y-100855000D01*
G75*
G02*
X110790000Y-100755000I0J100000D01*
G01*
X110790000Y-99255000D01*
G75*
G02*
X110890000Y-99155000I100000J0D01*
G01*
G37*
G36*
G01*
X111390000Y-99155000D02*
X111590000Y-99155000D01*
G75*
G02*
X111690000Y-99255000I0J-100000D01*
G01*
X111690000Y-100755000D01*
G75*
G02*
X111590000Y-100855000I-100000J0D01*
G01*
X111390000Y-100855000D01*
G75*
G02*
X111290000Y-100755000I0J100000D01*
G01*
X111290000Y-99255000D01*
G75*
G02*
X111390000Y-99155000I100000J0D01*
G01*
G37*
G36*
G01*
X111890000Y-99155000D02*
X112090000Y-99155000D01*
G75*
G02*
X112190000Y-99255000I0J-100000D01*
G01*
X112190000Y-100755000D01*
G75*
G02*
X112090000Y-100855000I-100000J0D01*
G01*
X111890000Y-100855000D01*
G75*
G02*
X111790000Y-100755000I0J100000D01*
G01*
X111790000Y-99255000D01*
G75*
G02*
X111890000Y-99155000I100000J0D01*
G01*
G37*
G36*
G01*
X112390000Y-99155000D02*
X112590000Y-99155000D01*
G75*
G02*
X112690000Y-99255000I0J-100000D01*
G01*
X112690000Y-100755000D01*
G75*
G02*
X112590000Y-100855000I-100000J0D01*
G01*
X112390000Y-100855000D01*
G75*
G02*
X112290000Y-100755000I0J100000D01*
G01*
X112290000Y-99255000D01*
G75*
G02*
X112390000Y-99155000I100000J0D01*
G01*
G37*
G36*
G01*
X112890000Y-99155000D02*
X113090000Y-99155000D01*
G75*
G02*
X113190000Y-99255000I0J-100000D01*
G01*
X113190000Y-100755000D01*
G75*
G02*
X113090000Y-100855000I-100000J0D01*
G01*
X112890000Y-100855000D01*
G75*
G02*
X112790000Y-100755000I0J100000D01*
G01*
X112790000Y-99255000D01*
G75*
G02*
X112890000Y-99155000I100000J0D01*
G01*
G37*
G36*
G01*
X113390000Y-99155000D02*
X113590000Y-99155000D01*
G75*
G02*
X113690000Y-99255000I0J-100000D01*
G01*
X113690000Y-100755000D01*
G75*
G02*
X113590000Y-100855000I-100000J0D01*
G01*
X113390000Y-100855000D01*
G75*
G02*
X113290000Y-100755000I0J100000D01*
G01*
X113290000Y-99255000D01*
G75*
G02*
X113390000Y-99155000I100000J0D01*
G01*
G37*
G36*
G01*
X113890000Y-99155000D02*
X114090000Y-99155000D01*
G75*
G02*
X114190000Y-99255000I0J-100000D01*
G01*
X114190000Y-100755000D01*
G75*
G02*
X114090000Y-100855000I-100000J0D01*
G01*
X113890000Y-100855000D01*
G75*
G02*
X113790000Y-100755000I0J100000D01*
G01*
X113790000Y-99255000D01*
G75*
G02*
X113890000Y-99155000I100000J0D01*
G01*
G37*
G36*
G01*
X114390000Y-99155000D02*
X114590000Y-99155000D01*
G75*
G02*
X114690000Y-99255000I0J-100000D01*
G01*
X114690000Y-100755000D01*
G75*
G02*
X114590000Y-100855000I-100000J0D01*
G01*
X114390000Y-100855000D01*
G75*
G02*
X114290000Y-100755000I0J100000D01*
G01*
X114290000Y-99255000D01*
G75*
G02*
X114390000Y-99155000I100000J0D01*
G01*
G37*
G36*
G01*
X114890000Y-99155000D02*
X115090000Y-99155000D01*
G75*
G02*
X115190000Y-99255000I0J-100000D01*
G01*
X115190000Y-100755000D01*
G75*
G02*
X115090000Y-100855000I-100000J0D01*
G01*
X114890000Y-100855000D01*
G75*
G02*
X114790000Y-100755000I0J100000D01*
G01*
X114790000Y-99255000D01*
G75*
G02*
X114890000Y-99155000I100000J0D01*
G01*
G37*
G36*
G01*
X115390000Y-99155000D02*
X115590000Y-99155000D01*
G75*
G02*
X115690000Y-99255000I0J-100000D01*
G01*
X115690000Y-100755000D01*
G75*
G02*
X115590000Y-100855000I-100000J0D01*
G01*
X115390000Y-100855000D01*
G75*
G02*
X115290000Y-100755000I0J100000D01*
G01*
X115290000Y-99255000D01*
G75*
G02*
X115390000Y-99155000I100000J0D01*
G01*
G37*
G36*
G01*
X115890000Y-99155000D02*
X116090000Y-99155000D01*
G75*
G02*
X116190000Y-99255000I0J-100000D01*
G01*
X116190000Y-100755000D01*
G75*
G02*
X116090000Y-100855000I-100000J0D01*
G01*
X115890000Y-100855000D01*
G75*
G02*
X115790000Y-100755000I0J100000D01*
G01*
X115790000Y-99255000D01*
G75*
G02*
X115890000Y-99155000I100000J0D01*
G01*
G37*
G36*
G01*
X116390000Y-99155000D02*
X116590000Y-99155000D01*
G75*
G02*
X116690000Y-99255000I0J-100000D01*
G01*
X116690000Y-100755000D01*
G75*
G02*
X116590000Y-100855000I-100000J0D01*
G01*
X116390000Y-100855000D01*
G75*
G02*
X116290000Y-100755000I0J100000D01*
G01*
X116290000Y-99255000D01*
G75*
G02*
X116390000Y-99155000I100000J0D01*
G01*
G37*
G36*
G01*
X116890000Y-99155000D02*
X117090000Y-99155000D01*
G75*
G02*
X117190000Y-99255000I0J-100000D01*
G01*
X117190000Y-100755000D01*
G75*
G02*
X117090000Y-100855000I-100000J0D01*
G01*
X116890000Y-100855000D01*
G75*
G02*
X116790000Y-100755000I0J100000D01*
G01*
X116790000Y-99255000D01*
G75*
G02*
X116890000Y-99155000I100000J0D01*
G01*
G37*
G36*
G01*
X117390000Y-99155000D02*
X117590000Y-99155000D01*
G75*
G02*
X117690000Y-99255000I0J-100000D01*
G01*
X117690000Y-100755000D01*
G75*
G02*
X117590000Y-100855000I-100000J0D01*
G01*
X117390000Y-100855000D01*
G75*
G02*
X117290000Y-100755000I0J100000D01*
G01*
X117290000Y-99255000D01*
G75*
G02*
X117390000Y-99155000I100000J0D01*
G01*
G37*
G36*
G01*
X117890000Y-99155000D02*
X118090000Y-99155000D01*
G75*
G02*
X118190000Y-99255000I0J-100000D01*
G01*
X118190000Y-100755000D01*
G75*
G02*
X118090000Y-100855000I-100000J0D01*
G01*
X117890000Y-100855000D01*
G75*
G02*
X117790000Y-100755000I0J100000D01*
G01*
X117790000Y-99255000D01*
G75*
G02*
X117890000Y-99155000I100000J0D01*
G01*
G37*
G36*
G01*
X118390000Y-99155000D02*
X118590000Y-99155000D01*
G75*
G02*
X118690000Y-99255000I0J-100000D01*
G01*
X118690000Y-100755000D01*
G75*
G02*
X118590000Y-100855000I-100000J0D01*
G01*
X118390000Y-100855000D01*
G75*
G02*
X118290000Y-100755000I0J100000D01*
G01*
X118290000Y-99255000D01*
G75*
G02*
X118390000Y-99155000I100000J0D01*
G01*
G37*
G36*
G01*
X118890000Y-99155000D02*
X119090000Y-99155000D01*
G75*
G02*
X119190000Y-99255000I0J-100000D01*
G01*
X119190000Y-100755000D01*
G75*
G02*
X119090000Y-100855000I-100000J0D01*
G01*
X118890000Y-100855000D01*
G75*
G02*
X118790000Y-100755000I0J100000D01*
G01*
X118790000Y-99255000D01*
G75*
G02*
X118890000Y-99155000I100000J0D01*
G01*
G37*
G36*
G01*
X119390000Y-99155000D02*
X119590000Y-99155000D01*
G75*
G02*
X119690000Y-99255000I0J-100000D01*
G01*
X119690000Y-100755000D01*
G75*
G02*
X119590000Y-100855000I-100000J0D01*
G01*
X119390000Y-100855000D01*
G75*
G02*
X119290000Y-100755000I0J100000D01*
G01*
X119290000Y-99255000D01*
G75*
G02*
X119390000Y-99155000I100000J0D01*
G01*
G37*
G36*
G01*
X119890000Y-99155000D02*
X120090000Y-99155000D01*
G75*
G02*
X120190000Y-99255000I0J-100000D01*
G01*
X120190000Y-100755000D01*
G75*
G02*
X120090000Y-100855000I-100000J0D01*
G01*
X119890000Y-100855000D01*
G75*
G02*
X119790000Y-100755000I0J100000D01*
G01*
X119790000Y-99255000D01*
G75*
G02*
X119890000Y-99155000I100000J0D01*
G01*
G37*
G36*
G01*
X120390000Y-99155000D02*
X120590000Y-99155000D01*
G75*
G02*
X120690000Y-99255000I0J-100000D01*
G01*
X120690000Y-100755000D01*
G75*
G02*
X120590000Y-100855000I-100000J0D01*
G01*
X120390000Y-100855000D01*
G75*
G02*
X120290000Y-100755000I0J100000D01*
G01*
X120290000Y-99255000D01*
G75*
G02*
X120390000Y-99155000I100000J0D01*
G01*
G37*
G36*
G01*
X120890000Y-99155000D02*
X121090000Y-99155000D01*
G75*
G02*
X121190000Y-99255000I0J-100000D01*
G01*
X121190000Y-100755000D01*
G75*
G02*
X121090000Y-100855000I-100000J0D01*
G01*
X120890000Y-100855000D01*
G75*
G02*
X120790000Y-100755000I0J100000D01*
G01*
X120790000Y-99255000D01*
G75*
G02*
X120890000Y-99155000I100000J0D01*
G01*
G37*
G36*
G01*
X121390000Y-99155000D02*
X121590000Y-99155000D01*
G75*
G02*
X121690000Y-99255000I0J-100000D01*
G01*
X121690000Y-100755000D01*
G75*
G02*
X121590000Y-100855000I-100000J0D01*
G01*
X121390000Y-100855000D01*
G75*
G02*
X121290000Y-100755000I0J100000D01*
G01*
X121290000Y-99255000D01*
G75*
G02*
X121390000Y-99155000I100000J0D01*
G01*
G37*
G36*
G01*
X121890000Y-99155000D02*
X122090000Y-99155000D01*
G75*
G02*
X122190000Y-99255000I0J-100000D01*
G01*
X122190000Y-100755000D01*
G75*
G02*
X122090000Y-100855000I-100000J0D01*
G01*
X121890000Y-100855000D01*
G75*
G02*
X121790000Y-100755000I0J100000D01*
G01*
X121790000Y-99255000D01*
G75*
G02*
X121890000Y-99155000I100000J0D01*
G01*
G37*
G36*
G01*
X122915000Y-98130000D02*
X124415000Y-98130000D01*
G75*
G02*
X124515000Y-98230000I0J-100000D01*
G01*
X124515000Y-98430000D01*
G75*
G02*
X124415000Y-98530000I-100000J0D01*
G01*
X122915000Y-98530000D01*
G75*
G02*
X122815000Y-98430000I0J100000D01*
G01*
X122815000Y-98230000D01*
G75*
G02*
X122915000Y-98130000I100000J0D01*
G01*
G37*
G36*
G01*
X122915000Y-97630000D02*
X124415000Y-97630000D01*
G75*
G02*
X124515000Y-97730000I0J-100000D01*
G01*
X124515000Y-97930000D01*
G75*
G02*
X124415000Y-98030000I-100000J0D01*
G01*
X122915000Y-98030000D01*
G75*
G02*
X122815000Y-97930000I0J100000D01*
G01*
X122815000Y-97730000D01*
G75*
G02*
X122915000Y-97630000I100000J0D01*
G01*
G37*
G36*
G01*
X122915000Y-97130000D02*
X124415000Y-97130000D01*
G75*
G02*
X124515000Y-97230000I0J-100000D01*
G01*
X124515000Y-97430000D01*
G75*
G02*
X124415000Y-97530000I-100000J0D01*
G01*
X122915000Y-97530000D01*
G75*
G02*
X122815000Y-97430000I0J100000D01*
G01*
X122815000Y-97230000D01*
G75*
G02*
X122915000Y-97130000I100000J0D01*
G01*
G37*
G36*
G01*
X122915000Y-96630000D02*
X124415000Y-96630000D01*
G75*
G02*
X124515000Y-96730000I0J-100000D01*
G01*
X124515000Y-96930000D01*
G75*
G02*
X124415000Y-97030000I-100000J0D01*
G01*
X122915000Y-97030000D01*
G75*
G02*
X122815000Y-96930000I0J100000D01*
G01*
X122815000Y-96730000D01*
G75*
G02*
X122915000Y-96630000I100000J0D01*
G01*
G37*
G36*
G01*
X122915000Y-96130000D02*
X124415000Y-96130000D01*
G75*
G02*
X124515000Y-96230000I0J-100000D01*
G01*
X124515000Y-96430000D01*
G75*
G02*
X124415000Y-96530000I-100000J0D01*
G01*
X122915000Y-96530000D01*
G75*
G02*
X122815000Y-96430000I0J100000D01*
G01*
X122815000Y-96230000D01*
G75*
G02*
X122915000Y-96130000I100000J0D01*
G01*
G37*
G36*
G01*
X122915000Y-95630000D02*
X124415000Y-95630000D01*
G75*
G02*
X124515000Y-95730000I0J-100000D01*
G01*
X124515000Y-95930000D01*
G75*
G02*
X124415000Y-96030000I-100000J0D01*
G01*
X122915000Y-96030000D01*
G75*
G02*
X122815000Y-95930000I0J100000D01*
G01*
X122815000Y-95730000D01*
G75*
G02*
X122915000Y-95630000I100000J0D01*
G01*
G37*
G36*
G01*
X122915000Y-95130000D02*
X124415000Y-95130000D01*
G75*
G02*
X124515000Y-95230000I0J-100000D01*
G01*
X124515000Y-95430000D01*
G75*
G02*
X124415000Y-95530000I-100000J0D01*
G01*
X122915000Y-95530000D01*
G75*
G02*
X122815000Y-95430000I0J100000D01*
G01*
X122815000Y-95230000D01*
G75*
G02*
X122915000Y-95130000I100000J0D01*
G01*
G37*
G36*
G01*
X122915000Y-94630000D02*
X124415000Y-94630000D01*
G75*
G02*
X124515000Y-94730000I0J-100000D01*
G01*
X124515000Y-94930000D01*
G75*
G02*
X124415000Y-95030000I-100000J0D01*
G01*
X122915000Y-95030000D01*
G75*
G02*
X122815000Y-94930000I0J100000D01*
G01*
X122815000Y-94730000D01*
G75*
G02*
X122915000Y-94630000I100000J0D01*
G01*
G37*
G36*
G01*
X122915000Y-94130000D02*
X124415000Y-94130000D01*
G75*
G02*
X124515000Y-94230000I0J-100000D01*
G01*
X124515000Y-94430000D01*
G75*
G02*
X124415000Y-94530000I-100000J0D01*
G01*
X122915000Y-94530000D01*
G75*
G02*
X122815000Y-94430000I0J100000D01*
G01*
X122815000Y-94230000D01*
G75*
G02*
X122915000Y-94130000I100000J0D01*
G01*
G37*
G36*
G01*
X122915000Y-93630000D02*
X124415000Y-93630000D01*
G75*
G02*
X124515000Y-93730000I0J-100000D01*
G01*
X124515000Y-93930000D01*
G75*
G02*
X124415000Y-94030000I-100000J0D01*
G01*
X122915000Y-94030000D01*
G75*
G02*
X122815000Y-93930000I0J100000D01*
G01*
X122815000Y-93730000D01*
G75*
G02*
X122915000Y-93630000I100000J0D01*
G01*
G37*
G36*
G01*
X122915000Y-93130000D02*
X124415000Y-93130000D01*
G75*
G02*
X124515000Y-93230000I0J-100000D01*
G01*
X124515000Y-93430000D01*
G75*
G02*
X124415000Y-93530000I-100000J0D01*
G01*
X122915000Y-93530000D01*
G75*
G02*
X122815000Y-93430000I0J100000D01*
G01*
X122815000Y-93230000D01*
G75*
G02*
X122915000Y-93130000I100000J0D01*
G01*
G37*
G36*
G01*
X122915000Y-92630000D02*
X124415000Y-92630000D01*
G75*
G02*
X124515000Y-92730000I0J-100000D01*
G01*
X124515000Y-92930000D01*
G75*
G02*
X124415000Y-93030000I-100000J0D01*
G01*
X122915000Y-93030000D01*
G75*
G02*
X122815000Y-92930000I0J100000D01*
G01*
X122815000Y-92730000D01*
G75*
G02*
X122915000Y-92630000I100000J0D01*
G01*
G37*
G36*
G01*
X122915000Y-92130000D02*
X124415000Y-92130000D01*
G75*
G02*
X124515000Y-92230000I0J-100000D01*
G01*
X124515000Y-92430000D01*
G75*
G02*
X124415000Y-92530000I-100000J0D01*
G01*
X122915000Y-92530000D01*
G75*
G02*
X122815000Y-92430000I0J100000D01*
G01*
X122815000Y-92230000D01*
G75*
G02*
X122915000Y-92130000I100000J0D01*
G01*
G37*
G36*
G01*
X122915000Y-91630000D02*
X124415000Y-91630000D01*
G75*
G02*
X124515000Y-91730000I0J-100000D01*
G01*
X124515000Y-91930000D01*
G75*
G02*
X124415000Y-92030000I-100000J0D01*
G01*
X122915000Y-92030000D01*
G75*
G02*
X122815000Y-91930000I0J100000D01*
G01*
X122815000Y-91730000D01*
G75*
G02*
X122915000Y-91630000I100000J0D01*
G01*
G37*
G36*
G01*
X122915000Y-91130000D02*
X124415000Y-91130000D01*
G75*
G02*
X124515000Y-91230000I0J-100000D01*
G01*
X124515000Y-91430000D01*
G75*
G02*
X124415000Y-91530000I-100000J0D01*
G01*
X122915000Y-91530000D01*
G75*
G02*
X122815000Y-91430000I0J100000D01*
G01*
X122815000Y-91230000D01*
G75*
G02*
X122915000Y-91130000I100000J0D01*
G01*
G37*
G36*
G01*
X122915000Y-90630000D02*
X124415000Y-90630000D01*
G75*
G02*
X124515000Y-90730000I0J-100000D01*
G01*
X124515000Y-90930000D01*
G75*
G02*
X124415000Y-91030000I-100000J0D01*
G01*
X122915000Y-91030000D01*
G75*
G02*
X122815000Y-90930000I0J100000D01*
G01*
X122815000Y-90730000D01*
G75*
G02*
X122915000Y-90630000I100000J0D01*
G01*
G37*
G36*
G01*
X122915000Y-90130000D02*
X124415000Y-90130000D01*
G75*
G02*
X124515000Y-90230000I0J-100000D01*
G01*
X124515000Y-90430000D01*
G75*
G02*
X124415000Y-90530000I-100000J0D01*
G01*
X122915000Y-90530000D01*
G75*
G02*
X122815000Y-90430000I0J100000D01*
G01*
X122815000Y-90230000D01*
G75*
G02*
X122915000Y-90130000I100000J0D01*
G01*
G37*
G36*
G01*
X122915000Y-89630000D02*
X124415000Y-89630000D01*
G75*
G02*
X124515000Y-89730000I0J-100000D01*
G01*
X124515000Y-89930000D01*
G75*
G02*
X124415000Y-90030000I-100000J0D01*
G01*
X122915000Y-90030000D01*
G75*
G02*
X122815000Y-89930000I0J100000D01*
G01*
X122815000Y-89730000D01*
G75*
G02*
X122915000Y-89630000I100000J0D01*
G01*
G37*
G36*
G01*
X122915000Y-89130000D02*
X124415000Y-89130000D01*
G75*
G02*
X124515000Y-89230000I0J-100000D01*
G01*
X124515000Y-89430000D01*
G75*
G02*
X124415000Y-89530000I-100000J0D01*
G01*
X122915000Y-89530000D01*
G75*
G02*
X122815000Y-89430000I0J100000D01*
G01*
X122815000Y-89230000D01*
G75*
G02*
X122915000Y-89130000I100000J0D01*
G01*
G37*
G36*
G01*
X122915000Y-88630000D02*
X124415000Y-88630000D01*
G75*
G02*
X124515000Y-88730000I0J-100000D01*
G01*
X124515000Y-88930000D01*
G75*
G02*
X124415000Y-89030000I-100000J0D01*
G01*
X122915000Y-89030000D01*
G75*
G02*
X122815000Y-88930000I0J100000D01*
G01*
X122815000Y-88730000D01*
G75*
G02*
X122915000Y-88630000I100000J0D01*
G01*
G37*
G36*
G01*
X122915000Y-88130000D02*
X124415000Y-88130000D01*
G75*
G02*
X124515000Y-88230000I0J-100000D01*
G01*
X124515000Y-88430000D01*
G75*
G02*
X124415000Y-88530000I-100000J0D01*
G01*
X122915000Y-88530000D01*
G75*
G02*
X122815000Y-88430000I0J100000D01*
G01*
X122815000Y-88230000D01*
G75*
G02*
X122915000Y-88130000I100000J0D01*
G01*
G37*
G36*
G01*
X122915000Y-87630000D02*
X124415000Y-87630000D01*
G75*
G02*
X124515000Y-87730000I0J-100000D01*
G01*
X124515000Y-87930000D01*
G75*
G02*
X124415000Y-88030000I-100000J0D01*
G01*
X122915000Y-88030000D01*
G75*
G02*
X122815000Y-87930000I0J100000D01*
G01*
X122815000Y-87730000D01*
G75*
G02*
X122915000Y-87630000I100000J0D01*
G01*
G37*
G36*
G01*
X122915000Y-87130000D02*
X124415000Y-87130000D01*
G75*
G02*
X124515000Y-87230000I0J-100000D01*
G01*
X124515000Y-87430000D01*
G75*
G02*
X124415000Y-87530000I-100000J0D01*
G01*
X122915000Y-87530000D01*
G75*
G02*
X122815000Y-87430000I0J100000D01*
G01*
X122815000Y-87230000D01*
G75*
G02*
X122915000Y-87130000I100000J0D01*
G01*
G37*
G36*
G01*
X122915000Y-86630000D02*
X124415000Y-86630000D01*
G75*
G02*
X124515000Y-86730000I0J-100000D01*
G01*
X124515000Y-86930000D01*
G75*
G02*
X124415000Y-87030000I-100000J0D01*
G01*
X122915000Y-87030000D01*
G75*
G02*
X122815000Y-86930000I0J100000D01*
G01*
X122815000Y-86730000D01*
G75*
G02*
X122915000Y-86630000I100000J0D01*
G01*
G37*
G36*
G01*
X122915000Y-86130000D02*
X124415000Y-86130000D01*
G75*
G02*
X124515000Y-86230000I0J-100000D01*
G01*
X124515000Y-86430000D01*
G75*
G02*
X124415000Y-86530000I-100000J0D01*
G01*
X122915000Y-86530000D01*
G75*
G02*
X122815000Y-86430000I0J100000D01*
G01*
X122815000Y-86230000D01*
G75*
G02*
X122915000Y-86130000I100000J0D01*
G01*
G37*
G36*
G01*
X121890000Y-83805000D02*
X122090000Y-83805000D01*
G75*
G02*
X122190000Y-83905000I0J-100000D01*
G01*
X122190000Y-85405000D01*
G75*
G02*
X122090000Y-85505000I-100000J0D01*
G01*
X121890000Y-85505000D01*
G75*
G02*
X121790000Y-85405000I0J100000D01*
G01*
X121790000Y-83905000D01*
G75*
G02*
X121890000Y-83805000I100000J0D01*
G01*
G37*
G36*
G01*
X121390000Y-83805000D02*
X121590000Y-83805000D01*
G75*
G02*
X121690000Y-83905000I0J-100000D01*
G01*
X121690000Y-85405000D01*
G75*
G02*
X121590000Y-85505000I-100000J0D01*
G01*
X121390000Y-85505000D01*
G75*
G02*
X121290000Y-85405000I0J100000D01*
G01*
X121290000Y-83905000D01*
G75*
G02*
X121390000Y-83805000I100000J0D01*
G01*
G37*
G36*
G01*
X120890000Y-83805000D02*
X121090000Y-83805000D01*
G75*
G02*
X121190000Y-83905000I0J-100000D01*
G01*
X121190000Y-85405000D01*
G75*
G02*
X121090000Y-85505000I-100000J0D01*
G01*
X120890000Y-85505000D01*
G75*
G02*
X120790000Y-85405000I0J100000D01*
G01*
X120790000Y-83905000D01*
G75*
G02*
X120890000Y-83805000I100000J0D01*
G01*
G37*
G36*
G01*
X120390000Y-83805000D02*
X120590000Y-83805000D01*
G75*
G02*
X120690000Y-83905000I0J-100000D01*
G01*
X120690000Y-85405000D01*
G75*
G02*
X120590000Y-85505000I-100000J0D01*
G01*
X120390000Y-85505000D01*
G75*
G02*
X120290000Y-85405000I0J100000D01*
G01*
X120290000Y-83905000D01*
G75*
G02*
X120390000Y-83805000I100000J0D01*
G01*
G37*
G36*
G01*
X119890000Y-83805000D02*
X120090000Y-83805000D01*
G75*
G02*
X120190000Y-83905000I0J-100000D01*
G01*
X120190000Y-85405000D01*
G75*
G02*
X120090000Y-85505000I-100000J0D01*
G01*
X119890000Y-85505000D01*
G75*
G02*
X119790000Y-85405000I0J100000D01*
G01*
X119790000Y-83905000D01*
G75*
G02*
X119890000Y-83805000I100000J0D01*
G01*
G37*
G36*
G01*
X119390000Y-83805000D02*
X119590000Y-83805000D01*
G75*
G02*
X119690000Y-83905000I0J-100000D01*
G01*
X119690000Y-85405000D01*
G75*
G02*
X119590000Y-85505000I-100000J0D01*
G01*
X119390000Y-85505000D01*
G75*
G02*
X119290000Y-85405000I0J100000D01*
G01*
X119290000Y-83905000D01*
G75*
G02*
X119390000Y-83805000I100000J0D01*
G01*
G37*
G36*
G01*
X118890000Y-83805000D02*
X119090000Y-83805000D01*
G75*
G02*
X119190000Y-83905000I0J-100000D01*
G01*
X119190000Y-85405000D01*
G75*
G02*
X119090000Y-85505000I-100000J0D01*
G01*
X118890000Y-85505000D01*
G75*
G02*
X118790000Y-85405000I0J100000D01*
G01*
X118790000Y-83905000D01*
G75*
G02*
X118890000Y-83805000I100000J0D01*
G01*
G37*
G36*
G01*
X118390000Y-83805000D02*
X118590000Y-83805000D01*
G75*
G02*
X118690000Y-83905000I0J-100000D01*
G01*
X118690000Y-85405000D01*
G75*
G02*
X118590000Y-85505000I-100000J0D01*
G01*
X118390000Y-85505000D01*
G75*
G02*
X118290000Y-85405000I0J100000D01*
G01*
X118290000Y-83905000D01*
G75*
G02*
X118390000Y-83805000I100000J0D01*
G01*
G37*
G36*
G01*
X117890000Y-83805000D02*
X118090000Y-83805000D01*
G75*
G02*
X118190000Y-83905000I0J-100000D01*
G01*
X118190000Y-85405000D01*
G75*
G02*
X118090000Y-85505000I-100000J0D01*
G01*
X117890000Y-85505000D01*
G75*
G02*
X117790000Y-85405000I0J100000D01*
G01*
X117790000Y-83905000D01*
G75*
G02*
X117890000Y-83805000I100000J0D01*
G01*
G37*
G36*
G01*
X117390000Y-83805000D02*
X117590000Y-83805000D01*
G75*
G02*
X117690000Y-83905000I0J-100000D01*
G01*
X117690000Y-85405000D01*
G75*
G02*
X117590000Y-85505000I-100000J0D01*
G01*
X117390000Y-85505000D01*
G75*
G02*
X117290000Y-85405000I0J100000D01*
G01*
X117290000Y-83905000D01*
G75*
G02*
X117390000Y-83805000I100000J0D01*
G01*
G37*
G36*
G01*
X116890000Y-83805000D02*
X117090000Y-83805000D01*
G75*
G02*
X117190000Y-83905000I0J-100000D01*
G01*
X117190000Y-85405000D01*
G75*
G02*
X117090000Y-85505000I-100000J0D01*
G01*
X116890000Y-85505000D01*
G75*
G02*
X116790000Y-85405000I0J100000D01*
G01*
X116790000Y-83905000D01*
G75*
G02*
X116890000Y-83805000I100000J0D01*
G01*
G37*
G36*
G01*
X116390000Y-83805000D02*
X116590000Y-83805000D01*
G75*
G02*
X116690000Y-83905000I0J-100000D01*
G01*
X116690000Y-85405000D01*
G75*
G02*
X116590000Y-85505000I-100000J0D01*
G01*
X116390000Y-85505000D01*
G75*
G02*
X116290000Y-85405000I0J100000D01*
G01*
X116290000Y-83905000D01*
G75*
G02*
X116390000Y-83805000I100000J0D01*
G01*
G37*
G36*
G01*
X115890000Y-83805000D02*
X116090000Y-83805000D01*
G75*
G02*
X116190000Y-83905000I0J-100000D01*
G01*
X116190000Y-85405000D01*
G75*
G02*
X116090000Y-85505000I-100000J0D01*
G01*
X115890000Y-85505000D01*
G75*
G02*
X115790000Y-85405000I0J100000D01*
G01*
X115790000Y-83905000D01*
G75*
G02*
X115890000Y-83805000I100000J0D01*
G01*
G37*
G36*
G01*
X115390000Y-83805000D02*
X115590000Y-83805000D01*
G75*
G02*
X115690000Y-83905000I0J-100000D01*
G01*
X115690000Y-85405000D01*
G75*
G02*
X115590000Y-85505000I-100000J0D01*
G01*
X115390000Y-85505000D01*
G75*
G02*
X115290000Y-85405000I0J100000D01*
G01*
X115290000Y-83905000D01*
G75*
G02*
X115390000Y-83805000I100000J0D01*
G01*
G37*
G36*
G01*
X114890000Y-83805000D02*
X115090000Y-83805000D01*
G75*
G02*
X115190000Y-83905000I0J-100000D01*
G01*
X115190000Y-85405000D01*
G75*
G02*
X115090000Y-85505000I-100000J0D01*
G01*
X114890000Y-85505000D01*
G75*
G02*
X114790000Y-85405000I0J100000D01*
G01*
X114790000Y-83905000D01*
G75*
G02*
X114890000Y-83805000I100000J0D01*
G01*
G37*
G36*
G01*
X114390000Y-83805000D02*
X114590000Y-83805000D01*
G75*
G02*
X114690000Y-83905000I0J-100000D01*
G01*
X114690000Y-85405000D01*
G75*
G02*
X114590000Y-85505000I-100000J0D01*
G01*
X114390000Y-85505000D01*
G75*
G02*
X114290000Y-85405000I0J100000D01*
G01*
X114290000Y-83905000D01*
G75*
G02*
X114390000Y-83805000I100000J0D01*
G01*
G37*
G36*
G01*
X113890000Y-83805000D02*
X114090000Y-83805000D01*
G75*
G02*
X114190000Y-83905000I0J-100000D01*
G01*
X114190000Y-85405000D01*
G75*
G02*
X114090000Y-85505000I-100000J0D01*
G01*
X113890000Y-85505000D01*
G75*
G02*
X113790000Y-85405000I0J100000D01*
G01*
X113790000Y-83905000D01*
G75*
G02*
X113890000Y-83805000I100000J0D01*
G01*
G37*
G36*
G01*
X113390000Y-83805000D02*
X113590000Y-83805000D01*
G75*
G02*
X113690000Y-83905000I0J-100000D01*
G01*
X113690000Y-85405000D01*
G75*
G02*
X113590000Y-85505000I-100000J0D01*
G01*
X113390000Y-85505000D01*
G75*
G02*
X113290000Y-85405000I0J100000D01*
G01*
X113290000Y-83905000D01*
G75*
G02*
X113390000Y-83805000I100000J0D01*
G01*
G37*
G36*
G01*
X112890000Y-83805000D02*
X113090000Y-83805000D01*
G75*
G02*
X113190000Y-83905000I0J-100000D01*
G01*
X113190000Y-85405000D01*
G75*
G02*
X113090000Y-85505000I-100000J0D01*
G01*
X112890000Y-85505000D01*
G75*
G02*
X112790000Y-85405000I0J100000D01*
G01*
X112790000Y-83905000D01*
G75*
G02*
X112890000Y-83805000I100000J0D01*
G01*
G37*
G36*
G01*
X112390000Y-83805000D02*
X112590000Y-83805000D01*
G75*
G02*
X112690000Y-83905000I0J-100000D01*
G01*
X112690000Y-85405000D01*
G75*
G02*
X112590000Y-85505000I-100000J0D01*
G01*
X112390000Y-85505000D01*
G75*
G02*
X112290000Y-85405000I0J100000D01*
G01*
X112290000Y-83905000D01*
G75*
G02*
X112390000Y-83805000I100000J0D01*
G01*
G37*
G36*
G01*
X111890000Y-83805000D02*
X112090000Y-83805000D01*
G75*
G02*
X112190000Y-83905000I0J-100000D01*
G01*
X112190000Y-85405000D01*
G75*
G02*
X112090000Y-85505000I-100000J0D01*
G01*
X111890000Y-85505000D01*
G75*
G02*
X111790000Y-85405000I0J100000D01*
G01*
X111790000Y-83905000D01*
G75*
G02*
X111890000Y-83805000I100000J0D01*
G01*
G37*
G36*
G01*
X111390000Y-83805000D02*
X111590000Y-83805000D01*
G75*
G02*
X111690000Y-83905000I0J-100000D01*
G01*
X111690000Y-85405000D01*
G75*
G02*
X111590000Y-85505000I-100000J0D01*
G01*
X111390000Y-85505000D01*
G75*
G02*
X111290000Y-85405000I0J100000D01*
G01*
X111290000Y-83905000D01*
G75*
G02*
X111390000Y-83805000I100000J0D01*
G01*
G37*
G36*
G01*
X110890000Y-83805000D02*
X111090000Y-83805000D01*
G75*
G02*
X111190000Y-83905000I0J-100000D01*
G01*
X111190000Y-85405000D01*
G75*
G02*
X111090000Y-85505000I-100000J0D01*
G01*
X110890000Y-85505000D01*
G75*
G02*
X110790000Y-85405000I0J100000D01*
G01*
X110790000Y-83905000D01*
G75*
G02*
X110890000Y-83805000I100000J0D01*
G01*
G37*
G36*
G01*
X110390000Y-83805000D02*
X110590000Y-83805000D01*
G75*
G02*
X110690000Y-83905000I0J-100000D01*
G01*
X110690000Y-85405000D01*
G75*
G02*
X110590000Y-85505000I-100000J0D01*
G01*
X110390000Y-85505000D01*
G75*
G02*
X110290000Y-85405000I0J100000D01*
G01*
X110290000Y-83905000D01*
G75*
G02*
X110390000Y-83805000I100000J0D01*
G01*
G37*
G36*
G01*
X109890000Y-83805000D02*
X110090000Y-83805000D01*
G75*
G02*
X110190000Y-83905000I0J-100000D01*
G01*
X110190000Y-85405000D01*
G75*
G02*
X110090000Y-85505000I-100000J0D01*
G01*
X109890000Y-85505000D01*
G75*
G02*
X109790000Y-85405000I0J100000D01*
G01*
X109790000Y-83905000D01*
G75*
G02*
X109890000Y-83805000I100000J0D01*
G01*
G37*
G36*
G01*
X106157500Y-99405000D02*
X106682500Y-99405000D01*
G75*
G02*
X106945000Y-99667500I0J-262500D01*
G01*
X106945000Y-100292500D01*
G75*
G02*
X106682500Y-100555000I-262500J0D01*
G01*
X106157500Y-100555000D01*
G75*
G02*
X105895000Y-100292500I0J262500D01*
G01*
X105895000Y-99667500D01*
G75*
G02*
X106157500Y-99405000I262500J0D01*
G01*
G37*
G36*
G01*
X106157500Y-97655000D02*
X106682500Y-97655000D01*
G75*
G02*
X106945000Y-97917500I0J-262500D01*
G01*
X106945000Y-98542500D01*
G75*
G02*
X106682500Y-98805000I-262500J0D01*
G01*
X106157500Y-98805000D01*
G75*
G02*
X105895000Y-98542500I0J262500D01*
G01*
X105895000Y-97917500D01*
G75*
G02*
X106157500Y-97655000I262500J0D01*
G01*
G37*
G36*
G01*
X104627500Y-99565000D02*
X105152500Y-99565000D01*
G75*
G02*
X105415000Y-99827500I0J-262500D01*
G01*
X105415000Y-100452500D01*
G75*
G02*
X105152500Y-100715000I-262500J0D01*
G01*
X104627500Y-100715000D01*
G75*
G02*
X104365000Y-100452500I0J262500D01*
G01*
X104365000Y-99827500D01*
G75*
G02*
X104627500Y-99565000I262500J0D01*
G01*
G37*
G36*
G01*
X104627500Y-97815000D02*
X105152500Y-97815000D01*
G75*
G02*
X105415000Y-98077500I0J-262500D01*
G01*
X105415000Y-98702500D01*
G75*
G02*
X105152500Y-98965000I-262500J0D01*
G01*
X104627500Y-98965000D01*
G75*
G02*
X104365000Y-98702500I0J262500D01*
G01*
X104365000Y-98077500D01*
G75*
G02*
X104627500Y-97815000I262500J0D01*
G01*
G37*
G36*
G01*
X92577500Y-98845000D02*
X93102500Y-98845000D01*
G75*
G02*
X93365000Y-99107500I0J-262500D01*
G01*
X93365000Y-99732500D01*
G75*
G02*
X93102500Y-99995000I-262500J0D01*
G01*
X92577500Y-99995000D01*
G75*
G02*
X92315000Y-99732500I0J262500D01*
G01*
X92315000Y-99107500D01*
G75*
G02*
X92577500Y-98845000I262500J0D01*
G01*
G37*
G36*
G01*
X92577500Y-97095000D02*
X93102500Y-97095000D01*
G75*
G02*
X93365000Y-97357500I0J-262500D01*
G01*
X93365000Y-97982500D01*
G75*
G02*
X93102500Y-98245000I-262500J0D01*
G01*
X92577500Y-98245000D01*
G75*
G02*
X92315000Y-97982500I0J262500D01*
G01*
X92315000Y-97357500D01*
G75*
G02*
X92577500Y-97095000I262500J0D01*
G01*
G37*
G36*
G01*
X91542500Y-98245000D02*
X91017500Y-98245000D01*
G75*
G02*
X90755000Y-97982500I0J262500D01*
G01*
X90755000Y-97357500D01*
G75*
G02*
X91017500Y-97095000I262500J0D01*
G01*
X91542500Y-97095000D01*
G75*
G02*
X91805000Y-97357500I0J-262500D01*
G01*
X91805000Y-97982500D01*
G75*
G02*
X91542500Y-98245000I-262500J0D01*
G01*
G37*
G36*
G01*
X91542500Y-99995000D02*
X91017500Y-99995000D01*
G75*
G02*
X90755000Y-99732500I0J262500D01*
G01*
X90755000Y-99107500D01*
G75*
G02*
X91017500Y-98845000I262500J0D01*
G01*
X91542500Y-98845000D01*
G75*
G02*
X91805000Y-99107500I0J-262500D01*
G01*
X91805000Y-99732500D01*
G75*
G02*
X91542500Y-99995000I-262500J0D01*
G01*
G37*
D24*
X84840000Y-98530000D03*
D25*
X86092000Y-97630000D03*
X86914000Y-97630000D03*
X86914000Y-98530000D03*
X86914000Y-99430000D03*
X86092000Y-99430000D03*
D26*
X135460000Y-94500000D03*
X135460000Y-90000000D03*
D27*
X135460000Y-97950000D03*
X135460000Y-86550000D03*
D28*
X100580000Y-90970000D03*
X100580000Y-92770000D03*
G36*
G01*
X103102500Y-84675000D02*
X102577500Y-84675000D01*
G75*
G02*
X102315000Y-84412500I0J262500D01*
G01*
X102315000Y-83787500D01*
G75*
G02*
X102577500Y-83525000I262500J0D01*
G01*
X103102500Y-83525000D01*
G75*
G02*
X103365000Y-83787500I0J-262500D01*
G01*
X103365000Y-84412500D01*
G75*
G02*
X103102500Y-84675000I-262500J0D01*
G01*
G37*
G36*
G01*
X103102500Y-86425000D02*
X102577500Y-86425000D01*
G75*
G02*
X102315000Y-86162500I0J262500D01*
G01*
X102315000Y-85537500D01*
G75*
G02*
X102577500Y-85275000I262500J0D01*
G01*
X103102500Y-85275000D01*
G75*
G02*
X103365000Y-85537500I0J-262500D01*
G01*
X103365000Y-86162500D01*
G75*
G02*
X103102500Y-86425000I-262500J0D01*
G01*
G37*
G36*
G01*
X99755000Y-94167500D02*
X99755000Y-94692500D01*
G75*
G02*
X99492500Y-94955000I-262500J0D01*
G01*
X98867500Y-94955000D01*
G75*
G02*
X98605000Y-94692500I0J262500D01*
G01*
X98605000Y-94167500D01*
G75*
G02*
X98867500Y-93905000I262500J0D01*
G01*
X99492500Y-93905000D01*
G75*
G02*
X99755000Y-94167500I0J-262500D01*
G01*
G37*
G36*
G01*
X101505000Y-94167500D02*
X101505000Y-94692500D01*
G75*
G02*
X101242500Y-94955000I-262500J0D01*
G01*
X100617500Y-94955000D01*
G75*
G02*
X100355000Y-94692500I0J262500D01*
G01*
X100355000Y-94167500D01*
G75*
G02*
X100617500Y-93905000I262500J0D01*
G01*
X101242500Y-93905000D01*
G75*
G02*
X101505000Y-94167500I0J-262500D01*
G01*
G37*
G36*
G01*
X103542500Y-98845000D02*
X103017500Y-98845000D01*
G75*
G02*
X102755000Y-98582500I0J262500D01*
G01*
X102755000Y-97957500D01*
G75*
G02*
X103017500Y-97695000I262500J0D01*
G01*
X103542500Y-97695000D01*
G75*
G02*
X103805000Y-97957500I0J-262500D01*
G01*
X103805000Y-98582500D01*
G75*
G02*
X103542500Y-98845000I-262500J0D01*
G01*
G37*
G36*
G01*
X103542500Y-100595000D02*
X103017500Y-100595000D01*
G75*
G02*
X102755000Y-100332500I0J262500D01*
G01*
X102755000Y-99707500D01*
G75*
G02*
X103017500Y-99445000I262500J0D01*
G01*
X103542500Y-99445000D01*
G75*
G02*
X103805000Y-99707500I0J-262500D01*
G01*
X103805000Y-100332500D01*
G75*
G02*
X103542500Y-100595000I-262500J0D01*
G01*
G37*
G36*
G01*
X100882500Y-84655000D02*
X100357500Y-84655000D01*
G75*
G02*
X100095000Y-84392500I0J262500D01*
G01*
X100095000Y-83767500D01*
G75*
G02*
X100357500Y-83505000I262500J0D01*
G01*
X100882500Y-83505000D01*
G75*
G02*
X101145000Y-83767500I0J-262500D01*
G01*
X101145000Y-84392500D01*
G75*
G02*
X100882500Y-84655000I-262500J0D01*
G01*
G37*
G36*
G01*
X100882500Y-86405000D02*
X100357500Y-86405000D01*
G75*
G02*
X100095000Y-86142500I0J262500D01*
G01*
X100095000Y-85517500D01*
G75*
G02*
X100357500Y-85255000I262500J0D01*
G01*
X100882500Y-85255000D01*
G75*
G02*
X101145000Y-85517500I0J-262500D01*
G01*
X101145000Y-86142500D01*
G75*
G02*
X100882500Y-86405000I-262500J0D01*
G01*
G37*
M02*
