G04 #@! TF.GenerationSoftware,KiCad,Pcbnew,(5.1.6)-1*
G04 #@! TF.CreationDate,2021-02-18T21:14:00+09:00*
G04 #@! TF.ProjectId,guardianCam_Wifi,67756172-6469-4616-9e43-616d5f576966,rev?*
G04 #@! TF.SameCoordinates,Original*
G04 #@! TF.FileFunction,Soldermask,Top*
G04 #@! TF.FilePolarity,Negative*
%FSLAX46Y46*%
G04 Gerber Fmt 4.6, Leading zero omitted, Abs format (unit mm)*
G04 Created by KiCad (PCBNEW (5.1.6)-1) date 2021-02-18 21:14:00*
%MOMM*%
%LPD*%
G01*
G04 APERTURE LIST*
%ADD10R,1.600000X1.600000*%
%ADD11C,1.100000*%
%ADD12R,1.100000X1.100000*%
%ADD13R,1.500000X1.150000*%
%ADD14R,0.912800X0.354000*%
%ADD15R,1.070000X1.100000*%
%ADD16R,0.500000X0.960000*%
%ADD17R,2.470000X1.730000*%
%ADD18C,0.600000*%
%ADD19R,2.300000X1.900000*%
%ADD20R,1.400000X0.400000*%
%ADD21R,2.100000X1.300000*%
%ADD22C,1.200000*%
%ADD23O,3.300000X1.700000*%
G04 APERTURE END LIST*
G36*
G01*
X84705000Y-88682500D02*
X84705000Y-89077500D01*
G75*
G02*
X84532500Y-89250000I-172500J0D01*
G01*
X84187500Y-89250000D01*
G75*
G02*
X84015000Y-89077500I0J172500D01*
G01*
X84015000Y-88682500D01*
G75*
G02*
X84187500Y-88510000I172500J0D01*
G01*
X84532500Y-88510000D01*
G75*
G02*
X84705000Y-88682500I0J-172500D01*
G01*
G37*
G36*
G01*
X85675000Y-88682500D02*
X85675000Y-89077500D01*
G75*
G02*
X85502500Y-89250000I-172500J0D01*
G01*
X85157500Y-89250000D01*
G75*
G02*
X84985000Y-89077500I0J172500D01*
G01*
X84985000Y-88682500D01*
G75*
G02*
X85157500Y-88510000I172500J0D01*
G01*
X85502500Y-88510000D01*
G75*
G02*
X85675000Y-88682500I0J-172500D01*
G01*
G37*
G36*
G01*
X84975000Y-88007500D02*
X84975000Y-87612500D01*
G75*
G02*
X85147500Y-87440000I172500J0D01*
G01*
X85492500Y-87440000D01*
G75*
G02*
X85665000Y-87612500I0J-172500D01*
G01*
X85665000Y-88007500D01*
G75*
G02*
X85492500Y-88180000I-172500J0D01*
G01*
X85147500Y-88180000D01*
G75*
G02*
X84975000Y-88007500I0J172500D01*
G01*
G37*
G36*
G01*
X84005000Y-88007500D02*
X84005000Y-87612500D01*
G75*
G02*
X84177500Y-87440000I172500J0D01*
G01*
X84522500Y-87440000D01*
G75*
G02*
X84695000Y-87612500I0J-172500D01*
G01*
X84695000Y-88007500D01*
G75*
G02*
X84522500Y-88180000I-172500J0D01*
G01*
X84177500Y-88180000D01*
G75*
G02*
X84005000Y-88007500I0J172500D01*
G01*
G37*
D10*
X118940000Y-99840000D03*
G36*
G01*
X84775000Y-85942500D02*
X84775000Y-86337500D01*
G75*
G02*
X84602500Y-86510000I-172500J0D01*
G01*
X84257500Y-86510000D01*
G75*
G02*
X84085000Y-86337500I0J172500D01*
G01*
X84085000Y-85942500D01*
G75*
G02*
X84257500Y-85770000I172500J0D01*
G01*
X84602500Y-85770000D01*
G75*
G02*
X84775000Y-85942500I0J-172500D01*
G01*
G37*
G36*
G01*
X85745000Y-85942500D02*
X85745000Y-86337500D01*
G75*
G02*
X85572500Y-86510000I-172500J0D01*
G01*
X85227500Y-86510000D01*
G75*
G02*
X85055000Y-86337500I0J172500D01*
G01*
X85055000Y-85942500D01*
G75*
G02*
X85227500Y-85770000I172500J0D01*
G01*
X85572500Y-85770000D01*
G75*
G02*
X85745000Y-85942500I0J-172500D01*
G01*
G37*
G36*
G01*
X131850000Y-85027500D02*
X131850000Y-84632500D01*
G75*
G02*
X132022500Y-84460000I172500J0D01*
G01*
X132367500Y-84460000D01*
G75*
G02*
X132540000Y-84632500I0J-172500D01*
G01*
X132540000Y-85027500D01*
G75*
G02*
X132367500Y-85200000I-172500J0D01*
G01*
X132022500Y-85200000D01*
G75*
G02*
X131850000Y-85027500I0J172500D01*
G01*
G37*
G36*
G01*
X130880000Y-85027500D02*
X130880000Y-84632500D01*
G75*
G02*
X131052500Y-84460000I172500J0D01*
G01*
X131397500Y-84460000D01*
G75*
G02*
X131570000Y-84632500I0J-172500D01*
G01*
X131570000Y-85027500D01*
G75*
G02*
X131397500Y-85200000I-172500J0D01*
G01*
X131052500Y-85200000D01*
G75*
G02*
X130880000Y-85027500I0J172500D01*
G01*
G37*
G36*
G01*
X85065000Y-84917500D02*
X85065000Y-84522500D01*
G75*
G02*
X85237500Y-84350000I172500J0D01*
G01*
X85582500Y-84350000D01*
G75*
G02*
X85755000Y-84522500I0J-172500D01*
G01*
X85755000Y-84917500D01*
G75*
G02*
X85582500Y-85090000I-172500J0D01*
G01*
X85237500Y-85090000D01*
G75*
G02*
X85065000Y-84917500I0J172500D01*
G01*
G37*
G36*
G01*
X84095000Y-84917500D02*
X84095000Y-84522500D01*
G75*
G02*
X84267500Y-84350000I172500J0D01*
G01*
X84612500Y-84350000D01*
G75*
G02*
X84785000Y-84522500I0J-172500D01*
G01*
X84785000Y-84917500D01*
G75*
G02*
X84612500Y-85090000I-172500J0D01*
G01*
X84267500Y-85090000D01*
G75*
G02*
X84095000Y-84917500I0J172500D01*
G01*
G37*
D11*
X127950000Y-88770000D03*
D12*
X125930000Y-88740000D03*
G36*
G01*
X131585000Y-83622500D02*
X131585000Y-84017500D01*
G75*
G02*
X131412500Y-84190000I-172500J0D01*
G01*
X131067500Y-84190000D01*
G75*
G02*
X130895000Y-84017500I0J172500D01*
G01*
X130895000Y-83622500D01*
G75*
G02*
X131067500Y-83450000I172500J0D01*
G01*
X131412500Y-83450000D01*
G75*
G02*
X131585000Y-83622500I0J-172500D01*
G01*
G37*
G36*
G01*
X132555000Y-83622500D02*
X132555000Y-84017500D01*
G75*
G02*
X132382500Y-84190000I-172500J0D01*
G01*
X132037500Y-84190000D01*
G75*
G02*
X131865000Y-84017500I0J172500D01*
G01*
X131865000Y-83622500D01*
G75*
G02*
X132037500Y-83450000I172500J0D01*
G01*
X132382500Y-83450000D01*
G75*
G02*
X132555000Y-83622500I0J-172500D01*
G01*
G37*
G36*
G01*
X123760000Y-90852500D02*
X123760000Y-91247500D01*
G75*
G02*
X123587500Y-91420000I-172500J0D01*
G01*
X123242500Y-91420000D01*
G75*
G02*
X123070000Y-91247500I0J172500D01*
G01*
X123070000Y-90852500D01*
G75*
G02*
X123242500Y-90680000I172500J0D01*
G01*
X123587500Y-90680000D01*
G75*
G02*
X123760000Y-90852500I0J-172500D01*
G01*
G37*
G36*
G01*
X124730000Y-90852500D02*
X124730000Y-91247500D01*
G75*
G02*
X124557500Y-91420000I-172500J0D01*
G01*
X124212500Y-91420000D01*
G75*
G02*
X124040000Y-91247500I0J172500D01*
G01*
X124040000Y-90852500D01*
G75*
G02*
X124212500Y-90680000I172500J0D01*
G01*
X124557500Y-90680000D01*
G75*
G02*
X124730000Y-90852500I0J-172500D01*
G01*
G37*
G36*
G01*
X124192500Y-89585000D02*
X124587500Y-89585000D01*
G75*
G02*
X124760000Y-89757500I0J-172500D01*
G01*
X124760000Y-90102500D01*
G75*
G02*
X124587500Y-90275000I-172500J0D01*
G01*
X124192500Y-90275000D01*
G75*
G02*
X124020000Y-90102500I0J172500D01*
G01*
X124020000Y-89757500D01*
G75*
G02*
X124192500Y-89585000I172500J0D01*
G01*
G37*
G36*
G01*
X124192500Y-88615000D02*
X124587500Y-88615000D01*
G75*
G02*
X124760000Y-88787500I0J-172500D01*
G01*
X124760000Y-89132500D01*
G75*
G02*
X124587500Y-89305000I-172500J0D01*
G01*
X124192500Y-89305000D01*
G75*
G02*
X124020000Y-89132500I0J172500D01*
G01*
X124020000Y-88787500D01*
G75*
G02*
X124192500Y-88615000I172500J0D01*
G01*
G37*
G36*
G01*
X117355000Y-88562500D02*
X117355000Y-88957500D01*
G75*
G02*
X117182500Y-89130000I-172500J0D01*
G01*
X116837500Y-89130000D01*
G75*
G02*
X116665000Y-88957500I0J172500D01*
G01*
X116665000Y-88562500D01*
G75*
G02*
X116837500Y-88390000I172500J0D01*
G01*
X117182500Y-88390000D01*
G75*
G02*
X117355000Y-88562500I0J-172500D01*
G01*
G37*
G36*
G01*
X118325000Y-88562500D02*
X118325000Y-88957500D01*
G75*
G02*
X118152500Y-89130000I-172500J0D01*
G01*
X117807500Y-89130000D01*
G75*
G02*
X117635000Y-88957500I0J172500D01*
G01*
X117635000Y-88562500D01*
G75*
G02*
X117807500Y-88390000I172500J0D01*
G01*
X118152500Y-88390000D01*
G75*
G02*
X118325000Y-88562500I0J-172500D01*
G01*
G37*
G36*
G01*
X117355000Y-87592500D02*
X117355000Y-87987500D01*
G75*
G02*
X117182500Y-88160000I-172500J0D01*
G01*
X116837500Y-88160000D01*
G75*
G02*
X116665000Y-87987500I0J172500D01*
G01*
X116665000Y-87592500D01*
G75*
G02*
X116837500Y-87420000I172500J0D01*
G01*
X117182500Y-87420000D01*
G75*
G02*
X117355000Y-87592500I0J-172500D01*
G01*
G37*
G36*
G01*
X118325000Y-87592500D02*
X118325000Y-87987500D01*
G75*
G02*
X118152500Y-88160000I-172500J0D01*
G01*
X117807500Y-88160000D01*
G75*
G02*
X117635000Y-87987500I0J172500D01*
G01*
X117635000Y-87592500D01*
G75*
G02*
X117807500Y-87420000I172500J0D01*
G01*
X118152500Y-87420000D01*
G75*
G02*
X118325000Y-87592500I0J-172500D01*
G01*
G37*
G36*
G01*
X119720000Y-88397500D02*
X119720000Y-88002500D01*
G75*
G02*
X119892500Y-87830000I172500J0D01*
G01*
X120237500Y-87830000D01*
G75*
G02*
X120410000Y-88002500I0J-172500D01*
G01*
X120410000Y-88397500D01*
G75*
G02*
X120237500Y-88570000I-172500J0D01*
G01*
X119892500Y-88570000D01*
G75*
G02*
X119720000Y-88397500I0J172500D01*
G01*
G37*
G36*
G01*
X118750000Y-88397500D02*
X118750000Y-88002500D01*
G75*
G02*
X118922500Y-87830000I172500J0D01*
G01*
X119267500Y-87830000D01*
G75*
G02*
X119440000Y-88002500I0J-172500D01*
G01*
X119440000Y-88397500D01*
G75*
G02*
X119267500Y-88570000I-172500J0D01*
G01*
X118922500Y-88570000D01*
G75*
G02*
X118750000Y-88397500I0J172500D01*
G01*
G37*
G36*
G01*
X119720000Y-89497500D02*
X119720000Y-89102500D01*
G75*
G02*
X119892500Y-88930000I172500J0D01*
G01*
X120237500Y-88930000D01*
G75*
G02*
X120410000Y-89102500I0J-172500D01*
G01*
X120410000Y-89497500D01*
G75*
G02*
X120237500Y-89670000I-172500J0D01*
G01*
X119892500Y-89670000D01*
G75*
G02*
X119720000Y-89497500I0J172500D01*
G01*
G37*
G36*
G01*
X118750000Y-89497500D02*
X118750000Y-89102500D01*
G75*
G02*
X118922500Y-88930000I172500J0D01*
G01*
X119267500Y-88930000D01*
G75*
G02*
X119440000Y-89102500I0J-172500D01*
G01*
X119440000Y-89497500D01*
G75*
G02*
X119267500Y-89670000I-172500J0D01*
G01*
X118922500Y-89670000D01*
G75*
G02*
X118750000Y-89497500I0J172500D01*
G01*
G37*
G36*
G01*
X117000000Y-86897500D02*
X117000000Y-86502500D01*
G75*
G02*
X117172500Y-86330000I172500J0D01*
G01*
X117517500Y-86330000D01*
G75*
G02*
X117690000Y-86502500I0J-172500D01*
G01*
X117690000Y-86897500D01*
G75*
G02*
X117517500Y-87070000I-172500J0D01*
G01*
X117172500Y-87070000D01*
G75*
G02*
X117000000Y-86897500I0J172500D01*
G01*
G37*
G36*
G01*
X116030000Y-86897500D02*
X116030000Y-86502500D01*
G75*
G02*
X116202500Y-86330000I172500J0D01*
G01*
X116547500Y-86330000D01*
G75*
G02*
X116720000Y-86502500I0J-172500D01*
G01*
X116720000Y-86897500D01*
G75*
G02*
X116547500Y-87070000I-172500J0D01*
G01*
X116202500Y-87070000D01*
G75*
G02*
X116030000Y-86897500I0J172500D01*
G01*
G37*
G36*
G01*
X108092500Y-99980000D02*
X108487500Y-99980000D01*
G75*
G02*
X108660000Y-100152500I0J-172500D01*
G01*
X108660000Y-100497500D01*
G75*
G02*
X108487500Y-100670000I-172500J0D01*
G01*
X108092500Y-100670000D01*
G75*
G02*
X107920000Y-100497500I0J172500D01*
G01*
X107920000Y-100152500D01*
G75*
G02*
X108092500Y-99980000I172500J0D01*
G01*
G37*
G36*
G01*
X108092500Y-99010000D02*
X108487500Y-99010000D01*
G75*
G02*
X108660000Y-99182500I0J-172500D01*
G01*
X108660000Y-99527500D01*
G75*
G02*
X108487500Y-99700000I-172500J0D01*
G01*
X108092500Y-99700000D01*
G75*
G02*
X107920000Y-99527500I0J172500D01*
G01*
X107920000Y-99182500D01*
G75*
G02*
X108092500Y-99010000I172500J0D01*
G01*
G37*
G36*
G01*
X121612500Y-99630000D02*
X122007500Y-99630000D01*
G75*
G02*
X122180000Y-99802500I0J-172500D01*
G01*
X122180000Y-100147500D01*
G75*
G02*
X122007500Y-100320000I-172500J0D01*
G01*
X121612500Y-100320000D01*
G75*
G02*
X121440000Y-100147500I0J172500D01*
G01*
X121440000Y-99802500D01*
G75*
G02*
X121612500Y-99630000I172500J0D01*
G01*
G37*
G36*
G01*
X121612500Y-98660000D02*
X122007500Y-98660000D01*
G75*
G02*
X122180000Y-98832500I0J-172500D01*
G01*
X122180000Y-99177500D01*
G75*
G02*
X122007500Y-99350000I-172500J0D01*
G01*
X121612500Y-99350000D01*
G75*
G02*
X121440000Y-99177500I0J172500D01*
G01*
X121440000Y-98832500D01*
G75*
G02*
X121612500Y-98660000I172500J0D01*
G01*
G37*
G36*
G01*
X123485000Y-84882500D02*
X123485000Y-85277500D01*
G75*
G02*
X123312500Y-85450000I-172500J0D01*
G01*
X122967500Y-85450000D01*
G75*
G02*
X122795000Y-85277500I0J172500D01*
G01*
X122795000Y-84882500D01*
G75*
G02*
X122967500Y-84710000I172500J0D01*
G01*
X123312500Y-84710000D01*
G75*
G02*
X123485000Y-84882500I0J-172500D01*
G01*
G37*
G36*
G01*
X124455000Y-84882500D02*
X124455000Y-85277500D01*
G75*
G02*
X124282500Y-85450000I-172500J0D01*
G01*
X123937500Y-85450000D01*
G75*
G02*
X123765000Y-85277500I0J172500D01*
G01*
X123765000Y-84882500D01*
G75*
G02*
X123937500Y-84710000I172500J0D01*
G01*
X124282500Y-84710000D01*
G75*
G02*
X124455000Y-84882500I0J-172500D01*
G01*
G37*
G36*
G01*
X113670000Y-86877500D02*
X113670000Y-86482500D01*
G75*
G02*
X113842500Y-86310000I172500J0D01*
G01*
X114187500Y-86310000D01*
G75*
G02*
X114360000Y-86482500I0J-172500D01*
G01*
X114360000Y-86877500D01*
G75*
G02*
X114187500Y-87050000I-172500J0D01*
G01*
X113842500Y-87050000D01*
G75*
G02*
X113670000Y-86877500I0J172500D01*
G01*
G37*
G36*
G01*
X112700000Y-86877500D02*
X112700000Y-86482500D01*
G75*
G02*
X112872500Y-86310000I172500J0D01*
G01*
X113217500Y-86310000D01*
G75*
G02*
X113390000Y-86482500I0J-172500D01*
G01*
X113390000Y-86877500D01*
G75*
G02*
X113217500Y-87050000I-172500J0D01*
G01*
X112872500Y-87050000D01*
G75*
G02*
X112700000Y-86877500I0J172500D01*
G01*
G37*
G36*
G01*
X130052500Y-97965000D02*
X130447500Y-97965000D01*
G75*
G02*
X130620000Y-98137500I0J-172500D01*
G01*
X130620000Y-98482500D01*
G75*
G02*
X130447500Y-98655000I-172500J0D01*
G01*
X130052500Y-98655000D01*
G75*
G02*
X129880000Y-98482500I0J172500D01*
G01*
X129880000Y-98137500D01*
G75*
G02*
X130052500Y-97965000I172500J0D01*
G01*
G37*
G36*
G01*
X130052500Y-96995000D02*
X130447500Y-96995000D01*
G75*
G02*
X130620000Y-97167500I0J-172500D01*
G01*
X130620000Y-97512500D01*
G75*
G02*
X130447500Y-97685000I-172500J0D01*
G01*
X130052500Y-97685000D01*
G75*
G02*
X129880000Y-97512500I0J172500D01*
G01*
X129880000Y-97167500D01*
G75*
G02*
X130052500Y-96995000I172500J0D01*
G01*
G37*
D10*
X116150000Y-99800000D03*
X113520000Y-99780000D03*
X110920000Y-99790000D03*
G36*
G01*
X125235000Y-95362500D02*
X125235000Y-95757500D01*
G75*
G02*
X125062500Y-95930000I-172500J0D01*
G01*
X124717500Y-95930000D01*
G75*
G02*
X124545000Y-95757500I0J172500D01*
G01*
X124545000Y-95362500D01*
G75*
G02*
X124717500Y-95190000I172500J0D01*
G01*
X125062500Y-95190000D01*
G75*
G02*
X125235000Y-95362500I0J-172500D01*
G01*
G37*
G36*
G01*
X126205000Y-95362500D02*
X126205000Y-95757500D01*
G75*
G02*
X126032500Y-95930000I-172500J0D01*
G01*
X125687500Y-95930000D01*
G75*
G02*
X125515000Y-95757500I0J172500D01*
G01*
X125515000Y-95362500D01*
G75*
G02*
X125687500Y-95190000I172500J0D01*
G01*
X126032500Y-95190000D01*
G75*
G02*
X126205000Y-95362500I0J-172500D01*
G01*
G37*
G36*
G01*
X125187500Y-98165000D02*
X124792500Y-98165000D01*
G75*
G02*
X124620000Y-97992500I0J172500D01*
G01*
X124620000Y-97647500D01*
G75*
G02*
X124792500Y-97475000I172500J0D01*
G01*
X125187500Y-97475000D01*
G75*
G02*
X125360000Y-97647500I0J-172500D01*
G01*
X125360000Y-97992500D01*
G75*
G02*
X125187500Y-98165000I-172500J0D01*
G01*
G37*
G36*
G01*
X125187500Y-99135000D02*
X124792500Y-99135000D01*
G75*
G02*
X124620000Y-98962500I0J172500D01*
G01*
X124620000Y-98617500D01*
G75*
G02*
X124792500Y-98445000I172500J0D01*
G01*
X125187500Y-98445000D01*
G75*
G02*
X125360000Y-98617500I0J-172500D01*
G01*
X125360000Y-98962500D01*
G75*
G02*
X125187500Y-99135000I-172500J0D01*
G01*
G37*
G36*
G01*
X125065000Y-99572500D02*
X125065000Y-99967500D01*
G75*
G02*
X124892500Y-100140000I-172500J0D01*
G01*
X124547500Y-100140000D01*
G75*
G02*
X124375000Y-99967500I0J172500D01*
G01*
X124375000Y-99572500D01*
G75*
G02*
X124547500Y-99400000I172500J0D01*
G01*
X124892500Y-99400000D01*
G75*
G02*
X125065000Y-99572500I0J-172500D01*
G01*
G37*
G36*
G01*
X126035000Y-99572500D02*
X126035000Y-99967500D01*
G75*
G02*
X125862500Y-100140000I-172500J0D01*
G01*
X125517500Y-100140000D01*
G75*
G02*
X125345000Y-99967500I0J172500D01*
G01*
X125345000Y-99572500D01*
G75*
G02*
X125517500Y-99400000I172500J0D01*
G01*
X125862500Y-99400000D01*
G75*
G02*
X126035000Y-99572500I0J-172500D01*
G01*
G37*
G36*
G01*
X129635000Y-94802500D02*
X129635000Y-95197500D01*
G75*
G02*
X129462500Y-95370000I-172500J0D01*
G01*
X129117500Y-95370000D01*
G75*
G02*
X128945000Y-95197500I0J172500D01*
G01*
X128945000Y-94802500D01*
G75*
G02*
X129117500Y-94630000I172500J0D01*
G01*
X129462500Y-94630000D01*
G75*
G02*
X129635000Y-94802500I0J-172500D01*
G01*
G37*
G36*
G01*
X130605000Y-94802500D02*
X130605000Y-95197500D01*
G75*
G02*
X130432500Y-95370000I-172500J0D01*
G01*
X130087500Y-95370000D01*
G75*
G02*
X129915000Y-95197500I0J172500D01*
G01*
X129915000Y-94802500D01*
G75*
G02*
X130087500Y-94630000I172500J0D01*
G01*
X130432500Y-94630000D01*
G75*
G02*
X130605000Y-94802500I0J-172500D01*
G01*
G37*
D13*
X98710000Y-85510000D03*
X95110000Y-85510000D03*
X98710000Y-84060000D03*
X95110000Y-84060000D03*
G36*
G01*
X92120000Y-87287500D02*
X92120000Y-87812500D01*
G75*
G02*
X91857500Y-88075000I-262500J0D01*
G01*
X91232500Y-88075000D01*
G75*
G02*
X90970000Y-87812500I0J262500D01*
G01*
X90970000Y-87287500D01*
G75*
G02*
X91232500Y-87025000I262500J0D01*
G01*
X91857500Y-87025000D01*
G75*
G02*
X92120000Y-87287500I0J-262500D01*
G01*
G37*
G36*
G01*
X93870000Y-87287500D02*
X93870000Y-87812500D01*
G75*
G02*
X93607500Y-88075000I-262500J0D01*
G01*
X92982500Y-88075000D01*
G75*
G02*
X92720000Y-87812500I0J262500D01*
G01*
X92720000Y-87287500D01*
G75*
G02*
X92982500Y-87025000I262500J0D01*
G01*
X93607500Y-87025000D01*
G75*
G02*
X93870000Y-87287500I0J-262500D01*
G01*
G37*
G36*
G01*
X92917500Y-85360000D02*
X93442500Y-85360000D01*
G75*
G02*
X93705000Y-85622500I0J-262500D01*
G01*
X93705000Y-86247500D01*
G75*
G02*
X93442500Y-86510000I-262500J0D01*
G01*
X92917500Y-86510000D01*
G75*
G02*
X92655000Y-86247500I0J262500D01*
G01*
X92655000Y-85622500D01*
G75*
G02*
X92917500Y-85360000I262500J0D01*
G01*
G37*
G36*
G01*
X92917500Y-83610000D02*
X93442500Y-83610000D01*
G75*
G02*
X93705000Y-83872500I0J-262500D01*
G01*
X93705000Y-84497500D01*
G75*
G02*
X93442500Y-84760000I-262500J0D01*
G01*
X92917500Y-84760000D01*
G75*
G02*
X92655000Y-84497500I0J262500D01*
G01*
X92655000Y-83872500D01*
G75*
G02*
X92917500Y-83610000I262500J0D01*
G01*
G37*
G36*
G01*
X96055000Y-87512500D02*
X96055000Y-86987500D01*
G75*
G02*
X96317500Y-86725000I262500J0D01*
G01*
X96942500Y-86725000D01*
G75*
G02*
X97205000Y-86987500I0J-262500D01*
G01*
X97205000Y-87512500D01*
G75*
G02*
X96942500Y-87775000I-262500J0D01*
G01*
X96317500Y-87775000D01*
G75*
G02*
X96055000Y-87512500I0J262500D01*
G01*
G37*
G36*
G01*
X94305000Y-87512500D02*
X94305000Y-86987500D01*
G75*
G02*
X94567500Y-86725000I262500J0D01*
G01*
X95192500Y-86725000D01*
G75*
G02*
X95455000Y-86987500I0J-262500D01*
G01*
X95455000Y-87512500D01*
G75*
G02*
X95192500Y-87775000I-262500J0D01*
G01*
X94567500Y-87775000D01*
G75*
G02*
X94305000Y-87512500I0J262500D01*
G01*
G37*
G36*
G01*
X97465000Y-97372500D02*
X97465000Y-96847500D01*
G75*
G02*
X97727500Y-96585000I262500J0D01*
G01*
X98352500Y-96585000D01*
G75*
G02*
X98615000Y-96847500I0J-262500D01*
G01*
X98615000Y-97372500D01*
G75*
G02*
X98352500Y-97635000I-262500J0D01*
G01*
X97727500Y-97635000D01*
G75*
G02*
X97465000Y-97372500I0J262500D01*
G01*
G37*
G36*
G01*
X95715000Y-97372500D02*
X95715000Y-96847500D01*
G75*
G02*
X95977500Y-96585000I262500J0D01*
G01*
X96602500Y-96585000D01*
G75*
G02*
X96865000Y-96847500I0J-262500D01*
G01*
X96865000Y-97372500D01*
G75*
G02*
X96602500Y-97635000I-262500J0D01*
G01*
X95977500Y-97635000D01*
G75*
G02*
X95715000Y-97372500I0J262500D01*
G01*
G37*
G36*
G01*
X93545000Y-96857500D02*
X93545000Y-97382500D01*
G75*
G02*
X93282500Y-97645000I-262500J0D01*
G01*
X92657500Y-97645000D01*
G75*
G02*
X92395000Y-97382500I0J262500D01*
G01*
X92395000Y-96857500D01*
G75*
G02*
X92657500Y-96595000I262500J0D01*
G01*
X93282500Y-96595000D01*
G75*
G02*
X93545000Y-96857500I0J-262500D01*
G01*
G37*
G36*
G01*
X95295000Y-96857500D02*
X95295000Y-97382500D01*
G75*
G02*
X95032500Y-97645000I-262500J0D01*
G01*
X94407500Y-97645000D01*
G75*
G02*
X94145000Y-97382500I0J262500D01*
G01*
X94145000Y-96857500D01*
G75*
G02*
X94407500Y-96595000I262500J0D01*
G01*
X95032500Y-96595000D01*
G75*
G02*
X95295000Y-96857500I0J-262500D01*
G01*
G37*
X90630000Y-85455000D03*
X87030000Y-85455000D03*
X90630000Y-84005000D03*
X87030000Y-84005000D03*
X94370000Y-99090000D03*
X97970000Y-99090000D03*
X94370000Y-100540000D03*
X97970000Y-100540000D03*
D14*
X128973100Y-92529999D03*
X128973100Y-92030000D03*
X128973100Y-91530001D03*
X127626900Y-91530001D03*
X127626900Y-92030000D03*
X127626900Y-92529999D03*
D15*
X129790000Y-87235000D03*
X129790000Y-88705000D03*
G36*
G01*
X126170000Y-85851738D02*
X126170000Y-86808262D01*
G75*
G02*
X125898262Y-87080000I-271738J0D01*
G01*
X125191738Y-87080000D01*
G75*
G02*
X124920000Y-86808262I0J271738D01*
G01*
X124920000Y-85851738D01*
G75*
G02*
X125191738Y-85580000I271738J0D01*
G01*
X125898262Y-85580000D01*
G75*
G02*
X126170000Y-85851738I0J-271738D01*
G01*
G37*
G36*
G01*
X128220000Y-85851738D02*
X128220000Y-86808262D01*
G75*
G02*
X127948262Y-87080000I-271738J0D01*
G01*
X127241738Y-87080000D01*
G75*
G02*
X126970000Y-86808262I0J271738D01*
G01*
X126970000Y-85851738D01*
G75*
G02*
X127241738Y-85580000I271738J0D01*
G01*
X127948262Y-85580000D01*
G75*
G02*
X128220000Y-85851738I0J-271738D01*
G01*
G37*
D16*
X112940000Y-92775000D03*
X113890000Y-92775000D03*
X114840000Y-92775000D03*
X114840000Y-89905000D03*
X113890000Y-89905000D03*
X112940000Y-89905000D03*
D17*
X113890000Y-91340000D03*
G36*
G01*
X85055000Y-95977500D02*
X85055000Y-96502500D01*
G75*
G02*
X84792500Y-96765000I-262500J0D01*
G01*
X84167500Y-96765000D01*
G75*
G02*
X83905000Y-96502500I0J262500D01*
G01*
X83905000Y-95977500D01*
G75*
G02*
X84167500Y-95715000I262500J0D01*
G01*
X84792500Y-95715000D01*
G75*
G02*
X85055000Y-95977500I0J-262500D01*
G01*
G37*
G36*
G01*
X86805000Y-95977500D02*
X86805000Y-96502500D01*
G75*
G02*
X86542500Y-96765000I-262500J0D01*
G01*
X85917500Y-96765000D01*
G75*
G02*
X85655000Y-96502500I0J262500D01*
G01*
X85655000Y-95977500D01*
G75*
G02*
X85917500Y-95715000I262500J0D01*
G01*
X86542500Y-95715000D01*
G75*
G02*
X86805000Y-95977500I0J-262500D01*
G01*
G37*
D18*
X84840000Y-98530000D03*
D19*
X103130000Y-84480000D03*
X103130000Y-99780000D03*
D20*
X106380000Y-97880000D03*
X106380000Y-97380000D03*
X106380000Y-96880000D03*
X106380000Y-96380000D03*
X106380000Y-95880000D03*
X106380000Y-95380000D03*
X106380000Y-94880000D03*
X106380000Y-94380000D03*
X106380000Y-93880000D03*
X106380000Y-93380000D03*
X106380000Y-92880000D03*
X106380000Y-92380000D03*
X106380000Y-91880000D03*
X106380000Y-91380000D03*
X106380000Y-90880000D03*
X106380000Y-90380000D03*
X106380000Y-89880000D03*
X106380000Y-89380000D03*
X106380000Y-88880000D03*
X106380000Y-88380000D03*
X106380000Y-87880000D03*
X106380000Y-87380000D03*
X106380000Y-86880000D03*
X106380000Y-86380000D03*
D21*
X132860000Y-95750000D03*
X132860000Y-88750000D03*
X132860000Y-93250000D03*
X132860000Y-91250000D03*
D22*
X135460000Y-94500000D03*
X135460000Y-90000000D03*
D23*
X135460000Y-97950000D03*
X135460000Y-86550000D03*
G36*
G01*
X110817500Y-90160000D02*
X111342500Y-90160000D01*
G75*
G02*
X111605000Y-90422500I0J-262500D01*
G01*
X111605000Y-91047500D01*
G75*
G02*
X111342500Y-91310000I-262500J0D01*
G01*
X110817500Y-91310000D01*
G75*
G02*
X110555000Y-91047500I0J262500D01*
G01*
X110555000Y-90422500D01*
G75*
G02*
X110817500Y-90160000I262500J0D01*
G01*
G37*
G36*
G01*
X110817500Y-88410000D02*
X111342500Y-88410000D01*
G75*
G02*
X111605000Y-88672500I0J-262500D01*
G01*
X111605000Y-89297500D01*
G75*
G02*
X111342500Y-89560000I-262500J0D01*
G01*
X110817500Y-89560000D01*
G75*
G02*
X110555000Y-89297500I0J262500D01*
G01*
X110555000Y-88672500D01*
G75*
G02*
X110817500Y-88410000I262500J0D01*
G01*
G37*
G36*
G01*
X114525000Y-94532500D02*
X114525000Y-94007500D01*
G75*
G02*
X114787500Y-93745000I262500J0D01*
G01*
X115412500Y-93745000D01*
G75*
G02*
X115675000Y-94007500I0J-262500D01*
G01*
X115675000Y-94532500D01*
G75*
G02*
X115412500Y-94795000I-262500J0D01*
G01*
X114787500Y-94795000D01*
G75*
G02*
X114525000Y-94532500I0J262500D01*
G01*
G37*
G36*
G01*
X112775000Y-94532500D02*
X112775000Y-94007500D01*
G75*
G02*
X113037500Y-93745000I262500J0D01*
G01*
X113662500Y-93745000D01*
G75*
G02*
X113925000Y-94007500I0J-262500D01*
G01*
X113925000Y-94532500D01*
G75*
G02*
X113662500Y-94795000I-262500J0D01*
G01*
X113037500Y-94795000D01*
G75*
G02*
X112775000Y-94532500I0J262500D01*
G01*
G37*
G36*
G01*
X89835000Y-98767500D02*
X89835000Y-99292500D01*
G75*
G02*
X89572500Y-99555000I-262500J0D01*
G01*
X88947500Y-99555000D01*
G75*
G02*
X88685000Y-99292500I0J262500D01*
G01*
X88685000Y-98767500D01*
G75*
G02*
X88947500Y-98505000I262500J0D01*
G01*
X89572500Y-98505000D01*
G75*
G02*
X89835000Y-98767500I0J-262500D01*
G01*
G37*
G36*
G01*
X91585000Y-98767500D02*
X91585000Y-99292500D01*
G75*
G02*
X91322500Y-99555000I-262500J0D01*
G01*
X90697500Y-99555000D01*
G75*
G02*
X90435000Y-99292500I0J262500D01*
G01*
X90435000Y-98767500D01*
G75*
G02*
X90697500Y-98505000I262500J0D01*
G01*
X91322500Y-98505000D01*
G75*
G02*
X91585000Y-98767500I0J-262500D01*
G01*
G37*
G36*
G01*
X89825000Y-97287500D02*
X89825000Y-97812500D01*
G75*
G02*
X89562500Y-98075000I-262500J0D01*
G01*
X88937500Y-98075000D01*
G75*
G02*
X88675000Y-97812500I0J262500D01*
G01*
X88675000Y-97287500D01*
G75*
G02*
X88937500Y-97025000I262500J0D01*
G01*
X89562500Y-97025000D01*
G75*
G02*
X89825000Y-97287500I0J-262500D01*
G01*
G37*
G36*
G01*
X91575000Y-97287500D02*
X91575000Y-97812500D01*
G75*
G02*
X91312500Y-98075000I-262500J0D01*
G01*
X90687500Y-98075000D01*
G75*
G02*
X90425000Y-97812500I0J262500D01*
G01*
X90425000Y-97287500D01*
G75*
G02*
X90687500Y-97025000I262500J0D01*
G01*
X91312500Y-97025000D01*
G75*
G02*
X91575000Y-97287500I0J-262500D01*
G01*
G37*
G36*
G01*
X129953000Y-100592500D02*
X129953000Y-100067500D01*
G75*
G02*
X130215500Y-99805000I262500J0D01*
G01*
X130840500Y-99805000D01*
G75*
G02*
X131103000Y-100067500I0J-262500D01*
G01*
X131103000Y-100592500D01*
G75*
G02*
X130840500Y-100855000I-262500J0D01*
G01*
X130215500Y-100855000D01*
G75*
G02*
X129953000Y-100592500I0J262500D01*
G01*
G37*
G36*
G01*
X128203000Y-100592500D02*
X128203000Y-100067500D01*
G75*
G02*
X128465500Y-99805000I262500J0D01*
G01*
X129090500Y-99805000D01*
G75*
G02*
X129353000Y-100067500I0J-262500D01*
G01*
X129353000Y-100592500D01*
G75*
G02*
X129090500Y-100855000I-262500J0D01*
G01*
X128465500Y-100855000D01*
G75*
G02*
X128203000Y-100592500I0J262500D01*
G01*
G37*
G36*
G01*
X114070000Y-88372500D02*
X114070000Y-87847500D01*
G75*
G02*
X114332500Y-87585000I262500J0D01*
G01*
X114957500Y-87585000D01*
G75*
G02*
X115220000Y-87847500I0J-262500D01*
G01*
X115220000Y-88372500D01*
G75*
G02*
X114957500Y-88635000I-262500J0D01*
G01*
X114332500Y-88635000D01*
G75*
G02*
X114070000Y-88372500I0J262500D01*
G01*
G37*
G36*
G01*
X112320000Y-88372500D02*
X112320000Y-87847500D01*
G75*
G02*
X112582500Y-87585000I262500J0D01*
G01*
X113207500Y-87585000D01*
G75*
G02*
X113470000Y-87847500I0J-262500D01*
G01*
X113470000Y-88372500D01*
G75*
G02*
X113207500Y-88635000I-262500J0D01*
G01*
X112582500Y-88635000D01*
G75*
G02*
X112320000Y-88372500I0J262500D01*
G01*
G37*
G36*
G01*
X111225000Y-97402500D02*
X111225000Y-96877500D01*
G75*
G02*
X111487500Y-96615000I262500J0D01*
G01*
X112112500Y-96615000D01*
G75*
G02*
X112375000Y-96877500I0J-262500D01*
G01*
X112375000Y-97402500D01*
G75*
G02*
X112112500Y-97665000I-262500J0D01*
G01*
X111487500Y-97665000D01*
G75*
G02*
X111225000Y-97402500I0J262500D01*
G01*
G37*
G36*
G01*
X109475000Y-97402500D02*
X109475000Y-96877500D01*
G75*
G02*
X109737500Y-96615000I262500J0D01*
G01*
X110362500Y-96615000D01*
G75*
G02*
X110625000Y-96877500I0J-262500D01*
G01*
X110625000Y-97402500D01*
G75*
G02*
X110362500Y-97665000I-262500J0D01*
G01*
X109737500Y-97665000D01*
G75*
G02*
X109475000Y-97402500I0J262500D01*
G01*
G37*
G36*
G01*
X120967500Y-96755000D02*
X121492500Y-96755000D01*
G75*
G02*
X121755000Y-97017500I0J-262500D01*
G01*
X121755000Y-97642500D01*
G75*
G02*
X121492500Y-97905000I-262500J0D01*
G01*
X120967500Y-97905000D01*
G75*
G02*
X120705000Y-97642500I0J262500D01*
G01*
X120705000Y-97017500D01*
G75*
G02*
X120967500Y-96755000I262500J0D01*
G01*
G37*
G36*
G01*
X120967500Y-95005000D02*
X121492500Y-95005000D01*
G75*
G02*
X121755000Y-95267500I0J-262500D01*
G01*
X121755000Y-95892500D01*
G75*
G02*
X121492500Y-96155000I-262500J0D01*
G01*
X120967500Y-96155000D01*
G75*
G02*
X120705000Y-95892500I0J262500D01*
G01*
X120705000Y-95267500D01*
G75*
G02*
X120967500Y-95005000I262500J0D01*
G01*
G37*
M02*
