G04 #@! TF.GenerationSoftware,KiCad,Pcbnew,(5.1.6)-1*
G04 #@! TF.CreationDate,2021-02-18T21:14:00+09:00*
G04 #@! TF.ProjectId,guardianCam_Wifi,67756172-6469-4616-9e43-616d5f576966,rev?*
G04 #@! TF.SameCoordinates,Original*
G04 #@! TF.FileFunction,Paste,Bot*
G04 #@! TF.FilePolarity,Positive*
%FSLAX46Y46*%
G04 Gerber Fmt 4.6, Leading zero omitted, Abs format (unit mm)*
G04 Created by KiCad (PCBNEW (5.1.6)-1) date 2021-02-18 21:14:00*
%MOMM*%
%LPD*%
G01*
G04 APERTURE LIST*
%ADD10C,0.001000*%
%ADD11C,0.250000*%
%ADD12R,0.762000X1.803400*%
%ADD13R,1.498600X1.498600*%
%ADD14R,0.838200X1.549400*%
%ADD15R,1.549400X1.041400*%
%ADD16R,1.041400X1.549400*%
%ADD17R,1.498600X0.304800*%
%ADD18R,1.060000X0.650000*%
%ADD19R,0.650000X1.060000*%
%ADD20R,1.000000X1.800000*%
%ADD21R,0.250000X0.200000*%
%ADD22R,0.522000X0.600000*%
%ADD23R,1.200000X0.800000*%
G04 APERTURE END LIST*
D10*
G36*
X85370000Y-98905000D02*
G01*
X85275000Y-98810000D01*
X85300000Y-98760000D01*
X85325000Y-98705000D01*
X85340000Y-98650000D01*
X85350000Y-98590000D01*
X85353603Y-98530000D01*
X85340000Y-98410000D01*
X85301537Y-98305391D01*
X85266172Y-98247334D01*
X85365000Y-98145000D01*
X85480000Y-98030000D01*
X85540000Y-98120000D01*
X85590000Y-98220000D01*
X85620000Y-98300000D01*
X85640000Y-98390000D01*
X85650000Y-98530000D01*
X85636203Y-98690191D01*
X85590000Y-98840000D01*
X85540000Y-98945000D01*
X85485309Y-99019766D01*
X85370000Y-98905000D01*
G37*
X85370000Y-98905000D02*
X85275000Y-98810000D01*
X85300000Y-98760000D01*
X85325000Y-98705000D01*
X85340000Y-98650000D01*
X85350000Y-98590000D01*
X85353603Y-98530000D01*
X85340000Y-98410000D01*
X85301537Y-98305391D01*
X85266172Y-98247334D01*
X85365000Y-98145000D01*
X85480000Y-98030000D01*
X85540000Y-98120000D01*
X85590000Y-98220000D01*
X85620000Y-98300000D01*
X85640000Y-98390000D01*
X85650000Y-98530000D01*
X85636203Y-98690191D01*
X85590000Y-98840000D01*
X85540000Y-98945000D01*
X85485309Y-99019766D01*
X85370000Y-98905000D01*
G36*
X85225000Y-98000000D02*
G01*
X85120000Y-98105000D01*
X85070000Y-98070000D01*
X84960000Y-98030000D01*
X84840000Y-98016397D01*
X84720000Y-98030000D01*
X84615391Y-98068463D01*
X84557334Y-98108828D01*
X84460000Y-98010000D01*
X84340000Y-97890000D01*
X84435000Y-97825000D01*
X84530000Y-97780000D01*
X84610000Y-97750000D01*
X84700000Y-97730000D01*
X84780000Y-97720000D01*
X84905000Y-97720000D01*
X85000191Y-97733797D01*
X85075000Y-97750000D01*
X85150000Y-97780000D01*
X85245000Y-97825000D01*
X85339766Y-97889691D01*
X85225000Y-98000000D01*
G37*
X85225000Y-98000000D02*
X85120000Y-98105000D01*
X85070000Y-98070000D01*
X84960000Y-98030000D01*
X84840000Y-98016397D01*
X84720000Y-98030000D01*
X84615391Y-98068463D01*
X84557334Y-98108828D01*
X84460000Y-98010000D01*
X84340000Y-97890000D01*
X84435000Y-97825000D01*
X84530000Y-97780000D01*
X84610000Y-97750000D01*
X84700000Y-97730000D01*
X84780000Y-97720000D01*
X84905000Y-97720000D01*
X85000191Y-97733797D01*
X85075000Y-97750000D01*
X85150000Y-97780000D01*
X85245000Y-97825000D01*
X85339766Y-97889691D01*
X85225000Y-98000000D01*
G36*
X84310000Y-98150000D02*
G01*
X84415000Y-98250000D01*
X84380000Y-98300000D01*
X84340000Y-98410000D01*
X84326397Y-98530000D01*
X84340000Y-98650000D01*
X84378463Y-98754609D01*
X84413828Y-98817666D01*
X84315000Y-98915000D01*
X84200000Y-99030000D01*
X84135000Y-98935000D01*
X84090000Y-98840000D01*
X84060000Y-98750000D01*
X84040000Y-98670000D01*
X84030000Y-98530000D01*
X84043797Y-98369809D01*
X84090000Y-98220000D01*
X84150000Y-98105000D01*
X84194691Y-98035234D01*
X84310000Y-98150000D01*
G37*
X84310000Y-98150000D02*
X84415000Y-98250000D01*
X84380000Y-98300000D01*
X84340000Y-98410000D01*
X84326397Y-98530000D01*
X84340000Y-98650000D01*
X84378463Y-98754609D01*
X84413828Y-98817666D01*
X84315000Y-98915000D01*
X84200000Y-99030000D01*
X84135000Y-98935000D01*
X84090000Y-98840000D01*
X84060000Y-98750000D01*
X84040000Y-98670000D01*
X84030000Y-98530000D01*
X84043797Y-98369809D01*
X84090000Y-98220000D01*
X84150000Y-98105000D01*
X84194691Y-98035234D01*
X84310000Y-98150000D01*
G36*
X84455000Y-99060000D02*
G01*
X84555000Y-98960000D01*
X84610000Y-98995000D01*
X84720000Y-99035000D01*
X84720000Y-99040000D01*
X84730000Y-99035000D01*
X84835000Y-99050000D01*
X84845000Y-99053603D01*
X84845000Y-99050000D01*
X84965000Y-99035000D01*
X85064609Y-98991537D01*
X85132666Y-98956172D01*
X85230000Y-99055000D01*
X85345000Y-99165000D01*
X85250000Y-99230000D01*
X85150000Y-99280000D01*
X85060000Y-99310000D01*
X84980000Y-99330000D01*
X84840000Y-99340000D01*
X84679809Y-99326203D01*
X84530000Y-99280000D01*
X84440000Y-99235000D01*
X84340234Y-99170309D01*
X84455000Y-99060000D01*
G37*
X84455000Y-99060000D02*
X84555000Y-98960000D01*
X84610000Y-98995000D01*
X84720000Y-99035000D01*
X84720000Y-99040000D01*
X84730000Y-99035000D01*
X84835000Y-99050000D01*
X84845000Y-99053603D01*
X84845000Y-99050000D01*
X84965000Y-99035000D01*
X85064609Y-98991537D01*
X85132666Y-98956172D01*
X85230000Y-99055000D01*
X85345000Y-99165000D01*
X85250000Y-99230000D01*
X85150000Y-99280000D01*
X85060000Y-99310000D01*
X84980000Y-99330000D01*
X84840000Y-99340000D01*
X84679809Y-99326203D01*
X84530000Y-99280000D01*
X84440000Y-99235000D01*
X84340234Y-99170309D01*
X84455000Y-99060000D01*
D11*
X129300000Y-97830000D03*
X128800000Y-98830000D03*
X128800000Y-98330000D03*
X128800000Y-97830000D03*
X128800000Y-97330000D03*
X128800000Y-96330000D03*
X128300000Y-98830000D03*
X128300000Y-98330000D03*
X128300000Y-96830000D03*
X128300000Y-96330000D03*
X127800000Y-98830000D03*
X127800000Y-98330000D03*
X127800000Y-97330000D03*
X127800000Y-96830000D03*
X127800000Y-96330000D03*
X127300000Y-98830000D03*
X127300000Y-98330000D03*
X127300000Y-97830000D03*
X127300000Y-97330000D03*
X127300000Y-96830000D03*
X127300000Y-96330000D03*
X126800000Y-98830000D03*
X126800000Y-98330000D03*
X126800000Y-97830000D03*
X126800000Y-97330000D03*
X126800000Y-96830000D03*
X126800000Y-96330000D03*
G36*
G01*
X129615000Y-93847500D02*
X129615000Y-94192500D01*
G75*
G02*
X129467500Y-94340000I-147500J0D01*
G01*
X129172500Y-94340000D01*
G75*
G02*
X129025000Y-94192500I0J147500D01*
G01*
X129025000Y-93847500D01*
G75*
G02*
X129172500Y-93700000I147500J0D01*
G01*
X129467500Y-93700000D01*
G75*
G02*
X129615000Y-93847500I0J-147500D01*
G01*
G37*
G36*
G01*
X130585000Y-93847500D02*
X130585000Y-94192500D01*
G75*
G02*
X130437500Y-94340000I-147500J0D01*
G01*
X130142500Y-94340000D01*
G75*
G02*
X129995000Y-94192500I0J147500D01*
G01*
X129995000Y-93847500D01*
G75*
G02*
X130142500Y-93700000I147500J0D01*
G01*
X130437500Y-93700000D01*
G75*
G02*
X130585000Y-93847500I0J-147500D01*
G01*
G37*
G36*
G01*
X89135000Y-100327500D02*
X89135000Y-100672500D01*
G75*
G02*
X88987500Y-100820000I-147500J0D01*
G01*
X88692500Y-100820000D01*
G75*
G02*
X88545000Y-100672500I0J147500D01*
G01*
X88545000Y-100327500D01*
G75*
G02*
X88692500Y-100180000I147500J0D01*
G01*
X88987500Y-100180000D01*
G75*
G02*
X89135000Y-100327500I0J-147500D01*
G01*
G37*
G36*
G01*
X90105000Y-100327500D02*
X90105000Y-100672500D01*
G75*
G02*
X89957500Y-100820000I-147500J0D01*
G01*
X89662500Y-100820000D01*
G75*
G02*
X89515000Y-100672500I0J147500D01*
G01*
X89515000Y-100327500D01*
G75*
G02*
X89662500Y-100180000I147500J0D01*
G01*
X89957500Y-100180000D01*
G75*
G02*
X90105000Y-100327500I0J-147500D01*
G01*
G37*
D12*
X94039288Y-94540701D03*
X92939288Y-94540701D03*
X91839287Y-94540701D03*
X90739287Y-94540701D03*
X89639289Y-94540701D03*
X88539289Y-94540701D03*
X87439289Y-94540701D03*
X86339288Y-94540701D03*
D13*
X95515000Y-94388301D03*
X84265000Y-94388301D03*
D14*
X95845208Y-87563702D03*
X83934792Y-86913701D03*
D15*
X95489684Y-85809700D03*
D16*
X84335706Y-84488702D03*
G36*
G01*
X126132500Y-85940000D02*
X125787500Y-85940000D01*
G75*
G02*
X125640000Y-85792500I0J147500D01*
G01*
X125640000Y-85497500D01*
G75*
G02*
X125787500Y-85350000I147500J0D01*
G01*
X126132500Y-85350000D01*
G75*
G02*
X126280000Y-85497500I0J-147500D01*
G01*
X126280000Y-85792500D01*
G75*
G02*
X126132500Y-85940000I-147500J0D01*
G01*
G37*
G36*
G01*
X126132500Y-86910000D02*
X125787500Y-86910000D01*
G75*
G02*
X125640000Y-86762500I0J147500D01*
G01*
X125640000Y-86467500D01*
G75*
G02*
X125787500Y-86320000I147500J0D01*
G01*
X126132500Y-86320000D01*
G75*
G02*
X126280000Y-86467500I0J-147500D01*
G01*
X126280000Y-86762500D01*
G75*
G02*
X126132500Y-86910000I-147500J0D01*
G01*
G37*
G36*
G01*
X106452500Y-84605000D02*
X106107500Y-84605000D01*
G75*
G02*
X105960000Y-84457500I0J147500D01*
G01*
X105960000Y-84162500D01*
G75*
G02*
X106107500Y-84015000I147500J0D01*
G01*
X106452500Y-84015000D01*
G75*
G02*
X106600000Y-84162500I0J-147500D01*
G01*
X106600000Y-84457500D01*
G75*
G02*
X106452500Y-84605000I-147500J0D01*
G01*
G37*
G36*
G01*
X106452500Y-85575000D02*
X106107500Y-85575000D01*
G75*
G02*
X105960000Y-85427500I0J147500D01*
G01*
X105960000Y-85132500D01*
G75*
G02*
X106107500Y-84985000I147500J0D01*
G01*
X106452500Y-84985000D01*
G75*
G02*
X106600000Y-85132500I0J-147500D01*
G01*
X106600000Y-85427500D01*
G75*
G02*
X106452500Y-85575000I-147500J0D01*
G01*
G37*
G36*
G01*
X98907500Y-91510000D02*
X99252500Y-91510000D01*
G75*
G02*
X99400000Y-91657500I0J-147500D01*
G01*
X99400000Y-91952500D01*
G75*
G02*
X99252500Y-92100000I-147500J0D01*
G01*
X98907500Y-92100000D01*
G75*
G02*
X98760000Y-91952500I0J147500D01*
G01*
X98760000Y-91657500D01*
G75*
G02*
X98907500Y-91510000I147500J0D01*
G01*
G37*
G36*
G01*
X98907500Y-90540000D02*
X99252500Y-90540000D01*
G75*
G02*
X99400000Y-90687500I0J-147500D01*
G01*
X99400000Y-90982500D01*
G75*
G02*
X99252500Y-91130000I-147500J0D01*
G01*
X98907500Y-91130000D01*
G75*
G02*
X98760000Y-90982500I0J147500D01*
G01*
X98760000Y-90687500D01*
G75*
G02*
X98907500Y-90540000I147500J0D01*
G01*
G37*
G36*
G01*
X97627500Y-90945000D02*
X97972500Y-90945000D01*
G75*
G02*
X98120000Y-91092500I0J-147500D01*
G01*
X98120000Y-91387500D01*
G75*
G02*
X97972500Y-91535000I-147500J0D01*
G01*
X97627500Y-91535000D01*
G75*
G02*
X97480000Y-91387500I0J147500D01*
G01*
X97480000Y-91092500D01*
G75*
G02*
X97627500Y-90945000I147500J0D01*
G01*
G37*
G36*
G01*
X97627500Y-89975000D02*
X97972500Y-89975000D01*
G75*
G02*
X98120000Y-90122500I0J-147500D01*
G01*
X98120000Y-90417500D01*
G75*
G02*
X97972500Y-90565000I-147500J0D01*
G01*
X97627500Y-90565000D01*
G75*
G02*
X97480000Y-90417500I0J147500D01*
G01*
X97480000Y-90122500D01*
G75*
G02*
X97627500Y-89975000I147500J0D01*
G01*
G37*
G36*
G01*
X97410000Y-100777500D02*
X97410000Y-100302500D01*
G75*
G02*
X97647500Y-100065000I237500J0D01*
G01*
X98222500Y-100065000D01*
G75*
G02*
X98460000Y-100302500I0J-237500D01*
G01*
X98460000Y-100777500D01*
G75*
G02*
X98222500Y-101015000I-237500J0D01*
G01*
X97647500Y-101015000D01*
G75*
G02*
X97410000Y-100777500I0J237500D01*
G01*
G37*
G36*
G01*
X95660000Y-100777500D02*
X95660000Y-100302500D01*
G75*
G02*
X95897500Y-100065000I237500J0D01*
G01*
X96472500Y-100065000D01*
G75*
G02*
X96710000Y-100302500I0J-237500D01*
G01*
X96710000Y-100777500D01*
G75*
G02*
X96472500Y-101015000I-237500J0D01*
G01*
X95897500Y-101015000D01*
G75*
G02*
X95660000Y-100777500I0J237500D01*
G01*
G37*
D17*
X131667400Y-84629400D03*
X131667400Y-85112000D03*
X131667400Y-85620000D03*
X131667400Y-86128000D03*
X131667400Y-86610600D03*
X127552600Y-86610600D03*
X127552600Y-86128000D03*
X127552600Y-85620000D03*
X127552600Y-85112000D03*
X127552600Y-84629400D03*
G36*
G01*
X132277500Y-96220000D02*
X131802500Y-96220000D01*
G75*
G02*
X131565000Y-95982500I0J237500D01*
G01*
X131565000Y-95407500D01*
G75*
G02*
X131802500Y-95170000I237500J0D01*
G01*
X132277500Y-95170000D01*
G75*
G02*
X132515000Y-95407500I0J-237500D01*
G01*
X132515000Y-95982500D01*
G75*
G02*
X132277500Y-96220000I-237500J0D01*
G01*
G37*
G36*
G01*
X132277500Y-97970000D02*
X131802500Y-97970000D01*
G75*
G02*
X131565000Y-97732500I0J237500D01*
G01*
X131565000Y-97157500D01*
G75*
G02*
X131802500Y-96920000I237500J0D01*
G01*
X132277500Y-96920000D01*
G75*
G02*
X132515000Y-97157500I0J-237500D01*
G01*
X132515000Y-97732500D01*
G75*
G02*
X132277500Y-97970000I-237500J0D01*
G01*
G37*
G36*
G01*
X133280000Y-100117500D02*
X133280000Y-99642500D01*
G75*
G02*
X133517500Y-99405000I237500J0D01*
G01*
X134092500Y-99405000D01*
G75*
G02*
X134330000Y-99642500I0J-237500D01*
G01*
X134330000Y-100117500D01*
G75*
G02*
X134092500Y-100355000I-237500J0D01*
G01*
X133517500Y-100355000D01*
G75*
G02*
X133280000Y-100117500I0J237500D01*
G01*
G37*
G36*
G01*
X131530000Y-100117500D02*
X131530000Y-99642500D01*
G75*
G02*
X131767500Y-99405000I237500J0D01*
G01*
X132342500Y-99405000D01*
G75*
G02*
X132580000Y-99642500I0J-237500D01*
G01*
X132580000Y-100117500D01*
G75*
G02*
X132342500Y-100355000I-237500J0D01*
G01*
X131767500Y-100355000D01*
G75*
G02*
X131530000Y-100117500I0J237500D01*
G01*
G37*
D18*
X102820000Y-89400000D03*
X102820000Y-87500000D03*
X100620000Y-87500000D03*
X100620000Y-88450000D03*
X100620000Y-89400000D03*
D19*
X101610000Y-97160000D03*
X99710000Y-97160000D03*
X99710000Y-99360000D03*
X100660000Y-99360000D03*
X101610000Y-99360000D03*
D20*
X98270000Y-88400000D03*
D21*
X99120000Y-87650000D03*
X99120000Y-88150000D03*
X99120000Y-88650000D03*
X99120000Y-89150000D03*
X97420000Y-87650000D03*
X97420000Y-88150000D03*
X97420000Y-88650000D03*
X97420000Y-89150000D03*
G36*
G01*
X107590000Y-86180000D02*
X109040000Y-86180000D01*
G75*
G02*
X109115000Y-86255000I0J-75000D01*
G01*
X109115000Y-86405000D01*
G75*
G02*
X109040000Y-86480000I-75000J0D01*
G01*
X107590000Y-86480000D01*
G75*
G02*
X107515000Y-86405000I0J75000D01*
G01*
X107515000Y-86255000D01*
G75*
G02*
X107590000Y-86180000I75000J0D01*
G01*
G37*
G36*
G01*
X107590000Y-86680000D02*
X109040000Y-86680000D01*
G75*
G02*
X109115000Y-86755000I0J-75000D01*
G01*
X109115000Y-86905000D01*
G75*
G02*
X109040000Y-86980000I-75000J0D01*
G01*
X107590000Y-86980000D01*
G75*
G02*
X107515000Y-86905000I0J75000D01*
G01*
X107515000Y-86755000D01*
G75*
G02*
X107590000Y-86680000I75000J0D01*
G01*
G37*
G36*
G01*
X107590000Y-87180000D02*
X109040000Y-87180000D01*
G75*
G02*
X109115000Y-87255000I0J-75000D01*
G01*
X109115000Y-87405000D01*
G75*
G02*
X109040000Y-87480000I-75000J0D01*
G01*
X107590000Y-87480000D01*
G75*
G02*
X107515000Y-87405000I0J75000D01*
G01*
X107515000Y-87255000D01*
G75*
G02*
X107590000Y-87180000I75000J0D01*
G01*
G37*
G36*
G01*
X107590000Y-87680000D02*
X109040000Y-87680000D01*
G75*
G02*
X109115000Y-87755000I0J-75000D01*
G01*
X109115000Y-87905000D01*
G75*
G02*
X109040000Y-87980000I-75000J0D01*
G01*
X107590000Y-87980000D01*
G75*
G02*
X107515000Y-87905000I0J75000D01*
G01*
X107515000Y-87755000D01*
G75*
G02*
X107590000Y-87680000I75000J0D01*
G01*
G37*
G36*
G01*
X107590000Y-88180000D02*
X109040000Y-88180000D01*
G75*
G02*
X109115000Y-88255000I0J-75000D01*
G01*
X109115000Y-88405000D01*
G75*
G02*
X109040000Y-88480000I-75000J0D01*
G01*
X107590000Y-88480000D01*
G75*
G02*
X107515000Y-88405000I0J75000D01*
G01*
X107515000Y-88255000D01*
G75*
G02*
X107590000Y-88180000I75000J0D01*
G01*
G37*
G36*
G01*
X107590000Y-88680000D02*
X109040000Y-88680000D01*
G75*
G02*
X109115000Y-88755000I0J-75000D01*
G01*
X109115000Y-88905000D01*
G75*
G02*
X109040000Y-88980000I-75000J0D01*
G01*
X107590000Y-88980000D01*
G75*
G02*
X107515000Y-88905000I0J75000D01*
G01*
X107515000Y-88755000D01*
G75*
G02*
X107590000Y-88680000I75000J0D01*
G01*
G37*
G36*
G01*
X107590000Y-89180000D02*
X109040000Y-89180000D01*
G75*
G02*
X109115000Y-89255000I0J-75000D01*
G01*
X109115000Y-89405000D01*
G75*
G02*
X109040000Y-89480000I-75000J0D01*
G01*
X107590000Y-89480000D01*
G75*
G02*
X107515000Y-89405000I0J75000D01*
G01*
X107515000Y-89255000D01*
G75*
G02*
X107590000Y-89180000I75000J0D01*
G01*
G37*
G36*
G01*
X107590000Y-89680000D02*
X109040000Y-89680000D01*
G75*
G02*
X109115000Y-89755000I0J-75000D01*
G01*
X109115000Y-89905000D01*
G75*
G02*
X109040000Y-89980000I-75000J0D01*
G01*
X107590000Y-89980000D01*
G75*
G02*
X107515000Y-89905000I0J75000D01*
G01*
X107515000Y-89755000D01*
G75*
G02*
X107590000Y-89680000I75000J0D01*
G01*
G37*
G36*
G01*
X107590000Y-90180000D02*
X109040000Y-90180000D01*
G75*
G02*
X109115000Y-90255000I0J-75000D01*
G01*
X109115000Y-90405000D01*
G75*
G02*
X109040000Y-90480000I-75000J0D01*
G01*
X107590000Y-90480000D01*
G75*
G02*
X107515000Y-90405000I0J75000D01*
G01*
X107515000Y-90255000D01*
G75*
G02*
X107590000Y-90180000I75000J0D01*
G01*
G37*
G36*
G01*
X107590000Y-90680000D02*
X109040000Y-90680000D01*
G75*
G02*
X109115000Y-90755000I0J-75000D01*
G01*
X109115000Y-90905000D01*
G75*
G02*
X109040000Y-90980000I-75000J0D01*
G01*
X107590000Y-90980000D01*
G75*
G02*
X107515000Y-90905000I0J75000D01*
G01*
X107515000Y-90755000D01*
G75*
G02*
X107590000Y-90680000I75000J0D01*
G01*
G37*
G36*
G01*
X107590000Y-91180000D02*
X109040000Y-91180000D01*
G75*
G02*
X109115000Y-91255000I0J-75000D01*
G01*
X109115000Y-91405000D01*
G75*
G02*
X109040000Y-91480000I-75000J0D01*
G01*
X107590000Y-91480000D01*
G75*
G02*
X107515000Y-91405000I0J75000D01*
G01*
X107515000Y-91255000D01*
G75*
G02*
X107590000Y-91180000I75000J0D01*
G01*
G37*
G36*
G01*
X107590000Y-91680000D02*
X109040000Y-91680000D01*
G75*
G02*
X109115000Y-91755000I0J-75000D01*
G01*
X109115000Y-91905000D01*
G75*
G02*
X109040000Y-91980000I-75000J0D01*
G01*
X107590000Y-91980000D01*
G75*
G02*
X107515000Y-91905000I0J75000D01*
G01*
X107515000Y-91755000D01*
G75*
G02*
X107590000Y-91680000I75000J0D01*
G01*
G37*
G36*
G01*
X107590000Y-92180000D02*
X109040000Y-92180000D01*
G75*
G02*
X109115000Y-92255000I0J-75000D01*
G01*
X109115000Y-92405000D01*
G75*
G02*
X109040000Y-92480000I-75000J0D01*
G01*
X107590000Y-92480000D01*
G75*
G02*
X107515000Y-92405000I0J75000D01*
G01*
X107515000Y-92255000D01*
G75*
G02*
X107590000Y-92180000I75000J0D01*
G01*
G37*
G36*
G01*
X107590000Y-92680000D02*
X109040000Y-92680000D01*
G75*
G02*
X109115000Y-92755000I0J-75000D01*
G01*
X109115000Y-92905000D01*
G75*
G02*
X109040000Y-92980000I-75000J0D01*
G01*
X107590000Y-92980000D01*
G75*
G02*
X107515000Y-92905000I0J75000D01*
G01*
X107515000Y-92755000D01*
G75*
G02*
X107590000Y-92680000I75000J0D01*
G01*
G37*
G36*
G01*
X107590000Y-93180000D02*
X109040000Y-93180000D01*
G75*
G02*
X109115000Y-93255000I0J-75000D01*
G01*
X109115000Y-93405000D01*
G75*
G02*
X109040000Y-93480000I-75000J0D01*
G01*
X107590000Y-93480000D01*
G75*
G02*
X107515000Y-93405000I0J75000D01*
G01*
X107515000Y-93255000D01*
G75*
G02*
X107590000Y-93180000I75000J0D01*
G01*
G37*
G36*
G01*
X107590000Y-93680000D02*
X109040000Y-93680000D01*
G75*
G02*
X109115000Y-93755000I0J-75000D01*
G01*
X109115000Y-93905000D01*
G75*
G02*
X109040000Y-93980000I-75000J0D01*
G01*
X107590000Y-93980000D01*
G75*
G02*
X107515000Y-93905000I0J75000D01*
G01*
X107515000Y-93755000D01*
G75*
G02*
X107590000Y-93680000I75000J0D01*
G01*
G37*
G36*
G01*
X107590000Y-94180000D02*
X109040000Y-94180000D01*
G75*
G02*
X109115000Y-94255000I0J-75000D01*
G01*
X109115000Y-94405000D01*
G75*
G02*
X109040000Y-94480000I-75000J0D01*
G01*
X107590000Y-94480000D01*
G75*
G02*
X107515000Y-94405000I0J75000D01*
G01*
X107515000Y-94255000D01*
G75*
G02*
X107590000Y-94180000I75000J0D01*
G01*
G37*
G36*
G01*
X107590000Y-94680000D02*
X109040000Y-94680000D01*
G75*
G02*
X109115000Y-94755000I0J-75000D01*
G01*
X109115000Y-94905000D01*
G75*
G02*
X109040000Y-94980000I-75000J0D01*
G01*
X107590000Y-94980000D01*
G75*
G02*
X107515000Y-94905000I0J75000D01*
G01*
X107515000Y-94755000D01*
G75*
G02*
X107590000Y-94680000I75000J0D01*
G01*
G37*
G36*
G01*
X107590000Y-95180000D02*
X109040000Y-95180000D01*
G75*
G02*
X109115000Y-95255000I0J-75000D01*
G01*
X109115000Y-95405000D01*
G75*
G02*
X109040000Y-95480000I-75000J0D01*
G01*
X107590000Y-95480000D01*
G75*
G02*
X107515000Y-95405000I0J75000D01*
G01*
X107515000Y-95255000D01*
G75*
G02*
X107590000Y-95180000I75000J0D01*
G01*
G37*
G36*
G01*
X107590000Y-95680000D02*
X109040000Y-95680000D01*
G75*
G02*
X109115000Y-95755000I0J-75000D01*
G01*
X109115000Y-95905000D01*
G75*
G02*
X109040000Y-95980000I-75000J0D01*
G01*
X107590000Y-95980000D01*
G75*
G02*
X107515000Y-95905000I0J75000D01*
G01*
X107515000Y-95755000D01*
G75*
G02*
X107590000Y-95680000I75000J0D01*
G01*
G37*
G36*
G01*
X107590000Y-96180000D02*
X109040000Y-96180000D01*
G75*
G02*
X109115000Y-96255000I0J-75000D01*
G01*
X109115000Y-96405000D01*
G75*
G02*
X109040000Y-96480000I-75000J0D01*
G01*
X107590000Y-96480000D01*
G75*
G02*
X107515000Y-96405000I0J75000D01*
G01*
X107515000Y-96255000D01*
G75*
G02*
X107590000Y-96180000I75000J0D01*
G01*
G37*
G36*
G01*
X107590000Y-96680000D02*
X109040000Y-96680000D01*
G75*
G02*
X109115000Y-96755000I0J-75000D01*
G01*
X109115000Y-96905000D01*
G75*
G02*
X109040000Y-96980000I-75000J0D01*
G01*
X107590000Y-96980000D01*
G75*
G02*
X107515000Y-96905000I0J75000D01*
G01*
X107515000Y-96755000D01*
G75*
G02*
X107590000Y-96680000I75000J0D01*
G01*
G37*
G36*
G01*
X107590000Y-97180000D02*
X109040000Y-97180000D01*
G75*
G02*
X109115000Y-97255000I0J-75000D01*
G01*
X109115000Y-97405000D01*
G75*
G02*
X109040000Y-97480000I-75000J0D01*
G01*
X107590000Y-97480000D01*
G75*
G02*
X107515000Y-97405000I0J75000D01*
G01*
X107515000Y-97255000D01*
G75*
G02*
X107590000Y-97180000I75000J0D01*
G01*
G37*
G36*
G01*
X107590000Y-97680000D02*
X109040000Y-97680000D01*
G75*
G02*
X109115000Y-97755000I0J-75000D01*
G01*
X109115000Y-97905000D01*
G75*
G02*
X109040000Y-97980000I-75000J0D01*
G01*
X107590000Y-97980000D01*
G75*
G02*
X107515000Y-97905000I0J75000D01*
G01*
X107515000Y-97755000D01*
G75*
G02*
X107590000Y-97680000I75000J0D01*
G01*
G37*
G36*
G01*
X107590000Y-98180000D02*
X109040000Y-98180000D01*
G75*
G02*
X109115000Y-98255000I0J-75000D01*
G01*
X109115000Y-98405000D01*
G75*
G02*
X109040000Y-98480000I-75000J0D01*
G01*
X107590000Y-98480000D01*
G75*
G02*
X107515000Y-98405000I0J75000D01*
G01*
X107515000Y-98255000D01*
G75*
G02*
X107590000Y-98180000I75000J0D01*
G01*
G37*
G36*
G01*
X109915000Y-99205000D02*
X110065000Y-99205000D01*
G75*
G02*
X110140000Y-99280000I0J-75000D01*
G01*
X110140000Y-100730000D01*
G75*
G02*
X110065000Y-100805000I-75000J0D01*
G01*
X109915000Y-100805000D01*
G75*
G02*
X109840000Y-100730000I0J75000D01*
G01*
X109840000Y-99280000D01*
G75*
G02*
X109915000Y-99205000I75000J0D01*
G01*
G37*
G36*
G01*
X110415000Y-99205000D02*
X110565000Y-99205000D01*
G75*
G02*
X110640000Y-99280000I0J-75000D01*
G01*
X110640000Y-100730000D01*
G75*
G02*
X110565000Y-100805000I-75000J0D01*
G01*
X110415000Y-100805000D01*
G75*
G02*
X110340000Y-100730000I0J75000D01*
G01*
X110340000Y-99280000D01*
G75*
G02*
X110415000Y-99205000I75000J0D01*
G01*
G37*
G36*
G01*
X110915000Y-99205000D02*
X111065000Y-99205000D01*
G75*
G02*
X111140000Y-99280000I0J-75000D01*
G01*
X111140000Y-100730000D01*
G75*
G02*
X111065000Y-100805000I-75000J0D01*
G01*
X110915000Y-100805000D01*
G75*
G02*
X110840000Y-100730000I0J75000D01*
G01*
X110840000Y-99280000D01*
G75*
G02*
X110915000Y-99205000I75000J0D01*
G01*
G37*
G36*
G01*
X111415000Y-99205000D02*
X111565000Y-99205000D01*
G75*
G02*
X111640000Y-99280000I0J-75000D01*
G01*
X111640000Y-100730000D01*
G75*
G02*
X111565000Y-100805000I-75000J0D01*
G01*
X111415000Y-100805000D01*
G75*
G02*
X111340000Y-100730000I0J75000D01*
G01*
X111340000Y-99280000D01*
G75*
G02*
X111415000Y-99205000I75000J0D01*
G01*
G37*
G36*
G01*
X111915000Y-99205000D02*
X112065000Y-99205000D01*
G75*
G02*
X112140000Y-99280000I0J-75000D01*
G01*
X112140000Y-100730000D01*
G75*
G02*
X112065000Y-100805000I-75000J0D01*
G01*
X111915000Y-100805000D01*
G75*
G02*
X111840000Y-100730000I0J75000D01*
G01*
X111840000Y-99280000D01*
G75*
G02*
X111915000Y-99205000I75000J0D01*
G01*
G37*
G36*
G01*
X112415000Y-99205000D02*
X112565000Y-99205000D01*
G75*
G02*
X112640000Y-99280000I0J-75000D01*
G01*
X112640000Y-100730000D01*
G75*
G02*
X112565000Y-100805000I-75000J0D01*
G01*
X112415000Y-100805000D01*
G75*
G02*
X112340000Y-100730000I0J75000D01*
G01*
X112340000Y-99280000D01*
G75*
G02*
X112415000Y-99205000I75000J0D01*
G01*
G37*
G36*
G01*
X112915000Y-99205000D02*
X113065000Y-99205000D01*
G75*
G02*
X113140000Y-99280000I0J-75000D01*
G01*
X113140000Y-100730000D01*
G75*
G02*
X113065000Y-100805000I-75000J0D01*
G01*
X112915000Y-100805000D01*
G75*
G02*
X112840000Y-100730000I0J75000D01*
G01*
X112840000Y-99280000D01*
G75*
G02*
X112915000Y-99205000I75000J0D01*
G01*
G37*
G36*
G01*
X113415000Y-99205000D02*
X113565000Y-99205000D01*
G75*
G02*
X113640000Y-99280000I0J-75000D01*
G01*
X113640000Y-100730000D01*
G75*
G02*
X113565000Y-100805000I-75000J0D01*
G01*
X113415000Y-100805000D01*
G75*
G02*
X113340000Y-100730000I0J75000D01*
G01*
X113340000Y-99280000D01*
G75*
G02*
X113415000Y-99205000I75000J0D01*
G01*
G37*
G36*
G01*
X113915000Y-99205000D02*
X114065000Y-99205000D01*
G75*
G02*
X114140000Y-99280000I0J-75000D01*
G01*
X114140000Y-100730000D01*
G75*
G02*
X114065000Y-100805000I-75000J0D01*
G01*
X113915000Y-100805000D01*
G75*
G02*
X113840000Y-100730000I0J75000D01*
G01*
X113840000Y-99280000D01*
G75*
G02*
X113915000Y-99205000I75000J0D01*
G01*
G37*
G36*
G01*
X114415000Y-99205000D02*
X114565000Y-99205000D01*
G75*
G02*
X114640000Y-99280000I0J-75000D01*
G01*
X114640000Y-100730000D01*
G75*
G02*
X114565000Y-100805000I-75000J0D01*
G01*
X114415000Y-100805000D01*
G75*
G02*
X114340000Y-100730000I0J75000D01*
G01*
X114340000Y-99280000D01*
G75*
G02*
X114415000Y-99205000I75000J0D01*
G01*
G37*
G36*
G01*
X114915000Y-99205000D02*
X115065000Y-99205000D01*
G75*
G02*
X115140000Y-99280000I0J-75000D01*
G01*
X115140000Y-100730000D01*
G75*
G02*
X115065000Y-100805000I-75000J0D01*
G01*
X114915000Y-100805000D01*
G75*
G02*
X114840000Y-100730000I0J75000D01*
G01*
X114840000Y-99280000D01*
G75*
G02*
X114915000Y-99205000I75000J0D01*
G01*
G37*
G36*
G01*
X115415000Y-99205000D02*
X115565000Y-99205000D01*
G75*
G02*
X115640000Y-99280000I0J-75000D01*
G01*
X115640000Y-100730000D01*
G75*
G02*
X115565000Y-100805000I-75000J0D01*
G01*
X115415000Y-100805000D01*
G75*
G02*
X115340000Y-100730000I0J75000D01*
G01*
X115340000Y-99280000D01*
G75*
G02*
X115415000Y-99205000I75000J0D01*
G01*
G37*
G36*
G01*
X115915000Y-99205000D02*
X116065000Y-99205000D01*
G75*
G02*
X116140000Y-99280000I0J-75000D01*
G01*
X116140000Y-100730000D01*
G75*
G02*
X116065000Y-100805000I-75000J0D01*
G01*
X115915000Y-100805000D01*
G75*
G02*
X115840000Y-100730000I0J75000D01*
G01*
X115840000Y-99280000D01*
G75*
G02*
X115915000Y-99205000I75000J0D01*
G01*
G37*
G36*
G01*
X116415000Y-99205000D02*
X116565000Y-99205000D01*
G75*
G02*
X116640000Y-99280000I0J-75000D01*
G01*
X116640000Y-100730000D01*
G75*
G02*
X116565000Y-100805000I-75000J0D01*
G01*
X116415000Y-100805000D01*
G75*
G02*
X116340000Y-100730000I0J75000D01*
G01*
X116340000Y-99280000D01*
G75*
G02*
X116415000Y-99205000I75000J0D01*
G01*
G37*
G36*
G01*
X116915000Y-99205000D02*
X117065000Y-99205000D01*
G75*
G02*
X117140000Y-99280000I0J-75000D01*
G01*
X117140000Y-100730000D01*
G75*
G02*
X117065000Y-100805000I-75000J0D01*
G01*
X116915000Y-100805000D01*
G75*
G02*
X116840000Y-100730000I0J75000D01*
G01*
X116840000Y-99280000D01*
G75*
G02*
X116915000Y-99205000I75000J0D01*
G01*
G37*
G36*
G01*
X117415000Y-99205000D02*
X117565000Y-99205000D01*
G75*
G02*
X117640000Y-99280000I0J-75000D01*
G01*
X117640000Y-100730000D01*
G75*
G02*
X117565000Y-100805000I-75000J0D01*
G01*
X117415000Y-100805000D01*
G75*
G02*
X117340000Y-100730000I0J75000D01*
G01*
X117340000Y-99280000D01*
G75*
G02*
X117415000Y-99205000I75000J0D01*
G01*
G37*
G36*
G01*
X117915000Y-99205000D02*
X118065000Y-99205000D01*
G75*
G02*
X118140000Y-99280000I0J-75000D01*
G01*
X118140000Y-100730000D01*
G75*
G02*
X118065000Y-100805000I-75000J0D01*
G01*
X117915000Y-100805000D01*
G75*
G02*
X117840000Y-100730000I0J75000D01*
G01*
X117840000Y-99280000D01*
G75*
G02*
X117915000Y-99205000I75000J0D01*
G01*
G37*
G36*
G01*
X118415000Y-99205000D02*
X118565000Y-99205000D01*
G75*
G02*
X118640000Y-99280000I0J-75000D01*
G01*
X118640000Y-100730000D01*
G75*
G02*
X118565000Y-100805000I-75000J0D01*
G01*
X118415000Y-100805000D01*
G75*
G02*
X118340000Y-100730000I0J75000D01*
G01*
X118340000Y-99280000D01*
G75*
G02*
X118415000Y-99205000I75000J0D01*
G01*
G37*
G36*
G01*
X118915000Y-99205000D02*
X119065000Y-99205000D01*
G75*
G02*
X119140000Y-99280000I0J-75000D01*
G01*
X119140000Y-100730000D01*
G75*
G02*
X119065000Y-100805000I-75000J0D01*
G01*
X118915000Y-100805000D01*
G75*
G02*
X118840000Y-100730000I0J75000D01*
G01*
X118840000Y-99280000D01*
G75*
G02*
X118915000Y-99205000I75000J0D01*
G01*
G37*
G36*
G01*
X119415000Y-99205000D02*
X119565000Y-99205000D01*
G75*
G02*
X119640000Y-99280000I0J-75000D01*
G01*
X119640000Y-100730000D01*
G75*
G02*
X119565000Y-100805000I-75000J0D01*
G01*
X119415000Y-100805000D01*
G75*
G02*
X119340000Y-100730000I0J75000D01*
G01*
X119340000Y-99280000D01*
G75*
G02*
X119415000Y-99205000I75000J0D01*
G01*
G37*
G36*
G01*
X119915000Y-99205000D02*
X120065000Y-99205000D01*
G75*
G02*
X120140000Y-99280000I0J-75000D01*
G01*
X120140000Y-100730000D01*
G75*
G02*
X120065000Y-100805000I-75000J0D01*
G01*
X119915000Y-100805000D01*
G75*
G02*
X119840000Y-100730000I0J75000D01*
G01*
X119840000Y-99280000D01*
G75*
G02*
X119915000Y-99205000I75000J0D01*
G01*
G37*
G36*
G01*
X120415000Y-99205000D02*
X120565000Y-99205000D01*
G75*
G02*
X120640000Y-99280000I0J-75000D01*
G01*
X120640000Y-100730000D01*
G75*
G02*
X120565000Y-100805000I-75000J0D01*
G01*
X120415000Y-100805000D01*
G75*
G02*
X120340000Y-100730000I0J75000D01*
G01*
X120340000Y-99280000D01*
G75*
G02*
X120415000Y-99205000I75000J0D01*
G01*
G37*
G36*
G01*
X120915000Y-99205000D02*
X121065000Y-99205000D01*
G75*
G02*
X121140000Y-99280000I0J-75000D01*
G01*
X121140000Y-100730000D01*
G75*
G02*
X121065000Y-100805000I-75000J0D01*
G01*
X120915000Y-100805000D01*
G75*
G02*
X120840000Y-100730000I0J75000D01*
G01*
X120840000Y-99280000D01*
G75*
G02*
X120915000Y-99205000I75000J0D01*
G01*
G37*
G36*
G01*
X121415000Y-99205000D02*
X121565000Y-99205000D01*
G75*
G02*
X121640000Y-99280000I0J-75000D01*
G01*
X121640000Y-100730000D01*
G75*
G02*
X121565000Y-100805000I-75000J0D01*
G01*
X121415000Y-100805000D01*
G75*
G02*
X121340000Y-100730000I0J75000D01*
G01*
X121340000Y-99280000D01*
G75*
G02*
X121415000Y-99205000I75000J0D01*
G01*
G37*
G36*
G01*
X121915000Y-99205000D02*
X122065000Y-99205000D01*
G75*
G02*
X122140000Y-99280000I0J-75000D01*
G01*
X122140000Y-100730000D01*
G75*
G02*
X122065000Y-100805000I-75000J0D01*
G01*
X121915000Y-100805000D01*
G75*
G02*
X121840000Y-100730000I0J75000D01*
G01*
X121840000Y-99280000D01*
G75*
G02*
X121915000Y-99205000I75000J0D01*
G01*
G37*
G36*
G01*
X122940000Y-98180000D02*
X124390000Y-98180000D01*
G75*
G02*
X124465000Y-98255000I0J-75000D01*
G01*
X124465000Y-98405000D01*
G75*
G02*
X124390000Y-98480000I-75000J0D01*
G01*
X122940000Y-98480000D01*
G75*
G02*
X122865000Y-98405000I0J75000D01*
G01*
X122865000Y-98255000D01*
G75*
G02*
X122940000Y-98180000I75000J0D01*
G01*
G37*
G36*
G01*
X122940000Y-97680000D02*
X124390000Y-97680000D01*
G75*
G02*
X124465000Y-97755000I0J-75000D01*
G01*
X124465000Y-97905000D01*
G75*
G02*
X124390000Y-97980000I-75000J0D01*
G01*
X122940000Y-97980000D01*
G75*
G02*
X122865000Y-97905000I0J75000D01*
G01*
X122865000Y-97755000D01*
G75*
G02*
X122940000Y-97680000I75000J0D01*
G01*
G37*
G36*
G01*
X122940000Y-97180000D02*
X124390000Y-97180000D01*
G75*
G02*
X124465000Y-97255000I0J-75000D01*
G01*
X124465000Y-97405000D01*
G75*
G02*
X124390000Y-97480000I-75000J0D01*
G01*
X122940000Y-97480000D01*
G75*
G02*
X122865000Y-97405000I0J75000D01*
G01*
X122865000Y-97255000D01*
G75*
G02*
X122940000Y-97180000I75000J0D01*
G01*
G37*
G36*
G01*
X122940000Y-96680000D02*
X124390000Y-96680000D01*
G75*
G02*
X124465000Y-96755000I0J-75000D01*
G01*
X124465000Y-96905000D01*
G75*
G02*
X124390000Y-96980000I-75000J0D01*
G01*
X122940000Y-96980000D01*
G75*
G02*
X122865000Y-96905000I0J75000D01*
G01*
X122865000Y-96755000D01*
G75*
G02*
X122940000Y-96680000I75000J0D01*
G01*
G37*
G36*
G01*
X122940000Y-96180000D02*
X124390000Y-96180000D01*
G75*
G02*
X124465000Y-96255000I0J-75000D01*
G01*
X124465000Y-96405000D01*
G75*
G02*
X124390000Y-96480000I-75000J0D01*
G01*
X122940000Y-96480000D01*
G75*
G02*
X122865000Y-96405000I0J75000D01*
G01*
X122865000Y-96255000D01*
G75*
G02*
X122940000Y-96180000I75000J0D01*
G01*
G37*
G36*
G01*
X122940000Y-95680000D02*
X124390000Y-95680000D01*
G75*
G02*
X124465000Y-95755000I0J-75000D01*
G01*
X124465000Y-95905000D01*
G75*
G02*
X124390000Y-95980000I-75000J0D01*
G01*
X122940000Y-95980000D01*
G75*
G02*
X122865000Y-95905000I0J75000D01*
G01*
X122865000Y-95755000D01*
G75*
G02*
X122940000Y-95680000I75000J0D01*
G01*
G37*
G36*
G01*
X122940000Y-95180000D02*
X124390000Y-95180000D01*
G75*
G02*
X124465000Y-95255000I0J-75000D01*
G01*
X124465000Y-95405000D01*
G75*
G02*
X124390000Y-95480000I-75000J0D01*
G01*
X122940000Y-95480000D01*
G75*
G02*
X122865000Y-95405000I0J75000D01*
G01*
X122865000Y-95255000D01*
G75*
G02*
X122940000Y-95180000I75000J0D01*
G01*
G37*
G36*
G01*
X122940000Y-94680000D02*
X124390000Y-94680000D01*
G75*
G02*
X124465000Y-94755000I0J-75000D01*
G01*
X124465000Y-94905000D01*
G75*
G02*
X124390000Y-94980000I-75000J0D01*
G01*
X122940000Y-94980000D01*
G75*
G02*
X122865000Y-94905000I0J75000D01*
G01*
X122865000Y-94755000D01*
G75*
G02*
X122940000Y-94680000I75000J0D01*
G01*
G37*
G36*
G01*
X122940000Y-94180000D02*
X124390000Y-94180000D01*
G75*
G02*
X124465000Y-94255000I0J-75000D01*
G01*
X124465000Y-94405000D01*
G75*
G02*
X124390000Y-94480000I-75000J0D01*
G01*
X122940000Y-94480000D01*
G75*
G02*
X122865000Y-94405000I0J75000D01*
G01*
X122865000Y-94255000D01*
G75*
G02*
X122940000Y-94180000I75000J0D01*
G01*
G37*
G36*
G01*
X122940000Y-93680000D02*
X124390000Y-93680000D01*
G75*
G02*
X124465000Y-93755000I0J-75000D01*
G01*
X124465000Y-93905000D01*
G75*
G02*
X124390000Y-93980000I-75000J0D01*
G01*
X122940000Y-93980000D01*
G75*
G02*
X122865000Y-93905000I0J75000D01*
G01*
X122865000Y-93755000D01*
G75*
G02*
X122940000Y-93680000I75000J0D01*
G01*
G37*
G36*
G01*
X122940000Y-93180000D02*
X124390000Y-93180000D01*
G75*
G02*
X124465000Y-93255000I0J-75000D01*
G01*
X124465000Y-93405000D01*
G75*
G02*
X124390000Y-93480000I-75000J0D01*
G01*
X122940000Y-93480000D01*
G75*
G02*
X122865000Y-93405000I0J75000D01*
G01*
X122865000Y-93255000D01*
G75*
G02*
X122940000Y-93180000I75000J0D01*
G01*
G37*
G36*
G01*
X122940000Y-92680000D02*
X124390000Y-92680000D01*
G75*
G02*
X124465000Y-92755000I0J-75000D01*
G01*
X124465000Y-92905000D01*
G75*
G02*
X124390000Y-92980000I-75000J0D01*
G01*
X122940000Y-92980000D01*
G75*
G02*
X122865000Y-92905000I0J75000D01*
G01*
X122865000Y-92755000D01*
G75*
G02*
X122940000Y-92680000I75000J0D01*
G01*
G37*
G36*
G01*
X122940000Y-92180000D02*
X124390000Y-92180000D01*
G75*
G02*
X124465000Y-92255000I0J-75000D01*
G01*
X124465000Y-92405000D01*
G75*
G02*
X124390000Y-92480000I-75000J0D01*
G01*
X122940000Y-92480000D01*
G75*
G02*
X122865000Y-92405000I0J75000D01*
G01*
X122865000Y-92255000D01*
G75*
G02*
X122940000Y-92180000I75000J0D01*
G01*
G37*
G36*
G01*
X122940000Y-91680000D02*
X124390000Y-91680000D01*
G75*
G02*
X124465000Y-91755000I0J-75000D01*
G01*
X124465000Y-91905000D01*
G75*
G02*
X124390000Y-91980000I-75000J0D01*
G01*
X122940000Y-91980000D01*
G75*
G02*
X122865000Y-91905000I0J75000D01*
G01*
X122865000Y-91755000D01*
G75*
G02*
X122940000Y-91680000I75000J0D01*
G01*
G37*
G36*
G01*
X122940000Y-91180000D02*
X124390000Y-91180000D01*
G75*
G02*
X124465000Y-91255000I0J-75000D01*
G01*
X124465000Y-91405000D01*
G75*
G02*
X124390000Y-91480000I-75000J0D01*
G01*
X122940000Y-91480000D01*
G75*
G02*
X122865000Y-91405000I0J75000D01*
G01*
X122865000Y-91255000D01*
G75*
G02*
X122940000Y-91180000I75000J0D01*
G01*
G37*
G36*
G01*
X122940000Y-90680000D02*
X124390000Y-90680000D01*
G75*
G02*
X124465000Y-90755000I0J-75000D01*
G01*
X124465000Y-90905000D01*
G75*
G02*
X124390000Y-90980000I-75000J0D01*
G01*
X122940000Y-90980000D01*
G75*
G02*
X122865000Y-90905000I0J75000D01*
G01*
X122865000Y-90755000D01*
G75*
G02*
X122940000Y-90680000I75000J0D01*
G01*
G37*
G36*
G01*
X122940000Y-90180000D02*
X124390000Y-90180000D01*
G75*
G02*
X124465000Y-90255000I0J-75000D01*
G01*
X124465000Y-90405000D01*
G75*
G02*
X124390000Y-90480000I-75000J0D01*
G01*
X122940000Y-90480000D01*
G75*
G02*
X122865000Y-90405000I0J75000D01*
G01*
X122865000Y-90255000D01*
G75*
G02*
X122940000Y-90180000I75000J0D01*
G01*
G37*
G36*
G01*
X122940000Y-89680000D02*
X124390000Y-89680000D01*
G75*
G02*
X124465000Y-89755000I0J-75000D01*
G01*
X124465000Y-89905000D01*
G75*
G02*
X124390000Y-89980000I-75000J0D01*
G01*
X122940000Y-89980000D01*
G75*
G02*
X122865000Y-89905000I0J75000D01*
G01*
X122865000Y-89755000D01*
G75*
G02*
X122940000Y-89680000I75000J0D01*
G01*
G37*
G36*
G01*
X122940000Y-89180000D02*
X124390000Y-89180000D01*
G75*
G02*
X124465000Y-89255000I0J-75000D01*
G01*
X124465000Y-89405000D01*
G75*
G02*
X124390000Y-89480000I-75000J0D01*
G01*
X122940000Y-89480000D01*
G75*
G02*
X122865000Y-89405000I0J75000D01*
G01*
X122865000Y-89255000D01*
G75*
G02*
X122940000Y-89180000I75000J0D01*
G01*
G37*
G36*
G01*
X122940000Y-88680000D02*
X124390000Y-88680000D01*
G75*
G02*
X124465000Y-88755000I0J-75000D01*
G01*
X124465000Y-88905000D01*
G75*
G02*
X124390000Y-88980000I-75000J0D01*
G01*
X122940000Y-88980000D01*
G75*
G02*
X122865000Y-88905000I0J75000D01*
G01*
X122865000Y-88755000D01*
G75*
G02*
X122940000Y-88680000I75000J0D01*
G01*
G37*
G36*
G01*
X122940000Y-88180000D02*
X124390000Y-88180000D01*
G75*
G02*
X124465000Y-88255000I0J-75000D01*
G01*
X124465000Y-88405000D01*
G75*
G02*
X124390000Y-88480000I-75000J0D01*
G01*
X122940000Y-88480000D01*
G75*
G02*
X122865000Y-88405000I0J75000D01*
G01*
X122865000Y-88255000D01*
G75*
G02*
X122940000Y-88180000I75000J0D01*
G01*
G37*
G36*
G01*
X122940000Y-87680000D02*
X124390000Y-87680000D01*
G75*
G02*
X124465000Y-87755000I0J-75000D01*
G01*
X124465000Y-87905000D01*
G75*
G02*
X124390000Y-87980000I-75000J0D01*
G01*
X122940000Y-87980000D01*
G75*
G02*
X122865000Y-87905000I0J75000D01*
G01*
X122865000Y-87755000D01*
G75*
G02*
X122940000Y-87680000I75000J0D01*
G01*
G37*
G36*
G01*
X122940000Y-87180000D02*
X124390000Y-87180000D01*
G75*
G02*
X124465000Y-87255000I0J-75000D01*
G01*
X124465000Y-87405000D01*
G75*
G02*
X124390000Y-87480000I-75000J0D01*
G01*
X122940000Y-87480000D01*
G75*
G02*
X122865000Y-87405000I0J75000D01*
G01*
X122865000Y-87255000D01*
G75*
G02*
X122940000Y-87180000I75000J0D01*
G01*
G37*
G36*
G01*
X122940000Y-86680000D02*
X124390000Y-86680000D01*
G75*
G02*
X124465000Y-86755000I0J-75000D01*
G01*
X124465000Y-86905000D01*
G75*
G02*
X124390000Y-86980000I-75000J0D01*
G01*
X122940000Y-86980000D01*
G75*
G02*
X122865000Y-86905000I0J75000D01*
G01*
X122865000Y-86755000D01*
G75*
G02*
X122940000Y-86680000I75000J0D01*
G01*
G37*
G36*
G01*
X122940000Y-86180000D02*
X124390000Y-86180000D01*
G75*
G02*
X124465000Y-86255000I0J-75000D01*
G01*
X124465000Y-86405000D01*
G75*
G02*
X124390000Y-86480000I-75000J0D01*
G01*
X122940000Y-86480000D01*
G75*
G02*
X122865000Y-86405000I0J75000D01*
G01*
X122865000Y-86255000D01*
G75*
G02*
X122940000Y-86180000I75000J0D01*
G01*
G37*
G36*
G01*
X121915000Y-83855000D02*
X122065000Y-83855000D01*
G75*
G02*
X122140000Y-83930000I0J-75000D01*
G01*
X122140000Y-85380000D01*
G75*
G02*
X122065000Y-85455000I-75000J0D01*
G01*
X121915000Y-85455000D01*
G75*
G02*
X121840000Y-85380000I0J75000D01*
G01*
X121840000Y-83930000D01*
G75*
G02*
X121915000Y-83855000I75000J0D01*
G01*
G37*
G36*
G01*
X121415000Y-83855000D02*
X121565000Y-83855000D01*
G75*
G02*
X121640000Y-83930000I0J-75000D01*
G01*
X121640000Y-85380000D01*
G75*
G02*
X121565000Y-85455000I-75000J0D01*
G01*
X121415000Y-85455000D01*
G75*
G02*
X121340000Y-85380000I0J75000D01*
G01*
X121340000Y-83930000D01*
G75*
G02*
X121415000Y-83855000I75000J0D01*
G01*
G37*
G36*
G01*
X120915000Y-83855000D02*
X121065000Y-83855000D01*
G75*
G02*
X121140000Y-83930000I0J-75000D01*
G01*
X121140000Y-85380000D01*
G75*
G02*
X121065000Y-85455000I-75000J0D01*
G01*
X120915000Y-85455000D01*
G75*
G02*
X120840000Y-85380000I0J75000D01*
G01*
X120840000Y-83930000D01*
G75*
G02*
X120915000Y-83855000I75000J0D01*
G01*
G37*
G36*
G01*
X120415000Y-83855000D02*
X120565000Y-83855000D01*
G75*
G02*
X120640000Y-83930000I0J-75000D01*
G01*
X120640000Y-85380000D01*
G75*
G02*
X120565000Y-85455000I-75000J0D01*
G01*
X120415000Y-85455000D01*
G75*
G02*
X120340000Y-85380000I0J75000D01*
G01*
X120340000Y-83930000D01*
G75*
G02*
X120415000Y-83855000I75000J0D01*
G01*
G37*
G36*
G01*
X119915000Y-83855000D02*
X120065000Y-83855000D01*
G75*
G02*
X120140000Y-83930000I0J-75000D01*
G01*
X120140000Y-85380000D01*
G75*
G02*
X120065000Y-85455000I-75000J0D01*
G01*
X119915000Y-85455000D01*
G75*
G02*
X119840000Y-85380000I0J75000D01*
G01*
X119840000Y-83930000D01*
G75*
G02*
X119915000Y-83855000I75000J0D01*
G01*
G37*
G36*
G01*
X119415000Y-83855000D02*
X119565000Y-83855000D01*
G75*
G02*
X119640000Y-83930000I0J-75000D01*
G01*
X119640000Y-85380000D01*
G75*
G02*
X119565000Y-85455000I-75000J0D01*
G01*
X119415000Y-85455000D01*
G75*
G02*
X119340000Y-85380000I0J75000D01*
G01*
X119340000Y-83930000D01*
G75*
G02*
X119415000Y-83855000I75000J0D01*
G01*
G37*
G36*
G01*
X118915000Y-83855000D02*
X119065000Y-83855000D01*
G75*
G02*
X119140000Y-83930000I0J-75000D01*
G01*
X119140000Y-85380000D01*
G75*
G02*
X119065000Y-85455000I-75000J0D01*
G01*
X118915000Y-85455000D01*
G75*
G02*
X118840000Y-85380000I0J75000D01*
G01*
X118840000Y-83930000D01*
G75*
G02*
X118915000Y-83855000I75000J0D01*
G01*
G37*
G36*
G01*
X118415000Y-83855000D02*
X118565000Y-83855000D01*
G75*
G02*
X118640000Y-83930000I0J-75000D01*
G01*
X118640000Y-85380000D01*
G75*
G02*
X118565000Y-85455000I-75000J0D01*
G01*
X118415000Y-85455000D01*
G75*
G02*
X118340000Y-85380000I0J75000D01*
G01*
X118340000Y-83930000D01*
G75*
G02*
X118415000Y-83855000I75000J0D01*
G01*
G37*
G36*
G01*
X117915000Y-83855000D02*
X118065000Y-83855000D01*
G75*
G02*
X118140000Y-83930000I0J-75000D01*
G01*
X118140000Y-85380000D01*
G75*
G02*
X118065000Y-85455000I-75000J0D01*
G01*
X117915000Y-85455000D01*
G75*
G02*
X117840000Y-85380000I0J75000D01*
G01*
X117840000Y-83930000D01*
G75*
G02*
X117915000Y-83855000I75000J0D01*
G01*
G37*
G36*
G01*
X117415000Y-83855000D02*
X117565000Y-83855000D01*
G75*
G02*
X117640000Y-83930000I0J-75000D01*
G01*
X117640000Y-85380000D01*
G75*
G02*
X117565000Y-85455000I-75000J0D01*
G01*
X117415000Y-85455000D01*
G75*
G02*
X117340000Y-85380000I0J75000D01*
G01*
X117340000Y-83930000D01*
G75*
G02*
X117415000Y-83855000I75000J0D01*
G01*
G37*
G36*
G01*
X116915000Y-83855000D02*
X117065000Y-83855000D01*
G75*
G02*
X117140000Y-83930000I0J-75000D01*
G01*
X117140000Y-85380000D01*
G75*
G02*
X117065000Y-85455000I-75000J0D01*
G01*
X116915000Y-85455000D01*
G75*
G02*
X116840000Y-85380000I0J75000D01*
G01*
X116840000Y-83930000D01*
G75*
G02*
X116915000Y-83855000I75000J0D01*
G01*
G37*
G36*
G01*
X116415000Y-83855000D02*
X116565000Y-83855000D01*
G75*
G02*
X116640000Y-83930000I0J-75000D01*
G01*
X116640000Y-85380000D01*
G75*
G02*
X116565000Y-85455000I-75000J0D01*
G01*
X116415000Y-85455000D01*
G75*
G02*
X116340000Y-85380000I0J75000D01*
G01*
X116340000Y-83930000D01*
G75*
G02*
X116415000Y-83855000I75000J0D01*
G01*
G37*
G36*
G01*
X115915000Y-83855000D02*
X116065000Y-83855000D01*
G75*
G02*
X116140000Y-83930000I0J-75000D01*
G01*
X116140000Y-85380000D01*
G75*
G02*
X116065000Y-85455000I-75000J0D01*
G01*
X115915000Y-85455000D01*
G75*
G02*
X115840000Y-85380000I0J75000D01*
G01*
X115840000Y-83930000D01*
G75*
G02*
X115915000Y-83855000I75000J0D01*
G01*
G37*
G36*
G01*
X115415000Y-83855000D02*
X115565000Y-83855000D01*
G75*
G02*
X115640000Y-83930000I0J-75000D01*
G01*
X115640000Y-85380000D01*
G75*
G02*
X115565000Y-85455000I-75000J0D01*
G01*
X115415000Y-85455000D01*
G75*
G02*
X115340000Y-85380000I0J75000D01*
G01*
X115340000Y-83930000D01*
G75*
G02*
X115415000Y-83855000I75000J0D01*
G01*
G37*
G36*
G01*
X114915000Y-83855000D02*
X115065000Y-83855000D01*
G75*
G02*
X115140000Y-83930000I0J-75000D01*
G01*
X115140000Y-85380000D01*
G75*
G02*
X115065000Y-85455000I-75000J0D01*
G01*
X114915000Y-85455000D01*
G75*
G02*
X114840000Y-85380000I0J75000D01*
G01*
X114840000Y-83930000D01*
G75*
G02*
X114915000Y-83855000I75000J0D01*
G01*
G37*
G36*
G01*
X114415000Y-83855000D02*
X114565000Y-83855000D01*
G75*
G02*
X114640000Y-83930000I0J-75000D01*
G01*
X114640000Y-85380000D01*
G75*
G02*
X114565000Y-85455000I-75000J0D01*
G01*
X114415000Y-85455000D01*
G75*
G02*
X114340000Y-85380000I0J75000D01*
G01*
X114340000Y-83930000D01*
G75*
G02*
X114415000Y-83855000I75000J0D01*
G01*
G37*
G36*
G01*
X113915000Y-83855000D02*
X114065000Y-83855000D01*
G75*
G02*
X114140000Y-83930000I0J-75000D01*
G01*
X114140000Y-85380000D01*
G75*
G02*
X114065000Y-85455000I-75000J0D01*
G01*
X113915000Y-85455000D01*
G75*
G02*
X113840000Y-85380000I0J75000D01*
G01*
X113840000Y-83930000D01*
G75*
G02*
X113915000Y-83855000I75000J0D01*
G01*
G37*
G36*
G01*
X113415000Y-83855000D02*
X113565000Y-83855000D01*
G75*
G02*
X113640000Y-83930000I0J-75000D01*
G01*
X113640000Y-85380000D01*
G75*
G02*
X113565000Y-85455000I-75000J0D01*
G01*
X113415000Y-85455000D01*
G75*
G02*
X113340000Y-85380000I0J75000D01*
G01*
X113340000Y-83930000D01*
G75*
G02*
X113415000Y-83855000I75000J0D01*
G01*
G37*
G36*
G01*
X112915000Y-83855000D02*
X113065000Y-83855000D01*
G75*
G02*
X113140000Y-83930000I0J-75000D01*
G01*
X113140000Y-85380000D01*
G75*
G02*
X113065000Y-85455000I-75000J0D01*
G01*
X112915000Y-85455000D01*
G75*
G02*
X112840000Y-85380000I0J75000D01*
G01*
X112840000Y-83930000D01*
G75*
G02*
X112915000Y-83855000I75000J0D01*
G01*
G37*
G36*
G01*
X112415000Y-83855000D02*
X112565000Y-83855000D01*
G75*
G02*
X112640000Y-83930000I0J-75000D01*
G01*
X112640000Y-85380000D01*
G75*
G02*
X112565000Y-85455000I-75000J0D01*
G01*
X112415000Y-85455000D01*
G75*
G02*
X112340000Y-85380000I0J75000D01*
G01*
X112340000Y-83930000D01*
G75*
G02*
X112415000Y-83855000I75000J0D01*
G01*
G37*
G36*
G01*
X111915000Y-83855000D02*
X112065000Y-83855000D01*
G75*
G02*
X112140000Y-83930000I0J-75000D01*
G01*
X112140000Y-85380000D01*
G75*
G02*
X112065000Y-85455000I-75000J0D01*
G01*
X111915000Y-85455000D01*
G75*
G02*
X111840000Y-85380000I0J75000D01*
G01*
X111840000Y-83930000D01*
G75*
G02*
X111915000Y-83855000I75000J0D01*
G01*
G37*
G36*
G01*
X111415000Y-83855000D02*
X111565000Y-83855000D01*
G75*
G02*
X111640000Y-83930000I0J-75000D01*
G01*
X111640000Y-85380000D01*
G75*
G02*
X111565000Y-85455000I-75000J0D01*
G01*
X111415000Y-85455000D01*
G75*
G02*
X111340000Y-85380000I0J75000D01*
G01*
X111340000Y-83930000D01*
G75*
G02*
X111415000Y-83855000I75000J0D01*
G01*
G37*
G36*
G01*
X110915000Y-83855000D02*
X111065000Y-83855000D01*
G75*
G02*
X111140000Y-83930000I0J-75000D01*
G01*
X111140000Y-85380000D01*
G75*
G02*
X111065000Y-85455000I-75000J0D01*
G01*
X110915000Y-85455000D01*
G75*
G02*
X110840000Y-85380000I0J75000D01*
G01*
X110840000Y-83930000D01*
G75*
G02*
X110915000Y-83855000I75000J0D01*
G01*
G37*
G36*
G01*
X110415000Y-83855000D02*
X110565000Y-83855000D01*
G75*
G02*
X110640000Y-83930000I0J-75000D01*
G01*
X110640000Y-85380000D01*
G75*
G02*
X110565000Y-85455000I-75000J0D01*
G01*
X110415000Y-85455000D01*
G75*
G02*
X110340000Y-85380000I0J75000D01*
G01*
X110340000Y-83930000D01*
G75*
G02*
X110415000Y-83855000I75000J0D01*
G01*
G37*
G36*
G01*
X109915000Y-83855000D02*
X110065000Y-83855000D01*
G75*
G02*
X110140000Y-83930000I0J-75000D01*
G01*
X110140000Y-85380000D01*
G75*
G02*
X110065000Y-85455000I-75000J0D01*
G01*
X109915000Y-85455000D01*
G75*
G02*
X109840000Y-85380000I0J75000D01*
G01*
X109840000Y-83930000D01*
G75*
G02*
X109915000Y-83855000I75000J0D01*
G01*
G37*
G36*
G01*
X106182500Y-99455000D02*
X106657500Y-99455000D01*
G75*
G02*
X106895000Y-99692500I0J-237500D01*
G01*
X106895000Y-100267500D01*
G75*
G02*
X106657500Y-100505000I-237500J0D01*
G01*
X106182500Y-100505000D01*
G75*
G02*
X105945000Y-100267500I0J237500D01*
G01*
X105945000Y-99692500D01*
G75*
G02*
X106182500Y-99455000I237500J0D01*
G01*
G37*
G36*
G01*
X106182500Y-97705000D02*
X106657500Y-97705000D01*
G75*
G02*
X106895000Y-97942500I0J-237500D01*
G01*
X106895000Y-98517500D01*
G75*
G02*
X106657500Y-98755000I-237500J0D01*
G01*
X106182500Y-98755000D01*
G75*
G02*
X105945000Y-98517500I0J237500D01*
G01*
X105945000Y-97942500D01*
G75*
G02*
X106182500Y-97705000I237500J0D01*
G01*
G37*
G36*
G01*
X104652500Y-99615000D02*
X105127500Y-99615000D01*
G75*
G02*
X105365000Y-99852500I0J-237500D01*
G01*
X105365000Y-100427500D01*
G75*
G02*
X105127500Y-100665000I-237500J0D01*
G01*
X104652500Y-100665000D01*
G75*
G02*
X104415000Y-100427500I0J237500D01*
G01*
X104415000Y-99852500D01*
G75*
G02*
X104652500Y-99615000I237500J0D01*
G01*
G37*
G36*
G01*
X104652500Y-97865000D02*
X105127500Y-97865000D01*
G75*
G02*
X105365000Y-98102500I0J-237500D01*
G01*
X105365000Y-98677500D01*
G75*
G02*
X105127500Y-98915000I-237500J0D01*
G01*
X104652500Y-98915000D01*
G75*
G02*
X104415000Y-98677500I0J237500D01*
G01*
X104415000Y-98102500D01*
G75*
G02*
X104652500Y-97865000I237500J0D01*
G01*
G37*
G36*
G01*
X92602500Y-98895000D02*
X93077500Y-98895000D01*
G75*
G02*
X93315000Y-99132500I0J-237500D01*
G01*
X93315000Y-99707500D01*
G75*
G02*
X93077500Y-99945000I-237500J0D01*
G01*
X92602500Y-99945000D01*
G75*
G02*
X92365000Y-99707500I0J237500D01*
G01*
X92365000Y-99132500D01*
G75*
G02*
X92602500Y-98895000I237500J0D01*
G01*
G37*
G36*
G01*
X92602500Y-97145000D02*
X93077500Y-97145000D01*
G75*
G02*
X93315000Y-97382500I0J-237500D01*
G01*
X93315000Y-97957500D01*
G75*
G02*
X93077500Y-98195000I-237500J0D01*
G01*
X92602500Y-98195000D01*
G75*
G02*
X92365000Y-97957500I0J237500D01*
G01*
X92365000Y-97382500D01*
G75*
G02*
X92602500Y-97145000I237500J0D01*
G01*
G37*
G36*
G01*
X91517500Y-98195000D02*
X91042500Y-98195000D01*
G75*
G02*
X90805000Y-97957500I0J237500D01*
G01*
X90805000Y-97382500D01*
G75*
G02*
X91042500Y-97145000I237500J0D01*
G01*
X91517500Y-97145000D01*
G75*
G02*
X91755000Y-97382500I0J-237500D01*
G01*
X91755000Y-97957500D01*
G75*
G02*
X91517500Y-98195000I-237500J0D01*
G01*
G37*
G36*
G01*
X91517500Y-99945000D02*
X91042500Y-99945000D01*
G75*
G02*
X90805000Y-99707500I0J237500D01*
G01*
X90805000Y-99132500D01*
G75*
G02*
X91042500Y-98895000I237500J0D01*
G01*
X91517500Y-98895000D01*
G75*
G02*
X91755000Y-99132500I0J-237500D01*
G01*
X91755000Y-99707500D01*
G75*
G02*
X91517500Y-99945000I-237500J0D01*
G01*
G37*
D22*
X86092000Y-97630000D03*
X86914000Y-97630000D03*
X86914000Y-98530000D03*
X86914000Y-99430000D03*
X86092000Y-99430000D03*
D23*
X100580000Y-90970000D03*
X100580000Y-92770000D03*
G36*
G01*
X103077500Y-84625000D02*
X102602500Y-84625000D01*
G75*
G02*
X102365000Y-84387500I0J237500D01*
G01*
X102365000Y-83812500D01*
G75*
G02*
X102602500Y-83575000I237500J0D01*
G01*
X103077500Y-83575000D01*
G75*
G02*
X103315000Y-83812500I0J-237500D01*
G01*
X103315000Y-84387500D01*
G75*
G02*
X103077500Y-84625000I-237500J0D01*
G01*
G37*
G36*
G01*
X103077500Y-86375000D02*
X102602500Y-86375000D01*
G75*
G02*
X102365000Y-86137500I0J237500D01*
G01*
X102365000Y-85562500D01*
G75*
G02*
X102602500Y-85325000I237500J0D01*
G01*
X103077500Y-85325000D01*
G75*
G02*
X103315000Y-85562500I0J-237500D01*
G01*
X103315000Y-86137500D01*
G75*
G02*
X103077500Y-86375000I-237500J0D01*
G01*
G37*
G36*
G01*
X99705000Y-94192500D02*
X99705000Y-94667500D01*
G75*
G02*
X99467500Y-94905000I-237500J0D01*
G01*
X98892500Y-94905000D01*
G75*
G02*
X98655000Y-94667500I0J237500D01*
G01*
X98655000Y-94192500D01*
G75*
G02*
X98892500Y-93955000I237500J0D01*
G01*
X99467500Y-93955000D01*
G75*
G02*
X99705000Y-94192500I0J-237500D01*
G01*
G37*
G36*
G01*
X101455000Y-94192500D02*
X101455000Y-94667500D01*
G75*
G02*
X101217500Y-94905000I-237500J0D01*
G01*
X100642500Y-94905000D01*
G75*
G02*
X100405000Y-94667500I0J237500D01*
G01*
X100405000Y-94192500D01*
G75*
G02*
X100642500Y-93955000I237500J0D01*
G01*
X101217500Y-93955000D01*
G75*
G02*
X101455000Y-94192500I0J-237500D01*
G01*
G37*
G36*
G01*
X103517500Y-98795000D02*
X103042500Y-98795000D01*
G75*
G02*
X102805000Y-98557500I0J237500D01*
G01*
X102805000Y-97982500D01*
G75*
G02*
X103042500Y-97745000I237500J0D01*
G01*
X103517500Y-97745000D01*
G75*
G02*
X103755000Y-97982500I0J-237500D01*
G01*
X103755000Y-98557500D01*
G75*
G02*
X103517500Y-98795000I-237500J0D01*
G01*
G37*
G36*
G01*
X103517500Y-100545000D02*
X103042500Y-100545000D01*
G75*
G02*
X102805000Y-100307500I0J237500D01*
G01*
X102805000Y-99732500D01*
G75*
G02*
X103042500Y-99495000I237500J0D01*
G01*
X103517500Y-99495000D01*
G75*
G02*
X103755000Y-99732500I0J-237500D01*
G01*
X103755000Y-100307500D01*
G75*
G02*
X103517500Y-100545000I-237500J0D01*
G01*
G37*
G36*
G01*
X100857500Y-84605000D02*
X100382500Y-84605000D01*
G75*
G02*
X100145000Y-84367500I0J237500D01*
G01*
X100145000Y-83792500D01*
G75*
G02*
X100382500Y-83555000I237500J0D01*
G01*
X100857500Y-83555000D01*
G75*
G02*
X101095000Y-83792500I0J-237500D01*
G01*
X101095000Y-84367500D01*
G75*
G02*
X100857500Y-84605000I-237500J0D01*
G01*
G37*
G36*
G01*
X100857500Y-86355000D02*
X100382500Y-86355000D01*
G75*
G02*
X100145000Y-86117500I0J237500D01*
G01*
X100145000Y-85542500D01*
G75*
G02*
X100382500Y-85305000I237500J0D01*
G01*
X100857500Y-85305000D01*
G75*
G02*
X101095000Y-85542500I0J-237500D01*
G01*
X101095000Y-86117500D01*
G75*
G02*
X100857500Y-86355000I-237500J0D01*
G01*
G37*
M02*
