M48
; DRILL file {KiCad (5.1.6)-1} date 02/14/21 15:23:49
; FORMAT={-:-/ absolute / inch / decimal}
; #@! TF.CreationDate,2021-02-14T15:23:49+09:00
; #@! TF.GenerationSoftware,Kicad,Pcbnew,(5.1.6)-1
; #@! TF.FileFunction,Plated,1,4,PTH
FMAT,2
INCH
T1C0.0079
T2C0.0118
T3C0.0197
T4C0.0394
%
G90
G05
T1
X3.3047Y-3.5209
X3.3047Y-3.6209
X3.3051Y-3.948
X3.326Y-3.789
X3.3299Y-3.8299
X3.3898Y-3.9535
X3.4012Y-3.4232
X3.4291Y-3.7776
X3.4386Y-3.798
X3.4685Y-3.3232
X3.4685Y-3.4232
X3.4685Y-3.6232
X3.4685Y-3.8232
X3.4978Y-3.3073
X3.5598Y-3.9319
X3.5709Y-3.3169
X3.5709Y-3.4169
X3.5709Y-3.5169
X3.5709Y-3.6169
X3.5709Y-3.7169
X3.6083Y-3.7902
X3.6157Y-3.6598
X3.6551Y-3.9142
X3.661Y-3.965
X3.6677Y-3.3154
X3.6748Y-3.6059
X3.7503Y-3.5712
X3.7531Y-3.7628
X3.8024Y-3.5713
X3.8055Y-3.5047
X3.8098Y-3.7283
X3.8142Y-3.3307
X3.8142Y-3.4307
X3.8142Y-3.5307
X3.815Y-3.6126
X3.8571Y-3.9583
X3.8728Y-3.4205
X3.8799Y-3.5429
X3.9008Y-3.6142
X3.989Y-3.9465
X4.0083Y-3.3299
X4.0083Y-3.5299
X4.0083Y-3.7299
X4.0185Y-3.6846
X4.0382Y-3.8138
X4.0768Y-3.6614
X4.0843Y-3.722
X4.098Y-3.6335
X4.1024Y-3.6012
X4.1075Y-3.4634
X4.1138Y-3.8331
X4.1146Y-3.5693
X4.1389Y-3.6571
X4.1453Y-3.4579
X4.2213Y-3.898
X4.2252Y-3.3677
X4.2291Y-3.9362
X4.2644Y-3.8516
X4.2909Y-3.3181
X4.3024Y-3.8969
X4.3031Y-3.9374
X4.3181Y-3.3874
X4.3205Y-3.861
X4.3335Y-3.452
X4.3469Y-3.7744
X4.3575Y-3.6504
X4.3606Y-3.735
X4.3661Y-3.4535
X4.3949Y-3.8563
X4.3976Y-3.6504
X4.4122Y-3.4917
X4.4445Y-3.711
X4.4449Y-3.6894
X4.4457Y-3.8713
X4.4469Y-3.8406
X4.4506Y-3.4126
X4.465Y-3.6894
X4.4654Y-3.711
X4.4693Y-3.5031
X4.4866Y-3.6902
X4.487Y-3.711
X4.4888Y-3.4126
X4.5104Y-3.8846
X4.515Y-3.8587
X4.5398Y-3.8067
X4.5817Y-3.4134
X4.5862Y-3.7394
X4.6169Y-3.7976
X4.6362Y-3.7535
X4.6732Y-3.7031
X4.6768Y-3.7311
X4.6815Y-3.7787
X4.6846Y-3.3886
X4.6858Y-3.4307
X4.7012Y-3.6949
X4.7142Y-3.4311
X4.7244Y-3.5669
X4.7453Y-3.6724
X4.7697Y-3.4106
X4.7701Y-3.6563
X4.7902Y-3.5319
X4.7965Y-3.6307
X4.7972Y-3.5563
X4.8126Y-3.4921
X4.8154Y-3.8516
X4.8175Y-3.83
X4.8181Y-3.3902
X4.8188Y-3.873
X4.8201Y-3.6585
X4.8354Y-3.9169
X4.8358Y-3.9508
X4.848Y-3.3496
X4.863Y-3.9087
X4.885Y-3.8937
X4.8862Y-3.3496
X4.9209Y-3.8894
X4.9224Y-3.7181
X4.924Y-3.6276
X4.9256Y-3.5579
X4.9299Y-3.7941
X4.935Y-3.6717
X4.9406Y-3.7004
X4.9465Y-3.8327
X4.9484Y-3.928
X4.9551Y-3.7622
X4.9874Y-3.9472
X4.9921Y-3.8122
X5.0118Y-3.8122
X5.0118Y-3.8319
X5.0118Y-3.8516
X5.0118Y-3.8713
X5.0217Y-3.4531
X5.0315Y-3.7925
X5.0315Y-3.8122
X5.0315Y-3.8319
X5.0315Y-3.8713
X5.0512Y-3.7925
X5.0512Y-3.8713
X5.0661Y-3.3217
X5.0709Y-3.8516
X5.0709Y-3.8713
X5.0732Y-3.3709
X5.0752Y-3.4154
X5.0752Y-3.4535
X5.0874Y-3.3217
X5.0874Y-3.3457
X5.0906Y-3.7409
X5.0913Y-3.702
X5.0961Y-3.9441
X5.1165Y-3.8319
X5.1181Y-3.376
X5.1283Y-3.7744
X5.1295Y-3.7016
X5.1819Y-3.4299
X5.1969Y-3.8882
X5.199Y-3.837
X5.235Y-3.3413
X5.235Y-3.3673
X5.235Y-3.3925
X5.2362Y-3.8882
X5.2598Y-3.3413
X5.2602Y-3.3673
T2
X3.5724Y-3.6614
X4.0071Y-3.6197
X4.048Y-3.5705
X4.0661Y-3.8705
X4.1433Y-3.4008
X4.3933Y-3.4272
X4.5728Y-3.839
T3
X5.0374Y-3.4949
X4.9579Y-3.4937
T4
X3.2441Y-3.3563
X3.2441Y-3.9075
T4
G00X5.3035Y-3.4075
M15
G01X5.3626Y-3.4075
M16
G05
G00X5.3035Y-3.8563
M15
G01X5.3626Y-3.8563
M16
G05
T0
M30
